<svg width="15" height="16" viewBox="0 0 15 16" fill="none" xmlns="http://www.w3.org/2000/svg" id="icon-moon">
<path d="M14.2831 12.9829C12.7138 12.9661 11.1923 12.468 9.94601 11.5632C8.69971 10.6584 7.79549 9.39539 7.36845 7.96284C6.94142 6.53029 7.01449 5.00512 7.57675 3.61522C8.139 2.22531 9.16027 1.04528 10.488 0.251429C9.81709 0.0860036 9.1269 0.00152696 8.43374 0C6.19697 0 4.05182 0.842855 2.47018 2.34315C0.888552 3.84344 0 5.87827 0 8C0 10.1217 0.888552 12.1566 2.47018 13.6569C4.05182 15.1571 6.19697 16 8.43374 16C9.70086 15.9989 10.951 15.7235 12.0889 15.1947C13.2268 14.6659 14.2225 13.8977 15 12.9486C14.7618 12.9715 14.5225 12.983 14.2831 12.9829V12.9829Z" fill="white"/>
</svg>
