<svg width="300" height="300" viewBox="0 0 300 300" fill="none" xmlns="http://www.w3.org/2000/svg">
<path fill-rule="evenodd" clip-rule="evenodd" d="M293.584 132.935C287.261 166.307 249.874 168.296 234.404 165.267C232.931 171.734 219.63 233.001 218.156 238.158C212.631 242.209 145.225 268.858 139.822 270.449C130.491 267.379 29.77 218.472 16.837 209.549C14.575 198.549 10.419 155.387 9.96597 140.449C9.86597 137.083 9.56597 137.695 13.301 135.612C16.2074 134.139 19.1963 132.835 22.253 131.706C23.21 131.33 23.942 132.667 22.992 133.156C20.742 134.316 18.552 135.568 16.392 136.902C13.231 138.86 12.84 139.74 16.251 141.144C46.751 153.703 141.436 191.66 143.705 191.293C146.161 190.883 226.722 165.6 231.985 163.28C234.645 160.311 259.323 95.092 263.958 63.198C277.582 70.072 300.992 93.839 293.584 132.935ZM114.817 154.285C114.784 154.122 114.704 153.972 114.587 153.853C114.47 153.734 114.322 153.651 114.159 153.615C113.997 153.579 113.827 153.59 113.671 153.648C113.514 153.706 113.378 153.808 113.279 153.942C112.635 154.942 111.523 159.942 111.138 161.432C110.508 163.879 110.898 165.866 111.238 168.441C111.385 169.92 111.666 171.383 112.08 172.811C112.156 172.997 112.292 173.153 112.466 173.254C112.64 173.356 112.842 173.397 113.042 173.372C113.241 173.346 113.427 173.256 113.57 173.114C113.713 172.973 113.805 172.788 113.833 172.589C113.685 171.14 113.455 169.701 113.145 168.278C112.733 166.196 112.733 164.053 113.145 161.971C113.535 160.421 114.911 155.541 114.817 154.285V154.285ZM113.327 150.378C111.417 148.64 107.675 146.397 105.359 144.631C105.192 144.486 104.975 144.412 104.755 144.425C104.534 144.437 104.327 144.535 104.177 144.698C104.028 144.86 103.947 145.075 103.953 145.296C103.959 145.516 104.05 145.726 104.208 145.881C105.915 147.539 110.2 151.036 112.308 151.826C112.5 151.924 112.721 151.95 112.93 151.898C113.139 151.847 113.323 151.721 113.447 151.545C113.571 151.369 113.627 151.153 113.605 150.939C113.583 150.725 113.484 150.525 113.327 150.378V150.378ZM101.306 142.616C98.74 145.808 96.112 148.969 93.695 152.275C93.5592 152.458 93.4997 152.687 93.5292 152.913C93.5587 153.139 93.6748 153.344 93.853 153.486C94.0312 153.628 94.2576 153.696 94.4845 153.674C94.7113 153.652 94.9209 153.543 95.069 153.37C97.98 150.162 100.683 146.757 103.451 143.426C103.861 142.934 116.182 139.915 117.201 139.647C120.771 141.658 124.221 143.877 127.531 146.292C124.196 148.108 119.956 149.313 116.453 150.866C116.266 150.973 116.124 151.144 116.051 151.346C115.979 151.549 115.981 151.771 116.057 151.973C116.133 152.174 116.279 152.342 116.468 152.446C116.656 152.549 116.876 152.582 117.087 152.539C117.62 152.376 128.976 148.523 129.147 148.35C130.758 150.968 132.162 153.707 133.347 156.543C127.463 159.126 121.449 161.4 115.328 163.355C114.233 163.721 114.898 165.266 115.964 164.993C121.701 163.536 127.331 161.689 132.816 159.463C130.861 163.801 128.241 167.602 126.251 171.831C126.177 172.019 126.172 172.228 126.237 172.42C126.303 172.612 126.435 172.774 126.609 172.877C126.783 172.981 126.988 173.019 127.188 172.985C127.388 172.951 127.569 172.846 127.699 172.691C130.145 169.616 132.116 165.574 134.074 162.106C135.466 159.641 136.754 157.861 135.62 155.162C134.686 152.909 133.544 150.749 132.209 148.708C131.254 147.098 129.977 145.702 128.458 144.608C125.428 142.318 122.227 140.263 118.884 138.461C118.372 138.171 117.805 137.99 117.22 137.931C116.635 137.873 116.043 137.936 115.484 138.119C111.349 138.977 107.264 140.065 103.25 141.378C102.106 141.775 102.072 141.663 101.306 142.616V142.616ZM107.252 161.471C103.443 159.21 99.093 157.013 95.152 154.806C94.226 154.288 93.346 155.234 93.887 156.429C94.707 158.242 98.687 167.293 100.417 168.716C101.145 169.316 102.374 168.516 101.893 167.754C99.9476 164.543 98.1802 161.228 96.599 157.823C99.6993 159.836 102.957 161.596 106.341 163.084C107.287 163.444 108.2 162.033 107.252 161.471V161.471ZM168.391 154.479C168.251 156.279 170.312 156.931 170.439 154.742C170.779 148.905 167.971 141.965 168.36 136.624C168.734 131.098 170.232 125.706 172.76 120.778C173.427 123.938 175.85 126.343 178.219 128.365C185.336 134.417 194.532 137.458 203.854 136.841C204.907 136.775 204.854 134.933 203.778 134.972C194.121 135.318 183.712 131.63 177.215 124.272C172.835 119.312 174.286 114.886 181.189 114.566C191.254 114.099 200.803 119.025 206.994 126.838C207.746 127.788 209.102 126.638 208.434 125.666C202.366 116.843 191.44 111.821 180.81 112.358C174.463 112.679 172.226 115.988 169.87 121.622C168.198 125.733 167.026 130.031 166.379 134.422C165.58 140.611 168.888 148.04 168.391 154.479V154.479ZM206.457 136.654C203.488 143.481 198.904 147.561 191.716 151.101C187.973 152.945 184.05 153.925 180.422 156.163C177.379 158.054 175.148 161.01 174.165 164.456C174.1 164.671 174.12 164.902 174.222 165.103C174.323 165.303 174.497 165.457 174.709 165.532C174.92 165.607 175.153 165.598 175.358 165.507C175.563 165.415 175.725 165.249 175.81 165.041C177.174 161.398 180.756 158.205 184.215 156.41C188.04 154.427 190.278 154.193 194.139 152.389C200.604 149.369 205.625 143.932 208.123 137.247C208.19 137.029 208.171 136.793 208.068 136.589C207.966 136.385 207.789 136.229 207.574 136.152C207.359 136.076 207.123 136.085 206.915 136.179C206.707 136.272 206.543 136.442 206.457 136.654V136.654ZM41.29 111.21C43.8653 114.294 46.2014 117.57 48.278 121.01C50.3888 124.377 52.1867 127.93 53.649 131.625C54.121 132.956 55.372 132.062 55.174 131.054C54.498 127.603 51.329 121.773 50.157 119.863C48.0051 116.302 45.4474 113.003 42.535 110.032C41.848 109.341 40.674 110.454 41.29 111.21ZM51.375 112.243C59.299 115.254 61.137 110.717 60.518 103.7C60.3453 100.343 59.5837 97.0423 58.268 93.949C57.816 93.003 56.459 93.712 56.662 94.639C57.4139 97.4244 58.0085 100.25 58.443 103.102C59.026 108.664 59.131 113.169 51.598 110.212C49.14 109.231 46.8829 107.808 44.939 106.012C44.7726 105.862 44.5548 105.781 44.3307 105.788C44.1066 105.794 43.8935 105.886 43.7359 106.046C43.5782 106.205 43.488 106.419 43.4841 106.643C43.4802 106.867 43.5629 107.084 43.715 107.249C45.8736 109.452 48.488 111.157 51.375 112.243V112.243ZM60.936 92.663C61.5947 96.1854 62.9107 99.5524 64.815 102.588C69.257 109.773 74.122 112.488 80.292 104.954C82.4433 102.346 83.7891 99.1687 84.165 95.809C84.288 94.661 82.665 94.574 82.428 95.641C81.8484 98.3842 80.6787 100.968 79 103.214C73.359 110.637 69.5 106.624 66.028 100.67C64.5422 98.0717 63.4284 95.2778 62.719 92.37C62.442 91.261 60.728 91.5 60.936 92.663ZM86.97 96.123C84.457 104.229 83.27 115.594 84.853 123.947C84.8832 124.169 84.9995 124.371 85.1768 124.508C85.3542 124.646 85.5784 124.708 85.8012 124.682C86.024 124.656 86.2276 124.543 86.3682 124.368C86.5088 124.193 86.5752 123.97 86.553 123.747C86.153 113.464 86.287 106.731 88.624 96.593C88.84 95.653 87.261 95.187 86.97 96.123V96.123ZM89.784 85.56C88.624 84.189 86.402 83.39 84.807 84.522C84.6561 84.64 84.5475 84.8036 84.4974 84.9885C84.4472 85.1733 84.4583 85.3694 84.5289 85.5475C84.5994 85.7255 84.7257 85.8759 84.8889 85.9763C85.052 86.0766 85.2432 86.1214 85.434 86.104C85.9791 85.9012 86.5776 85.8936 87.1277 86.0825C87.6778 86.2714 88.1454 86.6451 88.451 87.14C90.051 89.618 88.161 93.596 84.799 91.066C84.3398 90.773 84.0045 90.3213 83.857 89.797C83.7094 89.2727 83.76 88.7124 83.999 88.223C84.0747 88.0364 84.0813 87.8289 84.0179 87.6377C83.9544 87.4466 83.8249 87.2843 83.6526 87.1801C83.4803 87.0758 83.2765 87.0363 83.0777 87.0688C82.8789 87.1012 82.6982 87.2034 82.568 87.357C82.0824 88.0564 81.8551 88.9029 81.9252 89.7514C81.9953 90.6 82.3583 91.3977 82.952 92.008C87.767 97.273 93.842 90.354 89.784 85.56ZM60.773 89.829C61.2667 89.1889 61.5857 88.4316 61.6988 87.6312C61.8119 86.8308 61.7151 86.0148 61.418 85.263C61.1432 84.5011 60.6679 83.8275 60.0422 83.3132C59.4165 82.7989 58.6636 82.4631 57.863 82.341C56.2 82.1 53.936 83 53.407 84.7C53.338 84.8973 53.3394 85.1123 53.4108 85.3087C53.4822 85.505 53.6194 85.6707 53.7989 85.7775C53.9785 85.8844 54.1895 85.9259 54.3962 85.895C54.6029 85.8641 54.7925 85.7627 54.933 85.608C55.3159 85.0994 55.8503 84.7254 56.4593 84.5398C57.0683 84.3542 57.7204 84.3665 58.322 84.575C60.532 85.43 60.115 88.083 58.622 89.25C56.801 90.675 54.669 89.781 54.602 88.417C54.54 87.159 53.137 86.773 52.947 87.827C52.384 90.958 57.542 93.762 60.773 89.829ZM34.461 103.667C35.374 102.65 36.435 101.718 37.896 102.167C38.332 102.29 38.7281 102.525 39.0448 102.849C39.3616 103.173 39.5879 103.574 39.7011 104.012C39.8143 104.451 39.8106 104.912 39.6902 105.348C39.5698 105.785 39.337 106.182 39.015 106.501C38.6325 106.847 38.1327 107.036 37.6167 107.028C37.1007 107.02 36.6068 106.817 36.235 106.459C34.622 104.79 33.654 106.527 34.997 107.824C35.4679 108.28 36.0459 108.611 36.6778 108.785C37.3097 108.96 37.9753 108.974 38.6137 108.824C39.2521 108.675 39.8429 108.368 40.3317 107.931C40.8206 107.494 41.1921 106.942 41.412 106.324C41.6339 105.725 41.7319 105.087 41.7001 104.449C41.6682 103.811 41.5072 103.186 41.2267 102.612C40.9462 102.038 40.5521 101.526 40.0683 101.109C39.5845 100.692 39.021 100.377 38.412 100.184C36.258 99.475 33.219 100.684 32.812 103.075C32.798 103.273 32.8491 103.47 32.9574 103.636C33.0658 103.802 33.2255 103.929 33.4122 103.996C33.599 104.063 33.8025 104.067 33.9918 104.008C34.1811 103.948 34.3459 103.829 34.461 103.667V103.667ZM86 146.57C88.3633 146.633 90.6678 147.321 92.679 148.564C93.664 149.115 94.299 147.591 93.56 146.929C91.438 145.029 87.953 144.338 85.191 144.359C80.384 144.394 71.772 147.887 73.299 153.821C73.999 156.528 76.754 157.754 79.163 158.572C79.3913 158.647 79.6399 158.631 79.8568 158.527C80.0736 158.424 80.242 158.24 80.3267 158.015C80.4113 157.79 80.4058 157.541 80.3112 157.32C80.2166 157.099 80.0402 156.923 79.819 156.829C78.097 156.202 75.626 155.266 75.264 153.198C74.473 148.675 82.443 146.391 86 146.57ZM104.141 137.347C104.604 137.139 105.015 136.83 105.344 136.444C105.673 136.058 105.913 135.604 106.046 135.114C106.179 134.625 106.202 134.112 106.113 133.612C106.024 133.112 105.825 132.639 105.531 132.225C103.124 128.465 94.671 127.396 90.858 129.191C89.7321 129.699 88.7576 130.491 88.0299 131.489C87.3022 132.488 86.8464 133.658 86.707 134.885C86.5899 136.172 86.9431 137.457 87.7012 138.504C88.4592 139.55 89.5708 140.286 90.83 140.576C91.0646 140.625 91.3089 140.58 91.511 140.451C91.7131 140.322 91.857 140.12 91.9121 139.887C91.9672 139.654 91.9292 139.408 91.8061 139.203C91.683 138.997 91.4845 138.848 91.253 138.786C90.7859 138.643 90.3533 138.405 89.9817 138.088C89.6101 137.77 89.3076 137.38 89.0927 136.942C88.8778 136.503 88.7551 136.025 88.7323 135.536C88.7095 135.048 88.787 134.561 88.96 134.104C89.4039 133.043 90.1442 132.131 91.0922 131.48C92.0402 130.828 93.156 130.463 94.306 130.428C98.478 130.106 102.816 131.277 103.847 133.65C104.021 133.998 104.074 134.394 104 134.775C103.926 135.157 103.727 135.504 103.436 135.761C102.651 136.285 103.178 137.712 104.14 137.347H104.141ZM96.89 125.2C97.093 125.175 97.2807 125.079 97.4194 124.929C97.5582 124.779 97.6389 124.584 97.6474 124.38C97.6558 124.175 97.5913 123.975 97.4653 123.814C97.3394 123.652 97.1603 123.541 96.96 123.5C94.129 123.075 94.265 119.768 95.937 118.128C99.242 114.887 107.031 116.128 110.649 118.342C112.249 119.32 114.24 122.006 112.055 123.284C111.209 123.784 111.412 125.178 112.449 125.017C114.918 124.635 115.857 121.751 114.865 119.65C112.536 114.717 103.427 113.35 98.665 114.48C90.5 116.425 91.53 125.308 96.89 125.2ZM121.674 129.151C121.148 128.303 120.944 127.295 121.099 126.309C121.253 125.323 121.756 124.426 122.516 123.779C123.365 123.106 124.352 122.631 125.407 122.388C126.463 122.145 127.559 122.14 128.616 122.373C132.706 123.059 138.207 125.724 138.471 130.443C138.472 130.667 138.559 130.881 138.715 131.042C138.87 131.203 139.081 131.298 139.305 131.306C139.528 131.315 139.747 131.237 139.914 131.089C140.082 130.941 140.185 130.734 140.204 130.511C140.622 127.536 138.647 124.925 136.31 123.33C133.757 121.568 130.792 120.497 127.703 120.22C126.349 120.088 124.982 120.28 123.716 120.78C122.451 121.28 121.322 122.074 120.424 123.096C119.588 124.117 119.128 125.393 119.121 126.713C119.114 128.032 119.561 129.314 120.386 130.343C121.129 131.229 122.321 130.044 121.674 129.154V129.151ZM136.114 143.295C136.26 144.97 136.985 146.542 138.162 147.743C139.34 148.943 140.899 149.696 142.571 149.874C142.818 149.892 143.063 149.815 143.254 149.657C143.446 149.499 143.569 149.274 143.598 149.027C143.627 148.781 143.56 148.533 143.41 148.335C143.261 148.137 143.041 148.005 142.796 147.965C142.054 147.856 141.343 147.59 140.712 147.186C140.08 146.781 139.541 146.248 139.131 145.62C138.721 144.992 138.449 144.284 138.333 143.543C138.216 142.802 138.259 142.044 138.457 141.321C140.03 135.87 151.499 135.087 155.694 137.852C157.033 138.661 158.022 139.94 158.469 141.439C158.915 142.939 158.786 144.55 158.108 145.96C157.645 146.823 159.029 147.534 159.588 146.775C160.473 145.519 160.927 144.01 160.882 142.475C160.837 140.939 160.295 139.459 159.337 138.258C153.943 130.981 135.5 133.332 136.114 143.3V143.295ZM145.414 184.681C144.43 185.143 144.895 186.681 145.974 186.315C149.442 185.15 153.331 183.281 154.447 179.478C156.985 170.831 144.877 168.087 138.162 169.854C134.755 170.754 130.72 172.774 129.086 176.079C127.038 180.222 130.675 183.242 134.126 184.736C135.226 185.213 136.051 183.56 134.95 183.053C131.28 181.363 128.595 178.725 132.382 175.184C137.244 170.637 150.46 169.079 152.43 176.566C153.593 180.991 148.571 183.2 145.414 184.684V184.681ZM160.005 173.526C158.985 173.775 159.325 175.45 160.366 175.332C163.474 175.066 166.349 173.577 168.36 171.192C175.36 162.292 164.468 154.747 154.411 156.044C151.059 156.476 147.711 158.094 146.882 161.644C146.613 162.802 148.382 163.151 148.682 162.013C149.582 158.599 153.847 158.027 156.795 157.943C162.595 157.777 170.68 161.553 167.674 168.269C166.288 171.369 163.115 172.77 160.005 173.529V173.526ZM197.988 167.145C195.067 167.843 192.028 167.887 189.088 167.273C186.667 166.773 183.532 165.842 182.312 163.457C181.804 162.463 180.212 163.027 180.659 164.105C181.659 166.53 183.938 167.883 186.34 168.687C189.221 169.647 192.266 170.013 195.292 169.763C200.552 169.326 207.382 166.233 203.418 159.998C201.875 157.572 198.262 156.412 195.472 156.791C195.255 156.821 195.056 156.927 194.91 157.09C194.764 157.253 194.68 157.463 194.674 157.682C194.667 157.901 194.738 158.115 194.875 158.286C195.011 158.457 195.203 158.575 195.418 158.618C197.818 159.037 200.644 159.481 201.673 162.042C202.9 165.114 200.622 166.507 197.988 167.148V167.145ZM68.69 128.632C71.2286 127.622 73.9689 127.223 76.69 127.467C79.967 127.855 80.557 129.091 82.419 131.335C82.5437 131.459 82.7018 131.543 82.8739 131.578C83.046 131.612 83.2245 131.596 83.3874 131.531C83.5503 131.465 83.6906 131.354 83.7909 131.21C83.8912 131.066 83.9472 130.895 83.952 130.72C83.792 128.32 81.272 126.596 79.217 125.839C75.29 124.393 66.997 125.649 64.357 129.175C63.644 130.146 63.2022 131.289 63.0769 132.487C62.9516 133.686 63.1473 134.895 63.644 135.993C64.2265 137.184 65.1555 138.171 66.309 138.825C67.4625 139.479 68.7868 139.769 70.108 139.657C71.254 139.557 71.329 137.797 70.14 137.835C69.0192 137.884 67.917 137.537 67.0257 136.856C66.1344 136.175 65.5105 135.202 65.263 134.108C64.783 131.556 66.4 129.524 68.69 128.632ZM57.345 152.25C57.1243 152.218 56.8999 152.274 56.7196 152.405C56.5393 152.536 56.4174 152.732 56.3798 152.952C56.3423 153.172 56.3921 153.398 56.5185 153.581C56.645 153.765 56.8382 153.892 57.057 153.935C64.969 155.766 70.821 150.747 66.021 144.276C62.445 139.455 52.964 136.776 48.01 141.023C45.422 143.24 44.296 147.329 46.591 150.176C46.732 150.368 46.9426 150.496 47.1774 150.534C47.4123 150.572 47.6527 150.516 47.8468 150.379C48.041 150.241 48.1735 150.033 48.2158 149.799C48.2581 149.565 48.2068 149.324 48.073 149.127C46.501 146.355 48.073 143.078 50.781 141.793C54.849 139.866 61.666 142.058 64.393 145.616C68.751 151.3 62.11 152.949 57.345 152.25ZM39.821 141.394C40.902 141.164 40.747 139.324 39.644 139.646C36.617 140.532 30.544 140.889 30.235 136.58C29.935 132.296 37.135 129.61 40.521 129.559C42.887 129.524 46.929 130.472 46.23 133.681C46.2017 133.886 46.2475 134.095 46.3591 134.27C46.4706 134.445 46.6407 134.574 46.839 134.635C47.0372 134.696 47.2507 134.685 47.4412 134.603C47.6317 134.521 47.7869 134.374 47.879 134.188C48.951 131.429 46.813 128.973 44.279 128.154C35.879 125.44 23.489 133.868 29.925 140.433C32.122 142.677 36.606 142.081 39.821 141.394ZM16.827 112.885C17.0724 112.837 17.2887 112.693 17.4282 112.486C17.5678 112.278 17.6191 112.023 17.571 111.778C17.5228 111.533 17.3792 111.316 17.1716 111.177C16.964 111.037 16.7094 110.986 16.464 111.034C13.04 111.326 8.98897 111.456 5.67197 112.06C5.47447 112.108 5.30034 112.225 5.18017 112.389C5.05999 112.553 5.00144 112.754 5.01481 112.957C5.02818 113.16 5.11261 113.352 5.25327 113.498C5.39392 113.645 5.58182 113.738 5.78397 113.76C9.23297 113.783 13.325 113.2 16.827 112.885ZM14.858 87.978C18.233 89.731 21.701 91.339 25.171 92.894C26.213 93.361 26.871 91.777 25.861 91.272C22.461 89.564 19.029 87.888 15.54 86.378C14.5 85.929 13.876 87.468 14.858 87.978ZM47.934 75.035C48.0673 75.1792 48.2476 75.2714 48.4426 75.2951C48.6376 75.3188 48.8347 75.2725 48.9987 75.1644C49.1628 75.0564 49.2831 74.8935 49.3383 74.705C49.3934 74.5165 49.3799 74.3145 49.3 74.135C48.1454 71.76 46.8428 69.4598 45.4 67.248C45.2971 67.0523 45.1223 66.9042 44.9124 66.8348C44.7025 66.7655 44.4738 66.7804 44.2747 66.8763C44.0755 66.9723 43.9214 67.1418 43.8447 67.3492C43.7681 67.5566 43.775 67.7856 43.864 67.988C45.0702 70.4207 46.4296 72.7744 47.934 75.035V75.035ZM76.944 74.935C76.844 71.63 76.818 68.311 76.584 65.012C76.5728 64.8998 76.5397 64.791 76.4864 64.6917C76.4332 64.5923 76.3609 64.5044 76.2737 64.433C76.1865 64.3616 76.0861 64.3081 75.9782 64.2755C75.8704 64.2429 75.7571 64.2318 75.645 64.243C75.5328 64.2542 75.424 64.2873 75.3246 64.3405C75.2253 64.3938 75.1374 64.466 75.066 64.5532C74.9946 64.6404 74.9411 64.7408 74.9084 64.8487C74.8758 64.9566 74.8648 65.0698 74.876 65.182C74.851 68.491 75.039 71.807 75.148 75.114C75.186 76.272 76.979 76.089 76.944 74.932V74.935ZM94.073 76.2C95.214 73.007 96.564 69.606 97.494 66.373C97.5546 66.1586 97.5275 65.9288 97.4187 65.7344C97.31 65.5399 97.1284 65.3966 96.914 65.336C96.6995 65.2754 96.4698 65.3025 96.2753 65.4112C96.0809 65.52 95.9376 65.7016 95.877 65.916C94.589 69.027 93.522 72.525 92.422 75.734C92.063 76.781 93.7 77.232 94.073 76.2ZM59.785 252.489C58.608 252.214 58.04 253.566 59.225 254.055C61.388 254.949 65.743 256.634 64.185 259.83C62.544 263.196 55.176 263.691 51.791 263.33C48.228 262.946 42.491 260.696 46.064 256.218C48.317 253.394 52.576 253.532 55.824 253.579C56.943 253.595 57.124 251.907 55.984 251.823C52.145 251.544 47.784 251.485 44.9 254.487C39.909 259.675 45.036 264.787 50.86 265.543C55.353 266.127 63.586 265.243 65.936 260.92C68.262 256.635 63.485 253.351 59.785 252.489ZM46.385 238.144C42.624 235.901 37.685 236.462 33.796 238.12C32.527 238.661 33.317 240.39 34.58 240.053C37.627 239.238 40.68 238.236 43.82 239.264C49.783 241.211 50.02 247.692 41.727 249.074C38.8424 249.595 35.8819 249.52 33.027 248.856C29.202 247.665 29.449 244.447 31.603 241.856C32.325 240.989 31.075 240.156 30.332 240.976C28.102 243.449 27.024 247.426 29.926 249.855C32.494 252.005 37.542 251.927 40.698 251.601C50.416 250.6 53.975 242.672 46.383 238.144H46.385ZM16.185 253.514C15.9807 253.585 15.8082 253.726 15.6986 253.912C15.5889 254.098 15.5493 254.318 15.5867 254.531C15.6242 254.744 15.7363 254.936 15.9029 255.074C16.0696 255.212 16.2798 255.285 16.496 255.282C19.329 255.343 23.202 254.273 25.08 257.182C26.771 259.799 24.822 262.935 22.68 264.549C18.948 267.364 8.82597 268.761 7.51297 263.455C6.64597 259.955 10.447 257.569 12.968 256.103C14.007 255.503 13.024 253.953 11.984 254.528C8.83797 256.271 5.45797 258.651 5.42697 262.644C5.36797 270.393 18.227 270.22 23.527 266.472C26.407 264.434 28.718 260.872 27.427 257.242C25.844 252.809 20.056 252.245 16.178 253.514H16.185Z" fill="#4965EE"/>
<path fill-rule="evenodd" clip-rule="evenodd" d="M67.43 175.942C67.857 171.273 73.391 170.724 74.805 175.642C75.411 177.75 74.597 180.674 72.53 181.698C72.6405 183.139 72.5319 184.589 72.208 185.998C72.0529 186.235 71.8351 186.425 71.5787 186.546C71.3224 186.667 71.0376 186.714 70.7558 186.683C70.4741 186.652 70.2065 186.544 69.9827 186.37C69.7589 186.196 69.5876 185.963 69.488 185.698C69.2901 184.326 69.3066 182.931 69.537 181.564C67.876 180.634 67.175 178.723 67.43 175.942ZM143.639 198.18C142.008 220.557 141.048 243.029 140.054 265.442C140.005 266.565 141.762 266.824 141.842 265.635C143.35 243.287 144.663 220.754 145.415 198.371C145.453 197.236 143.723 197.023 143.639 198.18ZM20.761 153.77C32.496 159.959 42.635 163.465 55.426 168.745C56.505 169.19 57.255 167.518 56.168 167.068C42.884 161.568 32.597 158.017 20.268 151.594C20.1307 151.516 19.9757 151.474 19.8177 151.473C19.6597 151.471 19.504 151.51 19.3654 151.586C19.2269 151.662 19.11 151.772 19.0261 151.906C18.9422 152.04 18.8939 152.193 18.886 152.351C18.6249 160.977 18.8861 169.611 19.668 178.206C20.1781 185.922 21.1172 193.603 22.481 201.214C22.66 202.278 24.245 201.879 24.099 200.833C22.799 191.538 22.17 187.065 21.485 177.703C20.838 168.891 20.955 162.368 20.761 153.77ZM133.772 198.387C116.721 192.546 99.917 186.074 83.196 179.355C82.9979 179.267 82.7806 179.232 82.5649 179.252C82.3492 179.273 82.1423 179.348 81.9643 179.471C81.7862 179.595 81.6429 179.762 81.5481 179.957C81.4533 180.152 81.4102 180.368 81.423 180.584C81.287 185.422 80.667 193.384 80.355 196.204C73.6335 193.801 67.071 190.974 60.707 187.741C60.477 181.6 60.452 176.933 60.558 170.782C60.58 169.45 58.958 169.14 58.84 170.605C58.286 177.505 58.561 182.024 58.551 186.537C58.551 187.851 58.521 188.937 59.681 189.587C66.3818 193.213 73.4138 196.19 80.681 198.478C81.237 198.652 82.04 198.578 82.151 197.866C82.79 193.836 82.728 186.851 83.195 181.182C99.432 188.055 115.995 194.196 132.662 199.933C132.25 209.633 131.468 219.354 130.911 228.805C130.361 238.128 129.785 244.922 129.275 254.032C108.429 245.063 87.145 235.265 66.49 225.065C52.869 218.339 39.597 211.252 26.153 204.208C25.21 203.708 24.298 205.09 25.253 205.626C38.604 213.141 49.943 218.859 63.659 225.68C85.436 236.51 107.419 246.604 129.759 256.194C129.88 256.26 130.016 256.295 130.154 256.295C130.292 256.295 130.428 256.26 130.549 256.195C130.67 256.129 130.773 256.034 130.848 255.918C130.923 255.802 130.968 255.67 130.979 255.532C131.608 245.701 132.159 238.624 132.739 228.791C133.273 219.736 133.95 210.412 134.356 201.349C134.393 200.43 134.76 198.726 133.772 198.387ZM221.123 175.772C200.523 184.172 177.151 191.928 155.9 198.443C155.179 198.664 155.275 199.677 155.215 200.285C153.367 218.961 151.724 235.354 150.023 254.121C149.964 254.767 150.437 255.321 151.11 255.088C161.355 251.608 171.41 247.428 181.521 243.577C191.632 239.726 200.541 236.477 210.573 232.395C210.782 232.311 210.95 232.149 211.042 231.943C211.134 231.737 211.142 231.504 211.066 231.292C210.989 231.08 210.833 230.906 210.631 230.807C210.428 230.708 210.195 230.691 209.981 230.76C199.775 234.382 191.036 238.051 180.913 241.901C171.277 245.565 161.482 248.971 151.957 252.926C153.716 234.419 155.395 218.48 157.004 199.879C177.804 194.251 200.337 186.006 220.376 178C217.611 195.818 215.816 209.781 211.356 227.473C211.092 228.519 212.612 228.715 212.895 227.662C217.795 209.432 219.489 195.262 222.387 176.609C222.5 175.864 221.68 175.545 221.123 175.772ZM269.617 80.305C268.759 79.44 267.599 80.951 268.453 81.805C281.353 94.691 288.276 113.319 282.375 131.069C277.14 146.818 262.133 157.984 245.275 155.347C254.001 133.085 261.451 110.344 267.589 87.234C267.646 87.0147 267.615 86.7817 267.504 86.5845C267.392 86.3873 267.208 86.2412 266.991 86.1772C266.773 86.1132 266.539 86.1362 266.339 86.2414C266.138 86.3466 265.986 86.5258 265.915 86.741C259.403 109.924 252.304 132.871 243.473 155.278C243.246 155.854 243.079 156.687 243.897 156.85C257.438 159.55 271.617 152.913 279.214 141.596C292.661 121.569 285.576 96.375 269.617 80.305V80.305ZM261.293 62.377C257.893 84.232 232.181 159.477 229.145 160.547C226.109 161.617 206.083 154.217 201.233 151.847C210.073 143.747 222.065 124.947 201.294 113.687C180.962 102.67 165.194 108.346 163.351 132.412C157.769 125.297 149.225 127.152 145.296 128.544C144.816 118.044 127.258 113.406 119.721 118.169C112.406 108.162 97.791 108.592 91.529 113.258C94.312 101.799 116.147 30.688 117.988 29.583C119.829 28.478 257.3 60.463 261.293 62.377V62.377ZM108.759 100.955C107.866 98.4143 106.843 95.9207 105.696 93.484C105.586 93.3097 105.419 93.1795 105.223 93.1163C105.027 93.0531 104.814 93.061 104.624 93.1386C104.433 93.2161 104.275 93.3583 104.179 93.5404C104.082 93.7224 104.053 93.9326 104.096 94.134C104.992 96.6737 106.018 99.1656 107.17 101.6C107.555 102.484 109.109 101.869 108.759 100.955ZM120.515 91.855C120.693 90.916 119.158 90.574 118.874 91.481C117.967 94.381 117.253 97.802 116.58 100.791C116.372 101.717 117.967 102.084 118.221 101.164C119.055 98.142 119.933 94.93 120.515 91.855ZM130.154 100.299C128.849 102.14 127.175 103.689 125.239 104.848C124.314 105.423 125.052 106.901 126 106.359C128.273 105.176 130.192 103.41 131.559 101.243C131.621 101.151 131.664 101.047 131.686 100.938C131.708 100.829 131.708 100.717 131.687 100.608C131.665 100.499 131.622 100.395 131.561 100.303C131.499 100.21 131.42 100.131 131.328 100.069C131.236 100.007 131.132 99.964 131.023 99.9421C130.914 99.9202 130.802 99.9199 130.693 99.9414C130.584 99.9628 130.48 100.006 130.388 100.067C130.295 100.129 130.216 100.208 130.154 100.3V100.299ZM152.678 66.123C150.588 59.2403 147.012 52.9001 142.204 47.5498C137.396 42.1995 131.473 37.9695 124.852 35.158C124.638 35.0755 124.4 35.0794 124.189 35.1689C123.977 35.2584 123.809 35.4265 123.719 35.6376C123.63 35.8488 123.625 36.0867 123.708 36.3009C123.79 36.5152 123.952 36.6891 124.16 36.786C131.118 40.034 137.215 44.8733 141.957 50.9128C146.7 56.9524 149.955 64.0229 151.46 71.553C154.26 85.71 150.812 103.253 138.023 111.635C137.169 112.195 138.007 113.712 138.923 113.219C154.823 104.693 157.513 81.957 152.678 66.123ZM163.178 111.289C161.31 109.128 159.306 107.088 157.178 105.182C156.443 104.554 155.378 105.65 155.989 106.39C157.854 108.555 159.856 110.599 161.982 112.509C162.673 113.143 163.831 112.035 163.178 111.289ZM176.298 102.677C175.478 100.065 174.407 95.801 173.298 93.363C173.226 93.1744 173.089 93.0178 172.911 92.9217C172.734 92.8256 172.528 92.7964 172.331 92.8394C172.133 92.8824 171.958 92.9947 171.837 93.1559C171.715 93.3172 171.656 93.5166 171.669 93.718C172.48 96.9543 173.462 100.145 174.612 103.277C174.964 104.376 176.641 103.771 176.3 102.677H176.298ZM197.253 92.191C197.404 91.224 195.853 90.977 195.584 91.891C194.564 95.5201 193.74 99.2014 193.115 102.919C192.952 103.872 194.515 104.13 194.772 103.219C195.795 99.59 196.624 95.9087 197.253 92.191ZM217.659 103.031C218.23 102.331 217.115 101.203 216.359 101.912C214.236 103.891 211.892 106.565 209.959 108.771C209.788 108.923 209.684 109.138 209.671 109.366C209.657 109.595 209.736 109.82 209.888 109.991C210.04 110.162 210.254 110.266 210.483 110.279C210.712 110.293 210.937 110.214 211.108 110.062C213.23 107.922 215.772 105.351 217.659 103.031ZM225.85 144.3C223.219 143.78 220.633 143.055 218.116 142.13C217.011 141.73 216.302 143.094 217.403 143.547C220.024 144.593 222.733 145.404 225.498 145.971C225.61 146.001 225.727 146.008 225.842 145.991C225.957 145.974 226.067 145.934 226.166 145.873C226.265 145.812 226.35 145.732 226.417 145.637C226.484 145.542 226.53 145.435 226.554 145.321C226.578 145.207 226.579 145.09 226.556 144.976C226.533 144.863 226.487 144.755 226.421 144.659C226.356 144.564 226.271 144.483 226.173 144.421C226.074 144.359 225.965 144.318 225.85 144.3V144.3ZM228.283 122.184C225.482 122.315 222.693 122.63 219.934 123.128C219.689 123.139 219.458 123.246 219.29 123.425C219.123 123.605 219.032 123.842 219.037 124.088C219.043 124.333 219.144 124.566 219.319 124.738C219.494 124.91 219.73 125.006 219.975 125.007C222.857 124.841 225.725 124.484 228.56 123.938C228.759 123.869 228.928 123.732 229.037 123.55C229.145 123.369 229.187 123.156 229.154 122.947C229.121 122.739 229.015 122.548 228.856 122.409C228.697 122.271 228.494 122.192 228.283 122.188V122.184Z" fill="black"/>
</svg>
