<svg width="358" height="358" viewBox="0 0 358 358" fill="none" xmlns="http://www.w3.org/2000/svg">
<path fill-rule="evenodd" clip-rule="evenodd" d="M79.0666 59.8458C73.9186 64.6358 62.7741 319.327 79.7158 327.868C116.004 346.157 218.958 292.832 220.456 284.365C222.052 275.358 236.195 59.7718 221.131 31.5828C220.542 30.4838 217.621 28.3298 216.954 27.8286C203.889 18.0743 94.8878 45.1248 79.0666 59.8458Z" fill="#212121"/>
<path fill-rule="evenodd" clip-rule="evenodd" d="M217.373 27.2567C221.592 30.4047 221.805 30.9071 222.862 33.7246C234.89 66.7501 225.108 249.557 221.538 283.024C221.55 283.835 221.376 284.639 221.028 285.372C215.274 295.983 122.119 343.01 83.389 330.314C81.8749 329.815 80.4055 329.189 78.9963 328.443C61.6739 316.949 73.5702 66.8718 78.6944 59.7214L78.6777 59.7154C93.444 45.319 203.65 17.012 217.373 27.2567ZM205.194 26.4405C183.117 26.536 143.797 35.9335 121.541 42.5505C111.836 45.4407 86.7995 53.2905 79.3125 60.108C78.7098 61.5609 78.3471 63.1021 78.2385 64.6713C74.9497 86.8673 72.7206 152.62 72.112 177.193C71.8005 190.156 68.5833 320.301 80.0059 327.047C80.3149 327.232 81.593 327.807 82.346 328.102C108.03 338.35 160.824 317.281 185.699 305.262C192.686 301.906 214.197 290.994 219.063 285.063C219.378 284.761 219.573 284.353 219.61 283.918C221.422 271.05 234.458 68.3074 221.417 34.0205C221.134 33.2406 220.789 32.4847 220.385 31.7604C219.199 30.4879 217.882 29.3447 216.455 28.3498C213.941 26.5765 208.262 26.4405 205.194 26.4405ZM78.6777 59.7154L78.6944 59.7214C78.7147 59.6935 78.7366 59.6668 78.76 59.6414L78.6777 59.7154Z" fill="#212121"/>
<path fill-rule="evenodd" clip-rule="evenodd" d="M90.7602 63.0652C85.9224 67.8386 77.2301 318.662 91.3711 330.176C105.89 341.997 222.202 295.259 223.61 286.821C225.169 277.494 237.127 44.4731 220.316 31.1555C208.045 21.4358 105.626 48.3944 90.7602 63.0652Z" fill="white"/>
<path fill-rule="evenodd" clip-rule="evenodd" d="M220.021 30.1197C221.055 30.7224 221.89 31.6147 222.423 32.6865C236.446 57.5079 227.12 249.529 225.23 278.161C224.608 287.561 224.59 287.35 223.77 288.39C217.628 295.853 167.623 316.824 132.493 326.785C123.379 329.346 102.105 335.094 93.1134 332.071C92.1238 331.786 91.2227 331.255 90.4942 330.527C89.7657 329.799 89.2335 328.898 88.9475 327.909C79.6896 305.028 83.6407 171.445 84.5154 146.624C87.673 59.1129 90.7291 63.0437 90.3628 62.9483C104.191 48.5829 204.918 21.4668 220.021 30.1197ZM209.271 29.7676C188.347 29.8631 151.063 39.3787 130.054 46.022C121.051 48.886 97.8247 56.6582 91.0179 63.3158C86.3723 68.298 78.5977 311.529 91.4893 329.048C94.4857 332.948 108.535 330.534 113.363 329.625C137.059 325.04 170.347 312.787 192.406 303.252C198.894 300.434 216.425 292.642 221.695 287.939C222.806 286.907 222.72 286.76 222.813 285.925C224.807 266.951 235.497 49.7082 220.363 32.1782C218.319 29.8953 212.419 29.7676 209.271 29.7676ZM90.3663 62.9483H90.3831C90.4081 62.9137 90.4212 62.8969 90.4415 62.8707L90.3663 62.9483Z" fill="#212121"/>
<path fill-rule="evenodd" clip-rule="evenodd" d="M175.411 54.7872C189.987 51.7681 201.984 50.7752 205.299 53.6499C218.035 64.6942 208.974 257.964 207.795 265.705C206.728 272.704 118.605 311.468 107.605 301.664C96.8916 292.117 103.478 84.0799 107.142 80.1205C111.426 75.4927 127.163 67.4174 141.372 64.0498C143.759 63.483 142.389 69.9604 144.367 70.7719C150.581 73.3173 174.527 63.4926 175.513 61.7443C175.961 60.9424 175.778 58.0426 175.411 54.7872Z" fill="white"/>
<path fill-rule="evenodd" clip-rule="evenodd" d="M253.761 91.1327C253.403 90.7019 253.284 89.419 253.034 88.9262C252.293 87.4799 251.623 86.0407 251.02 84.5299C250.52 83.271 249.002 80.7196 249.979 79.0466C250.286 78.6637 250.713 78.3948 251.19 78.283C251.668 78.1711 252.169 78.2228 252.614 78.4296C253.309 78.7949 253.905 79.3226 254.352 79.9678C254.435 80.0776 254.568 80.6051 254.643 80.654C254.786 80.7471 254.534 80.2495 254.691 77.9368C254.827 75.895 254.629 73.4761 255.248 71.5071C255.4 71.0226 256.019 69.9558 256.719 70.0465C257.341 70.1264 257.894 70.9164 258.151 71.4319C258.995 73.6501 259.333 76.0285 259.141 78.3938C259.141 78.4785 259.185 78.784 259.129 78.8568C259.076 76.7224 259.469 74.6004 260.283 72.6264C260.626 71.7171 260.801 71.0751 261.795 70.8531C263.99 70.3758 264.137 73.5751 263.855 74.9797C263.432 77.0788 263.243 79.0764 263.268 78.8592C263.422 78.0316 263.745 77.2447 264.218 76.5479C264.69 75.8512 265.301 75.2596 266.013 74.8102C266.61 74.4701 267.777 74.1145 268.185 74.9164C268.928 76.3807 268.132 78.685 267.6 80.0597C266.613 83.3203 264.85 86.293 262.463 88.7233C261.764 89.7126 260.871 90.5491 259.838 91.1816C259.38 91.3797 253.761 91.1327 253.761 91.1327Z" fill="white"/>
<path fill-rule="evenodd" clip-rule="evenodd" d="M262.369 69.9054C264.478 70.0724 265.035 72.514 264.819 74.5916C266.937 72.8446 269.376 73.2181 269.317 76.4019C269.192 77.893 268.809 79.351 268.185 80.711C267.565 82.7374 266.571 84.6294 265.253 86.2887C264.096 87.7955 262.853 89.2346 261.531 90.599C261.077 91.0695 260.529 91.4384 259.922 91.6813C257.841 91.7238 255.76 91.6581 253.686 91.4844C253.605 91.4666 253.532 91.4215 253.479 91.3567C253.811 91.093 253.901 91.0226 253.479 91.3567C253.136 90.7006 252.886 89.9997 252.736 89.2744C252.662 89.0691 251.598 87.2266 250.532 84.7242C250.084 83.6896 249.805 83.2922 249.419 82.254C248.848 80.6418 248.787 78.674 250.309 77.8733C250.785 77.6466 251.309 77.5391 251.835 77.5599C252.362 77.5807 252.876 77.7292 253.333 77.9926C253.954 78.378 253.87 78.4795 253.878 78.2587C254.005 75.242 253.749 71.9949 254.911 70.292C256.129 68.465 258.225 68.8075 259.327 71.9866C259.512 72.5331 259.327 72.4269 259.804 71.3899C260.027 70.9087 260.393 70.508 260.852 70.2423C261.311 69.9766 261.84 69.859 262.369 69.9054ZM255.612 74.8219C255.373 80.5499 255.417 78.9902 255.414 79.4318C255.414 80.6609 255.533 80.7373 255.285 81.112C255.192 81.2367 255.063 81.3303 254.916 81.3806C254.768 81.4309 254.609 81.4354 254.459 81.3936C254.302 81.3444 254.161 81.2544 254.05 81.1329C253.939 81.0113 253.862 80.8624 253.827 80.7015C253.722 80.384 253.713 80.3649 253.707 80.3614C252.999 79.4437 252.316 78.7444 251.188 78.9699C250.965 79.0044 250.761 79.1126 250.607 79.2772C250.453 79.4419 250.358 79.6534 250.339 79.8781C250.046 81.2003 250.922 82.8721 251.413 84.0965C252.744 87.5751 253.322 88.4856 253.479 88.9367C253.664 89.4928 253.728 90.1467 253.928 90.6944C253.928 90.7052 253.956 90.7637 253.962 90.7732C254.901 90.7911 258.661 90.8448 259.595 90.7171C260.002 90.5204 260.367 90.2464 260.669 89.9104C261.095 89.4737 262.744 87.4366 262.959 87.1658C264.369 85.4335 265.503 83.4947 266.323 81.4175C266.863 79.7563 268.149 76.7098 267.412 75.3016H267.4C266.252 75.1107 264.356 77.279 264.145 78.8578C264.137 79.0551 264.072 79.2459 263.959 79.4079C263.836 79.5743 263.658 79.6921 263.456 79.7407C263.255 79.7893 263.043 79.7657 262.857 79.674C262.671 79.5819 262.523 79.429 262.437 79.2408C262.307 78.8613 262.334 78.631 262.708 76.0892C262.951 75.1902 263.058 74.2599 263.026 73.3291C263.031 72.7604 262.83 72.2092 262.459 71.7777C262.307 71.7044 262.132 71.6916 261.97 71.7419C261.853 71.7538 261.741 71.7975 261.646 71.8684C261.552 71.9393 261.478 72.0346 261.434 72.1441C261.163 72.7657 260.93 73.4033 260.736 74.0534C260.254 75.3556 260.014 76.7353 260.03 78.1239C260.013 78.7766 260.118 79.3005 259.561 79.6358C259.435 79.7103 259.294 79.7535 259.148 79.7617C259.003 79.7699 258.857 79.7428 258.724 79.6829C258.592 79.6229 258.475 79.5318 258.385 79.4172C258.295 79.3027 258.233 79.1681 258.206 79.0248C258.087 78.3088 258.583 75.1202 257.574 72.3422C257.2 71.3768 256.811 70.9949 256.626 70.9197C255.793 71.4865 255.663 73.7777 255.612 74.8219ZM259.65 90.71H259.665H259.65ZM259.65 90.71H259.672H259.654H259.669H259.65ZM255.272 80.2528V80.2432L255.281 80.2659L255.272 80.2456V80.2528ZM267.426 75.2992H267.418H267.426ZM267.426 75.2992H267.415H267.426ZM267.426 75.2992H267.418H267.426ZM267.426 75.2992H267.418H267.426ZM267.426 75.2992H267.416H267.426ZM267.426 75.2992L267.416 75.2921L267.426 75.2992ZM267.426 75.2992L267.415 75.2909L267.426 75.2992ZM267.426 75.2992L267.414 75.2897L267.426 75.2992ZM267.426 75.2992V75.2897V75.2992ZM267.426 75.2992L267.415 75.2897L267.426 75.2992ZM267.426 75.2992L267.414 75.2861L267.426 75.2992ZM267.426 75.2992L267.415 75.2885L267.426 75.2992ZM267.426 75.2992L267.415 75.2861L267.426 75.2992ZM267.426 75.2992L267.415 75.2861L267.426 75.2992Z" fill="#212121"/>
<path fill-rule="evenodd" clip-rule="evenodd" d="M203.084 150.925C205.829 150.515 208.34 148.314 210.913 147.345C221.987 143.236 231.451 135.687 237.918 125.804C242.198 119.178 245.018 111.761 248.062 104.546C249.544 101.301 250.737 97.9316 251.629 94.4775C251.907 93.2567 252.106 90.2173 252.969 89.3152C253.673 88.5813 256.106 89.1362 257.039 89.1433C257.92 89.1505 260.319 88.7209 260.984 89.3223C262.108 90.3366 261.566 92.9095 261.546 94.1852C261.476 99.1363 261.095 104.116 260.745 109.053C260.057 118.703 259.511 129.255 256.581 138.528C253.099 149.552 244.827 159.543 236.111 166.691C231.48 170.489 226.392 173.184 221.288 176.277C220.553 176.722 216.826 179.38 216.037 179.061C214.472 178.43 213.24 172.983 212.622 171.52C209.713 164.641 203.084 150.925 203.084 150.925Z" fill="white"/>
<path fill-rule="evenodd" clip-rule="evenodd" d="M203.029 150.564C205.608 150.147 207.875 148.135 210.632 146.976C224.706 141.466 234.454 132.069 240.942 118.874C243.398 113.88 248.828 100.698 249.811 97.7318C251.32 93.1243 250.905 92.147 251.601 90.0515C252.426 87.5801 254.022 87.9942 256.805 88.2483C257.606 88.308 258.872 88.0252 260.168 88.1445C260.65 88.1501 261.117 88.3109 261.501 88.6031C261.884 88.8952 262.163 89.3031 262.296 89.7663C262.62 91.1249 262.671 92.5346 262.445 93.9131C262.401 94.6625 262.456 95.4811 262.268 99.3392C262.116 102.485 261.178 116.62 260.631 121.91C259.904 128.899 258.735 136.082 256.038 142.572C252.569 150.361 247.562 157.368 241.317 163.173C234.031 170.094 229.717 172.072 221.64 176.862C220.254 177.733 217.634 179.571 216.332 179.726C214.236 179.883 213.009 174.475 212.265 172.222C211.237 169.166 202.748 151.09 202.725 150.97C202.716 150.909 202.725 150.847 202.749 150.79C202.773 150.733 202.811 150.683 202.861 150.647L202.912 150.613C202.949 150.594 202.99 150.58 203.031 150.574C203.074 150.855 203.112 151.1 203.029 150.564ZM253.589 89.925C252.917 90.7305 252.883 93.1768 252.184 95.8272C250.705 101.21 244.077 116.361 241.473 121.219C239.88 124.249 238.022 127.132 235.922 129.835C225.045 143.689 211.598 147.377 209.311 148.559C207.542 149.691 205.628 150.578 203.621 151.197C215.148 174.634 213.028 171.463 214.712 175.837C215.012 176.791 215.513 177.67 216.182 178.414C216.462 178.612 218.894 177.035 219.148 176.87C227.575 171.332 236.427 167.766 246.772 154.629C258.532 139.538 258.565 127.209 260.173 104.348C260.379 101.321 260.544 98.5003 260.625 95.5492C260.753 94.0093 260.798 92.4637 260.76 90.919C260.736 90.5932 260.622 90.2804 260.431 90.0157C260.129 89.6863 257.519 90.0753 256.668 90.0002C255.652 89.812 254.613 89.7867 253.589 89.925Z" fill="#212121"/>
<path fill-rule="evenodd" clip-rule="evenodd" d="M140.701 184.336C140.737 175.559 162.658 152.392 191.192 148.797C200.964 147.565 226.003 146.875 235.988 167.185C237.8 170.871 239.742 174.983 239.537 179.216C239.281 184.441 236.519 188.567 233.998 192.939C227.227 204.678 219.685 213.51 209.654 222.979C201.469 230.708 188.143 234.793 177.085 232.281C168.662 230.179 160.59 226.866 153.119 222.446C145.825 218.058 135.563 207.87 133.819 198.929C132.384 191.569 140.686 188.224 140.701 184.336Z" fill="white"/>
<path fill-rule="evenodd" clip-rule="evenodd" d="M223.86 153.086C229.807 156.437 234.518 161.612 237.298 167.847C238.383 169.971 239.254 172.197 239.897 174.493C241.723 181.733 238.605 186.96 234.76 193.424C231.585 198.952 227.965 204.212 223.935 209.151C220.212 213.701 211.812 222.811 207.109 226.255C199.153 232.14 187.588 235.324 177.443 233.203C172.232 231.973 167.155 230.23 162.287 228C153.434 224.028 146.416 219.624 139.831 211.465C137.26 208.424 135.253 204.949 133.904 201.202C132.851 197.936 132.807 195.206 134.842 192.108C136.865 188.957 140.288 186.673 140.341 184.337C140.341 180.711 143.643 175.969 145.911 173.149C151.419 166.624 158.042 161.129 165.471 156.92C187.513 144.314 210.73 145.617 223.86 153.086ZM189.969 149.744C174.912 151.908 160.429 159.816 150.372 169.667C147.04 172.945 141.147 179.679 141.064 184.345C141.064 188.599 132.631 191.618 134.41 199.348C136.351 207.114 144.208 215.368 150.667 220.003C157.525 224.941 171.869 230.93 180.09 231.958C186.862 232.638 193.692 231.446 199.833 228.512C206.488 225.354 209.722 221.9 215.046 216.417C224.342 206.761 228.911 199.919 234.881 189.645C238.402 183.489 239.886 179.224 237.452 172.648C236.345 169.748 234.97 166.957 233.347 164.311C224.397 150.581 205.984 147.444 189.972 149.743L189.969 149.744Z" fill="#212121"/>
<path fill-rule="evenodd" clip-rule="evenodd" d="M225.898 92.3188C225.898 92.3188 213.321 98.0922 209.133 110.861C207.57 115.627 202.45 120.368 197.5 119.238C195.023 118.672 194.103 117.404 190.923 117.546C186.377 117.752 182.289 129.231 190.247 130.146C191.456 130.166 192.664 130.057 193.85 129.822C193.669 131.693 193.885 133.581 194.484 135.362C195.083 137.144 196.052 138.779 197.327 140.16C198.091 140.952 204.161 143.747 204.675 144.678C205.574 146.31 201.93 148.642 201.511 149.938C200.769 152.213 203.848 156.304 205.247 157.641C207.616 159.901 210.949 160.505 213.29 157.687C213.993 156.877 214.484 155.906 214.72 154.86C214.957 153.814 214.931 152.726 214.646 151.692C214.219 150.53 212.088 147.879 213.744 146.569C214.393 146.055 216.011 146.633 216.755 146.584C218.718 146.37 220.646 145.91 222.495 145.217C229.984 142.718 235.911 135.211 238.352 127.952C240.244 122.318 241.791 115.071 241.454 109.159C241.372 107.727 241.846 104.708 240.969 103.533C239.941 102.154 237.26 101.895 235.83 101.006C232.011 98.7492 228.643 95.8036 225.898 92.3188Z" fill="white"/>
<path fill-rule="evenodd" clip-rule="evenodd" d="M225.745 91.9917C226.121 91.8557 226.124 92.0633 226.832 92.9464C229.513 95.9779 232.658 98.565 236.15 100.611C237.374 101.302 239.559 101.603 240.856 102.628C242.384 103.836 242.093 105.985 242.05 108.394C242.226 111.345 242.097 114.306 241.664 117.231C241.081 121.26 240.115 125.226 238.78 129.072C237.358 132.934 235.197 136.482 232.418 139.517C228.771 143.601 223.847 146.329 218.45 147.255C217.594 147.482 216.7 147.528 215.825 147.39C214.651 147.208 214.459 147.226 214.288 147.271C213.946 147.544 213.991 147.978 214.1 148.401C214.631 150.31 215.86 150.884 215.818 153.497C215.779 154.901 215.349 156.266 214.576 157.438C213.802 158.61 212.717 159.542 211.442 160.13C207.172 161.687 203.34 157.78 201.319 153.686C200.931 153.046 200.681 152.332 200.586 151.591C200.491 150.849 200.552 150.095 200.765 149.378C201.428 148.087 203.862 146.228 203.922 145.249C203.944 144.912 201.84 143.784 201.442 143.563C196.907 141.05 197.106 141.29 196.059 140.058C193.913 137.46 192.806 134.16 192.95 130.794C192.267 130.939 191.571 131.019 190.872 131.033C186.534 130.964 184.049 127.725 185.164 123.023C185.802 120.453 187.585 117.546 190.079 116.863C190.801 116.715 191.542 116.684 192.273 116.77C194.628 117.009 195.587 117.963 197.512 118.454C202.011 119.528 206.441 115.621 208.263 111.391C208.753 109.955 209.328 108.55 209.984 107.183C213.285 100.947 218.385 95.8478 224.621 92.5466C224.885 92.4034 225.473 92.1003 225.745 91.981C225.811 92.1314 225.878 92.2722 225.745 91.9917ZM194.241 129.045C194.907 129.452 194.686 129.834 194.677 131.146C194.628 134.053 195.647 136.876 197.541 139.081C198.121 139.742 198.056 139.713 201.202 141.406C202.514 142.069 203.774 142.83 204.971 143.683C205.201 143.862 205.387 144.091 205.515 144.353C205.643 144.615 205.71 144.903 205.709 145.194C205.755 147.144 203.047 148.981 202.407 150.115C202.002 150.861 202.715 152.475 203.102 153.228C206.842 160.141 211.605 159.931 213.517 155.582C215.139 151.706 212.456 151.047 212.228 148.064C212.191 147.639 212.262 147.212 212.436 146.822C212.609 146.432 212.879 146.093 213.22 145.836C213.657 145.544 214.182 145.411 214.706 145.459C216.393 145.54 216.514 146.288 222.297 144.348C229.713 141.809 235.356 134.525 237.875 126.909C239.894 121.169 240.893 115.12 240.827 109.036C240.794 107.657 241.185 104.808 240.51 103.863C239.744 102.789 237.491 102.417 235.955 101.651C232.053 99.3364 228.605 96.3311 225.779 92.7817C218.734 96.418 213.205 102.431 210.172 109.756C209.689 111.477 208.943 113.113 207.96 114.607C205.986 117.436 203.05 119.79 199.645 120.114C197.128 120.317 195.715 119.384 193.937 118.749C192.736 118.288 191.421 118.21 190.174 118.527C186.942 119.924 184.388 127.693 189.357 129.1C191.702 129.752 193.296 128.641 194.245 129.045H194.241Z" fill="#212121"/>
<path fill-rule="evenodd" clip-rule="evenodd" d="M197.647 140.336C196.221 140.897 194.722 141.252 193.196 141.392C192.564 141.552 191.915 141.632 191.263 141.631C189.314 141.52 187.629 140.587 185.773 140.126C177.76 138.136 169.293 134.816 165.157 126.952C164.106 124.688 163.317 122.311 162.806 119.868C162.01 117.337 161.734 114.671 161.995 112.03C162.988 105.825 168.626 100.732 169.345 94.6518C172.335 69.3364 198.939 65.1549 218.312 69.1216C226.552 70.809 246.348 84.5908 242.424 98.369C242.238 99.0194 241.987 103.62 241.112 103.556C238.828 103.395 227.48 96.5862 226.045 92.3462C226.045 92.3462 213.468 98.1172 209.28 110.885C207.716 115.651 202.597 120.392 197.647 119.262C195.17 118.696 194.25 117.427 191.069 117.57C186.524 117.776 182.434 129.255 190.394 130.17C191.603 130.19 192.81 130.081 193.995 129.846C193.814 131.716 194.031 133.605 194.63 135.386C195.229 137.168 196.199 138.803 197.474 140.183C197.527 140.239 197.585 140.29 197.647 140.336Z" fill="#212121"/>
<path fill-rule="evenodd" clip-rule="evenodd" d="M194.46 132.686C194.589 134.065 194.947 135.413 195.519 136.674C196.104 137.972 196.928 139.148 197.948 140.142C197.976 140.184 197.994 140.231 198.003 140.281C198.011 140.331 198.009 140.381 197.996 140.43C197.983 140.479 197.96 140.525 197.929 140.564C197.897 140.603 197.858 140.635 197.813 140.658L197.791 140.618L197.815 140.663C196.656 141.187 195.42 141.518 194.154 141.643C192.08 141.957 191.5 142.448 188.514 141.484C187.44 141.135 187.134 140.995 186.165 140.707C185.248 140.448 183.827 140.189 180.72 139.198C171.963 136.307 165.533 131.879 162.939 122.992C161.944 119.542 160.8 115.645 161.241 112.117C162.155 105.529 167.784 100.809 168.568 94.2616C170.977 75.21 186.742 66.8483 205.869 66.9342C210.364 66.9677 217.551 67.5739 221.719 69.2648C224.378 70.3814 226.911 71.7766 229.276 73.4272C237.762 79.3342 245.946 88.6123 243.274 98.6351C243.035 99.764 242.938 102.783 242.114 103.918C241.624 104.543 241.096 104.515 240.378 104.321C236.77 103.281 227.729 97.4239 225.628 93.5205C220.45 96.2938 216.044 100.313 212.808 105.215C210.043 109.598 210.336 111.301 208.528 114.131C207.008 116.587 204.743 118.493 202.064 119.571C197.279 121.242 195.363 118.448 192.059 118.189C191.578 118.105 191.085 118.126 190.614 118.251C190.142 118.376 189.704 118.602 189.328 118.913C185.911 121.677 184.436 129.426 190.908 129.739C192.32 129.763 193.752 129.262 194.195 129.452C194.765 130.01 194.203 129.995 194.46 132.686ZM191.898 70.4415C179.828 73.7947 172.076 81.5741 170.271 93.894C169.988 96.6163 169.096 99.2401 167.661 101.571C165.842 104.854 163.567 108.163 162.836 111.54C162.414 114.111 162.59 116.746 163.352 119.238C164.275 122.974 164.822 125.522 166.833 128.538C172.671 137.055 182.98 138.553 188.125 140.428C189.528 141.105 191.104 141.339 192.642 141.096C194.119 140.93 195.579 140.64 197.006 140.228C196.951 140.172 196.683 139.87 196.455 139.599C194.352 136.994 193.31 133.691 193.538 130.352C192.189 130.721 190.771 130.77 189.4 130.492C182.788 128.856 185.313 119.465 189.609 117.35C190.776 116.911 192.047 116.828 193.262 117.112C195.491 117.571 196.91 118.824 199.207 118.782C203.343 118.711 207.238 114.684 208.568 110.659C211.175 102.472 218.016 95.5468 225.101 91.8713C225.681 91.5694 226.294 91.1911 226.794 91.9465C227.068 92.6628 227.472 93.3216 227.988 93.8893C231.598 97.6038 235.919 100.555 240.692 102.568C240.842 102.615 240.811 102.62 240.837 102.552C241.222 101.367 241.401 98.8786 241.553 98.202C241.832 97.2251 241.993 96.2183 242.031 95.2031C242.237 89.5276 238.563 84.1051 234.548 80.1146C229.149 74.7136 222.282 70.9796 218.404 70.0751C209.658 68.154 200.587 68.2794 191.898 70.4415Z" fill="#212121"/>
<path fill-rule="evenodd" clip-rule="evenodd" d="M229.277 170.577C231.02 169.17 232.872 167.903 234.816 166.788C235.516 166.378 236.683 166.134 237.146 165.409C237.565 164.493 237.839 163.518 237.957 162.517C238.72 159.216 239.171 155.708 242.893 154.55C246.712 153.356 251.119 152.76 254.913 154.346C257.03 155.226 258.769 158.606 256.812 160.515C257.663 160.295 258.25 161.6 258.649 162.216C259.134 162.963 259.315 163.868 259.153 164.745C258.992 165.621 258.5 166.403 257.78 166.928C260.04 168.192 259.332 172.656 257.242 173.976C255.025 175.105 252.537 175.593 250.058 175.386C249.075 175.196 248.076 175.096 247.075 175.088C246.359 175.207 245.755 176.081 245.206 176.494C243.821 177.534 239.794 180.462 239.399 180.545C238.844 180.661 229.277 170.577 229.277 170.577Z" fill="white"/>
<path fill-rule="evenodd" clip-rule="evenodd" d="M249.981 152.532C252.137 152.554 255.163 153.027 256.736 154.516C257.366 155.083 257.854 155.789 258.163 156.577C258.472 157.366 258.593 158.216 258.517 159.059C258.242 160.747 257.885 159.482 258.771 160.712C259.173 161.286 259.522 161.896 259.815 162.533C260.086 163.245 260.171 164.014 260.061 164.768C259.951 165.522 259.651 166.235 259.188 166.84C259.124 166.92 259.122 166.882 259.203 166.982C259.636 167.632 259.92 168.371 260.035 169.144C260.15 169.917 260.093 170.706 259.867 171.454C259.683 172.394 259.243 173.265 258.596 173.972C257.95 174.678 257.121 175.193 256.201 175.46C254.032 176.167 251.739 176.414 249.469 176.186C248.687 175.966 247.872 175.887 247.063 175.953C246.623 176.281 246.208 176.64 245.819 177.027C245.411 177.358 240.983 180.488 239.873 181.074C239.695 181.192 239.481 181.242 239.269 181.217C239.057 181.192 238.861 181.092 238.716 180.935C237 179.604 230.59 172.562 229.128 170.95C228.976 170.798 228.898 170.711 228.927 170.5C228.943 170.422 228.985 170.353 229.046 170.302C230.338 169.197 231.702 168.18 233.128 167.255C234.055 166.6 235.047 166.043 236.089 165.594C236.327 165.468 236.532 165.286 236.684 165.063C236.836 164.841 236.932 164.585 236.964 164.317C237.328 161.92 237.916 159.563 238.72 157.276C240.125 154.393 242.121 153.816 245.201 153.087C246.769 152.724 248.372 152.538 249.981 152.532ZM239.607 179.921L239.59 179.913L239.609 179.925L239.594 179.914L239.612 179.924L239.597 179.916L239.607 179.921ZM247.617 174.227C248.964 174.447 250.328 174.547 251.693 174.525C253.531 174.512 255.334 174.024 256.928 173.11C257.569 172.491 258.003 171.69 258.172 170.816C258.34 169.942 258.235 169.037 257.871 168.224C257.463 167.612 257.231 167.842 256.943 167.269C256.866 167.079 256.857 166.867 256.917 166.671C256.977 166.474 257.102 166.304 257.272 166.188C257.727 165.852 258.058 165.375 258.213 164.831C258.368 164.287 258.338 163.707 258.129 163.182C257.835 162.535 257.447 161.934 256.977 161.401C256.891 161.415 256.804 161.42 256.717 161.414C256.509 161.392 256.315 161.297 256.169 161.147C256.023 160.997 255.934 160.8 255.917 160.592C255.917 159.729 256.657 159.843 256.764 158.638C256.768 158.138 256.672 157.642 256.482 157.179C256.292 156.717 256.012 156.296 255.657 155.943C254.495 154.75 251.99 154.331 250.323 154.264C248.254 154.213 246.189 154.469 244.195 155.025C242.126 155.571 240.798 156.07 239.75 158.55C238.94 160.467 238.35 164.129 237.96 165.103C237.841 165.442 237.652 165.752 237.405 166.013C237.159 166.274 236.86 166.48 236.528 166.618C234.868 167.255 233.303 168.114 231.874 169.173C231.215 169.608 230.54 170.076 229.83 170.621C231.437 172.229 237.557 178.328 239.341 179.736C239.416 179.795 239.387 179.795 239.469 179.736C240.861 178.814 244.459 176.07 244.745 175.842C245.537 175.212 245.953 174.198 247.617 174.227Z" fill="#212121"/>
<path fill-rule="evenodd" clip-rule="evenodd" d="M131.838 186.193C120.59 189.016 124.631 206.627 128.795 213.455L131.838 186.193Z" fill="white"/>
<path fill-rule="evenodd" clip-rule="evenodd" d="M132.193 186.104L131.929 186.547C130.863 186.871 129.873 187.404 129.015 188.114C128.157 188.825 127.448 189.698 126.93 190.684C126.05 192.435 125.554 194.354 125.474 196.312C125.411 201.6 126.406 206.848 128.399 211.746C129.191 213.656 129.17 212.986 128.984 213.766C128.432 213.628 128.516 213.683 128.434 213.564C122.356 204.936 120.564 187.936 131.749 185.84L132.193 186.104Z" fill="#212121"/>
<path fill-rule="evenodd" clip-rule="evenodd" d="M134.118 221.428C137.223 228.255 142.865 233.605 149.847 236.344L134.118 221.428Z" fill="white"/>
<path fill-rule="evenodd" clip-rule="evenodd" d="M134.449 221.277C138.113 227.566 143.5 232.676 149.973 236.002L150.189 236.466L149.722 236.676C144.728 235.316 140.339 232.311 137.267 228.146C135.734 226.177 134.556 223.956 133.785 221.583L133.967 221.105L134.449 221.277Z" fill="#212121"/>
<path fill-rule="evenodd" clip-rule="evenodd" d="M166.439 241.642C175.628 246.464 192.069 246.284 199.875 238.426L166.439 241.642Z" fill="white"/>
<path fill-rule="evenodd" clip-rule="evenodd" d="M200.128 238.68C192.678 247.243 175.833 247.734 166.271 241.964L166.117 241.473L166.608 241.318C175.525 245.235 189.901 245.017 198.112 239.354C200.064 237.991 199.208 238.173 200.126 238.168L200.128 238.68Z" fill="#212121"/>
<path fill-rule="evenodd" clip-rule="evenodd" d="M225.638 93.1196C225.888 95.6201 225.506 98.1432 224.527 100.458C223.548 102.772 222.003 104.803 220.035 106.366" fill="white"/>
<path fill-rule="evenodd" clip-rule="evenodd" d="M226.001 93.091C226.754 96.2381 226.258 99.5546 224.618 102.344C223.61 104.17 222.095 105.665 220.256 106.647L219.748 106.586C219.841 105.879 219.68 106.282 220.448 105.376C222.309 103.177 223.676 100.602 224.456 97.8285C224.868 96.2959 225.141 94.7296 225.274 93.1483L225.609 92.7568L226.001 93.091Z" fill="#212121"/>
<path fill-rule="evenodd" clip-rule="evenodd" d="M227.476 95.8245C227.47 95.4665 228.985 97.8173 229.338 98.4295C229.963 99.5264 230.345 100.745 230.459 102.002C230.573 103.259 230.417 104.526 230 105.717" fill="white"/>
<path fill-rule="evenodd" clip-rule="evenodd" d="M227.295 96.1063L227.311 96.1194L227.298 96.1027L227.315 96.1158L227.307 96.1087L227.322 96.1182L227.315 96.1123L227.332 96.1242L227.355 96.1373L227.386 96.1504L227.427 96.1636H227.421H227.454L227.126 95.8235V95.8008C227.126 95.7718 227.129 95.7429 227.137 95.7149C227.137 95.7065 227.156 95.6564 227.158 95.6492C227.272 95.444 227.497 95.2757 227.924 95.6111C228.922 96.3644 229.745 97.324 230.337 98.4243C230.93 99.5246 231.278 100.74 231.359 101.987C231.423 103.28 231.106 104.562 230.448 105.677C230.337 105.88 230.448 105.796 229.897 106.066C229.523 105.287 229.747 105.958 229.747 104.525C229.755 104.118 229.741 103.71 229.705 103.304C229.678 101.53 229.198 99.7928 228.31 98.2567C228.112 97.8736 227.483 96.4082 227.322 96.1397L227.33 96.1481L227.295 96.1063ZM227.84 95.8271L227.498 96.1564H227.521C227.567 96.1541 227.612 96.1423 227.653 96.1218C227.694 96.1013 227.73 96.0724 227.76 96.0371L227.806 95.9726L227.832 95.913L227.847 95.864V95.8259V95.8247L227.84 95.8271Z" fill="#212121"/>
<path fill-rule="evenodd" clip-rule="evenodd" d="M216.978 115.745C216.978 117.048 216.924 117.052 216.915 118.33L216.978 115.745Z" fill="white"/>
<path d="M216.978 115.745C216.978 117.048 216.924 117.052 216.915 118.33" stroke="black" stroke-width="2.126" stroke-linecap="round" stroke-linejoin="round"/>
<path fill-rule="evenodd" clip-rule="evenodd" d="M235.738 114.963C235.756 115.826 235.751 115.945 235.719 116.959L235.738 114.963Z" fill="white"/>
<path d="M235.738 114.963C235.756 115.826 235.751 115.945 235.719 116.959" stroke="black" stroke-width="2.126" stroke-linecap="round" stroke-linejoin="round"/>
<path fill-rule="evenodd" clip-rule="evenodd" d="M226.312 113.689C226.885 116.392 227.783 118.812 228.619 122.217C227.677 122.847 226.649 123.337 225.566 123.671" fill="white"/>
<path fill-rule="evenodd" clip-rule="evenodd" d="M229.001 122.973C227.964 123.541 226.825 123.897 225.65 124.021L225.212 123.757L225.48 123.322C226.247 122.923 226.97 122.447 227.639 121.9C226.695 119.282 226.129 116.543 225.956 113.765L226.237 113.333L226.67 113.613C227.805 116.098 228.69 118.69 229.31 121.35C229.455 122.053 229.657 122.608 229.001 122.973Z" fill="#212121"/>
<path fill-rule="evenodd" clip-rule="evenodd" d="M232.632 127.675C232.632 127.675 221.878 129.703 216.641 128.763C216.299 131.331 215.853 134.177 217.41 136.485C219.116 139.013 223.54 139.48 226.071 138.217C230.033 136.238 233.017 132.46 232.632 127.675Z" fill="white"/>
<path fill-rule="evenodd" clip-rule="evenodd" d="M232.914 127.768C233.068 129.325 232.87 130.897 232.334 132.367C231.798 133.837 230.938 135.167 229.817 136.26C228.449 137.694 226.736 138.753 224.841 139.334C222.942 139.769 220.954 139.574 219.176 138.78C215.715 137.109 215.339 133.709 215.835 129.904C216.015 128.526 215.989 128.536 216.184 128.306C216.274 128.218 216.387 128.156 216.509 128.127C216.632 128.098 216.76 128.104 216.88 128.144C220.818 128.811 228.733 127.979 232.584 127.406H232.63C232.78 127.417 232.885 127.462 232.914 127.768ZM217.207 129.503C216.928 131.799 216.674 134.174 217.974 136.106C219.228 137.922 222.032 138.48 224.223 138.124C225.415 137.901 226.538 137.4 227.501 136.663C228.807 135.851 229.917 134.758 230.75 133.465C231.584 132.171 232.119 130.709 232.318 129.183C232.359 128.794 232.377 128.403 232.372 128.011C228.072 128.929 221.557 130.007 217.207 129.503Z" fill="#212121"/>
<path fill-rule="evenodd" clip-rule="evenodd" d="M252.349 133.082C250.417 132.535 248.391 132.408 246.405 132.707C241.821 133.725 238.052 139.346 240.145 143.878C241.306 146.394 245.584 149.064 249.703 148.853C250.215 148.826 251.272 148.896 251.582 148.423C252.861 146.484 251.861 142.472 251.976 140.248C252.098 137.876 252.349 133.082 252.349 133.082Z" fill="#212121"/>
<path fill-rule="evenodd" clip-rule="evenodd" d="M247.917 131.959C249.441 132.045 250.949 132.301 252.415 132.724C252.839 132.833 252.713 132.879 252.667 138.152C252.667 138.433 252.63 140.121 252.637 140.521C252.723 142.927 253.752 146.809 252.271 148.956C251.664 149.76 250.537 149.715 249.463 149.744C246.71 149.772 244.03 148.864 241.861 147.168C240.481 146.234 239.461 144.857 238.972 143.263C237.482 138.21 241.914 131.959 247.917 131.959ZM245.769 133.562C242.421 134.916 239.771 138.877 240.578 142.435C240.853 143.612 241.533 144.654 242.5 145.379C243.958 146.635 245.727 147.476 247.621 147.815C248.702 148.009 249.806 148.03 250.894 147.877C251.879 146.254 251.132 142.442 251.31 140.217C251.969 132.818 252.026 133.415 251.885 133.389C249.673 133.064 247.91 132.739 245.772 133.562H245.769Z" fill="#212121"/>
<path fill-rule="evenodd" clip-rule="evenodd" d="M245.433 147.762C244.858 149.389 244.541 151.097 244.494 152.822C244.266 154.306 244.215 155.811 244.34 157.306C245.038 160.941 251.5 160.91 253.564 158.643C254.587 157.52 254.055 153.87 254.002 152.413C253.976 151.697 254.286 148.952 253.724 148.527C253.075 148.035 251.892 148.309 251.156 148.331C249.765 148.372 245.433 147.762 245.433 147.762Z" fill="#212121"/>
<path fill-rule="evenodd" clip-rule="evenodd" d="M245.482 147.407C247.447 147.606 249.422 147.686 251.396 147.645C252.077 147.499 252.779 147.48 253.468 147.588C253.801 147.645 254.107 147.807 254.34 148.052C254.574 148.297 254.722 148.61 254.762 148.946C254.881 149.629 254.927 150.322 254.898 151.014C254.836 151.938 254.864 152.865 254.982 153.784C255.159 156.027 255.326 158.336 253.897 159.581C251.432 161.729 245.791 161.748 244.009 158.737C243.418 157.432 243.278 155.966 243.613 154.573C243.769 152.199 244.268 149.86 245.095 147.63C245.135 147.635 245.144 147.385 245.482 147.407ZM245.145 152.087C245.115 152.206 244.999 155.755 245.001 155.876C244.94 156.341 244.991 156.814 245.149 157.256C245.308 157.697 245.57 158.094 245.914 158.414C246.937 159.035 248.117 159.349 249.313 159.321C250.509 159.293 251.673 158.923 252.666 158.255C253.779 157.328 253.037 154.25 253.187 151.188C253.257 150.488 253.25 149.781 253.167 149.082C252.403 148.944 251.623 148.909 250.849 148.977C249.524 148.896 247.13 148.452 245.681 148.176C245.334 149.451 245.153 150.766 245.145 152.087ZM253.236 149.13L253.223 149.118L253.253 149.143L253.241 149.131L253.267 149.152L253.219 149.113L253.236 149.13Z" fill="#212121"/>
<path fill-rule="evenodd" clip-rule="evenodd" d="M304.128 159.317C298.925 158.601 283.467 155.31 276.323 153.92C269.983 152.686 252.904 148.651 252.457 147.964C251.723 146.847 252.135 140.822 252.286 133.865C255.697 132.132 300.891 107.031 301.159 107.091C316.748 110.554 314.134 157.121 304.128 159.317Z" fill="#212121"/>
<path fill-rule="evenodd" clip-rule="evenodd" d="M301.264 106.219C306.825 107.49 309.766 113.324 311.219 118.82C314.279 130.093 313.23 151.907 306.552 158.364C305.895 159.062 305.025 159.524 304.078 159.677V159.666C304.039 159.888 274.801 154.625 260.099 151.058C252.148 149.113 251.933 148.861 251.626 148.207C250.902 146.595 251.221 140.754 251.326 137.878C251.415 133.449 251.371 133.774 251.506 133.463C251.733 133.105 251.702 133.198 253.386 132.285C266.665 125.062 300.321 106.189 301.264 106.219ZM253.145 134.403L253.069 137.928H253.06C252.981 139.811 252.665 145.716 253.113 147.384C258.61 149.685 298.744 158.149 304.122 158.949C305.441 158.465 306.54 157.519 307.214 156.286C311.288 149.962 312.013 136.704 311.304 128.548C310.625 121.261 308.275 109.886 301.245 108.014C299.288 108.99 259.482 131.05 253.145 134.403Z" fill="#212121"/>
<path fill-rule="evenodd" clip-rule="evenodd" d="M322.065 101.727C323.775 102.415 325.439 103.212 327.046 104.114C327.769 103.104 329.628 99.9156 330.412 99.1518C330.531 99.0282 330.674 98.932 330.834 98.8701C330.993 98.8082 331.164 98.7822 331.335 98.7938C333.177 99.0525 334.962 99.6248 336.611 100.486C337.261 99.5695 337.923 98.4955 338.729 97.3833C340.757 94.5885 341.18 94.7019 342.361 95.2783C343.924 96.0712 345.396 97.0315 346.752 98.1423C346.871 98.2616 346.826 98.1614 346.847 98.7294C345.903 98.7604 346.958 98.9036 344.428 97.6172C343.468 97.1219 342.48 96.6835 341.469 96.3045C341.305 96.4672 341.155 96.6423 341.019 96.8284C338.821 99.801 337.977 102.714 336.596 102.383C334.992 101.657 333.33 101.066 331.627 100.616C331.498 100.603 331.546 100.575 331.41 100.751C330.217 102.334 328.546 105.327 327.794 105.844C326.891 106.369 326.095 105.42 322.091 103.257C321.47 104.092 319.298 107.553 318.76 108.519L318.273 108.688C318.083 108.144 318.083 108.251 318.132 108.132C318.455 107.381 319.272 105.701 319.694 104.848C321.126 101.984 321.391 101.646 322.065 101.727ZM327.449 104.29H327.465H327.446H327.449ZM322.295 103.009H322.303H322.295ZM322.295 103.009L322.318 102.988L322.306 102.998L322.329 102.978L322.319 102.985L322.332 102.97C322.318 102.981 322.305 102.993 322.293 103.005L322.295 103.009ZM341.281 96.2651H341.267H341.292H341.277H341.306H341.316C341.287 96.2651 341.3 96.2652 341.263 96.258L341.281 96.2651Z" fill="#212121"/>
<path fill-rule="evenodd" clip-rule="evenodd" d="M347.426 127.767C348.395 128.072 351.64 131.897 352.052 132.916L351.883 133.393C350.987 133.071 351.925 133.545 350.155 131.769C349.269 130.896 348.335 130.074 347.357 129.307C347.118 129.131 347.17 129.151 347.048 129.203C346.609 129.423 346.188 129.676 345.787 129.96C339.789 134.108 341.716 134.119 337.983 130.717C337.47 130.23 336.904 129.803 336.296 129.443C335.451 129.909 333.63 131.273 332.008 132.343C330.49 133.31 330.337 133.127 329.068 131.569C328.06 130.318 327.232 129.182 326.554 128.39C325.631 128.96 322.52 131.228 321.576 131.979C321.457 132.071 321.576 132.041 320.988 132.012C321.015 131.428 320.968 131.545 321.084 131.425C322.695 129.844 324.4 128.363 326.192 126.99C326.317 126.904 326.463 126.854 326.615 126.845C326.767 126.836 326.918 126.869 327.052 126.94C327.887 127.397 330.201 130.4 330.835 131.032C332.453 129.8 334.145 128.669 335.901 127.642C336.055 127.588 336.219 127.566 336.382 127.578C336.545 127.59 336.704 127.635 336.848 127.712C338.437 128.64 339.86 129.825 341.061 131.22C342.579 130.265 346.144 127.468 347.426 127.767ZM331.155 131.361L331.139 131.348L331.155 131.361ZM347.009 129.079H346.996L347.02 129.09H347.006L347.036 129.102H347.024L347.042 129.108L346.991 129.084L347.009 129.079ZM326.842 128.234H326.849H326.842ZM326.842 128.234L326.871 128.225H326.856L326.884 128.214L326.902 128.206C326.879 128.212 326.856 128.221 326.835 128.231L326.842 128.234Z" fill="#212121"/>
<path fill-rule="evenodd" clip-rule="evenodd" d="M324.317 152.223C324.463 152.238 324.603 152.286 324.727 152.364C324.851 152.442 324.956 152.547 325.033 152.671C325.698 153.532 327.329 156.848 327.583 157.25C329.015 156.707 331.717 155.46 332.903 155.139C333.57 154.967 333.87 155.05 334.541 155.631C335.699 156.857 336.698 158.224 337.513 159.7C338.878 159.223 342.507 157.541 344.058 157.637C344.202 157.636 344.345 157.669 344.474 157.733C344.603 157.797 344.715 157.891 344.802 158.006C346.089 159.733 347.111 161.643 347.835 163.673C347.866 163.817 347.897 163.723 347.585 164.217C346.845 163.74 347.459 164.182 346.391 162.464C345.644 161.266 344.813 160.122 343.906 159.041C342.972 159.284 342.063 159.615 341.192 160.029C337.761 161.504 337.003 162.115 336.262 161.05C335.443 159.633 334.492 158.296 333.422 157.057C333.234 156.884 333.28 156.903 333.161 156.938C331.861 157.349 328.671 158.79 327.657 159.039C327.482 159.103 327.294 159.119 327.11 159.087C326.927 159.054 326.756 158.973 326.614 158.853C325.991 158.239 324.815 155.287 323.989 153.722C322.902 154.094 319.156 155.716 318.254 156.159L317.758 156.021L317.896 155.525C318.587 155.091 323.46 152.214 324.317 152.223ZM343.78 158.924H343.768L343.79 158.94L343.777 158.93L343.803 158.949L343.792 158.942L343.808 158.952L343.765 158.918L343.78 158.924ZM327.821 157.639L327.807 157.623L327.821 157.639ZM324.298 153.632C324.298 153.632 324.298 153.632 324.306 153.632H324.298ZM324.298 153.632H324.329H324.313H324.343H324.331H324.35C324.334 153.63 324.317 153.629 324.3 153.63L324.298 153.632Z" fill="#212121"/>
<path fill-rule="evenodd" clip-rule="evenodd" d="M150.686 188.666C152.17 198.322 150.633 213.805 181.417 224.677C217.005 237.245 244.253 183.541 243.673 181.624C243.064 179.617 240.898 177.913 239.713 176.254C237.943 173.859 236.03 171.573 233.985 169.408C233.401 168.766 232.403 167.304 231.621 166.994C230.936 166.723 229.903 167.485 229.319 167.71C227.202 168.537 225.036 169.142 222.927 169.997C218.822 171.668 214.573 172.727 210.385 174.119C207.2 175.178 203.207 176.57 199.764 175.719C199.048 175.543 195.11 165.465 192.952 162.773" fill="white"/>
<path fill-rule="evenodd" clip-rule="evenodd" d="M234.5 168.737C235.216 169.551 237.173 171.565 239.309 174.274C240.372 175.648 240.491 175.898 241.056 176.549C241.961 177.606 244.755 180.338 244.543 181.946C244.055 183.571 243.4 185.141 242.588 186.63C239.73 192.113 236.396 197.334 232.625 202.234C220.415 218.056 203.269 231.484 183.901 226.306C179.64 225.027 175.501 223.369 171.534 221.354C165.71 218.404 160.167 214.524 156.36 209.287C151.651 202.703 151.293 196.995 150.476 189.871C150.306 188.457 150.237 188.851 150.632 188.306C151.119 188.664 151.033 188.51 151.109 188.981C151.984 194.394 151.955 201.475 157.315 208.586C162.983 216.098 173.297 221.165 182.205 224.083C187.9 226.002 194.026 226.246 199.855 224.785C216.14 220.652 230.066 204.647 238.572 190.234C240.142 187.659 241.511 184.967 242.667 182.183C242.722 182.042 242.765 181.898 242.796 181.751C242.199 180.037 240.446 178.733 238.78 176.422C237.504 174.673 236.284 173.233 234.867 171.619C231.571 167.902 232.06 168.226 231.331 167.744C230.884 167.837 230.457 168.006 230.068 168.244C228.836 168.86 225.618 169.735 223.221 170.688C219.546 172.142 216.316 172.963 212.163 174.224C209.031 175.179 206.048 176.347 202.815 176.513C201.692 176.576 200.566 176.455 199.481 176.155C198.603 175.594 196.563 170.112 194.244 165.608C192.506 162.288 192.639 163.423 192.745 162.496L193.251 162.556C195.346 165.113 198.905 173.822 200.001 175.244C201.373 175.51 202.783 175.513 204.155 175.253C206.03 174.927 206.951 174.679 218.253 170.947C221.697 169.787 222.223 169.458 223.873 168.836C225.415 168.265 226.294 167.991 227.678 167.494C228.527 167.227 229.346 166.873 230.121 166.436C232.182 165.479 232.939 166.947 234.5 168.737ZM200.034 175.29L200.025 175.283L200.034 175.29ZM231.336 167.755H231.328H231.336ZM231.336 167.755H231.328H231.336ZM231.336 167.755H231.328H231.336ZM231.324 167.755H231.334H231.324Z" fill="#212121"/>
<path fill-rule="evenodd" clip-rule="evenodd" d="M176.311 72.1595C177.624 71.4781 192.833 61.1987 201.201 62.6223C202.786 62.892 204.432 62.7524 206.026 62.997C207.121 63.3017 208.271 63.3592 209.392 63.1653C212.409 62.0913 211.481 55.7177 210.337 53.6186C206.852 47.2331 200.51 44.8083 193.522 44.461C190.664 44.1624 187.775 44.4379 185.025 45.2713C180.648 46.7367 177.171 50.0923 174.459 53.6699C172.178 56.6783 170.432 60.3956 170.887 64.2775C171.176 65.7486 171.638 67.1802 172.264 68.5425C172.737 69.8301 174.291 73.2084 176.311 72.1595Z" fill="#212121"/>
<path fill-rule="evenodd" clip-rule="evenodd" d="M191.199 43.4911C199.47 43.546 206.784 45.6641 210.901 52.7991C212.491 55.6153 213.115 61.2717 210.701 63.3791C209.269 64.5665 207.728 64.1286 205.897 63.8231C204.732 63.6369 203.447 63.6715 202.025 63.5414C200.836 63.3114 199.623 63.2312 198.414 63.3028C190.106 63.9352 178.438 71.4807 176.295 72.5702V72.5607C174.16 73.4521 172.575 70.6024 171.714 68.4472C170.759 66.1417 170.134 64.977 170.235 62.341C170.474 57.3361 173.875 52.4697 177.514 48.9983C179.287 47.1789 181.42 45.7493 183.776 44.801C186.132 43.8527 188.661 43.4066 191.199 43.4911ZM176.313 72.5607L176.295 72.5678V72.5774C176.531 72.4497 176.465 72.4891 176.313 72.5607ZM190.801 45.2775C187.732 45.2029 184.706 46.0074 182.08 47.5961C177.794 50.336 174.387 54.2528 172.268 58.8779C170.558 63.3016 171.694 65.6704 172.78 68.5642C173.321 70.069 174.591 72.532 176.143 71.8423C180.326 69.063 184.707 66.5945 189.251 64.4567C198.003 60.6237 200.718 61.8934 203.043 61.9794C204.056 61.9849 205.068 62.0451 206.074 62.1596C207.753 62.3982 208.873 62.7944 209.7 61.9674C210.911 60.6214 210.597 57.4924 210.16 55.7275C209.959 54.8308 209.59 53.9805 209.072 53.2215C205.074 46.8765 198.235 45.2775 190.801 45.2775Z" fill="#212121"/>
<path d="M136.927 272.24C142.665 272.24 147.317 267.773 147.317 262.264C147.317 256.754 142.665 252.287 136.927 252.287C131.188 252.287 126.536 256.754 126.536 262.264C126.536 267.773 131.188 272.24 136.927 272.24Z" fill="#212121"/>
<path fill-rule="evenodd" clip-rule="evenodd" d="M134.042 253.623C132.408 254.065 130.933 254.964 129.79 256.214C128.647 257.464 127.884 259.013 127.59 260.681C127.296 262.349 127.484 264.066 128.13 265.632C128.776 267.197 129.855 268.546 131.24 269.52C137.351 273.832 145.927 270.004 146.396 262.786C146.736 256.239 140.163 251.722 134.042 253.623ZM140.406 251.909C141.967 252.357 143.406 253.152 144.616 254.235C145.825 255.319 146.774 256.661 147.391 258.163C148.008 259.665 148.277 261.287 148.178 262.908C148.078 264.529 147.614 266.106 146.818 267.521C145.769 269.283 144.269 270.732 142.472 271.719C140.675 272.706 138.647 273.195 136.598 273.135C134.548 273.076 132.552 272.469 130.816 271.379C129.08 270.289 127.667 268.754 126.722 266.934C122.504 258.168 131.053 249.039 140.406 251.913V251.909Z" fill="#212121"/>
<path fill-rule="evenodd" clip-rule="evenodd" d="M137.007 267.397C137.007 267.397 144.711 264.653 142.707 259.297C142.52 258.673 142.137 258.126 141.613 257.738C141.09 257.35 140.455 257.143 139.803 257.146C139.152 257.149 138.519 257.363 137.999 257.756C137.48 258.149 137.101 258.7 136.921 259.326C136.739 258.701 136.359 258.153 135.839 257.762C135.319 257.372 134.686 257.161 134.036 257.161C133.386 257.161 132.753 257.372 132.233 257.762C131.712 258.153 131.333 258.701 131.151 259.326C129.149 264.681 136.715 267.268 137.007 267.397Z" fill="white"/>
<path fill-rule="evenodd" clip-rule="evenodd" d="M139.998 256.226C142.814 256.309 144.248 259.269 143.891 261.798C143.667 263.101 143.037 264.301 142.091 265.224C140.728 266.553 139.102 267.583 137.318 268.248V268.235V268.248C136.905 268.367 136.763 268.277 136.337 268.107C133.399 266.93 130.319 264.814 129.943 261.684C129.797 260.244 130.196 258.802 131.061 257.643C131.417 257.217 131.859 256.871 132.359 256.629C132.858 256.388 133.404 256.256 133.959 256.242C134.514 256.228 135.065 256.333 135.576 256.55C136.087 256.767 136.546 257.09 136.922 257.499C137.323 257.091 137.802 256.769 138.331 256.55C138.859 256.332 139.426 256.221 139.998 256.226ZM137.865 259.301C137.733 259.659 137.688 260.162 136.924 260.231C136.131 260.164 136.102 259.625 135.97 259.277C135.775 258.907 135.484 258.598 135.126 258.383C134.768 258.169 134.358 258.056 133.941 258.058C132.671 258.073 132.006 259.211 131.783 260.456C131.314 263.354 134.356 265.348 137.013 266.422C139.638 265.326 142.608 263.181 142.07 260.324C141.39 257.016 138.427 257.879 137.865 259.301Z" fill="#212121"/>
<path fill-rule="evenodd" clip-rule="evenodd" d="M278.553 191.261C292.873 191.447 303.653 204.102 300.368 217.809C296.351 233.785 276.016 238.974 263.473 228.503C248.252 215.361 257.891 191.223 278.553 191.261ZM272.308 194.85C269.65 195.648 267.187 196.989 265.074 198.788C252.178 209.812 258.988 230.72 276.948 232.706V232.713C280.995 232.972 285.029 232.027 288.54 229.997C292.051 227.967 294.882 224.942 296.676 221.305C303.709 206.241 289.166 189.924 272.308 194.85Z" fill="#212121"/>
<path fill-rule="evenodd" clip-rule="evenodd" d="M287.272 217.425L287.195 218.189C284.079 221.967 278.991 222.705 274.395 221.337C272.692 220.776 271.123 219.866 269.79 218.667L269.765 218.639L269.646 217.874C271.146 217.653 269.204 217.696 273.64 218.639C276.174 219.34 278.835 219.453 281.419 218.968C283.2 218.753 284.924 218.207 286.504 217.357L287.272 217.425Z" fill="#212121"/>
<path fill-rule="evenodd" clip-rule="evenodd" d="M272.854 207.824C273.625 209.413 273.199 208.351 273.332 210.97C273.359 211.328 273.415 211.022 273.068 212.222L272.165 212.726H272.155L271.16 212.437L270.656 211.533C270.59 211.336 270.6 208.907 270.597 208.907L270.943 207.932L271.876 207.48H271.885L272.854 207.824Z" fill="#212121"/>
<path fill-rule="evenodd" clip-rule="evenodd" d="M286.201 207.559C286.972 209.149 286.546 208.085 286.678 210.706C286.705 211.064 286.763 210.757 286.414 211.958L285.511 212.461H285.501L284.506 212.172L284.003 211.268C283.914 211.007 283.974 209.328 283.944 208.643L284.291 207.668L285.223 207.215H285.233L286.201 207.559Z" fill="#212121"/>
<path fill-rule="evenodd" clip-rule="evenodd" d="M137.739 107.773C148.01 107.905 155.224 117.113 152.927 126.248C150.083 137.465 135.922 140.952 127.236 133.697C116.687 124.594 123.313 107.734 137.739 107.773ZM133.371 110.195C131.511 110.755 129.787 111.695 128.308 112.955C119.307 120.651 124.012 135.271 136.619 136.671C139.448 136.858 142.27 136.201 144.726 134.783C147.182 133.366 149.163 131.253 150.417 128.71C155.462 117.782 144.692 106.746 133.371 110.195Z" fill="#212121"/>
<path fill-rule="evenodd" clip-rule="evenodd" d="M143.372 125.35C146.728 125.566 144.671 132.422 138.614 132.546C137.158 132.71 135.684 132.565 134.288 132.121C130.483 130.719 129.571 127.109 131.15 126.103C131.508 125.894 131.285 125.877 137.488 125.568C137.873 125.549 142.992 125.326 143.372 125.35ZM132.064 127.608C132.115 128.268 132.368 128.897 132.789 129.408C133.424 130.166 134.218 130.775 135.114 131.192C136.01 131.608 136.987 131.822 137.976 131.819C139.147 131.773 140.277 131.372 141.215 130.668C142.153 129.965 142.854 128.993 143.226 127.881C143.302 127.625 143.314 127.354 143.261 127.092C138.278 127.381 134.308 127.486 132.064 127.608ZM132.081 127.512V127.505V127.512ZM132.081 127.502V127.485V127.494V127.509L132.09 127.497L132.082 127.507L132.092 127.49L132.084 127.503L132.095 127.485L132.087 127.499L132.095 127.482L132.087 127.498L132.095 127.481L132.081 127.502ZM143.243 127.061H143.237H143.243ZM143.243 127.061L143.231 127.05L143.243 127.061ZM143.237 127.054L143.226 127.037L143.237 127.054L143.226 127.038L143.238 127.055L143.226 127.041L143.241 127.059L143.229 127.046L143.243 127.061V127.053V127.044L143.237 127.054Z" fill="#212121"/>
<path fill-rule="evenodd" clip-rule="evenodd" d="M134.885 119.646C135.727 120.123 136.496 120.413 136.149 121.332C135.964 121.655 135.799 121.757 134.744 122.482C133.937 122.984 133.077 123.393 132.178 123.702L131.676 123.61L131.774 123.108C132.344 122.366 132.987 121.684 133.694 121.072C133.918 120.96 133.591 121.093 132.126 119.7C131.443 119.061 131.616 119.336 131.394 118.702L131.881 118.531C132.935 118.741 133.949 119.117 134.885 119.646Z" fill="#212121"/>
<path fill-rule="evenodd" clip-rule="evenodd" d="M143.763 118.172L143.593 118.659C143.212 118.992 142.737 119.461 142.28 119.843C141.434 120.534 141.288 120.454 141.467 120.544C142.173 121.157 142.817 121.839 143.389 122.579L143.486 123.082L142.983 123.174C142.92 123.155 142.3 122.921 141.964 122.774C141.42 122.56 140.902 122.286 140.42 121.956C140.25 121.787 139.282 121.276 139.013 120.804C138.665 119.884 139.441 119.595 140.278 119.118C141.21 118.583 142.225 118.206 143.28 118.003L143.763 118.172Z" fill="#212121"/>
<path fill-rule="evenodd" clip-rule="evenodd" d="M32.7093 209.713C42.9576 209.74 50.8838 219.146 48.4434 228.849C44.7763 243.321 23.961 244.514 17.8141 231.28C13.104 220.855 21.2664 209.572 32.7093 209.713ZM28.1639 212.159C26.2269 212.73 24.4334 213.707 22.9022 215.023C21.371 216.34 20.137 217.967 19.2819 219.796C15.2174 228.896 21.7139 238.712 31.5446 239.69C40.1115 240.15 47.2966 233.62 47.2095 225.49C47.0973 215.855 37.3406 209.363 28.1627 212.159H28.1639Z" fill="#212121"/>
<path fill-rule="evenodd" clip-rule="evenodd" d="M38.553 227.956C39.0127 227.983 39.4434 228.19 39.7509 228.533C40.0583 228.875 40.2176 229.326 40.1938 229.786C40.2953 232.492 37.0172 235.615 33.0064 235.378C25.8464 236.01 23.3272 229.113 26.3333 228.559C27.2473 228.396 37.9814 227.927 38.553 227.956ZM26.7879 230.236C26.7772 230.484 26.8153 230.732 26.9001 230.965C27.4562 232.684 29.5911 234.515 32.9539 234.652C32.9539 234.8 37.152 234.233 38.3394 230.908C38.4883 230.538 38.5365 230.136 38.479 229.742V229.732L38.4671 229.701C38.3442 229.701 26.912 230.227 26.7879 230.236ZM26.8058 230.149L26.813 230.14L26.8058 230.149ZM26.8058 230.137L26.7998 230.15L26.8118 230.134V230.141L26.8237 230.124L26.8154 230.137L26.8249 230.119L26.8154 230.135L26.8249 230.118V230.125V230.134L26.8333 230.118L26.8058 230.137ZM38.4456 229.682L38.4372 229.675L38.4456 229.682ZM38.4456 229.682L38.4325 229.672L38.4456 229.682ZM38.4456 229.676L38.4384 229.669L38.4325 229.661L38.4456 229.678L38.4325 229.663L38.448 229.681L38.4337 229.666L38.4492 229.682V229.674L38.4396 229.662L38.4516 229.68L38.4456 229.669L38.4384 229.661L38.4456 229.676Z" fill="#212121"/>
<path fill-rule="evenodd" clip-rule="evenodd" d="M30.6806 222.583C30.8489 222.686 30.9789 222.841 31.0506 223.025C31.1224 223.209 31.132 223.411 31.078 223.601C30.9479 223.959 30.9276 223.959 29.967 224.652C29.1767 225.232 28.3069 225.694 27.3846 226.026C26.8154 226.25 27.0266 226.221 26.4299 226.11C26.5493 225.502 26.4478 225.706 26.8392 225.25C27.3466 224.614 27.9158 224.031 28.5385 223.508L28.6471 223.421C27.8568 222.887 27.1156 222.284 26.4323 221.619C26.2688 221.473 26.3464 221.619 26.1423 221.022L26.628 220.853C28.0747 221.172 29.4491 221.759 30.6806 222.583Z" fill="#212121"/>
<path fill-rule="evenodd" clip-rule="evenodd" d="M38.948 220.479L38.7785 220.965L38.7666 220.977C38.0477 221.674 37.2704 222.308 36.4432 222.872C37.1998 223.501 37.8874 224.209 38.4945 224.984C38.6019 225.103 38.5482 224.996 38.6604 225.561C38.0816 225.668 38.189 225.666 38.0637 225.618C37.1688 225.301 36.3128 224.883 35.5124 224.373C35.4288 224.332 34.4634 223.64 34.2283 223.43C34.0914 223.288 34.0049 223.105 33.982 222.909C33.9592 222.713 34.0013 222.515 34.1019 222.345C34.263 222.114 34.2761 222.098 34.9097 221.738C35.952 221.086 37.0977 220.616 38.2976 220.349C38.5136 220.295 38.3776 220.28 38.948 220.479Z" fill="#212121"/>
<path d="M33.2331 146.947C47.7806 146.947 59.5736 135.625 59.5736 121.659C59.5736 107.693 47.7806 96.3711 33.2331 96.3711C18.6857 96.3711 6.8927 107.693 6.8927 121.659C6.8927 135.625 18.6857 146.947 33.2331 146.947Z" fill="#212121"/>
<path fill-rule="evenodd" clip-rule="evenodd" d="M25.5147 98.4224C6.16239 104.306 1.21364 129.045 18.0062 141.184C34.1663 152.618 57.1822 142.797 58.6249 123.068C59.4746 105.421 42.0972 93.3878 25.5147 98.4224ZM41.639 96.7374C62.7956 103.539 67.1823 130.031 49.3837 142.751C35.8406 152.371 16.1733 148.014 8.60992 132.882C-1.53461 112.054 18.9991 89.729 41.639 96.7374Z" fill="#212121"/>
<path fill-rule="evenodd" clip-rule="evenodd" d="M33.4336 134.673C33.4336 134.673 52.9637 127.705 47.886 114.138C44.4886 105.058 34.2021 108.799 33.2176 114.209C32.2331 108.799 21.9883 105.129 18.5897 114.209C13.5144 127.776 32.6973 134.347 33.4336 134.673Z" fill="white"/>
<path fill-rule="evenodd" clip-rule="evenodd" d="M33.4789 135.577C33.2021 135.57 33.2498 135.577 32.6138 135.325C25.9597 132.756 18.4131 127.901 17.0408 120.886C16.5023 117.727 17.1227 114.48 18.7878 111.743C22.4334 105.911 30.0051 107.031 33.2176 111.805C34.0712 110.501 35.2589 109.45 36.6568 108.762C42.3275 105.905 48.2786 109.011 49.4935 116.689C50.2966 122.263 47.4302 126.736 43.0304 130.276C40.1536 132.547 36.928 134.337 33.4789 135.577ZM34.5064 113.207C34.3029 113.626 34.1549 114.07 34.0661 114.528C33.992 114.726 33.851 114.892 33.6674 114.997C33.4839 115.102 33.2694 115.139 33.0613 115.102C32.0612 114.837 32.6066 114.197 31.6495 112.721C29.4144 109.273 22.6578 107.45 19.7162 113.863C15.6255 123.251 23.9514 129.941 33.4395 133.701C33.5589 133.582 52.1606 126.844 46.886 114.07C44.0531 107.292 36.6007 109.147 34.5064 113.207Z" fill="#212121"/>
<path d="M265.486 55.0938C272.454 55.0938 278.103 49.6703 278.103 42.9802C278.103 36.2901 272.454 30.8667 265.486 30.8667C258.517 30.8667 252.869 36.2901 252.869 42.9802C252.869 49.6703 258.517 55.0938 265.486 55.0938Z" fill="#212121"/>
<path fill-rule="evenodd" clip-rule="evenodd" d="M261.927 32.3011C259.908 32.8501 258.087 33.9621 256.677 35.5074C255.266 37.0526 254.325 38.9673 253.962 41.0277C253.599 43.0882 253.83 45.2094 254.627 47.1435C255.425 49.0777 256.757 50.7449 258.466 51.9506C266.039 57.3265 276.724 52.3981 277.177 43.6283C277.661 35.9754 269.922 29.8811 261.927 32.3011ZM269.654 30.5923C271.521 31.1282 273.242 32.0796 274.69 33.3751C276.137 34.6707 277.272 36.277 278.011 38.0735C278.749 39.8701 279.072 41.8104 278.954 43.7493C278.836 45.6881 278.281 47.5752 277.331 49.2691C276.075 51.3791 274.279 53.1151 272.127 54.2974C269.976 55.4797 267.547 56.0654 265.093 55.9937C262.639 55.922 260.249 55.1956 258.17 53.8897C256.091 52.5838 254.399 50.7459 253.269 48.5663C248.2 38.0268 258.551 27.1495 269.654 30.5923Z" fill="#212121"/>
<path fill-rule="evenodd" clip-rule="evenodd" d="M265.582 49.2144C265.582 49.2144 274.938 45.8731 272.504 39.3778C272.277 38.6198 271.811 37.9556 271.175 37.4847C270.539 37.0137 269.768 36.7613 268.977 36.7652C268.186 36.7691 267.417 37.0291 266.786 37.5063C266.155 37.9835 265.695 38.6522 265.476 39.4124C265.256 38.6539 264.795 37.9874 264.163 37.5132C263.531 37.039 262.763 36.7826 261.973 36.7826C261.183 36.7826 260.415 37.039 259.783 37.5132C259.151 37.9874 258.69 38.6539 258.47 39.4124C256.04 45.9113 265.229 49.0581 265.582 49.2144Z" fill="white"/>
<path fill-rule="evenodd" clip-rule="evenodd" d="M265.636 50.12C265.407 50.1141 265.426 50.126 264.845 49.8969C262.171 48.8145 259.297 47.0734 257.924 44.5364C257.236 43.2566 257.005 41.7813 257.266 40.3524C257.528 38.9235 258.267 37.6259 259.363 36.6724C260.305 36.0371 261.447 35.7686 262.574 35.9174C263.7 36.0663 264.734 36.6221 265.479 37.4802C265.941 36.971 266.503 36.5626 267.13 36.2807C267.758 35.9988 268.436 35.8494 269.124 35.8418C271.476 35.8716 272.937 37.4767 273.574 39.7404C274.633 43.7071 272.047 46.7536 268.494 48.8229C267.593 49.3616 266.635 49.7967 265.636 50.12ZM269.097 37.6545C268.59 37.6621 268.092 37.7952 267.649 38.042C267.206 38.2888 266.831 38.6415 266.557 39.0686C266.248 39.6354 266.475 39.8192 265.927 40.1999C265.744 40.3044 265.53 40.3418 265.322 40.3054C265.114 40.269 264.926 40.1612 264.789 40.0006C264.5 39.5948 264.669 39.6426 264.457 39.1831C264.105 38.5601 263.537 38.0876 262.861 37.8547C262.184 37.6219 261.446 37.6449 260.785 37.9194C260.116 38.3938 259.595 39.0481 259.282 39.8065C258.969 40.5649 258.878 41.3964 259.018 42.2047C259.483 45.1247 262.836 47.1367 265.581 48.2417C268.248 47.1486 271.51 44.9923 271.956 42.1259C272.099 40.9835 271.846 39.8266 271.24 38.8478C271.02 38.4772 270.706 38.1716 270.329 37.9619C269.953 37.7523 269.528 37.6462 269.097 37.6545Z" fill="#212121"/>
<path d="M256.153 279.95C263.121 279.95 268.77 274.527 268.77 267.836C268.77 261.146 263.121 255.723 256.153 255.723C249.184 255.723 243.535 261.146 243.535 267.836C243.535 274.527 249.184 279.95 256.153 279.95Z" fill="#212121"/>
<path fill-rule="evenodd" clip-rule="evenodd" d="M252.593 257.163C250.574 257.712 248.753 258.824 247.343 260.37C245.932 261.915 244.99 263.829 244.628 265.89C244.265 267.95 244.496 270.072 245.293 272.006C246.091 273.94 247.422 275.607 249.132 276.813C256.685 282.174 267.39 277.29 267.841 268.49C268.327 260.832 260.588 254.737 252.593 257.163ZM260.32 255.454C262.187 255.99 263.908 256.942 265.355 258.238C266.802 259.533 267.937 261.139 268.676 262.936C269.414 264.733 269.736 266.673 269.619 268.612C269.501 270.55 268.946 272.437 267.995 274.131C266.74 276.241 264.943 277.977 262.792 279.159C260.64 280.341 258.212 280.926 255.758 280.855C253.304 280.783 250.914 280.057 248.835 278.751C246.756 277.445 245.064 275.608 243.934 273.428C238.866 262.883 249.218 252.006 260.32 255.448V255.454Z" fill="#212121"/>
<path fill-rule="evenodd" clip-rule="evenodd" d="M256.249 274.07C256.249 274.07 265.604 270.729 263.171 264.234C262.944 263.476 262.478 262.811 261.843 262.34C261.207 261.869 260.436 261.616 259.644 261.62C258.853 261.624 258.085 261.884 257.454 262.362C256.823 262.839 256.363 263.508 256.144 264.268C255.923 263.51 255.462 262.844 254.831 262.37C254.199 261.896 253.43 261.64 252.641 261.64C251.851 261.64 251.082 261.896 250.451 262.37C249.819 262.844 249.358 263.51 249.137 264.268C246.707 270.767 255.895 273.914 256.249 274.07Z" fill="white"/>
<path fill-rule="evenodd" clip-rule="evenodd" d="M256.297 274.975C256.068 274.975 256.087 274.982 255.507 274.753C252.833 273.671 249.959 271.93 248.586 269.393C247.897 268.114 247.664 266.639 247.925 265.21C248.185 263.781 248.923 262.483 250.018 261.529C250.96 260.893 252.102 260.625 253.229 260.774C254.355 260.922 255.388 261.478 256.133 262.336C256.596 261.827 257.158 261.418 257.785 261.137C258.413 260.855 259.091 260.705 259.779 260.698C262.132 260.728 263.598 262.333 264.23 264.595C265.289 268.563 262.702 271.61 259.149 273.679C258.251 274.218 257.294 274.653 256.297 274.975ZM259.765 262.511C259.258 262.518 258.76 262.651 258.317 262.898C257.874 263.145 257.499 263.498 257.225 263.925C256.915 264.49 257.142 264.675 256.595 265.056C256.412 265.16 256.198 265.198 255.99 265.161C255.782 265.125 255.593 265.017 255.456 264.857C255.168 264.451 255.336 264.499 255.125 264.038C254.773 263.416 254.205 262.943 253.528 262.711C252.852 262.478 252.114 262.501 251.453 262.776C250.784 263.25 250.262 263.904 249.949 264.662C249.636 265.421 249.544 266.252 249.685 267.061C250.15 269.981 253.503 271.993 256.248 273.098C258.915 272.005 262.175 269.848 262.623 266.982C262.764 265.839 262.509 264.682 261.9 263.704C261.68 263.335 261.368 263.03 260.993 262.82C260.618 262.611 260.194 262.504 259.765 262.511Z" fill="#212121"/>
<path fill-rule="evenodd" clip-rule="evenodd" d="M301.515 110.006C301.076 110.556 299.583 116.133 299.882 125.567C300.284 138.188 302.691 155.487 303.54 155.52C312.305 155.927 312.343 110.383 301.515 110.006Z" fill="white"/>
<path fill-rule="evenodd" clip-rule="evenodd" d="M301.716 109.652C305.069 109.821 307.163 114.075 308.224 117.258C310.878 125.225 311.3 136.303 310.133 144.579C309.536 148.707 308.014 156.154 303.841 156.424C303.646 156.463 303.444 156.451 303.256 156.388C303.067 156.325 302.899 156.214 302.767 156.066C301.344 154.311 297.993 128.535 299.71 116.008C299.888 114.664 300.557 110.646 301.216 109.792C301.381 109.617 301.506 109.641 301.716 109.652ZM300.866 114.646C300.401 119.066 300.349 123.519 300.711 127.948C301.101 133.941 302.755 150.668 304.043 154.576C310.703 152.9 311.38 111.787 301.786 110.394L301.727 110.387C301.306 111.776 301.017 113.202 300.866 114.646Z" fill="#212121"/>
<path fill-rule="evenodd" clip-rule="evenodd" d="M294.284 120.518L294.916 121.339V121.348L294.775 122.374C293.725 123.183 294.194 122.932 292.865 123.287C285.46 125.27 277.543 128.799 267.847 132.947C266.152 133.647 264.505 134.457 262.915 135.37C260.141 137.028 261.375 136.835 260.068 136.726L260.136 135.964C260.801 135.37 261.504 134.821 262.241 134.319C265.714 131.952 276.828 126.714 279.592 125.459C284.001 123.401 288.569 121.701 293.251 120.377L294.284 120.518Z" fill="white"/>
</svg>
