<svg width="300" height="300" viewBox="0 0 300 300" fill="none" xmlns="http://www.w3.org/2000/svg">
<path fill-rule="evenodd" clip-rule="evenodd" d="M48.4369 269.635C48.4369 269.635 40.0609 269.464 37.9679 266.071C36.9249 264.381 36.8129 261.012 37.2539 259.38C37.6539 257.88 38.4999 258.08 40.1109 257.318C45.2359 254.879 55.3549 264.302 58.1209 259.118C58.6419 258.141 58.4839 261.962 58.5659 262.332C58.6427 262.941 58.5941 263.558 58.4234 264.148C58.2526 264.737 57.9632 265.285 57.5729 265.758C55.5589 268.553 51.5919 269.168 48.4369 269.635Z" fill="white"/>
<path fill-rule="evenodd" clip-rule="evenodd" d="M45.5731 256.745C48.0071 257.486 50.7501 258.823 52.9361 259.489C57.0911 260.762 57.1361 258.931 57.7591 258.395C57.8528 258.318 57.9625 258.264 58.0801 258.235C58.1977 258.206 58.3202 258.204 58.4387 258.229C58.5571 258.254 58.6686 258.305 58.7649 258.378C58.8611 258.451 58.9398 258.545 58.9951 258.653C59.3851 259.39 59.1581 261.231 59.2951 262.536C59.3482 263.757 58.9622 264.958 58.2071 265.919C56.0471 268.952 52.1131 269.533 48.4151 269.949C45.4921 269.949 41.2591 269.439 38.8361 267.804C37.9635 267.247 37.2989 266.418 36.9451 265.445C36.4545 264.038 36.2356 262.551 36.3001 261.062C36.4181 258.143 37.2341 257.622 38.5581 257.129C40.3051 256.488 41.4321 255.48 45.5731 256.745ZM59.2491 262.2V262.189V262.199V262.178V262.2ZM57.6821 259.331L57.6771 259.317L57.6821 259.331ZM56.6361 265.968C57.4059 265.143 57.87 264.08 57.9511 262.955C57.9371 262.546 57.8751 262.59 57.8451 262.064C57.8291 261.724 57.8181 261.041 57.8021 260.672C53.9891 263.758 45.9021 256.821 41.1571 257.764C40.4133 257.993 39.6832 258.264 38.9701 258.576C38.7443 258.646 38.5305 258.75 38.3361 258.884C37.4991 259.548 37.5591 263.625 38.3291 265.372C39.5411 268.151 45.4681 269.138 48.4351 269.319C51.3121 268.8 54.7001 268.145 56.6351 265.969L56.6361 265.968Z" fill="#212121"/>
<path fill-rule="evenodd" clip-rule="evenodd" d="M48.2999 265.839C48.2999 265.839 39.9239 265.668 37.8309 262.275C32.7889 254.101 52.6879 249.154 57.8099 257.441C58.1995 258.147 58.3717 258.953 58.305 259.756C58.2383 260.56 57.9356 261.326 57.4349 261.958C55.4169 264.757 51.4499 265.372 48.2999 265.839Z" fill="white"/>
<path fill-rule="evenodd" clip-rule="evenodd" d="M48.2622 266.153C45.8414 266.168 43.4311 265.834 41.1062 265.159C38.8732 264.422 37.3062 263.386 36.5772 261.222C34.0572 253.77 49.5682 249.307 56.5202 254.894C61.2102 258.662 58.8722 263.654 53.2072 265.304C51.583 265.713 49.9298 265.997 48.2622 266.153ZM48.5462 265.478C51.6822 264.894 55.5462 264.058 57.1112 261.268C57.5259 260.56 57.696 259.735 57.5952 258.92C57.2248 257.656 56.4073 256.57 55.2952 255.865C49.0742 251.487 34.5822 255.274 38.3602 261.886C39.4852 263.82 42.9002 264.704 45.0902 265.115C46.2276 265.349 47.3851 265.47 48.5462 265.478Z" fill="#212121"/>
<path fill-rule="evenodd" clip-rule="evenodd" d="M80.6059 253.175C80.4999 257.91 82.1639 273.343 82.2989 281.781C82.3799 286.838 100.341 286.301 100.988 282.426C101.261 280.791 102.233 252.801 101.243 252.126C99.8899 251.208 80.6059 253.175 80.6059 253.175Z" fill="white"/>
<path fill-rule="evenodd" clip-rule="evenodd" d="M80.574 252.867C84.882 252.341 93.933 251.367 98.674 251.267C101.558 251.218 101.86 251.458 102.068 252.493C102.887 256.83 102.043 281.671 101.688 282.841C100.988 285.041 96.98 285.788 94.694 286.05C91.368 286.406 86.548 286.276 83.644 284.701C83.0746 284.452 82.5824 284.055 82.219 283.551C81.8555 283.047 81.6342 282.455 81.578 281.836C81.378 272.526 79.878 253.174 80.295 253.174C80.2958 253.097 80.3247 253.024 80.3761 252.967C80.4276 252.911 80.498 252.875 80.574 252.867ZM80.921 253.461C80.981 258.561 82.879 273.607 83.021 281.789C83.165 285.322 95.768 285.403 99.434 283.162C99.7678 282.987 100.037 282.711 100.203 282.373C100.444 281.617 101.425 252.773 100.681 252.631C97.821 252.137 83.787 253.23 80.921 253.461ZM100.914 252.694L100.903 252.688L100.914 252.694ZM100.897 252.685L100.911 252.691L100.896 252.685H100.897ZM100.897 252.685H100.89H100.897Z" fill="#4965EE"/>
<path fill-rule="evenodd" clip-rule="evenodd" d="M20.0741 246.1C19.9691 250.835 21.6331 266.268 21.7671 274.706C21.8481 279.763 39.8101 279.226 40.4571 275.351C40.7301 273.716 41.7021 245.726 40.7121 245.051C39.3591 244.136 20.0741 246.1 20.0741 246.1Z" fill="white"/>
<path fill-rule="evenodd" clip-rule="evenodd" d="M20.0431 245.8C24.3501 245.274 33.4021 244.3 38.1431 244.2C41.0281 244.151 41.3291 244.391 41.5381 245.426C42.3561 249.763 41.5131 274.604 41.1581 275.774C40.4581 277.974 36.4501 278.721 34.1641 278.983C30.8371 279.339 26.0181 279.209 23.1141 277.633C22.5446 277.385 22.0523 276.988 21.6887 276.484C21.3251 275.98 21.1035 275.388 21.0471 274.769C20.8471 265.458 19.3471 246.107 19.7651 246.107C19.7659 246.031 19.7946 245.957 19.8458 245.901C19.897 245.844 19.9672 245.808 20.0431 245.8ZM20.3901 246.394C20.4501 251.494 22.3481 266.54 22.4901 274.722C22.6341 278.255 35.2371 278.336 38.9031 276.095C39.2363 275.92 39.5053 275.644 39.6711 275.306C39.9131 274.55 40.8931 245.706 40.1501 245.564C37.2901 245.065 23.2551 246.158 20.3901 246.389V246.394ZM40.3831 245.627L40.3711 245.621L40.3831 245.627ZM40.3661 245.618L40.3801 245.624L40.3651 245.618H40.3661ZM40.3711 245.618H40.3641H40.3711Z" fill="#212121"/>
<path fill-rule="evenodd" clip-rule="evenodd" d="M101.859 259.67C99.9121 265.04 88.8711 265.199 83.4511 263.222C82.595 262.93 81.7967 262.49 81.0921 261.922C80.9491 261.789 80.9921 261.878 80.9521 261.374C81.5911 261.327 81.2191 261.288 81.8081 261.589C85.0391 263.175 98.6031 263.976 101.296 259.412L101.709 259.258L101.859 259.67Z" fill="#4965EE"/>
<path fill-rule="evenodd" clip-rule="evenodd" d="M41.1779 252.183L41.3279 252.598C39.4279 257.839 28.4279 258.273 22.6979 256.067C21.9099 255.768 21.1752 255.344 20.5219 254.812C20.4219 254.712 20.4559 254.793 20.4219 254.299C21.0379 254.254 20.7049 254.211 21.2359 254.492C24.3359 256.071 37.2289 256.819 40.4479 252.808C40.9229 252.205 40.5419 252.42 41.1779 252.183Z" fill="#212121"/>
<path fill-rule="evenodd" clip-rule="evenodd" d="M101.66 267.01C99.084 271.069 85.644 271.001 81.637 268.076C81.437 267.924 81.489 268.027 81.395 267.512C82.162 267.374 81.483 267.412 82.744 267.806C85.074 268.499 91.305 268.983 96.544 268.231C97.981 268.025 100.166 267.683 101.17 266.631L101.608 266.572L101.66 267.01Z" fill="#4965EE"/>
<path fill-rule="evenodd" clip-rule="evenodd" d="M41.0768 259.5L41.1288 259.938C38.5418 264.013 25.0288 263.945 21.0628 260.973C20.9038 260.851 20.9538 260.935 20.8628 260.44C21.6328 260.301 20.9578 260.34 22.1578 260.717C25.6178 261.796 38.1878 262.128 40.6378 259.558L41.0768 259.5Z" fill="#212121"/>
<path fill-rule="evenodd" clip-rule="evenodd" d="M101.583 273.3L101.443 273.718C96.9447 276.429 91.5718 277.295 86.4492 276.135C85.0722 275.827 82.8962 275.408 82.0122 274.193L82.0372 273.749C82.7692 273.791 82.2612 273.717 82.9052 274.071C83.5188 274.355 84.1762 274.532 84.8492 274.595C86.7133 274.863 88.5916 275.02 90.4742 275.066C94.1168 275.018 97.7273 274.377 101.163 273.166L101.583 273.3Z" fill="#4965EE"/>
<path fill-rule="evenodd" clip-rule="evenodd" d="M41.052 266.229L40.912 266.647C36.4131 269.358 31.0399 270.224 25.917 269.064C24.54 268.756 22.365 268.337 21.481 267.122L21.506 266.678C22.238 266.72 21.73 266.646 22.374 267C22.9876 267.284 23.6449 267.461 24.318 267.524C26.182 267.792 28.0603 267.949 29.943 267.995C33.5856 267.947 37.1961 267.306 40.632 266.095L41.052 266.229Z" fill="#212121"/>
<path fill-rule="evenodd" clip-rule="evenodd" d="M101.471 279C101.371 280.081 99.96 280.888 98.966 281.323C95.684 282.759 90.347 282.923 86.966 282.248C85.284 281.895 82.932 281.08 82.144 279.548L82.244 279.114L82.677 279.214C84.203 281.122 90.416 281.162 92.851 281.027C94.488 280.927 100.151 280.471 100.831 278.979C100.888 278.849 100.792 278.938 101.231 278.637L101.471 279Z" fill="#4965EE"/>
<path fill-rule="evenodd" clip-rule="evenodd" d="M40.493 273.985C40.393 275.066 38.982 275.873 37.988 276.308C34.707 277.744 29.369 277.908 25.988 277.233C24.306 276.88 21.954 276.065 21.167 274.533L21.267 274.099L21.701 274.199C23.226 276.107 29.44 276.147 31.874 276.012C33.512 275.912 39.174 275.456 39.854 273.964C39.911 273.834 39.816 273.923 40.254 273.622L40.493 273.985Z" fill="#212121"/>
<path fill-rule="evenodd" clip-rule="evenodd" d="M91.569 259.251C91.569 259.251 83.193 259.081 81.1 255.687C76.058 247.514 95.957 242.566 101.079 250.853C101.468 251.559 101.641 252.365 101.574 253.169C101.507 253.972 101.205 254.739 100.704 255.371C98.691 258.169 94.724 258.785 91.569 259.251Z" fill="white"/>
<path fill-rule="evenodd" clip-rule="evenodd" d="M91.5362 259.565C89.1153 259.581 86.705 259.246 84.3801 258.571C82.1471 257.834 80.5802 256.798 79.8512 254.634C77.3312 247.183 92.8422 242.72 99.7942 248.306C104.484 252.074 102.146 257.066 96.4812 258.716C94.8569 259.125 93.2037 259.409 91.5362 259.565ZM91.8192 258.89C94.9562 258.306 98.8192 257.47 100.385 254.68C100.799 253.972 100.97 253.147 100.869 252.332C100.498 251.068 99.681 249.983 98.5692 249.277C92.3472 244.899 77.8552 248.687 81.6332 255.299C82.7592 257.232 86.1742 258.116 88.3642 258.527C89.5011 258.761 90.6584 258.883 91.8192 258.89Z" fill="#4965EE"/>
<path fill-rule="evenodd" clip-rule="evenodd" d="M31.0372 252.179C31.0372 252.179 22.6612 252.009 20.5692 248.615C15.5272 240.442 35.4262 235.494 40.5482 243.781C40.9377 244.487 41.1099 245.293 41.0432 246.097C40.9765 246.9 40.6738 247.667 40.1732 248.299C38.1602 251.1 34.1932 251.712 31.0372 252.179Z" fill="white"/>
<path fill-rule="evenodd" clip-rule="evenodd" d="M31.0049 252.493C28.5841 252.509 26.1738 252.174 23.8489 251.499C21.6159 250.762 20.0489 249.726 19.3199 247.562C16.7999 240.111 32.3099 235.648 39.2629 241.234C43.9529 245.002 41.6149 249.994 35.9499 251.644C34.3257 252.053 32.6725 252.337 31.0049 252.493ZM31.2879 251.818C34.4249 251.234 38.2879 250.398 39.8529 247.608C40.2679 246.9 40.4384 246.075 40.3379 245.26C39.9672 243.996 39.1498 242.911 38.0379 242.205C31.8159 237.827 17.3239 241.615 21.1019 248.227C22.2269 250.16 25.6419 251.044 27.8329 251.455C28.9698 251.689 30.1271 251.811 31.2879 251.818Z" fill="#212121"/>
<path fill-rule="evenodd" clip-rule="evenodd" d="M125.336 247.086C125.011 247.533 124.545 247.858 124.014 248.009C123.193 248.541 123.181 250.909 121.264 254.336C121.028 254.84 120.663 255.274 120.207 255.592C119.989 255.708 119.736 255.737 119.497 255.675C119.258 255.613 119.052 255.463 118.918 255.256C118.647 254.867 118.48 254.415 118.432 253.943C118.26 252.755 118.412 252.527 118.398 248.432C118.307 244.663 118.451 240.893 118.828 237.142C118.933 235.791 119.158 234.122 120.321 233.459C122.521 232.29 125.887 235.897 127.438 237.844C127.153 238.09 127.092 238.144 127.438 237.844C127.653 238.137 126.54 245.135 125.336 247.086ZM121.369 234.375C120.749 234.388 120.537 234.898 120.389 235.501C120.225 236.606 120.137 237.722 120.128 238.839C119.828 243.454 119.996 243.523 119.904 252.421C119.895 252.799 119.909 253.178 119.946 253.555C122.088 249.812 121.746 247.386 123.73 246.687C124.057 246.579 124.15 246.575 124.303 246.364C125.433 244.681 126.469 239.858 126.861 238.146C126.047 237.289 125.168 236.495 124.234 235.771C123.419 235.061 122.43 234.579 121.369 234.375Z" fill="#212121"/>
<path fill-rule="evenodd" clip-rule="evenodd" d="M120.776 170.978C115.6 175.687 119.976 218.267 127.982 238.511L125.767 236.791L123.454 248.224C123.454 248.224 128.61 259.848 142.346 269.714C147.904 273.707 162.472 274.463 163.695 271.064C170.06 253.364 170.914 217.008 172.574 219.183C174.921 222.257 175.633 258.617 182.046 266.852C187.646 274.043 207.173 269.404 211.046 268.597C218.837 266.975 218.904 249.418 220.004 244.188C222.235 233.581 223.78 195.51 222.237 189.739C221.757 187.939 220.752 183.81 219.305 182.461C217.245 180.542 213.074 179.999 210.445 179.64C202.694 178.58 194.674 179.501 186.884 179.521C176.192 179.62 165.51 178.822 154.951 177.137C150.415 176.378 146.011 175.051 141.478 174.301C134.786 173.192 120.776 170.978 120.776 170.978Z" fill="white"/>
<path fill-rule="evenodd" clip-rule="evenodd" d="M212.912 179.342C215.486 179.776 218.912 180.574 220.391 182.708C221.18 184.029 221.783 185.452 222.183 186.937C223.211 190.35 223.483 191.413 223.572 199.183C223.672 211.099 222.665 234.298 220.863 243.815C219.568 250.446 219.57 266.408 212.017 269.13C211.081 269.459 206.655 270.297 205.094 270.564C197.435 271.855 185.075 273.106 180.912 266.589C175.389 257.889 174.378 229.717 172.512 221.318C171.405 227.93 170.195 248.287 166.612 263.581C165.99 266.268 165.216 268.918 164.292 271.517C162.931 274.278 156.163 274.061 153.085 273.753C144.54 272.838 141.725 270.277 138.557 267.671C131.188 261.594 125.726 254.32 123.084 248.898C122.984 248.698 122.909 248.54 122.854 248.389C122.854 247.773 125.208 236.604 125.264 236.489C125.307 236.418 125.364 236.357 125.432 236.31C125.5 236.262 125.577 236.23 125.659 236.215C125.74 236.2 125.824 236.203 125.904 236.222C125.985 236.242 126.06 236.279 126.125 236.33C126.854 236.899 126.754 236.861 126.689 236.677C121.38 221.571 117.079 194.248 118.483 177.542C118.655 175.524 119.083 172.122 120.563 170.742C120.672 170.861 120.712 170.905 120.563 170.742C120.723 170.614 120.755 170.653 121.437 170.758C124.729 171.258 135.262 172.894 141.545 173.902C148.737 175.086 156.412 178.056 177.404 178.81C195.372 179.435 201.543 177.467 212.912 179.342ZM119.1 178.581C118.5 189.826 120.044 203.199 122.108 214.271C125.22 230.913 128.508 238.028 128.557 238.495C128.561 238.63 128.517 238.761 128.434 238.867C128.351 238.973 128.233 239.046 128.101 239.074C127.701 239.125 127.743 239.055 126.187 237.851C124.056 248.382 124.064 248.063 124.112 248.163C126.721 253.554 132.168 260.71 139.712 266.842C142.828 269.342 144.158 270.309 147.641 271.298C150.044 271.956 152.512 272.346 155 272.461C157.041 272.555 161.149 272.51 162.675 271.261C162.96 271.021 163.002 271.031 163.791 268.471C168.569 252.792 169.817 226.994 171.139 220.333C171.298 219.548 171.478 218.654 172.126 218.381C172.75 218.175 173.156 218.558 173.445 219.15C175.83 224.197 176.422 257.295 182.429 266.056C186.424 271.724 199.353 270.05 206.212 268.792C207.193 268.611 210.812 267.892 211.431 267.692C217.988 265.461 218.174 249.404 219.316 243.781C221.281 234.081 222.816 201.581 221.856 191.724C221.483 188.875 220.629 186.111 219.331 183.548C218.54 182.551 217.452 181.831 216.225 181.495C213.14 180.414 207.696 179.904 204.396 179.795C195.944 179.542 181.036 181.214 160.336 178.419C151.55 177.231 149.636 176.362 143.736 175.132C141.07 174.58 135.316 173.658 120.893 171.312C119.53 172.665 119.212 176.66 119.1 178.581Z" fill="#212121"/>
<path fill-rule="evenodd" clip-rule="evenodd" d="M110.249 134.693C104.932 139.288 82.0879 138.805 77.8019 138.447C43.7709 135.6 43.1339 98.1461 41.5729 72.0001C39.7999 42.3201 43.3159 9.86006 78.5999 6.00006C83.7539 5.43506 94.7189 6.05306 99.8279 6.86906C117.028 9.61606 121.473 22.1441 123.084 25.3841C131.833 42.9701 131.775 61.0141 130.232 80.3261C128.49 102.173 127.392 119.876 110.249 134.693Z" fill="white"/>
<path fill-rule="evenodd" clip-rule="evenodd" d="M75.979 138.746C49.068 135.496 43.494 110.415 41.551 83.6211C39.894 60.0331 37.69 29.3711 56.217 13.9421C63.277 8.10006 72.792 5.25406 81.7 5.02606C86.9098 4.94865 92.1196 5.1901 97.3 5.74906C108.788 7.04906 117.283 11.8541 122.568 22.5111C128.757 35.1331 132.219 46.3871 131.623 67.4261C131.376 75.1111 130.218 88.4261 129.49 94.6111C127.87 107.973 124.98 119.211 116.07 129.411C114.323 131.373 112.449 133.218 110.459 134.932C105.16 139.459 82.5 139.5 75.979 138.746ZM83.723 6.55606C81.1698 6.51797 78.6183 6.70469 76.098 7.11406C45.545 11.9701 40.578 39.8881 42.251 70.9141C42.697 79.1791 43.143 87.6991 44.085 95.2991C47.213 120.034 55.821 137.199 80.834 138.141C86.997 138.356 105.326 138.45 110.044 134.458C119.55 126.119 124.453 116.79 126.965 104.228C128.936 94.2681 130.195 74.6751 130.34 66.4891C130.692 46.8401 127.254 34.8761 120.924 22.6151C119.269 19.2288 116.916 16.2311 114.02 13.8189C111.124 11.4067 107.751 9.6346 104.121 8.61906C98.423 6.95406 88.9 6.55606 83.723 6.55606Z" fill="#212121"/>
<path fill-rule="evenodd" clip-rule="evenodd" d="M88.0908 164.448C88.6358 148.811 88.7738 152.767 88.6018 67.299L88.0908 164.448Z" fill="white"/>
<path fill-rule="evenodd" clip-rule="evenodd" d="M89.6308 72.4079C90.6708 93.6669 90.6758 106.067 90.4798 129.991C90.5887 140.082 90.1678 150.173 89.2188 160.22C88.8268 165.128 88.9778 164.268 88.6088 165.02L88.0668 165.232H88.0588L87.5328 164.983L87.3058 164.424C87.3058 151.572 86.1848 121.736 86.8198 92.8529C87.0048 84.3189 87.8038 67.5209 87.8268 67.2959L88.0708 66.7449L88.5968 66.5129H88.6048C89.5438 66.9239 89.3338 66.3719 89.6308 72.4079Z" fill="#212121"/>
<path fill-rule="evenodd" clip-rule="evenodd" d="M88.5119 110.141C86.0999 105.602 72.0119 85.386 67.1519 78.931L88.5119 110.141Z" fill="white"/>
<path fill-rule="evenodd" clip-rule="evenodd" d="M67.769 78.463C71.2391 81.9507 74.4146 85.7195 77.263 89.731C81.611 95.857 86.344 102.731 89.158 109.65C89.222 109.81 89.203 109.684 89.228 110.387L88.888 110.831H88.881L88.325 110.868C87.625 110.368 88.059 110.782 87.025 109.445C85.48 107.461 84.14 105.969 81.465 102.417C68.953 85.1 68.3 82.223 66.53 79.393L66.417 78.793L66.678 78.309H66.684L67.222 78.193L67.769 78.463Z" fill="#212121"/>
<path fill-rule="evenodd" clip-rule="evenodd" d="M237.22 173.461C237.563 173.738 237.911 174.009 238.247 174.295C238.889 174.842 240.238 175.439 240.379 176.379C240.407 176.569 239.744 177.155 239.636 177.279C238.936 178.068 238.373 178.979 237.754 179.83C236.878 181.037 235.93 182.188 235.029 183.375C234.736 183.759 234.129 184.575 233.603 184.666C233.353 184.71 232.435 183.686 232.258 183.542C231.572 182.984 230.884 182.41 230.207 181.822C232.5 178.762 231.98 179.747 237.22 173.461Z" fill="white"/>
<path fill-rule="evenodd" clip-rule="evenodd" d="M237.552 173.312C240.029 175.063 238.902 174.189 239.842 174.838C240.133 175.004 240.383 175.234 240.574 175.51C240.764 175.786 240.89 176.102 240.942 176.433C240.868 176.783 240.684 177.101 240.417 177.34C239.524 178.458 238.692 179.623 237.925 180.83C237.381 181.574 235.441 184.104 235.358 184.207C235.091 184.561 234.774 184.875 234.417 185.138C233.517 185.738 233.026 185.381 232.254 184.628C231.374 183.767 231.646 184.101 229.706 182.397C229.576 182.285 229.488 182.132 229.456 181.963C229.423 181.794 229.449 181.619 229.528 181.467C230.992 179.577 232.581 177.787 234.285 176.109C237.22 172.995 237.073 173.059 237.369 173.19L237.413 173.22L237.552 173.312ZM231.252 181.7C231.961 182.219 232.628 182.793 233.246 183.417C233.365 183.533 233.495 183.662 233.637 183.786C234.063 183.451 237.153 179.426 237.228 179.326C239.568 176.164 239.083 177.053 239.787 176.29C239.622 175.971 239.386 175.694 239.098 175.48C238.452 175.004 237.84 174.484 237.266 173.924C233.1 179.6 234.32 177.655 231.25 181.7H231.252ZM239.824 176.468V176.416C239.818 176.435 239.819 176.443 239.822 176.468H239.824Z" fill="#212121"/>
<path fill-rule="evenodd" clip-rule="evenodd" d="M231.559 187.559C233.152 183.646 235.883 180.33 238.636 177.182C239.102 176.649 240.424 174.393 241.285 174.353C242.985 174.276 247.001 178.089 248.073 179.217C248.733 180.056 249.517 180.79 250.398 181.394C251.043 181.721 253.145 181.172 253.788 180.968C256.766 180.022 259.401 179.793 259.669 182.889C259.769 184.021 258.429 185.208 254.554 185.489C254.248 185.511 254.575 186.147 254.678 186.407C255.448 188.37 256.61 190.194 257.511 192.099C258.911 195.051 260.105 198.091 261.478 201.053C262.102 202.4 263.616 205.521 262.534 206.965C261.334 208.574 258.834 206.233 258.163 205.358C255.381 201.709 253.294 197.358 251.03 193.358C250.951 193.218 251.289 193.874 251.518 194.234C251.926 194.873 252.2 195.564 252.555 196.234C253.398 197.821 256.121 201.052 254.834 202.917C252.915 205.7 249.644 201.398 248.778 199.89C248.448 199.21 248.058 198.562 247.611 197.952C247.601 197.952 247.774 198.438 247.789 198.477C248.041 199.095 248.424 199.689 248.614 200.328C248.7 200.831 248.596 201.349 248.321 201.779C248.046 202.21 247.621 202.523 247.128 202.657C246.228 203.011 245.393 202.279 244.879 201.596C243.598 199.846 242.569 197.925 241.822 195.889C241.598 195.289 241.669 194.181 241.104 193.768C238.866 192.13 231.559 187.559 231.559 187.559Z" fill="white"/>
<path fill-rule="evenodd" clip-rule="evenodd" d="M259.766 180.9C260.162 181.526 260.38 182.248 260.397 182.988C260.389 185.143 257.513 185.905 255.381 186.153C256.119 188.016 257.325 189.914 258.265 191.909C259.41 194.339 260.322 196.567 261.428 199.063C262.32 201.074 263.651 203.493 263.691 205.563C263.707 208.014 261.682 209.332 258.969 207.231C257.613 206.044 256.477 204.627 255.615 203.044C254.584 205.009 252.088 205.544 249.123 201.627C248.896 202.098 248.552 202.503 248.125 202.803C247.697 203.104 247.199 203.29 246.679 203.343C246.137 203.271 245.621 203.067 245.176 202.749C244.731 202.431 244.37 202.009 244.126 201.52C242.944 199.781 241.997 197.894 241.309 195.908C241.17 195.397 241.145 194.5 240.884 194.194L240.89 194.201C240.79 194.081 239.449 193.156 239.32 193.066C231.472 187.653 231.104 187.971 231.272 187.442C233.359 182.127 237.186 178.428 239.051 175.772C239.682 174.888 240.467 173.772 241.482 173.828C242.876 173.914 244.682 175.414 245.774 176.301C247.054 177.32 248.247 178.445 249.338 179.665C249.598 179.94 250.4 180.786 250.806 180.833C252.925 181.031 257.726 178 259.766 180.9ZM251.948 202.523C252.648 203.04 253.405 203.391 254.009 202.771C254.228 202.565 254.372 202.292 254.417 201.995C254.462 201.527 254.375 201.056 254.166 200.635C252.957 198.53 250.776 194.484 250.556 194.096C250.387 193.873 250.283 193.608 250.256 193.329C250.314 193.229 250.187 193.002 250.626 192.682C250.757 192.603 250.908 192.565 251.06 192.573C251.212 192.58 251.359 192.633 251.481 192.725C251.671 192.895 251.609 192.814 252.126 193.735C252.533 194.465 251.84 193.197 253.526 196.283C254.375 197.843 254.179 197.339 254.905 198.64C255.488 199.905 256.178 201.119 256.969 202.266C257.599 203.268 258.285 204.235 259.022 205.161C259.562 205.774 260.223 206.271 260.962 206.619C261.177 206.72 261.419 206.75 261.652 206.704C261.952 206.604 262.083 206.217 262.122 205.904C262.066 204.523 261.697 203.172 261.045 201.953C259.132 197.768 258.326 195.653 256.955 192.696C256.278 191.245 253.926 187.021 253.708 185.887C253.678 185.756 253.674 185.621 253.697 185.489C253.72 185.357 253.769 185.231 253.841 185.118C254.228 184.6 254.432 184.841 256.134 184.553C256.924 184.442 257.686 184.183 258.379 183.789C259.051 183.339 258.972 183.019 258.918 182.653C258.433 179.708 254.845 181.588 252.213 182.035C249.343 182.522 249.543 181.39 246.422 178.435C245.379 177.454 243.038 175.325 241.672 174.935C241.547 174.897 241.417 174.881 241.286 174.887H241.301C240.717 175.069 239.596 176.733 239.211 177.242C238.404 178.296 234.148 182.476 231.957 187.442C232.657 187.869 241.017 192.967 241.589 193.585C242.147 194.222 242.06 195.141 242.324 195.812C243.072 197.758 244.086 199.591 245.337 201.259C245.718 201.743 246.322 202.331 246.9 202.109C247.49 201.866 248.136 201.309 248.047 200.679C247.971 200.129 247.304 199.214 246.984 198.157C246.939 198.008 246.947 197.847 247.007 197.704C247.067 197.56 247.175 197.441 247.313 197.368C247.451 197.295 247.61 197.272 247.762 197.304C247.915 197.335 248.052 197.419 248.15 197.54C248.875 198.319 249.679 200.832 251.948 202.526V202.523ZM250.691 180.809H250.699H250.691ZM250.701 180.809H250.69H250.701ZM250.701 180.809H250.692H250.701ZM241.301 174.879H241.31H241.301ZM241.301 174.879H241.313H241.301Z" fill="#212121"/>
<path fill-rule="evenodd" clip-rule="evenodd" d="M88.7461 117.939C92.5571 113.205 105.132 97.0011 108.637 91.4561L88.7461 117.939Z" fill="white"/>
<path fill-rule="evenodd" clip-rule="evenodd" d="M109.054 90.792H109.06L109.354 91.251C109.359 91.7507 109.21 92.2398 108.926 92.651C107.525 95.6206 105.889 98.4733 104.034 101.182C101.089 105.351 97.9358 109.367 94.5849 113.217C93.6239 114.253 92.1349 115.758 91.8349 116.049C88.8769 118.909 89.5149 118.357 88.7939 118.684L88.2569 118.55H88.2509L88.0039 118.05C88.1489 117.366 88.0879 117.518 88.2799 117.198C90.9041 112.511 93.9011 108.043 97.2419 103.837C103.982 94.969 103.147 96.537 107.517 91.572C108.091 90.918 107.837 91.122 108.517 90.718L109.054 90.792Z" fill="#212121"/>
<path fill-rule="evenodd" clip-rule="evenodd" d="M63.7109 163.863L69.8999 229.971C75.3309 231.433 114.024 229.761 114.024 229.761L119.869 164.261C119.869 164.261 67.1569 163.686 63.7109 163.863Z" fill="white"/>
<path fill-rule="evenodd" clip-rule="evenodd" d="M87.7201 163.447C88.0431 163.447 119.71 163.5 120.105 163.602C120.233 163.647 120.346 163.728 120.429 163.835C120.512 163.943 120.562 164.072 120.573 164.208C120.573 165.2 115.026 227.308 114.8 229.83C114.783 229.996 114.714 230.152 114.603 230.276C114.492 230.401 114.345 230.487 114.182 230.522C113.377 230.622 78.1341 232.033 70.4821 230.829C69.8131 230.716 69.296 230.685 69.182 230.038C67.471 211.338 64.931 181.938 63.396 163.892C63.773 163.857 63.851 163.85 63.396 163.892C63.4 163.428 62.5241 163.443 87.7201 163.447ZM64.181 164.163C63.987 164.163 63.853 162.156 66.643 189.638C70.809 231.254 70.462 229.356 70.629 229.385C77.029 230.441 106.81 229.285 113.313 229.014C115.082 209.114 117.267 184.689 119.1 164.949C101.223 164.681 69.6 164.109 64.181 164.163Z" fill="#212121"/>
<path fill-rule="evenodd" clip-rule="evenodd" d="M193.044 64.824C193.853 64.96 194.556 65.487 195.359 65.663C198.059 66.255 200.621 66.403 203.213 65.121C204.01 64.6121 204.705 63.9589 205.262 63.195C208.662 59.433 208.792 53.629 204.892 50.246C199.304 45.4 193.012 50.276 193.012 50.276C189.796 48.428 187.452 46.72 184.436 46.169C181.202 45.4764 177.872 45.3553 174.596 45.811C172.001 46.3022 169.561 47.4099 167.483 49.041C163.603 52.381 161.938 58.916 161.756 63.818C161.599 66.5855 162.21 69.3427 163.523 71.784C163.712 72.139 164.376 73.918 164.311 73.564C163.9 71.302 169.717 69.45 171.205 73.197C171.234 73.27 173.152 62.934 173.152 62.934C174.45 64.251 181.294 69.744 193.044 64.824Z" fill="#4965EE"/>
<path fill-rule="evenodd" clip-rule="evenodd" d="M186.926 46.108C188.552 46.7953 190.112 47.6284 191.588 48.597C193.139 49.512 192.949 49.4289 193.049 49.3629C203.165 42.8999 212.593 53.8809 206.484 62.4739C206.002 63.1189 205.48 63.7331 204.922 64.313C204.533 64.7698 204.07 65.1573 203.551 65.459C201.456 66.4681 199.089 66.7658 196.81 66.3069C195.936 66.219 195.081 65.99 194.28 65.6289C192.919 64.9979 193.168 65.117 192.48 65.399C184.499 68.61 177.827 67.359 173.553 64.051C172.353 70.964 171.942 73.2819 171.799 73.5569C171.733 73.6658 171.637 73.7542 171.524 73.8124C171.411 73.8706 171.283 73.8964 171.156 73.887C170.489 73.78 170.671 73.3709 170.137 72.7259C169.718 72.2293 169.129 71.9064 168.485 71.82C167.906 71.7238 167.313 71.7642 166.753 71.9378C166.193 72.1114 165.681 72.4135 165.258 72.82C165.182 72.8989 165.123 72.9933 165.086 73.0968C165.049 73.2003 165.035 73.3105 165.044 73.4199C165.089 73.6084 165.06 73.8069 164.963 73.9746C164.866 74.1423 164.708 74.2665 164.522 74.3217C164.337 74.3769 164.137 74.3588 163.964 74.2713C163.791 74.1837 163.658 74.0333 163.593 73.8509C163.417 73.4809 163.085 72.6159 162.886 72.1859C162.27 71.0575 161.795 69.8579 161.471 68.6139C160.505 64.7829 161.1 60.0429 162.286 56.2369C164.201 50.2369 167.486 46.684 173.751 45.198C178.152 44.4306 182.673 44.7429 186.926 46.108ZM173.317 62.3759C173.578 62.476 178.061 67.4699 187.01 66.1829C189.087 65.8195 191.125 65.2635 193.098 64.522C193.626 64.6341 194.138 64.8136 194.621 65.056C196.207 65.5781 197.878 65.792 199.544 65.6859C200.666 65.6086 201.764 65.3195 202.779 64.834C203.606 64.3755 204.311 63.7257 204.835 62.9389C211.522 55.3169 203.323 44.8109 194.16 50.3919C193.311 50.9069 193.288 51.1149 192.76 50.9669C192.301 50.7529 188.879 48.6909 188.078 48.2789C186.121 47.2789 184.778 46.8549 181.163 46.465C178.776 46.1563 176.353 46.2482 173.996 46.7369C171.772 47.2668 169.694 48.2824 167.909 49.7109C163.445 53.6679 161.609 63.072 162.976 68.36C163.293 69.5122 163.738 70.6257 164.301 71.68C165.187 70.8615 166.338 70.3889 167.543 70.3483C168.749 70.3078 169.929 70.7019 170.868 71.459C171.278 69.417 172.563 62.828 172.646 62.651C172.71 62.5357 172.811 62.4454 172.933 62.395C173.055 62.3445 173.19 62.3367 173.317 62.373V62.3759Z" fill="#212121"/>
<path fill-rule="evenodd" clip-rule="evenodd" d="M171.06 72.875C171.112 72.975 171.16 73.085 171.205 73.197C171.234 73.27 173.152 62.934 173.152 62.934C174.452 64.251 181.294 69.744 193.044 64.824C193.853 64.96 194.556 65.487 195.359 65.663C198.279 66.304 197.998 65.837 198.091 66.279C198.26 68.3131 198.219 70.3592 197.969 72.385C197.969 72.385 201.769 72.222 202.241 74.685C202.436 75.7684 202.366 76.8828 202.039 77.9337C201.711 78.9846 201.135 79.941 200.359 80.722C199.827 81.176 199.165 81.187 198.65 81.553C198.618 81.9428 198.622 82.3349 198.662 82.724C198.607 86.467 196.471 93.086 193.512 95.865C191.94 97.341 189.279 97.939 187.202 98.288C180.758 99.371 173.902 97.566 170.896 91.283C170.015 89.0566 169.494 86.7041 169.353 84.314C169.35 83.0731 169.195 81.8373 168.892 80.634C168.715 80.191 167.064 80.377 166.559 80.202C160.683 78.161 164.119 68.863 168.485 71.102C169.54 71.4002 170.455 72.0641 171.065 72.975C171.065 72.975 171.063 72.936 171.06 72.875Z" fill="white"/>
<path fill-rule="evenodd" clip-rule="evenodd" d="M173.207 62.471C173.47 62.525 173.381 62.553 173.969 63.039C177.648 66.025 183.499 67.365 190.559 65.026C192.985 64.203 192.731 64.062 193.259 64.156C194.708 64.456 194.253 64.856 197.141 65.256C198.229 65.395 198.219 65.297 198.533 65.545C199.242 66.331 198.883 70.605 198.789 71.666C200.134 71.6851 201.417 72.2334 202.36 73.192C203.692 74.845 203.273 79.245 200.827 81.334C200.396 81.6455 199.914 81.8794 199.402 82.025C199.402 82.168 199.43 82.482 199.437 82.656C199.537 85.75 197.467 93.078 194.171 96.31C189.791 100.525 173.802 101.839 169.834 90.496C169.146 88.1199 168.754 85.6681 168.667 83.196C168.675 82.4417 168.584 81.6897 168.397 80.959C167.514 80.702 166.728 81.187 165.049 80.035C160.924 77.088 163.549 69.95 167.479 70.393C167.878 70.4477 168.265 70.5712 168.622 70.758C169.579 71.045 170.422 71.6219 171.037 72.409C172.862 62.26 172.57 62.787 172.912 62.536C173.001 62.4825 173.104 62.4596 173.207 62.471ZM171.423 73.431C171.391 73.4607 171.353 73.4835 171.312 73.498C171.271 73.5125 171.227 73.5185 171.184 73.5155C171.14 73.5125 171.098 73.5006 171.059 73.4806C171.02 73.4605 170.986 73.4328 170.958 73.399C170.915 73.3409 170.884 73.2755 170.865 73.206C170.289 72.3904 169.465 71.7826 168.515 71.473C168.174 71.381 168.19 71.316 167.734 71.198C164.464 70.431 162.134 76.839 165.697 79.185C166.856 79.921 167.08 79.645 168.326 79.785C169.213 79.899 169.375 80.192 169.558 80.776C170.042 82.376 169.843 85.971 170.958 89.538C171.607 91.5145 172.77 93.2828 174.328 94.6617C175.885 96.0407 177.782 96.9805 179.822 97.385C185.116 98.596 191.043 97.004 192.922 95.353C195.19 93.281 196.591 89.353 197.358 86.387C198.617 81.364 196.945 81.287 198.958 80.542C199.419 80.4468 199.837 80.2064 200.151 79.856C201.735 78.14 201.917 74.975 201.151 74.098C200.56 73.5701 199.811 73.2535 199.02 73.198C197.871 73.05 197.836 73.264 197.432 72.898C197.181 72.576 197.226 72.424 197.268 72.022C197.479 70.272 197.537 68.507 197.442 66.747C195.963 66.6341 194.519 66.2364 193.191 65.576C193.091 65.546 193.17 65.535 192.761 65.695C184.598 68.859 177.721 67.413 173.454 63.847C171.826 71.917 171.583 73.26 171.423 73.431ZM168.472 80.991L168.462 80.985L168.472 80.991ZM168.461 80.984L168.473 80.991L168.461 80.984ZM168.467 80.989L168.46 80.984L168.467 80.989ZM168.461 80.984L168.47 80.989L168.46 80.984H168.461ZM168.461 80.984H168.471H168.46H168.461Z" fill="#212121"/>
<path fill-rule="evenodd" clip-rule="evenodd" d="M198.036 66.0721C200.076 66.2141 202.648 65.7721 203.978 64.5911C204.381 67.7004 203.925 70.8606 202.659 73.7291C202.531 74.0191 202.411 74.4021 202.259 74.7601C202.259 74.7331 202.25 74.7071 202.245 74.6811C201.774 72.2221 197.973 72.3811 197.973 72.3811C198.109 71.1241 198.435 67.2771 198.036 66.0721Z" fill="#4965EE"/>
<path fill-rule="evenodd" clip-rule="evenodd" d="M204.042 63.926C204.642 64.032 204.656 64.464 204.759 65.139C205.079 68.2122 204.587 71.3156 203.332 74.139C202.954 75.068 203.015 75.117 202.732 75.38C202.591 75.4886 202.417 75.5451 202.239 75.54C202.061 75.5349 201.89 75.4685 201.755 75.352C201.379 74.968 201.587 74.779 201.271 74.285C200.504 73.085 197.965 73.085 197.771 73.038C197.622 72.9903 197.494 72.8925 197.408 72.7612C197.322 72.6298 197.285 72.4729 197.301 72.317C197.428 71.405 197.578 70.484 197.709 69.083C197.865 68.0531 197.879 67.0067 197.75 65.973C197.772 65.9089 197.815 65.8538 197.871 65.8165C197.928 65.7792 197.996 65.7618 198.063 65.767C199.813 65.8119 201.541 65.3713 203.056 64.494C203.581 64.136 203.553 63.92 204.042 63.926ZM198.464 66.437C198.719 68.1784 198.794 69.9414 198.687 71.698C199.301 71.7166 199.91 71.8175 200.497 71.998C201.11 72.1786 201.672 72.4994 202.139 72.935C203.05 70.6395 203.484 68.1826 203.414 65.714C201.856 66.3828 200.149 66.6321 198.464 66.437Z" fill="#212121"/>
<path fill-rule="evenodd" clip-rule="evenodd" d="M168.573 80.415C168.634 80.4261 168.693 80.4503 168.743 80.4861C168.794 80.5218 168.837 80.5682 168.868 80.622C169.171 81.8253 169.326 83.0612 169.329 84.302C169.47 86.6922 169.991 89.0447 170.872 91.271C173.878 97.555 180.734 99.359 187.178 98.271C189.255 97.922 191.916 97.325 193.488 95.848C196.633 92.893 198.807 85.478 198.627 82.468C199.365 82.588 200.094 82.7104 200.815 82.835C236.679 89.015 254.167 121.214 246.728 161.679C244.999 171.079 240.501 178.95 234.679 182.698C225.746 188.448 216.799 190.481 206.604 191.273C186.779 192.814 165.22 194.751 145.535 190.678C140.571 189.651 135.241 188.444 130.635 186.269C128.418 185.224 112.548 171.993 109.965 163.469C101.654 136.041 115.221 108.169 137.586 90.523C146.083 83.823 157.129 81.057 168.573 80.415Z" fill="#4965EE"/>
<path fill-rule="evenodd" clip-rule="evenodd" d="M169.327 81.017C169.508 81.984 169.609 82.9644 169.627 83.948C169.692 84.675 169.959 86.87 170.279 88.341C172.204 96.861 180.51 99.585 189.137 97.421C190.569 97.1253 191.913 96.5036 193.065 95.604C195.725 93.186 197.518 87.74 197.98 84.435C198.248 82.366 198.007 82.635 198.147 82.254C198.195 82.1489 198.276 82.0625 198.379 82.0083C198.481 81.954 198.598 81.935 198.712 81.954C202.747 82.5192 206.723 83.4422 210.594 84.712C239.029 94.228 251.314 121.191 248.841 151.512C248.093 160.665 246.565 169.675 241.382 177.099C238.807 180.787 235.57 183.934 227.414 187.442C222.877 189.341 218.114 190.646 213.243 191.326C207.333 192.199 189.825 193.346 183.795 193.626C175.486 194.074 167.156 193.985 158.858 193.36C150.669 192.665 138.809 190.617 131.538 187.522C129.789 186.771 129.113 186.335 126.523 184.202C120.823 179.493 111.291 170.465 109.175 163.365C103.882 145.273 107.738 126.756 118.405 110.524C125.076 100.416 134.738 91.353 141.416 87.37C147.88 83.7115 155.029 81.4246 162.416 80.652C163.904 80.467 168.35 80.045 168.672 80.127C169.131 80.264 169.191 80.494 169.327 81.017ZM168.327 80.741C159.027 81.353 149.716 83.308 141.757 88.165C136.876 91.151 131.075 96.608 127.171 100.943C113.436 116.243 105.39 136.213 109.083 156.756C109.512 159.186 110.114 161.583 110.883 163.928C111.094 164.479 111.336 165.016 111.609 165.539C115.661 173.321 128.247 184.128 130.881 185.548C133.826 186.882 136.893 187.927 140.04 188.668C155.058 192.385 168.418 192.768 184.207 192.041C192.735 191.633 207.136 190.484 209.591 190.224C218.376 189.272 225.848 187.235 233.439 182.577C237.039 180.342 240.122 177.246 242.833 171.523C244.707 167.392 245.943 163.001 246.5 158.5C249.934 136.013 246.062 112.372 229.243 96.924C220.453 88.9 210.514 85.011 199.153 83.1C198.807 86.7834 197.687 90.3521 195.865 93.572C194.065 96.572 192.356 97.651 188.702 98.446C182.414 99.746 175.877 98.795 172.016 93.835C170.49 91.8179 169.555 89.416 169.316 86.898C168.727 82.819 169.036 82.182 168.643 80.929C168.574 80.721 168.627 80.722 168.323 80.741H168.327Z" fill="#212121"/>
<path fill-rule="evenodd" clip-rule="evenodd" d="M206.165 83.9891C238.446 92.3061 253.816 123.266 246.752 161.689C245.023 171.094 240.525 178.961 234.703 182.708C225.77 188.458 216.823 190.492 206.628 191.284C202.475 191.607 198.246 191.947 193.974 192.245C193.014 185.267 192.478 178.237 192.368 171.194C192.421 151.662 194.634 132.435 196.294 113.054C196.474 110.943 196.676 108.839 196.9 106.74C197.548 105.986 198.133 105.202 198.639 104.663C203.63 99.3521 205.393 91.2631 206.165 83.9871V83.9891Z" fill="white"/>
<path fill-rule="evenodd" clip-rule="evenodd" d="M206.243 83.689C238.025 91.668 252.015 120.538 248.671 153.564C247.622 163.745 245.356 174.486 237.59 181.471C234.683 184.085 229.58 186.636 225.929 188.071C216.363 191.771 207.585 192.029 197.229 192.795C193.677 193.056 193.902 193.095 193.536 192.889C193.16 192.577 193.236 192.573 192.976 190.376C191.754 179.825 190.844 171.54 192.626 147.469C193.32 138.185 194.187 129.669 195.096 120.269C196.53 105.348 196.296 106.72 196.718 106.224C197.364 105.462 197.672 105.051 198.153 104.516C198.766 103.879 199.337 103.203 199.862 102.492C205.147 95.292 205.685 84.392 205.889 83.857C205.919 83.7922 205.971 83.7399 206.036 83.7092C206.1 83.6785 206.174 83.6714 206.243 83.689ZM203.322 98.011C201.353 102.688 199.513 104.274 197.741 106.476C197.284 107.04 197.368 106.871 197.335 107.186C197.435 107.202 194.595 136.706 193.683 153.002C192.656 171.641 193.15 178.127 194.283 188.221C194.689 191.78 194.622 191.421 194.722 191.421C194.609 191.305 210.184 190.821 219.207 188.573C225.207 187.051 233.307 183.733 237.646 179.28C242.617 174.142 245.075 167.065 246.292 159.997C252.156 125.244 239.672 93.358 206.439 84.389C206.06 89.0559 205.01 93.6437 203.322 98.011Z" fill="#212121"/>
<path fill-rule="evenodd" clip-rule="evenodd" d="M160.791 81.225C160.662 83.8214 160.692 86.4233 160.881 89.016C161.158 95.441 163.843 103.238 168.481 108.316C168.503 108.657 168.522 108.999 168.535 109.34C169.304 128.083 170.035 147.097 168.803 165.813C168.327 173.051 168.215 185.478 164.574 192.947C154.948 192.582 145.401 191.048 136.145 188.378C133.716 187.349 131.282 186.262 128.888 185.091C124.079 181.464 112.188 170.756 109.988 163.478C101.677 136.05 115.244 108.178 137.609 90.532C144.152 85.373 152.207 82.545 160.791 81.225Z" fill="white"/>
<path fill-rule="evenodd" clip-rule="evenodd" d="M160.845 80.92C160.921 80.933 160.989 80.9738 161.037 81.0345C161.084 81.0952 161.107 81.1713 161.101 81.248C160.725 81.22 160.65 81.214 161.101 81.248C160.947 84.9763 161.12 88.7109 161.617 92.409C162.508 98.0074 164.892 103.262 168.517 107.62C169.078 108.247 168.959 107.687 169.117 111.079C170.71 145.662 170.224 154.779 169.137 172.979C168.934 177.947 168.286 182.887 167.202 187.74C166.733 189.691 166.059 191.587 165.192 193.396C164.833 193.819 164.531 193.717 163.928 193.688C156.7 193.392 149.513 192.434 142.459 190.828C138.319 190.081 134.315 188.714 130.583 186.772C128.138 185.629 128.516 185.814 127.552 185.052C121.883 180.567 111.893 171.141 109.425 164.26C108.395 160.999 107.659 157.652 107.225 154.26C104.56 132.888 113.895 112.666 129.038 97.472C138.551 87.99 145.197 84.594 153.79 82.324C156.112 81.7174 158.468 81.2486 160.845 80.92ZM160.439 81.597C147.158 83.859 140.423 88.271 132.88 95.231C114.053 112.722 103.334 137.845 110.534 162.623C111.156 164.74 112.155 166.728 113.484 168.489C117.137 173.711 123.434 179.749 128.265 183.62C129.289 184.434 128.873 184.289 132.602 185.979C134.899 187.169 137.342 188.055 139.868 188.614C147.804 190.623 155.926 191.813 164.105 192.163C165.905 188.238 166.726 183.029 167.184 178.755C167.643 174.407 168.61 159.197 168.757 148.193C168.889 137.537 168.657 127.911 168.31 117.286C167.992 107.715 168.046 108.574 167.892 108.4C165.014 104.982 162.925 100.972 161.772 96.655C160.864 93.434 160.424 90.765 160.366 84.455C160.348 81.433 160.539 81.583 160.439 81.6V81.597Z" fill="#212121"/>
<path fill-rule="evenodd" clip-rule="evenodd" d="M158.2 200.249C129.227 191.99 132.872 193.913 124.991 190.84C124.441 190.625 123.046 190.472 122.72 189.915C122.328 189.244 122.82 188.424 122.96 187.748C123.179 186.727 123.018 185.22 123.487 184.256C123.77 183.675 125.522 184.356 125.904 184.433C128.429 184.916 130.947 185.318 133.442 185.958C143.335 188.501 153.515 189.671 163.378 192.273C163.578 192.327 163.337 193.003 163.303 193.104C162.934 193.972 162.495 194.808 161.99 195.604C161.365 196.789 160.882 198.071 160.232 199.238C160.106 199.465 159.841 200.253 159.574 200.377C159.126 200.588 158.639 200.355 158.2 200.249Z" fill="white"/>
<path fill-rule="evenodd" clip-rule="evenodd" d="M124.12 183.128C124.861 183.219 125.592 183.374 126.306 183.593C137.056 185.604 132.264 185.055 144.353 187.441C146.923 187.941 159.214 190.272 163.599 191.719C164.853 192.283 163.113 194.675 162.484 195.773C161.937 196.742 161.484 197.804 160.914 198.882C160.614 199.444 160.651 199.345 160.572 199.497C160.212 200.213 160.082 200.783 159.31 200.842C158.898 200.873 159.726 200.983 149.316 198.342C129.516 193.333 131.329 193.98 128.281 192.968C126.173 192.259 124.828 191.688 124.448 191.585C124.068 191.482 123.716 191.414 123.276 191.271C120.71 190.385 121.976 188.282 122.123 187.363C122.4 185.482 122.005 183.087 124.12 183.128ZM123.874 187.694C123.689 188.258 123.552 188.837 123.464 189.425C124.059 189.676 124.674 189.877 125.303 190.025C133.898 193.414 129.715 191.046 158.303 199.901C158.629 200.024 158.977 200.077 159.325 200.058H159.316L159.348 200.049H159.339L159.372 200.038H159.362L159.388 200.028L159.403 200.011L159.395 200.019L159.413 199.998L159.407 200.005C159.575 199.777 159.67 199.412 159.979 198.81C160.679 197.398 161.079 196.168 161.797 194.872C162.22 194.205 162.56 193.49 162.81 192.741C157.752 191.505 151.06 190.435 145.445 189.407C135.704 187.624 134.315 187.021 131.145 186.342C129.977 186.097 125.594 185.277 125.588 185.275C125.13 185.125 124.662 185.008 124.188 184.924C123.984 185.615 124.017 186.8 123.874 187.694ZM159.382 200.036L159.391 200.028L159.382 200.036ZM159.382 200.036H159.388H159.382ZM159.39 200.036L159.406 200.028L159.39 200.036ZM162.858 192.462C162.858 192.45 162.858 192.455 162.858 192.443V192.457V192.462Z" fill="#212121"/>
<path fill-rule="evenodd" clip-rule="evenodd" d="M157.037 204.7C157.152 202.414 158.572 199.617 159.407 197.519C160.286 195.312 161.344 193.178 162.276 190.995C162.534 190.39 163.037 188.756 163.632 188.34C164.65 187.63 167.363 188.867 168.332 189.327C178.126 193.964 186.105 198.31 195.37 203.594C183.17 207.4 170.281 207.1 157.037 204.7Z" fill="white"/>
<path fill-rule="evenodd" clip-rule="evenodd" d="M167.268 188.114C169.918 189.124 182.403 195.425 189.129 199.178C196.419 203.246 195.913 202.95 196.088 203.295C196.154 203.455 196.164 203.633 196.117 203.799C196.07 203.966 195.969 204.112 195.83 204.215C193.986 204.838 192.106 205.347 190.199 205.738C180.987 207.673 172.121 207.448 162.854 206.049C162.53 205.999 157.047 205.125 156.81 204.908C156.78 204.878 156.757 204.842 156.743 204.803C156.729 204.763 156.724 204.721 156.728 204.679C156.772 203.844 156.919 203.017 157.164 202.217C157.986 199.371 161.564 191.261 161.835 190.508C162.774 187.908 163.161 186.569 167.268 188.114ZM164.021 188.844L163.988 188.864L164.003 188.854C163.509 189.532 163.128 190.285 162.876 191.085C161.639 194.029 157.736 201.385 157.376 204.436C160.967 204.965 163.353 205.32 167.858 205.636C176.438 206.324 185.073 205.557 193.398 203.368C187.92 200.275 183.713 197.879 178.598 195.293C172.33 192.093 165.368 188.171 164.021 188.844Z" fill="#212121"/>
<path fill-rule="evenodd" clip-rule="evenodd" d="M106.972 291.789C106.972 291.789 98.5959 291.618 96.5029 288.225C95.4609 286.535 95.3489 283.165 95.7889 281.533C96.1889 280.033 97.0349 280.233 98.6459 279.471C103.771 277.032 113.89 286.456 116.657 281.271C117.177 280.295 117.02 284.116 117.101 284.485C117.178 285.094 117.129 285.712 116.959 286.301C116.788 286.89 116.498 287.439 116.108 287.912C114.1 290.706 110.128 291.322 106.972 291.789Z" fill="white"/>
<path fill-rule="evenodd" clip-rule="evenodd" d="M104.108 278.9C106.542 279.64 109.285 280.977 111.471 281.644C115.627 282.916 115.671 281.085 116.294 280.549C116.388 280.473 116.497 280.418 116.615 280.39C116.732 280.361 116.855 280.359 116.973 280.384C117.092 280.408 117.203 280.459 117.299 280.532C117.396 280.606 117.474 280.699 117.53 280.807C117.921 281.544 117.693 283.386 117.83 284.69C117.882 285.911 117.496 287.111 116.742 288.073C114.582 291.107 110.647 291.687 106.949 292.104C104.026 292.104 99.7928 291.593 97.3698 289.958C96.4972 289.401 95.8329 288.572 95.4798 287.599C94.9884 286.193 94.7692 284.705 94.8338 283.217C94.9518 280.297 95.7688 279.776 97.0918 279.284C98.8398 278.642 99.9668 277.634 104.108 278.9ZM117.784 284.359V284.338V284.359ZM116.217 281.489V281.475V281.489ZM116.217 281.489V281.483V281.489ZM115.171 288.125C115.94 287.301 116.405 286.238 116.487 285.113C116.472 284.703 116.41 284.748 116.38 284.222C116.364 283.881 116.353 283.199 116.337 282.829C112.525 285.915 104.437 278.978 99.6918 279.921C98.9485 280.151 98.2184 280.422 97.5048 280.733C97.2794 280.803 97.0659 280.907 96.8718 281.041C96.0348 281.705 96.0938 285.782 96.8638 287.529C98.0758 290.309 104.003 291.295 106.97 291.477C109.847 290.954 113.23 290.3 115.17 288.122L115.171 288.125Z" fill="#4965EE"/>
<path fill-rule="evenodd" clip-rule="evenodd" d="M31.9198 288.7C31.9198 288.7 23.5438 288.53 21.4508 285.137C20.4078 283.447 20.2958 280.077 20.7368 278.445C21.1368 276.945 21.9818 277.145 23.5938 276.383C28.7188 273.944 38.8368 283.368 41.6038 278.183C42.1248 277.207 41.9668 281.028 42.0478 281.397C42.1251 282.006 42.0769 282.624 41.9061 283.213C41.7353 283.803 41.4456 284.351 41.0548 284.824C39.0418 287.615 35.0748 288.231 31.9198 288.7Z" fill="white"/>
<path fill-rule="evenodd" clip-rule="evenodd" d="M29.0559 275.808C31.4889 276.548 34.2329 277.885 36.4179 278.552C40.5739 279.824 40.6179 277.993 41.2419 277.452C41.3356 277.375 41.4452 277.321 41.5627 277.292C41.6802 277.263 41.8026 277.261 41.921 277.286C42.0394 277.311 42.1508 277.362 42.247 277.435C42.3432 277.508 42.4217 277.602 42.4769 277.71C42.8679 278.447 42.6409 280.289 42.7769 281.593C42.83 282.814 42.4441 284.015 41.6889 284.976C39.5289 288.01 35.5949 288.59 31.8969 289.007C28.9739 289.007 24.7399 288.496 22.3169 286.861C21.4447 286.304 20.7804 285.475 20.4269 284.502C19.936 283.095 19.7168 281.608 19.7809 280.12C19.8999 277.2 20.7159 276.679 22.0389 276.187C23.7879 275.551 24.9139 274.543 29.0559 275.808ZM42.7319 281.267V281.255V281.266V281.245V281.267ZM41.1649 278.397L41.1589 278.383L41.1649 278.397ZM41.1649 278.397V278.391V278.397ZM40.1189 285.033C40.8884 284.209 41.3528 283.146 41.4349 282.021C41.4209 281.611 41.3579 281.656 41.3289 281.13C41.3129 280.789 41.3019 280.107 41.2859 279.737C37.4729 282.823 29.3859 275.886 24.6409 276.829C23.8972 277.059 23.1668 277.33 22.4529 277.641C22.2276 277.711 22.0142 277.815 21.8199 277.949C20.9829 278.613 21.0419 282.69 21.8129 284.437C23.0239 287.217 28.9509 288.203 31.9189 288.385C34.7999 287.863 38.1769 287.208 40.1169 285.031L40.1189 285.033Z" fill="#212121"/>
<path fill-rule="evenodd" clip-rule="evenodd" d="M178.471 294.685C178.471 294.685 170.095 294.515 168.002 291.121C166.96 289.431 166.848 286.062 167.288 284.43C167.688 282.93 168.534 283.13 170.145 282.368C175.27 279.929 185.389 289.352 188.156 284.168C188.677 283.191 188.519 287.012 188.6 287.382C188.677 287.991 188.628 288.608 188.457 289.198C188.287 289.787 187.997 290.335 187.607 290.808C185.594 293.6 181.627 294.218 178.471 294.685Z" fill="white"/>
<path fill-rule="evenodd" clip-rule="evenodd" d="M175.607 281.8C178.041 282.541 180.784 283.878 182.97 284.544C187.126 285.817 187.17 283.986 187.794 283.45C187.887 283.373 187.997 283.319 188.115 283.29C188.232 283.261 188.355 283.259 188.473 283.284C188.591 283.309 188.703 283.36 188.799 283.433C188.895 283.506 188.974 283.6 189.029 283.708C189.42 284.445 189.192 286.287 189.329 287.591C189.381 288.812 188.995 290.012 188.241 290.974C186.081 294.007 182.146 294.588 178.448 295.004C175.525 295.004 171.292 294.494 168.869 292.859C167.996 292.302 167.332 291.473 166.979 290.5C166.488 289.093 166.268 287.606 166.333 286.118C166.451 283.198 167.268 282.677 168.591 282.184C170.339 281.538 171.466 280.53 175.607 281.8ZM189.283 287.26V287.24V287.26ZM187.716 284.39V284.376V284.39ZM187.716 284.39V284.384V284.39ZM186.67 291.027C187.439 290.203 187.904 289.14 187.986 288.015C187.971 287.605 187.909 287.649 187.879 287.123C187.864 286.783 187.852 286.101 187.836 285.731C184.024 288.817 175.936 281.88 171.191 282.823C170.447 283.053 169.717 283.324 169.004 283.635C168.778 283.705 168.565 283.809 168.371 283.943C167.534 284.607 167.593 288.684 168.363 290.431C169.575 293.211 175.502 294.197 178.47 294.378C181.346 293.85 184.729 293.2 186.669 291.019L186.67 291.027Z" fill="#212121"/>
<path fill-rule="evenodd" clip-rule="evenodd" d="M181.933 131.567C180.972 133.874 179.311 135.823 177.186 137.138C179.271 138.713 180.895 140.82 181.886 143.238C182.674 140.59 184.441 138.342 186.827 136.949C184.667 135.718 182.953 133.834 181.933 131.567Z" fill="white"/>
<path fill-rule="evenodd" clip-rule="evenodd" d="M183.152 132.925C183.825 133.832 184.628 134.635 185.534 135.309C187.149 136.495 187.469 136.259 187.534 136.952C187.466 137.768 186.759 137.473 184.974 139.38C184.357 140.05 183.833 140.799 183.415 141.608C182.506 143.361 182.8 143.65 182.185 143.962C182.037 144.023 181.874 144.036 181.719 144C181.563 143.964 181.423 143.881 181.316 143.762C181.143 143.534 181.208 143.568 180.888 142.869C179.857 140.795 178.395 138.964 176.6 137.5C175.864 136.038 178.9 136.69 181.648 131.438C181.668 131.391 181.7 131.35 181.741 131.318C181.781 131.287 181.829 131.266 181.879 131.257C182.274 131.226 182.149 131.564 183.152 132.925ZM178.332 137.158C179.737 138.317 180.92 139.722 181.822 141.304C182.651 139.534 183.939 138.018 185.551 136.913C183.989 135.733 182.748 134.179 181.944 132.394C181.166 134.264 179.923 135.904 178.332 137.158Z" fill="#212121"/>
<path fill-rule="evenodd" clip-rule="evenodd" d="M264.864 120.428C263.903 122.735 262.243 124.684 260.117 126C262.203 127.575 263.826 129.682 264.817 132.1C265.606 129.452 267.372 127.204 269.758 125.812C267.598 124.58 265.885 122.695 264.864 120.428Z" fill="white"/>
<path fill-rule="evenodd" clip-rule="evenodd" d="M266.083 121.786C266.756 122.692 267.559 123.495 268.465 124.169C270.08 125.356 270.4 125.119 270.465 125.813C270.396 126.628 269.689 126.333 267.905 128.241C267.287 128.91 266.762 129.66 266.345 130.469C265.436 132.222 265.731 132.51 265.115 132.823C264.967 132.883 264.804 132.896 264.649 132.861C264.493 132.825 264.353 132.742 264.246 132.623C264.073 132.395 264.138 132.43 263.819 131.731C262.788 129.658 261.327 127.828 259.533 126.364C258.798 124.903 261.833 125.555 264.581 120.303C264.601 120.256 264.633 120.214 264.673 120.183C264.713 120.151 264.761 120.131 264.812 120.123C265.206 120.086 265.081 120.425 266.083 121.786ZM261.263 126.018C262.668 127.177 263.851 128.582 264.753 130.165C265.582 128.395 266.87 126.878 268.482 125.773C266.919 124.593 265.679 123.039 264.875 121.254C264.098 123.125 262.854 124.765 261.263 126.018Z" fill="#212121"/>
<path fill-rule="evenodd" clip-rule="evenodd" d="M216.821 109.039C215.859 111.346 214.198 113.294 212.073 114.61C214.159 116.185 215.782 118.292 216.773 120.71C217.562 118.063 219.329 115.815 221.714 114.422C219.554 113.191 217.841 111.306 216.821 109.039Z" fill="white"/>
<path fill-rule="evenodd" clip-rule="evenodd" d="M216.824 108.73C217.304 108.763 217.689 110.989 221.07 113.23C222.125 113.914 222.37 113.839 222.417 114.43C222.365 115.048 222.117 114.881 220.851 115.918C219.689 116.881 218.755 118.088 218.114 119.454C217.373 121.03 217.63 121.154 217.067 121.44C215.507 121.915 216.637 119.672 212.176 115.617C211.576 115.08 211.641 115.189 211.486 114.98C210.75 113.519 213.786 114.172 216.533 108.919C216.805 109.038 216.953 109.103 216.533 108.919C216.556 108.861 216.596 108.812 216.648 108.778C216.7 108.744 216.762 108.727 216.824 108.73ZM213.219 114.63C214.624 115.788 215.807 117.193 216.709 118.776C217.538 117.006 218.826 115.49 220.438 114.385C218.876 113.205 217.635 111.651 216.831 109.866C216.054 111.736 214.81 113.377 213.219 114.63Z" fill="#212121"/>
<path fill-rule="evenodd" clip-rule="evenodd" d="M275.358 153.743C274.396 156.05 272.736 157.998 270.611 159.314C272.696 160.889 274.319 162.996 275.311 165.414C276.1 162.767 277.867 160.519 280.252 159.126C278.092 157.895 276.378 156.01 275.358 153.743Z" fill="white"/>
<path fill-rule="evenodd" clip-rule="evenodd" d="M276.576 155.1C277.249 156.007 278.052 156.809 278.958 157.483C280.573 158.67 280.893 158.434 280.958 159.127C280.889 159.943 280.183 159.648 278.398 161.555C277.781 162.225 277.256 162.974 276.838 163.783C275.929 165.536 276.224 165.824 275.608 166.137C275.46 166.197 275.297 166.21 275.142 166.175C274.986 166.139 274.845 166.056 274.739 165.937C274.567 165.709 274.631 165.743 274.312 165.044C273.281 162.971 271.82 161.141 270.027 159.677C269.291 158.216 272.327 158.868 275.074 153.616C275.094 153.569 275.125 153.527 275.165 153.496C275.206 153.464 275.253 153.443 275.304 153.435C275.7 153.4 275.574 153.74 276.576 155.1ZM271.756 159.333C273.161 160.492 274.344 161.897 275.246 163.479C276.075 161.709 277.363 160.193 278.976 159.088C277.414 157.908 276.173 156.354 275.368 154.569C274.591 156.44 273.347 158.08 271.756 159.334V159.333Z" fill="#212121"/>
<path fill-rule="evenodd" clip-rule="evenodd" d="M193.423 233.735C193.423 233.735 196.943 272.165 197.292 273.443C199.282 280.728 244.092 281.507 246.005 272.18C246.324 270.624 252.652 233.738 251.792 232.848C250.492 231.5 247.884 231.461 246.222 231.104C242.238 230.248 238.36 228.93 234.369 228.121C229.989 227.404 225.535 227.257 221.117 227.683C211.552 228.252 202.489 231.215 193.423 233.735Z" fill="#4965EE"/>
<path fill-rule="evenodd" clip-rule="evenodd" d="M243.616 229.739C248.325 230.922 248.694 230.574 250.516 231.218C251.205 231.443 251.831 231.827 252.345 232.338C252.709 232.753 252.668 233.488 252.545 235.007C252.075 240.28 250.109 252.484 249.26 257.699C246.709 273.322 246.753 272.768 246.298 273.567C245.329 274.959 243.966 276.029 242.383 276.639C235.051 279.961 221.232 280.171 212.76 279.407C208.571 279.016 198.019 277.733 196.702 273.728C196.339 272.542 193.022 233.774 193.122 233.764V233.71C193.126 233.676 193.135 233.642 193.149 233.61C193.316 233.316 204.873 230.101 205.908 229.827C210.436 228.571 215.062 227.702 219.737 227.227C232.327 226.106 235.156 227.584 243.616 229.739ZM193.772 234.059C194.172 238.045 197.304 268.805 197.853 272.827C197.881 273.179 197.996 273.519 198.188 273.816C198.38 274.113 198.643 274.357 198.953 274.527C200.283 275.377 201.744 276.001 203.278 276.375C209.649 278.125 218.616 278.486 225.197 278.2C230.097 277.979 241.697 276.986 244.708 273.141C245.058 272.694 245.273 272.157 245.326 271.592C245.845 268.722 251.45 235.952 251.121 233.235C250.077 232.308 247.897 232.156 246.502 231.903C243.725 231.396 238.202 229.616 234.239 228.774C231.765 228.291 229.248 228.059 226.727 228.081C216.064 228.061 209.056 229.774 198.627 232.633C193.221 234.122 193.758 233.923 193.772 234.059Z" fill="#212121"/>
<path fill-rule="evenodd" clip-rule="evenodd" d="M193.3 235.17C196.272 237.437 212.931 242.762 225.651 240.03C229.965 239.103 257.608 237.411 250.302 230.296C245.508 225.626 221.869 223.806 218.061 224.788C214.576 225.688 188.808 228.725 193.3 235.17Z" fill="white"/>
<path fill-rule="evenodd" clip-rule="evenodd" d="M222.284 223.808C228.791 223.913 235.273 224.645 241.64 225.994C245.34 226.832 251.97 228.576 252.296 232.346C252.696 238.692 231.211 239.635 225.496 240.784C221.816 241.454 218.062 241.619 214.338 241.276C205.063 240.53 196.306 237.496 193.566 235.737C193.513 235.753 193.457 235.753 193.404 235.738C193.351 235.724 193.303 235.695 193.266 235.654L193.231 235.612C193.011 235.331 192.823 235.027 192.67 234.704C190.423 229.458 205.704 226.493 211.447 225.363C218.6 223.969 218.534 223.8 222.284 223.808ZM218.141 225.484C214.55 226.307 191.096 228.97 193.271 234.447C193.501 234.991 193.552 235.004 194.229 235.373C197.851 237.313 204.782 238.894 209.162 239.53C214.658 240.445 220.274 240.363 225.741 239.289C229.813 238.515 245.677 237.302 249.911 233.889C250.865 233.113 250.933 232.468 250.467 231.705C249.924 230.903 249.179 230.259 248.306 229.839C241.436 226.17 221.717 224.631 218.141 225.484Z" fill="#212121"/>
<path fill-rule="evenodd" clip-rule="evenodd" d="M222.19 230.676C213.175 227.486 203.754 225.357 194.79 221.896C189.255 219.761 183.648 217.965 178.542 214.867C175.597 213.081 173.322 211.923 171.515 208.827C170.385 207.153 169.581 205.281 169.146 203.308C168.499 198.636 170.806 196.116 174.746 194.166C177.338 192.918 180.168 192.243 183.044 192.188C185.92 192.132 188.775 192.698 191.412 193.846C194.512 195.373 197.383 197.326 199.943 199.646C205.912 204.458 211.004 210.268 214.991 216.817C218.926 223.6 217.924 221.659 222.19 230.676Z" fill="white"/>
<path fill-rule="evenodd" clip-rule="evenodd" d="M188.966 192.161C190.927 192.716 192.797 193.551 194.519 194.64C197.714 196.775 200.72 199.18 203.505 201.828C210.642 208.484 214.347 214.042 218.683 222.402C219.517 224.02 219.648 224.365 222.367 230.316C222.491 230.589 222.496 230.582 222.499 230.695C222.496 230.743 222.482 230.79 222.458 230.831C222.434 230.873 222.401 230.909 222.361 230.935C222.321 230.962 222.275 230.979 222.227 230.984C222.18 230.99 222.131 230.985 222.086 230.969C222.212 230.613 222.236 230.544 222.086 230.969C214.82 228.526 208.886 227.144 201.407 224.829C198.698 223.986 197.268 223.539 188.831 220.397C185.218 219.13 181.727 217.54 178.4 215.647C174.588 213.37 172.73 212.424 170.575 208.734C169.521 207.129 168.779 205.34 168.386 203.461C168.048 201.6 168.318 199.68 169.156 197.985C171.424 193.748 179.982 189.692 188.966 192.161ZM183.313 192.961C178.319 193 173.942 195.004 171.793 197.061C170.931 197.862 170.316 198.893 170.021 200.032C169.737 201.29 169.741 202.597 170.033 203.853C170.69 205.871 171.646 207.779 172.871 209.512C173.284 210.075 173.751 210.596 174.266 211.068C176.47 212.783 178.828 214.293 181.308 215.577C184.245 217.058 187.266 218.365 190.356 219.491C195.988 221.635 195.825 221.64 198.795 222.705C206.175 225.33 214.26 227.47 221.57 230.115C219.376 225.292 216.843 220.631 213.99 216.166C212.475 213.762 210.777 211.478 208.911 209.335C204.605 204.445 199.732 200.085 194.394 196.349C191.134 194.111 187.267 192.928 183.313 192.959V192.961Z" fill="#212121"/>
<path fill-rule="evenodd" clip-rule="evenodd" d="M223.2 230.945C231.986 227.172 241.249 224.432 249.969 220.392C255.352 217.899 260.83 215.741 265.722 212.316C268.544 210.341 270.739 209.037 272.34 205.829C273.358 204.084 274.036 202.163 274.34 200.167C274.68 195.467 272.213 193.099 268.154 191.41C265.486 190.334 262.618 189.846 259.745 189.979C256.871 190.112 254.06 190.863 251.503 192.181C248.51 193.907 245.772 196.042 243.369 198.525C237.727 203.717 233.027 209.847 229.476 216.642C226 223.669 226.869 221.668 223.2 230.945Z" fill="white"/>
<path fill-rule="evenodd" clip-rule="evenodd" d="M260.834 189.181C264.976 189.215 270.157 190.692 272.911 193.489C275.492 196.151 275.689 199.961 274.292 203.461C272.677 207.461 271.292 209.135 269.098 210.835C268.155 211.565 265.86 213.135 265.327 213.485C263.72 214.535 262.055 215.495 260.341 216.361C256.741 218.197 247.856 222.03 247.755 222.072C239.409 225.572 231.805 227.75 223.326 231.234C223.177 230.886 223.146 230.814 223.326 231.234C223.286 231.251 223.243 231.26 223.2 231.259C223.156 231.259 223.113 231.249 223.074 231.23C223.034 231.212 222.999 231.186 222.971 231.153C222.942 231.12 222.921 231.082 222.908 231.04C222.871 230.872 222.822 231.08 223.832 228.424C225.316 224.516 225.307 224.53 225.554 223.911C227.349 219.583 229.445 215.387 231.827 211.353C234.887 206.571 238.508 202.173 242.614 198.253C248.092 192.933 252.812 189.164 260.834 189.181ZM252.669 192.461C248.625 194.34 244.595 198.212 241.229 201.661C236.44 206.39 232.454 211.869 229.429 217.881C227.265 221.903 225.38 226.069 223.786 230.349C235.904 225.049 237.023 225.832 256.239 216.778C259.604 215.284 262.814 213.464 265.823 211.344C269.423 208.838 270.442 208.044 272.223 204.336C273.27 202.123 273.957 200.229 273.436 197.649C273.107 196.07 272.182 194.679 270.854 193.765C266.654 190.663 259.224 189.483 252.669 192.461Z" fill="#212121"/>
<path fill-rule="evenodd" clip-rule="evenodd" d="M184.956 204.8C198.036 205.815 219.509 222.808 221.435 229.907L184.956 204.8Z" fill="white"/>
<path fill-rule="evenodd" clip-rule="evenodd" d="M185.058 204.492C193.847 204.804 204.766 211.734 211.611 217.376C214.859 220.076 220.695 225.65 221.711 229.738C221.741 229.852 221.76 229.777 221.516 230.21C221.023 229.928 221.195 230.11 220.988 229.593C218.247 222.906 198.119 207.537 186.151 205.304C184.634 205.023 185.06 205.27 184.64 204.777C185.027 204.449 184.949 204.487 185.058 204.492Z" fill="#212121"/>
<path fill-rule="evenodd" clip-rule="evenodd" d="M258.665 202.692C245.678 204.56 225.365 222.921 223.905 230.13L258.665 202.692Z" fill="white"/>
<path fill-rule="evenodd" clip-rule="evenodd" d="M258.976 202.646C258.465 203.331 259.11 202.728 256.419 203.58C244.886 207.216 228.166 221.88 224.735 228.804C223.906 230.528 224.545 229.971 223.842 230.436L223.602 230.068C224.802 222.479 244.256 204.276 258.149 202.436C258.739 202.361 258.542 202.323 258.976 202.646Z" fill="#212121"/>
<path fill-rule="evenodd" clip-rule="evenodd" d="M222.313 180.046C223.479 185.506 222.813 191.701 222.613 197.246C222.313 205.476 221.839 228.572 222.328 231.089" fill="white"/>
<path fill-rule="evenodd" clip-rule="evenodd" d="M222.747 179.332C223.086 179.775 223.259 179.647 223.902 182.798C224.49 186.01 224.769 189.27 224.737 192.535C224.573 221.219 223.359 224.635 223.164 230.313C223.211 230.743 223.148 231.179 222.98 231.578L222.486 231.925H222.478L221.878 231.782C221.423 231.151 221.497 231.282 221.46 231.129C221.344 230.617 221.272 230.129 221.196 229.611C219.978 220.979 220.036 214.197 220.236 205.597C220.608 190.37 221.788 188.134 221.61 182.263C221.523 179.629 221.348 180.713 221.63 179.563L222.13 179.198H222.137L222.747 179.332Z" fill="#212121"/>
<path fill-rule="evenodd" clip-rule="evenodd" d="M51.3998 244.242C51.2948 248.976 52.9588 264.409 53.0938 272.842C53.1738 277.899 71.1358 277.363 71.7828 273.487C72.0558 271.852 73.0278 243.863 72.0378 243.187C70.6838 242.274 51.3998 244.242 51.3998 244.242Z" fill="white"/>
<path fill-rule="evenodd" clip-rule="evenodd" d="M51.3678 243.934C55.6748 243.407 64.7268 242.434 69.4678 242.334C72.3528 242.286 72.6538 242.526 72.8628 243.56C73.6818 247.898 72.8378 272.738 72.4828 273.909C71.7828 276.109 67.7748 276.855 65.4888 277.118C62.1618 277.474 57.3428 277.343 54.4388 275.768C53.8694 275.519 53.3771 275.123 53.0135 274.619C52.6499 274.115 52.4283 273.523 52.3718 272.904C52.1718 263.593 50.6718 244.241 51.0898 244.241C51.0903 244.165 51.119 244.091 51.1703 244.034C51.2215 243.978 51.2918 243.942 51.3678 243.934ZM51.7148 244.527C51.7748 249.627 53.6728 264.673 53.8148 272.856C53.9588 276.388 66.5618 276.469 70.2278 274.228C70.5612 274.053 70.8303 273.777 70.9958 273.439C71.2378 272.683 72.2178 243.839 71.4748 243.697C68.6148 243.2 54.5808 244.3 51.7148 244.527ZM71.7078 243.76L71.6968 243.754L71.7078 243.76ZM71.6908 243.752H71.7048L71.6898 243.746L71.6908 243.752ZM71.6908 243.752H71.6838H71.6908Z" fill="#212121"/>
<path fill-rule="evenodd" clip-rule="evenodd" d="M72.6531 250.737C70.7051 256.106 59.6651 256.265 54.2451 254.289C53.3888 253.996 52.5902 253.556 51.8851 252.989C51.7421 252.857 51.7851 252.945 51.7461 252.441C52.3841 252.395 52.0121 252.356 52.6021 252.656C55.8331 254.242 69.4021 255.043 72.0901 250.48L72.5031 250.326L72.6531 250.737Z" fill="#212121"/>
<path fill-rule="evenodd" clip-rule="evenodd" d="M72.454 258.077C69.877 262.135 56.438 262.067 52.43 259.143C52.23 258.991 52.282 259.093 52.189 258.578C52.955 258.44 52.277 258.478 53.538 258.872C55.868 259.566 62.099 260.05 67.338 259.297C68.775 259.091 70.96 258.75 71.964 257.697L72.402 257.639L72.454 258.077Z" fill="#212121"/>
<path fill-rule="evenodd" clip-rule="evenodd" d="M72.3772 264.367L72.2372 264.786C67.7378 267.495 62.3654 268.36 57.2432 267.2C55.8652 266.892 53.6902 266.473 52.8062 265.257L52.8312 264.814C53.5632 264.855 53.0552 264.782 53.6992 265.136C54.3127 265.42 54.9701 265.597 55.6432 265.659C57.5071 265.928 59.3854 266.085 61.2682 266.13C64.9108 266.082 68.5213 265.441 71.9572 264.23L72.3772 264.367Z" fill="#212121"/>
<path fill-rule="evenodd" clip-rule="evenodd" d="M72.2648 270.067C72.1648 271.148 70.7538 271.954 69.7648 272.389C66.4828 273.826 61.1458 273.989 57.7648 273.314C56.0828 272.961 53.7318 272.147 52.9438 270.614L53.0438 270.181L53.4778 270.281C55.0038 272.188 61.2168 272.229 63.6518 272.093C65.2888 271.993 70.9519 271.537 71.6319 270.046C71.6879 269.916 71.5928 270.004 72.0318 269.703L72.2648 270.067Z" fill="#212121"/>
<path fill-rule="evenodd" clip-rule="evenodd" d="M185.5 74.542C185.469 76.492 186.188 78.596 186.5 80.519C186.581 81.009 187.093 81.951 186.857 82.438C186.457 83.255 185.492 83.51 184.693 83.754C184.201 83.8992 183.687 83.9481 183.177 83.898" fill="white"/>
<path fill-rule="evenodd" clip-rule="evenodd" d="M185.509 73.76L186.055 73.995L186.279 74.546C186.279 76.939 186.9 78.505 187.12 80.413C187.17 80.913 187.649 81.774 187.402 82.528C186.985 83.819 184.502 84.403 183.151 84.208L182.869 83.87C183.429 83.41 182.977 83.689 183.913 83.549C184.483 83.4256 185.036 83.2346 185.561 82.98C186.348 82.58 186.42 82.111 186.375 82.212V82.2V82.212V82.199V82.211V82.189L186.369 82.211V82.18V82.2C186.4 81.858 186.038 81.345 185.827 80.362C185.281 78.5243 184.91 76.6393 184.717 74.732C184.717 74.466 184.678 74.614 184.949 73.985L185.499 73.761L185.509 73.76Z" fill="#212121"/>
<path fill-rule="evenodd" clip-rule="evenodd" d="M178.823 71.9C177.187 71.9652 175.584 72.3816 174.123 73.121L178.823 71.9Z" fill="white"/>
<path fill-rule="evenodd" clip-rule="evenodd" d="M179.354 71.327L179.603 71.8659V71.874L179.394 72.43C178.717 72.744 178.98 72.671 178.457 72.68C177.37 72.7271 176.29 72.8697 175.228 73.106C173.956 73.419 174.52 73.461 173.843 73.273C173.994 72.786 173.861 72.902 174.416 72.545C175.604 71.7992 176.944 71.3281 178.338 71.166C178.9 71.1 178.7 71.082 179.354 71.327Z" fill="#212121"/>
<path fill-rule="evenodd" clip-rule="evenodd" d="M189.03 71.536C189.606 71.2937 190.251 71.2646 190.847 71.454C191.913 71.663 192.915 71.754 193.962 72.034" fill="white"/>
<path fill-rule="evenodd" clip-rule="evenodd" d="M191.924 71.046C192.643 71.2314 193.35 71.4612 194.04 71.734L194.276 72.116L193.884 72.334C193.14 72.247 192.59 72.247 191.738 72.205C190.772 72.154 189.762 71.95 189.501 72.151L189.494 72.158L189.481 72.168L188.901 72.297L188.401 71.983V71.976L188.272 71.396L188.587 70.896C189.513 70.276 190.839 70.744 191.924 71.046Z" fill="#212121"/>
<path fill-rule="evenodd" clip-rule="evenodd" d="M177.136 75.467C177.026 76.0845 177.01 76.7148 177.088 77.337L177.136 75.467Z" fill="white"/>
<path d="M177.087 78.118C176.902 78.1178 176.722 78.0519 176.581 77.932C176.44 77.812 176.346 77.6458 176.316 77.463C176.224 76.7546 176.241 76.0363 176.366 75.333C176.407 75.1343 176.524 74.9595 176.692 74.8455C176.86 74.7315 177.066 74.6872 177.266 74.722C177.465 74.7568 177.644 74.868 177.764 75.032C177.883 75.196 177.934 75.4 177.906 75.601C177.812 76.1325 177.796 76.6749 177.859 77.211C177.877 77.3228 177.871 77.4372 177.84 77.5463C177.81 77.6554 177.756 77.7566 177.682 77.8428C177.609 77.9291 177.518 77.9984 177.415 78.0459C177.312 78.0934 177.2 78.118 177.087 78.118Z" fill="#212121"/>
<path fill-rule="evenodd" clip-rule="evenodd" d="M190.62 75.041C190.546 75.6793 190.567 76.325 190.683 76.957L190.62 75.041Z" fill="white"/>
<path d="M190.682 77.7381C190.497 77.738 190.319 77.6725 190.178 77.5531C190.037 77.4337 189.943 77.2682 189.912 77.0861C189.784 76.364 189.764 75.627 189.852 74.8991C189.867 74.7952 189.904 74.6954 189.958 74.6058C190.013 74.5162 190.085 74.4386 190.171 74.3775C190.256 74.3165 190.353 74.2733 190.456 74.2505C190.558 74.2277 190.664 74.2257 190.768 74.2448C190.871 74.2639 190.969 74.3036 191.057 74.3615C191.145 74.4195 191.22 74.4944 191.278 74.582C191.336 74.6696 191.375 74.7679 191.394 74.8712C191.414 74.9745 191.412 75.0805 191.389 75.1831C191.333 75.7313 191.354 76.2848 191.453 76.8271C191.472 76.9391 191.466 77.0539 191.436 77.1634C191.406 77.2729 191.352 77.3745 191.279 77.4612C191.205 77.5479 191.114 77.6176 191.011 77.6654C190.908 77.7132 190.796 77.738 190.682 77.7381Z" fill="#212121"/>
<path fill-rule="evenodd" clip-rule="evenodd" d="M182.2 90.66C183.192 90.8664 184.223 90.7652 185.156 90.3699C186.089 89.9746 186.879 89.3041 187.42 88.448" fill="white"/>
<path fill-rule="evenodd" clip-rule="evenodd" d="M187.593 88.184L187.677 88.619C187.199 89.6006 186.422 90.4047 185.456 90.9144C184.491 91.4242 183.389 91.6132 182.309 91.454C182.009 91.428 182.179 91.491 181.572 91.126L181.425 90.55V90.543L181.732 90.034C182.681 89.79 181.945 89.909 183.064 89.99C184.304 90.1009 185.539 89.7214 186.503 88.933C187.407 88.175 186.836 88.345 187.593 88.184Z" fill="#212121"/>
<path fill-rule="evenodd" clip-rule="evenodd" d="M135.793 92L135.752 92.44C115.013 110.231 102.826 136.934 110.683 163.098C112.542 169.256 121.353 177.788 126.193 181.904C130.953 178.043 129.845 179.242 138.549 173.279L138.02 172.014C137.374 170.317 136.631 168.659 135.797 167.046C133.751 163.261 131.645 160.958 130.982 159.693C130.374 158.462 129.833 157.199 129.361 155.91C129.323 155.809 129.309 155.701 129.319 155.593C129.394 155.175 129.426 155.265 130.731 154.114C131.979 153.037 133.069 151.79 133.97 150.409C136.713 146.63 142.599 135.788 144.654 131.717C147.164 126.724 149.924 120.533 150.965 115.068C151.579 111.807 151.047 112.58 151.674 112.034C152.021 112.434 151.992 112.21 151.91 113.119C151.222 120.55 146.825 129.867 143.41 136.492C141.965 139.275 137.841 146.941 136.166 149.558C134.775 151.953 132.978 154.087 130.856 155.867C132.679 160.45 132.475 159.154 135.239 163.267C136.496 165.115 137.569 167.08 138.445 169.136C140.359 173.713 140.289 173.344 140.204 173.769C140.065 174.126 140.336 173.914 135.949 176.889C133.311 178.67 132.436 179.163 131.202 180.025C126.82 183.103 126.83 183.75 126.037 183.671C125.776 183.598 125.851 183.691 123.877 181.941C119.126 177.727 111.377 170.059 109.342 164.014C108.366 160.872 107.663 157.652 107.242 154.389C104.159 130.434 116.415 107.562 135.353 91.967L135.793 92Z" fill="#212121"/>
<path fill-rule="evenodd" clip-rule="evenodd" d="M137.892 174.65C138.147 175.009 138.408 175.365 138.653 175.732C139.122 176.432 140.258 177.374 140.137 178.317C140.113 178.508 139.315 178.891 139.178 178.978C138.287 179.546 137.501 180.269 136.678 180.921C135.506 181.843 134.278 182.694 133.09 183.59C132.704 183.88 131.901 184.501 131.367 184.445C131.115 184.419 130.51 183.183 130.379 182.997C129.871 182.274 129.365 181.534 128.873 180.784C131.908 178.466 131.139 179.273 137.892 174.65Z" fill="white"/>
<path fill-rule="evenodd" clip-rule="evenodd" d="M138.251 174.6C140.159 176.96 139.312 175.811 140.041 176.692C140.276 176.932 140.454 177.221 140.562 177.538C140.67 177.856 140.706 178.194 140.666 178.527C140.498 178.844 140.235 179.099 139.913 179.257C138.748 180.086 137.63 180.981 136.566 181.937C135.84 182.505 133.277 184.416 133.177 184.488C132.824 184.756 132.433 184.972 132.018 185.127C130.991 185.463 130.618 184.984 130.076 184.048C129.497 183.039 129.545 183.238 128.23 181.208C128.136 181.065 128.092 180.893 128.107 180.722C128.122 180.551 128.194 180.39 128.312 180.265C130.235 178.844 132.252 177.554 134.348 176.403C138.019 174.203 137.861 174.227 138.11 174.434L138.144 174.474L138.086 174.516L138.148 174.472L138.251 174.6ZM129.905 180.957C130.446 181.649 130.931 182.383 131.357 183.152C131.439 183.296 131.53 183.452 131.633 183.613C132.133 183.407 136.202 180.375 136.302 180.299C137.172 179.562 138.105 178.904 139.092 178.333C139.269 178.247 139.37 178.198 139.505 178.123C139.605 178.066 139.592 178.083 139.586 178.035C139.403 177.469 139.103 176.948 138.707 176.504C138.38 176.058 138.08 175.593 137.807 175.111C132.33 179.378 133.921 177.925 129.905 180.953V180.957ZM139.577 178.257C139.577 178.237 139.583 178.226 139.586 178.206C139.582 178.218 139.581 178.226 139.577 178.251V178.257Z" fill="#212121"/>
<path fill-rule="evenodd" clip-rule="evenodd" d="M128.608 186.675C131.208 183.343 134.736 180.896 138.242 178.615C138.835 178.23 140.722 176.415 141.561 176.615C143.214 177.001 146.044 181.765 146.769 183.142C147.176 184.129 147.731 185.049 148.414 185.869C148.946 186.36 151.135 186.229 151.792 186.382C154.019 187.03 155.989 188.356 157.427 190.175C157.5 190.291 157.015 190.457 156.962 190.47C156.447 190.546 155.922 190.54 155.409 190.452C154.356 190.421 153.303 190.509 152.27 190.714C151.32 190.863 151.058 190.754 151.17 191.856C151.377 193.956 152 196.026 152.348 198.105C152.887 201.325 153.213 204.576 153.728 207.805C153.962 209.271 154.57 212.686 153.136 213.781C151.536 215.001 149.771 212.068 149.367 211.045C147.683 206.776 146.86 202.019 145.767 197.56C145.782 197.667 145.804 197.773 145.832 197.878C146.089 198.82 146.296 199.776 146.452 200.74C146.831 202.497 148.572 206.347 146.827 207.791C144.227 209.947 142.245 204.917 141.827 203.23C141.693 202.486 141.492 201.756 141.227 201.048C141.217 201.048 141.252 201.56 141.256 201.601C141.33 202.264 141.537 202.941 141.546 203.608C141.561 204.736 140.446 205.351 139.482 205.444C138.518 205.537 137.915 204.608 137.607 203.811C136.85 201.778 136.382 199.65 136.218 197.487C136.166 196.85 136.536 195.802 136.105 195.251C134.4 193.062 128.608 186.675 128.608 186.675Z" fill="white"/>
<path fill-rule="evenodd" clip-rule="evenodd" d="M129.751 188.449C128.224 186.703 128.351 186.873 128.31 186.757C128.297 186.71 128.295 186.661 128.304 186.614C128.314 186.566 128.334 186.521 128.364 186.483C128.516 186.602 128.659 186.714 128.364 186.483C131.472 182.394 135.664 179.893 138.054 178.163C139.111 177.363 140.612 175.806 141.776 176.123C142.281 176.298 142.739 176.584 143.119 176.959C144.89 178.887 146.394 181.044 147.59 183.373C147.884 184.026 148.251 184.643 148.684 185.213C148.836 185.383 148.842 185.432 149.352 185.513C151.169 185.776 151.826 185.235 154.652 186.854C155.369 187.265 156.046 187.742 156.675 188.278C157.286 188.759 157.788 189.364 158.148 190.054C158.212 190.554 157.933 190.848 157.466 191.054C156.743 191.278 155.975 191.317 155.232 191.169C154.112 191.2 152.995 191.316 151.892 191.516C152.131 193.355 152.472 195.18 152.914 196.981C153.337 199.092 153.726 202.246 154.139 205.271C154.525 207.234 154.757 209.223 154.833 211.222C154.726 214.487 152.826 215.333 151.288 214.582C149.129 213.461 148.175 210.225 147.547 208.121C147.459 208.215 147.364 208.303 147.263 208.383C144.863 210.283 142.798 207.842 141.686 204.992L141.644 205.041C141.323 205.379 140.932 205.642 140.499 205.813C140.066 205.984 139.6 206.058 139.135 206.03C137.928 205.875 137.335 204.763 136.94 203.625C136.204 201.506 135.799 199.287 135.74 197.045C135.85 196.57 135.863 196.077 135.779 195.596V195.603C135.551 195.113 130.076 188.822 129.751 188.449ZM146.281 196.973C146.476 196.973 146.715 198.208 146.849 198.764C148.48 205.844 146.67 198.178 147.99 203.427C148.389 205.549 148.955 207.636 149.683 209.668C149.958 210.623 150.409 211.518 151.012 212.307C151.623 213.076 152.346 213.717 152.883 212.913C153.691 211.658 153.044 208.483 152.821 207.007C151.921 200.896 152.196 201.007 150.885 194.752C150.681 193.82 150.528 192.878 150.427 191.93C150.361 191.548 150.395 191.156 150.527 190.792C150.805 190.151 151.341 190.086 152.086 189.992C153.132 189.801 154.194 189.707 155.257 189.711C156.257 189.763 156.265 189.861 156.142 189.736C154.964 188.597 153.561 187.718 152.022 187.155C151.322 186.973 150.601 186.889 149.878 186.906C146.835 186.647 147.757 185.517 144.649 180.757C144.038 179.827 142.525 177.457 141.468 177.138L141.435 177.129C140.817 177.146 139.247 178.475 138.741 178.858C137.58 179.718 132.502 182.467 129.028 186.665C130.784 188.553 134.134 192.2 135.878 194.242C136.532 195.012 136.822 195.218 136.795 196.201C136.661 197.104 136.697 198.024 136.9 198.914C137.146 200.602 137.598 202.254 138.245 203.833C138.459 204.278 138.81 204.815 139.306 204.848C139.807 204.832 140.286 204.633 140.651 204.289C141.251 203.664 140.651 202.784 140.571 201.106C140.561 200.987 140.583 200.868 140.634 200.761C140.686 200.654 140.765 200.562 140.864 200.496C140.947 200.442 141.041 200.406 141.139 200.391C141.237 200.377 141.337 200.384 141.432 200.411C141.527 200.439 141.615 200.487 141.689 200.553C141.764 200.618 141.824 200.699 141.864 200.789C142.019 201.15 142.138 201.527 142.217 201.912C142.337 202.507 142.489 203.094 142.674 203.672C143.084 204.872 144.274 207.553 145.536 207.588C145.899 207.554 146.234 207.383 146.476 207.111C147.225 206.247 146.656 204.811 146.393 203.691C145.057 197.976 145.61 200.176 145.115 198.138C144.915 197.351 145.033 197.471 145.033 197.318C145.07 197.193 145.138 197.079 145.231 196.988C145.324 196.897 145.439 196.831 145.565 196.796C145.69 196.762 145.823 196.76 145.95 196.791C146.076 196.822 146.193 196.885 146.288 196.974L146.281 196.973ZM148.854 185.388H148.861H148.854ZM148.861 185.388L148.85 185.382L148.861 185.388ZM148.861 185.388L148.854 185.382L148.861 185.388ZM148.861 185.388L148.852 185.382L148.861 185.388ZM141.455 177.133H141.444H141.455ZM141.455 177.133H141.442H141.455Z" fill="#212121"/>
<path fill-rule="evenodd" clip-rule="evenodd" d="M249.63 146.774C240.853 131.815 221.854 132.174 217.903 132.719C213.227 133.363 208.203 134.245 204.122 136.748C200.327 138.981 197.085 142.043 194.641 145.705C191.966 149.555 190.107 153.91 189.177 158.505C186.133 176.356 201.633 189.746 217.594 193.205C221.012 193.946 224.18 193.417 227.584 193.018C234.633 192.192 242.384 189.664 246.971 183.995C255.215 173.8 258.023 161.079 249.63 146.774Z" fill="white"/>
<path fill-rule="evenodd" clip-rule="evenodd" d="M227.583 132.458C237.174 133.989 245.199 138.458 250.027 146.833C257.846 160.033 256.597 173.18 247.366 184.54C243.166 189.709 236.433 192.315 229.872 193.44C220.848 194.93 218.435 194.295 214.962 193.34C210.94 192.214 207.1 190.516 203.562 188.297C189.062 179.125 183.198 163.688 192.627 147.524C195.216 142.869 198.992 138.983 203.571 136.262C205.692 134.986 207.994 134.037 210.398 133.448C215.987 131.876 221.85 131.538 227.583 132.458ZM212.702 134.258C208.322 135.08 204.233 137.034 200.843 139.927C196.88 143.315 193.784 147.6 191.813 152.427C184.872 168.663 194.77 183.883 211.224 190.449C213.969 191.579 216.847 192.352 219.789 192.749C222.804 193.002 228.843 192.141 230.948 191.733C241.559 189.633 246.262 185.09 250.259 178.09C256.039 167.878 255.309 157.356 249.359 146.926C245.018 139.711 238.07 135.67 229.791 133.951C224.145 132.748 218.299 132.854 212.7 134.26L212.702 134.258ZM250.026 146.831L249.997 146.783L250.026 146.831Z" fill="#212121"/>
<path fill-rule="evenodd" clip-rule="evenodd" d="M246.7 150.047C239.1 137.796 222.643 138.09 219.221 138.536C215.171 139.064 210.821 139.786 207.285 141.836C204.032 143.634 201.225 146.141 199.073 149.172C196.771 152.291 195.159 155.864 194.341 159.653C191.705 174.272 205.13 185.239 218.954 188.071C221.914 188.678 224.654 188.245 227.606 187.918C233.711 187.242 240.425 185.171 244.397 180.528C251.538 172.181 253.97 161.763 246.7 150.047Z" fill="white"/>
<path fill-rule="evenodd" clip-rule="evenodd" d="M228.7 138.489C236.245 139.85 242.94 143.369 247.037 150.089C247.736 151.22 248.376 152.386 248.955 153.583C251.638 158.868 252.207 164.977 250.545 170.667C249.104 175.213 246.542 179.323 243.097 182.62C237.957 187.097 230.769 188.412 223.997 188.937C221.535 189.168 219.052 188.919 216.685 188.202C202.433 184.415 190.535 172.744 193.934 158.463C195.26 153.605 197.8 149.163 201.314 145.556C203.418 143.511 205.841 141.822 208.487 140.556C210.905 139.523 213.449 138.815 216.052 138.45C220.234 137.673 224.524 137.686 228.7 138.489ZM210.99 140.817C204.905 142.923 199.322 148.023 196.215 155.6C191.031 168.324 199.207 179.908 212.343 185.374C214.927 186.449 217.63 187.211 220.395 187.644C223.407 187.954 229.037 187.15 230.96 186.773C239.619 185.054 243.535 181.573 246.885 176.304C252.371 167.633 251.673 158.804 246.478 150.186C239.455 139.156 223.365 136.638 210.99 140.817ZM247.036 150.09L247.008 150.047L247.036 150.09Z" fill="#212121"/>
<path fill-rule="evenodd" clip-rule="evenodd" d="M231.636 156.109C231.236 148.432 216.705 146.467 216.003 155.546C215.696 159.513 219.158 161.736 222.562 162.722C227.452 164.139 233.893 166.495 232.546 171.378C229.8 181.329 212.71 177.714 214.063 170.522" fill="white"/>
<path fill-rule="evenodd" clip-rule="evenodd" d="M222.853 148.613C227.387 148.658 232.033 151.562 232.107 156.083L231.662 156.583C230.913 155.913 231.313 156.435 231.002 155.225C229.678 150.488 222.233 148.915 218.764 151.958C218.05 152.643 217.536 153.51 217.279 154.465C217.021 155.421 217.03 156.428 217.304 157.379C217.739 158.541 218.553 159.522 219.616 160.162C221.416 161.347 222.853 161.526 225.431 162.402C229.67 163.849 234.338 166.264 233.838 170.731C233.632 172.094 233.109 173.39 232.312 174.515C226.979 182.035 211.998 177.606 213.605 170.441L214.147 170.065C214.579 170.694 214.525 170.555 214.501 170.765C213.893 176.865 228.183 179.492 231.172 171.904C231.476 171.342 231.616 170.706 231.578 170.068C231.54 169.43 231.325 168.815 230.957 168.293C228.867 165.445 222.91 164.171 220.871 163.379C214.848 161.009 214.971 156.85 214.907 156.734C214.524 152.391 217.511 148.613 222.853 148.613Z" fill="#4965EE"/>
<path fill-rule="evenodd" clip-rule="evenodd" d="M224.221 144.568C224.214 150.381 222.889 174.557 222.629 181.83L224.221 144.568Z" fill="white"/>
<path fill-rule="evenodd" clip-rule="evenodd" d="M224.692 144.57C225.272 152.157 224.777 161.862 224.33 169.495C224.139 172.395 224.025 174.025 223.094 181.847L222.612 182.3L222.164 181.813C221.93 176.613 221.964 172.544 222.058 169.385C222.715 152.206 223.29 150.128 223.75 144.567L224.223 144.097L224.692 144.57Z" fill="#4965EE"/>
<path fill-rule="evenodd" clip-rule="evenodd" d="M62.3629 250.318C62.3629 250.318 53.9859 250.147 51.8939 246.754C46.8519 238.58 66.7509 233.633 71.8729 241.92C72.2625 242.626 72.4347 243.432 72.368 244.235C72.3012 245.039 71.9986 245.805 71.4979 246.437C69.4849 249.235 65.5179 249.851 62.3629 250.318Z" fill="white"/>
<path fill-rule="evenodd" clip-rule="evenodd" d="M62.3301 250.632C59.909 250.646 57.4987 250.309 55.1741 249.632C52.9411 248.896 51.3741 247.859 50.6451 245.695C48.1251 238.244 63.6351 233.781 70.5881 239.368C75.2781 243.136 72.9401 248.127 67.2751 249.778C65.651 250.188 63.9978 250.474 62.3301 250.632ZM62.6131 249.956C65.7501 249.372 69.6131 248.537 71.1781 245.747C71.5931 245.039 71.7636 244.214 71.6631 243.399C71.2925 242.135 70.475 241.049 69.3631 240.343C63.1411 235.966 48.6491 239.753 52.4271 246.365C53.5521 248.298 56.9671 249.183 59.1581 249.594C60.2952 249.827 61.4524 249.949 62.6131 249.956Z" fill="#212121"/>
<path fill-rule="evenodd" clip-rule="evenodd" d="M106.83 287.992C106.83 287.992 98.4542 287.822 96.3612 284.428C91.3192 276.255 111.218 271.307 116.34 279.594C116.729 280.3 116.901 281.106 116.834 281.909C116.768 282.713 116.466 283.479 115.966 284.112C113.952 286.91 109.985 287.526 106.83 287.992Z" fill="white"/>
<path fill-rule="evenodd" clip-rule="evenodd" d="M106.8 288.306C104.379 288.322 101.969 287.987 99.6438 287.312C97.4108 286.575 95.8438 285.539 95.1158 283.375C92.5958 275.924 108.106 271.461 115.059 277.047C119.748 280.815 117.41 285.807 111.745 287.457C110.121 287.866 108.467 288.15 106.8 288.306ZM107.084 287.631C110.221 287.047 114.084 286.211 115.649 283.421C116.064 282.713 116.234 281.888 116.133 281.073C115.762 279.809 114.945 278.724 113.833 278.018C107.611 273.64 93.1188 277.428 96.8968 284.04C98.0218 285.973 101.437 286.857 103.627 287.268C104.763 287.502 105.92 287.624 107.081 287.631H107.084Z" fill="#4965EE"/>
<path fill-rule="evenodd" clip-rule="evenodd" d="M31.777 284.9C31.777 284.9 23.401 284.729 21.309 281.336C16.267 273.162 36.166 268.214 41.288 276.502C41.6775 277.208 41.8497 278.014 41.783 278.817C41.7163 279.621 41.4136 280.387 40.913 281.019C38.9 283.819 34.933 284.435 31.777 284.9Z" fill="white"/>
<path fill-rule="evenodd" clip-rule="evenodd" d="M31.7452 285.216C29.3241 285.23 26.9138 284.893 24.5892 284.216C22.3562 283.48 20.7892 282.443 20.0602 280.279C17.5402 272.833 33.0502 268.37 40.0002 273.956C44.6902 277.724 42.3522 282.716 36.6872 284.366C35.064 284.775 33.4118 285.059 31.7452 285.216ZM32.0282 284.54C35.1652 283.956 39.0282 283.12 40.5932 280.33C41.0081 279.622 41.1785 278.797 41.0782 277.983C40.7075 276.719 39.8901 275.633 38.7782 274.927C32.5562 270.55 18.0642 274.337 21.8422 280.949C22.9672 282.882 26.3822 283.766 28.5732 284.178C29.7102 284.411 30.8674 284.533 32.0282 284.54Z" fill="#212121"/>
<path fill-rule="evenodd" clip-rule="evenodd" d="M178.329 290.89C178.329 290.89 169.953 290.719 167.86 287.326C162.818 279.152 182.717 274.205 187.839 282.492C188.229 283.198 188.401 284.003 188.335 284.807C188.268 285.611 187.966 286.377 187.465 287.009C185.452 289.807 181.484 290.423 178.329 290.89Z" fill="white"/>
<path fill-rule="evenodd" clip-rule="evenodd" d="M178.3 291.2C175.879 291.213 173.469 290.877 171.145 290.2C168.911 289.464 167.345 288.427 166.616 286.263C164.096 278.812 179.606 274.349 186.559 279.936C191.248 283.704 188.91 288.695 183.245 290.345C181.621 290.756 179.968 291.042 178.3 291.2ZM178.584 290.524C181.721 289.94 185.584 289.104 187.149 286.315C187.563 285.607 187.734 284.782 187.634 283.967C187.263 282.703 186.445 281.617 185.334 280.911C179.112 276.534 164.62 280.321 168.398 286.933C169.523 288.866 172.938 289.75 175.129 290.162C176.264 290.397 177.42 290.519 178.58 290.528L178.584 290.524Z" fill="#212121"/>
<path fill-rule="evenodd" clip-rule="evenodd" d="M176.413 96.948C180.545 99.054 185.819 98.948 190.17 97.616C189.037 100.28 187.823 102.91 186.46 105.48C185.66 106.987 184.268 111.839 182.42 112.334C182.395 112.341 181.636 109.819 181.584 109.669C180.128 105.441 180.154 106.532 176.413 96.948Z" fill="white"/>
<path fill-rule="evenodd" clip-rule="evenodd" d="M176.553 96.671C180.613 98.523 185.478 98.263 189.775 96.98C189.916 96.9045 190.078 96.8744 190.237 96.8937C190.397 96.913 190.546 96.9809 190.666 97.088C191.005 97.466 190.914 97.725 190.734 98.157C188.385 103.789 187.423 105.105 186.714 106.814C186.114 108.512 185.332 110.14 184.381 111.669C183.868 112.369 182.939 113.304 182.123 113.041C182.023 112.941 181.847 112.964 181.693 112.582C181.674 112.53 180.913 109.982 180.535 108.882C179.31 105.358 178.897 104.999 177.19 100.142C175.996 96.748 176.013 96.924 176.203 96.72C176.248 96.6759 176.307 96.6473 176.37 96.6385C176.433 96.6297 176.497 96.6411 176.553 96.671ZM177.136 97.83C180.426 105.397 180.356 104.593 181.598 107.637C183.049 111.249 182.667 111.353 182.967 110.98C183.733 109.85 184.355 108.628 184.82 107.344C186.111 104.154 186.535 103.967 188.901 98.681C186.021 99.3302 183.034 99.3398 180.15 98.709C176.984 97.943 176.891 97.268 177.136 97.83Z" fill="#212121"/>
<path fill-rule="evenodd" clip-rule="evenodd" d="M190.17 97.616C191.401 97.288 192.543 96.6883 193.512 95.861C196.657 92.906 198.831 85.49 198.651 82.481C201.179 82.8579 203.687 83.3612 206.165 83.989C205.392 91.263 203.629 99.355 198.639 104.665C197.408 105.975 195.715 108.741 193.756 108.979C193.141 109.054 192.207 106.489 191.888 106.028C190.859 104.475 189.664 103.039 188.325 101.744C188.969 100.38 189.58 99 190.17 97.616Z" fill="white"/>
<path fill-rule="evenodd" clip-rule="evenodd" d="M198.766 81.777C201.831 82.248 203.018 82.484 204.701 82.857C207.279 83.444 207.071 83.111 206.688 86.092C206.034 91.21 204.801 96.538 202.233 101.036C201.311 102.649 200.192 104.141 198.902 105.479C197.566 107.018 196.063 109.196 194.068 109.59C193.843 109.654 193.603 109.644 193.383 109.562C193.164 109.48 192.976 109.33 192.848 109.134C192.327 108.351 191.894 107.512 191.558 106.634C191.362 106.23 191.123 105.849 190.843 105.498C188.509 102.145 187.948 102.252 187.894 101.76C187.903 101.578 187.853 101.745 188.56 100.299C190.039 97.267 189.836 97.419 190.078 97.321C190.896 97.0604 191.676 96.6947 192.4 96.233C194.817 94.6 196.34 90.612 197.121 87.794C198.55 82.584 197.54 82.534 198.221 81.92C198.298 81.861 198.385 81.8179 198.479 81.7934C198.573 81.7688 198.67 81.7633 198.766 81.777ZM193.9 108.382L193.887 108.371L193.905 108.384L193.89 108.373L193.904 108.381L193.886 108.37H193.897L193.881 108.362L193.9 108.382ZM196.735 92.1C194.768 95.978 192.992 97.1 190.505 97.851C190.284 97.915 190.628 97.534 188.846 101.635C190.07 102.785 191.175 104.055 192.146 105.425C192.761 106.264 193.361 107.855 193.819 108.311C195.211 107.976 196.606 105.941 197.586 104.749C198.34 103.933 199.045 103.074 199.698 102.175C203.105 97.37 204.564 90.863 205.273 85.065C205.273 85.04 205.331 84.59 205.333 84.565C203.667 84.09 200.108 83.465 199.34 83.328C198.996 86.3827 198.114 89.3524 196.735 92.1Z" fill="#212121"/>
<path fill-rule="evenodd" clip-rule="evenodd" d="M168.717 80.414C169.19 80.386 169.278 83.659 169.353 84.314C169.494 86.7042 170.015 89.0566 170.896 91.283C172.048 93.7371 173.991 95.7334 176.413 96.952C177.051 98.586 177.681 100.224 178.35 101.852C177.65 103.046 173.27 110.438 171.563 111.052C170.936 111.277 169.145 109.033 168.78 108.652C163.98 103.579 161.166 95.652 160.88 89.031C160.691 86.4383 160.661 83.8364 160.79 81.24C163.256 80.846 166.188 80.564 168.717 80.414Z" fill="white"/>
<path fill-rule="evenodd" clip-rule="evenodd" d="M171.777 91.7191C172.815 93.5096 174.316 94.9882 176.121 96.0001C177.342 96.6871 176.601 95.6801 178.907 101.257C179.225 102.022 179.379 101.697 177.102 105.332C176.146 106.848 173.802 110.509 172.325 111.504C172.101 111.698 171.818 111.812 171.522 111.828C171.226 111.843 170.933 111.76 170.689 111.59C170.261 111.312 169.868 110.984 169.519 110.611C169.102 110.186 167.505 108.402 167.034 107.83C163.142 102.794 160.8 96.7331 160.295 90.3881C160.211 89.2201 159.935 81.4981 160.395 80.9191C160.538 80.7381 160.462 80.7061 163.415 80.4331C167.299 80.0861 168.606 80.1511 168.708 80.0971C170.14 80.0611 169.092 87.0691 171.777 91.7191ZM161.277 81.6501C161.218 85.2314 161.441 88.8119 161.945 92.3581C162.541 95.7095 163.612 98.9588 165.125 102.008C166.236 104.259 167.676 106.331 169.4 108.156C170.012 108.915 170.697 109.611 171.447 110.233C173.047 109.15 176.547 103.418 177.533 101.78C175.561 96.8321 176.054 97.5541 175.542 97.2601C167.465 92.4771 169.487 83.0831 168.616 80.7341C165.978 80.9821 163.917 81.2001 161.272 81.6501H161.277ZM168.703 80.7271H168.732H168.703Z" fill="#212121"/>
<path fill-rule="evenodd" clip-rule="evenodd" d="M241.944 244.853L243.021 245.363L243.427 246.483C243.114 249.505 243.139 255.714 241.906 262.818C241.506 265.074 240.953 267.35 240.806 267.851L240.527 268.251L240.081 268.351H240.073L239.7 268.089C239.319 266.458 240.124 269.411 240.209 255.083C240.214 254.131 240.267 246.763 240.309 246.34L240.819 245.263L241.939 244.857L241.944 244.853Z" fill="white"/>
</svg>
