<svg width="53" height="52" viewBox="0 0 53 52" fill="none" xmlns="http://www.w3.org/2000/svg">
<path d="M37.2436 14.9531C40.2881 18.0047 41.8104 21.687 41.8104 26C41.8104 30.313 40.2881 33.9953 37.2436 37.0469C34.1991 40.0986 30.5254 41.6244 26.2226 41.6244C21.9197 41.6244 18.2663 40.0782 15.2624 36.9859L26.2226 26V10.3756C30.5254 10.3756 34.1991 11.9014 37.2436 14.9531ZM26.2834 0C33.4685 0 39.598 2.54304 44.6722 7.62911C49.7464 12.7152 52.2834 18.8388 52.2834 26C52.2834 33.1612 49.7464 39.2848 44.6722 44.3709C39.598 49.457 33.4685 52 26.2834 52C19.0984 52 12.9688 49.457 7.89469 44.3709C2.82053 39.2848 0.283447 33.1612 0.283447 26C0.283447 18.8388 2.82053 12.7152 7.89469 7.62911C12.9688 2.54304 19.0984 0 26.2834 0ZM26.2834 46.8732C32.0071 46.8732 36.8986 44.8388 40.9579 40.77C45.0173 36.7011 47.0469 31.7778 47.0469 26C47.0469 20.2222 45.0173 15.2989 40.9579 11.23C36.8986 7.16119 32.0071 5.12676 26.2834 5.12676C20.5598 5.12676 15.6683 7.16119 11.609 11.23C7.54965 15.2989 5.51998 20.2222 5.51998 26C5.51998 31.7778 7.54965 36.7011 11.609 40.77C15.6683 44.8388 20.5598 46.8732 26.2834 46.8732Z" fill="#4965EE"/>
</svg>
