<svg width="14" height="11" viewBox="0 0 14 11" fill="none" xmlns="http://www.w3.org/2000/svg">
<path d="M13.5002 0H0.500244C0.223682 0 0.000244141 0.223437 0.000244141 0.5V10.5C0.000244141 10.7766 0.223682 11 0.500244 11H13.5002C13.7768 11 14.0002 10.7766 14.0002 10.5V0.5C14.0002 0.223437 13.7768 0 13.5002 0ZM12.2377 1.70156L7.30806 5.5375C7.18618 5.63281 7.01587 5.63281 6.89399 5.5375L1.96274 1.70156C1.94416 1.68722 1.93052 1.66741 1.92375 1.64493C1.91698 1.62245 1.91742 1.59841 1.925 1.57618C1.93258 1.55396 1.94692 1.53466 1.96602 1.521C1.98512 1.50734 2.00801 1.5 2.03149 1.5H12.169C12.1925 1.5 12.2154 1.50734 12.2345 1.521C12.2536 1.53466 12.2679 1.55396 12.2755 1.57618C12.2831 1.59841 12.2835 1.62245 12.2767 1.64493C12.27 1.66741 12.2563 1.68722 12.2377 1.70156V1.70156Z" fill="#979BA9"/>
</svg>
