<svg width="14" height="14" viewBox="0 0 14 14" fill="none" xmlns="http://www.w3.org/2000/svg">
<path d="M8.50024 0C7.71106 0.000580738 6.93319 0.187828 6.23019 0.546449C5.52719 0.90507 4.91899 1.42489 4.45526 2.06346C3.99152 2.70203 3.68542 3.44124 3.56193 4.22071C3.43845 5.00018 3.50109 5.7978 3.74474 6.54844L0.146682 10.1464C0.0529261 10.2402 0.000253037 10.3674 0.000244141 10.5V13C0.000244141 13.1326 0.0529225 13.2598 0.146691 13.3536C0.240459 13.4473 0.367636 13.5 0.500244 13.5H3.00024C3.13285 13.5 3.26003 13.4473 3.3538 13.3536C3.44757 13.2598 3.50024 13.1326 3.50024 13V12H4.50024C4.63285 12 4.76003 11.9473 4.8538 11.8536C4.94757 11.7598 5.00024 11.6326 5.00024 11.5V10.5H6.00024C6.13287 10.5 6.26007 10.4473 6.35387 10.3536L6.95181 9.75556C7.63925 9.97939 8.36706 10.0515 9.08506 9.9669C9.80306 9.88231 10.4942 9.64304 11.1108 9.26558C11.7274 8.88812 12.2548 8.38145 12.6567 7.78049C13.0586 7.17952 13.3254 6.49856 13.4388 5.78453C13.5521 5.0705 13.5093 4.34039 13.3132 3.64451C13.1171 2.94864 12.7725 2.30355 12.3031 1.75371C11.8337 1.20387 11.2506 0.762358 10.5941 0.4596C9.93757 0.156842 9.22321 3.91715e-05 8.50024 0V0ZM9.75012 4.75C9.55234 4.75 9.359 4.69135 9.19455 4.58147C9.0301 4.47159 8.90193 4.31541 8.82624 4.13268C8.75055 3.94996 8.73075 3.74889 8.76933 3.55491C8.80792 3.36093 8.90316 3.18275 9.04301 3.04289C9.18287 2.90304 9.36105 2.8078 9.55503 2.76921C9.74901 2.73063 9.95008 2.75043 10.1328 2.82612C10.3155 2.90181 10.4717 3.02998 10.5816 3.19443C10.6915 3.35888 10.7501 3.55222 10.7501 3.75C10.7501 4.01522 10.6448 4.26957 10.4572 4.45711C10.2697 4.64464 10.0153 4.75 9.75012 4.75Z" fill="#979BA9"/>
</svg>
