<svg width="563" height="470" viewBox="0 0 563 470" fill="none" xmlns="http://www.w3.org/2000/svg">
<path d="M379.362 63.7273L383.537 65.1994V67.2502L377.231 64.5769V62.8484L383.537 60.175V62.2258L379.362 63.7273ZM385.781 69.1692H384.207L388.132 57.5896H389.707L385.781 69.1692ZM394.852 66.0637C394.852 65.8049 394.723 65.6023 394.464 65.4558C394.21 65.3044 393.8 65.1701 393.234 65.0529C391.349 64.6574 390.406 63.8567 390.406 62.6506C390.406 61.9475 390.697 61.3615 391.278 60.8928C391.864 60.4192 392.628 60.1823 393.57 60.1823C394.576 60.1823 395.38 60.4192 395.98 60.8928C396.586 61.3664 396.888 61.9817 396.888 62.7385H394.772C394.772 62.4358 394.674 62.1867 394.479 61.9914C394.283 61.7912 393.978 61.6911 393.563 61.6911C393.207 61.6911 392.931 61.7717 392.735 61.9328C392.54 62.094 392.443 62.299 392.443 62.5481C392.443 62.7824 392.552 62.9729 392.772 63.1194C392.997 63.261 393.373 63.3855 393.9 63.4929C394.427 63.5954 394.872 63.7126 395.233 63.8445C396.351 64.2546 396.91 64.9651 396.91 65.9758C396.91 66.6985 396.6 67.2844 395.98 67.7336C395.36 68.1779 394.559 68.4001 393.578 68.4001C392.914 68.4001 392.323 68.2829 391.805 68.0486C391.293 67.8093 390.89 67.4846 390.597 67.0744C390.304 66.6594 390.157 66.2126 390.157 65.7341H392.164C392.184 66.1101 392.323 66.3982 392.582 66.5984C392.84 66.7986 393.187 66.8987 393.622 66.8987C394.027 66.8987 394.332 66.823 394.537 66.6716C394.747 66.5154 394.852 66.3127 394.852 66.0637ZM400.649 58.3806V60.3288H402.004V61.8816H400.649V65.8366C400.649 66.1296 400.705 66.3396 400.818 66.4665C400.93 66.5935 401.145 66.657 401.462 66.657C401.696 66.657 401.904 66.6399 402.085 66.6057V68.2097C401.67 68.3366 401.242 68.4001 400.803 68.4001C399.319 68.4001 398.562 67.6506 398.532 66.1516V61.8816H397.375V60.3288H398.532V58.3806H400.649ZM407.611 68.2536C407.513 68.0632 407.442 67.8264 407.398 67.5432C406.885 68.1145 406.219 68.4001 405.399 68.4001C404.622 68.4001 403.978 68.1755 403.465 67.7263C402.957 67.2771 402.703 66.7107 402.703 66.0271C402.703 65.1872 403.013 64.5427 403.634 64.0935C404.259 63.6443 405.159 63.4172 406.336 63.4123H407.31V62.9582C407.31 62.592 407.215 62.299 407.025 62.0793C406.839 61.8596 406.544 61.7497 406.138 61.7497C405.782 61.7497 405.501 61.8352 405.296 62.0061C405.096 62.177 404.996 62.4113 404.996 62.7092H402.879C402.879 62.2502 403.021 61.8254 403.304 61.4348C403.587 61.0442 403.988 60.739 404.505 60.5193C405.023 60.2946 405.604 60.1823 406.248 60.1823C407.225 60.1823 407.999 60.4289 408.57 60.9221C409.146 61.4104 409.434 62.0988 409.434 62.9875V66.4226C409.439 67.1745 409.544 67.7434 409.749 68.1291V68.2536H407.611ZM405.86 66.7815C406.173 66.7815 406.461 66.7131 406.724 66.5764C406.988 66.4348 407.183 66.2468 407.31 66.0124V64.6501H406.519C405.46 64.6501 404.896 65.0163 404.827 65.7487L404.82 65.8733C404.82 66.1369 404.913 66.3542 405.098 66.5251C405.284 66.696 405.538 66.7815 405.86 66.7815ZM413.429 58.3806V60.3288H414.784V61.8816H413.429V65.8366C413.429 66.1296 413.486 66.3396 413.598 66.4665C413.71 66.5935 413.925 66.657 414.242 66.657C414.477 66.657 414.684 66.6399 414.865 66.6057V68.2097C414.45 68.3366 414.023 68.4001 413.583 68.4001C412.099 68.4001 411.342 67.6506 411.313 66.1516V61.8816H410.156V60.3288H411.313V58.3806H413.429ZM420.091 66.0637C420.091 65.8049 419.961 65.6023 419.702 65.4558C419.449 65.3044 419.038 65.1701 418.472 65.0529C416.587 64.6574 415.645 63.8567 415.645 62.6506C415.645 61.9475 415.935 61.3615 416.516 60.8928C417.102 60.4192 417.867 60.1823 418.809 60.1823C419.815 60.1823 420.618 60.4192 421.219 60.8928C421.824 61.3664 422.127 61.9817 422.127 62.7385H420.01C420.01 62.4358 419.912 62.1867 419.717 61.9914C419.522 61.7912 419.217 61.6911 418.802 61.6911C418.445 61.6911 418.169 61.7717 417.974 61.9328C417.779 62.094 417.681 62.299 417.681 62.5481C417.681 62.7824 417.791 62.9729 418.011 63.1194C418.235 63.261 418.611 63.3855 419.138 63.4929C419.666 63.5954 420.11 63.7126 420.471 63.8445C421.59 64.2546 422.149 64.9651 422.149 65.9758C422.149 66.6985 421.839 67.2844 421.219 67.7336C420.598 68.1779 419.798 68.4001 418.816 68.4001C418.152 68.4001 417.561 68.2829 417.044 68.0486C416.531 67.8093 416.128 67.4846 415.835 67.0744C415.542 66.6594 415.396 66.2126 415.396 65.7341H417.403C417.422 66.1101 417.561 66.3982 417.82 66.5984C418.079 66.7986 418.426 66.8987 418.86 66.8987C419.265 66.8987 419.571 66.823 419.776 66.6716C419.986 66.5154 420.091 66.3127 420.091 66.0637ZM427.675 63.7053L423.419 62.2185V60.1823L429.799 62.8557V64.5769L423.419 67.2575V65.2141L427.675 63.7053Z" fill="#23272A"/>
<path d="M511.87 415.254H504.56V413.803L508.01 410.127C508.483 409.609 508.833 409.157 509.057 408.772C509.287 408.386 509.401 408.02 509.401 407.673C509.401 407.199 509.282 406.828 509.043 406.56C508.803 406.286 508.461 406.15 508.017 406.15C507.539 406.15 507.16 406.316 506.882 406.648C506.608 406.975 506.472 407.407 506.472 407.944H504.348C504.348 407.295 504.502 406.701 504.809 406.164C505.122 405.627 505.561 405.207 506.128 404.905C506.694 404.597 507.336 404.443 508.054 404.443C509.152 404.443 510.004 404.707 510.61 405.234C511.22 405.761 511.525 406.506 511.525 407.468C511.525 407.995 511.389 408.532 511.115 409.079C510.842 409.626 510.373 410.263 509.709 410.991L507.285 413.547H511.87V415.254ZM519.271 411.24H520.479V412.947H519.271V415.254H517.154V412.947H512.781L512.686 411.613L517.132 404.59H519.271V411.24ZM514.796 411.24H517.154V407.475L517.015 407.717L514.796 411.24ZM527.18 408.193C527.742 407.519 528.447 407.182 529.297 407.182C531.016 407.182 531.887 408.181 531.912 410.178V415.254H529.795V410.237C529.795 409.782 529.697 409.448 529.502 409.233C529.307 409.013 528.982 408.904 528.528 408.904C527.908 408.904 527.459 409.143 527.18 409.621V415.254H525.064V404.004H527.18V408.193ZM533.014 411.218C533.014 410.432 533.165 409.731 533.468 409.116C533.771 408.501 534.205 408.025 534.772 407.688C535.343 407.351 536.005 407.182 536.757 407.182C537.826 407.182 538.697 407.509 539.371 408.164C540.05 408.818 540.428 409.707 540.507 410.83L540.521 411.372C540.521 412.588 540.182 413.564 539.503 414.301C538.824 415.034 537.914 415.4 536.771 415.4C535.629 415.4 534.716 415.034 534.032 414.301C533.353 413.569 533.014 412.573 533.014 411.313V411.218ZM535.131 411.372C535.131 412.124 535.272 412.7 535.555 413.1C535.839 413.496 536.244 413.694 536.771 413.694C537.284 413.694 537.684 413.498 537.972 413.108C538.26 412.712 538.405 412.082 538.405 411.218C538.405 410.481 538.26 409.909 537.972 409.504C537.684 409.099 537.279 408.896 536.757 408.896C536.239 408.896 535.839 409.099 535.555 409.504C535.272 409.905 535.131 410.527 535.131 411.372ZM546.406 414.448C545.884 415.083 545.161 415.4 544.238 415.4C543.388 415.4 542.739 415.156 542.29 414.668C541.845 414.179 541.618 413.464 541.609 412.522V407.329H543.725V412.448C543.725 413.274 544.101 413.686 544.853 413.686C545.571 413.686 546.064 413.437 546.333 412.939V407.329H548.457V415.254H546.465L546.406 414.448ZM554.342 409.314C554.054 409.275 553.8 409.255 553.58 409.255C552.779 409.255 552.254 409.526 552.005 410.068V415.254H549.888V407.329H551.888L551.947 408.274C552.371 407.546 552.96 407.182 553.712 407.182C553.946 407.182 554.166 407.214 554.371 407.278L554.342 409.314ZM559.494 413.064C559.494 412.805 559.365 412.602 559.106 412.456C558.852 412.304 558.442 412.17 557.875 412.053C555.991 411.657 555.048 410.857 555.048 409.651C555.048 408.947 555.339 408.362 555.92 407.893C556.506 407.419 557.27 407.182 558.212 407.182C559.218 407.182 560.021 407.419 560.622 407.893C561.227 408.366 561.53 408.982 561.53 409.738H559.413C559.413 409.436 559.316 409.187 559.12 408.991C558.925 408.791 558.62 408.691 558.205 408.691C557.848 408.691 557.573 408.772 557.377 408.933C557.182 409.094 557.084 409.299 557.084 409.548C557.084 409.782 557.194 409.973 557.414 410.119C557.639 410.261 558.014 410.385 558.542 410.493C559.069 410.595 559.514 410.713 559.875 410.844C560.993 411.255 561.552 411.965 561.552 412.976C561.552 413.698 561.242 414.284 560.622 414.734C560.002 415.178 559.201 415.4 558.22 415.4C557.556 415.4 556.965 415.283 556.447 415.049C555.934 414.809 555.532 414.485 555.239 414.074C554.946 413.659 554.799 413.213 554.799 412.734H556.806C556.826 413.11 556.965 413.398 557.223 413.598C557.482 413.799 557.829 413.899 558.264 413.899C558.669 413.899 558.974 413.823 559.179 413.672C559.389 413.515 559.494 413.313 559.494 413.064Z" fill="#23272A"/>
<path d="M282.057 112.712C250.751 99.6373 216.069 96.9863 183.14 105.151C150.211 113.316 120.785 131.863 99.2141 158.048C77.6435 184.234 65.0741 216.667 63.3655 250.55C61.6569 284.433 70.8998 317.966 89.7269 346.189C108.554 374.411 135.965 395.824 167.906 407.26C199.846 418.696 234.619 419.547 267.081 409.688C299.543 399.829 327.969 379.783 348.155 352.516C368.341 325.248 379.213 292.208 379.165 258.282L221.165 258.507L282.057 112.712Z" fill="#4965EE"/>
<path d="M438.431 223.813C439.056 191.044 429.474 158.891 411.014 131.809C392.553 104.727 366.127 84.0562 335.396 72.6603L280.46 220.802L438.431 223.813Z" fill="#23272A"/>
<path d="M384.262 355.701C381.546 361.202 380.663 367.335 381.738 373.214C382.814 379.092 385.794 384.412 390.247 388.404C394.699 392.396 400.395 394.854 406.509 395.422C412.624 395.99 418.841 394.639 424.262 391.564C429.683 388.489 434.027 383.85 436.667 378.316C439.306 372.783 440.104 366.642 438.945 360.781C437.787 354.921 434.731 349.644 430.22 345.714C425.709 341.784 419.977 339.403 413.852 338.917L412.601 349.094C416.522 349.405 420.19 350.928 423.077 353.444C425.964 355.959 427.92 359.336 428.661 363.087C429.403 366.838 428.892 370.768 427.203 374.31C425.514 377.851 422.733 380.821 419.264 382.789C415.794 384.757 411.815 385.621 407.902 385.258C403.988 384.894 400.343 383.321 397.494 380.766C394.644 378.211 392.737 374.806 392.048 371.044C391.36 367.282 391.925 363.357 393.663 359.836L384.262 355.701Z" fill="#23272A"/>
<path d="M423.165 288.507L420.71 295.053L414.165 297.507L420.71 299.962L423.165 306.507L425.62 299.962L432.165 297.507L425.62 295.053L423.165 288.507Z" fill="#4965EE"/>
<path d="M160.165 429.507L157.71 436.053L151.165 438.507L157.71 440.962L160.165 447.507L162.62 440.962L169.165 438.507L162.62 436.053L160.165 429.507Z" fill="#23272A"/>
<path d="M19.165 269.507L13.9832 283.325L0.165039 288.507L13.9832 293.689L19.165 307.507L24.3469 293.689L38.165 288.507L24.3469 283.325L19.165 269.507Z" fill="#4965EE"/>
<path d="M313.165 29.507L308.256 42.598L295.165 47.507L308.256 52.4161L313.165 65.507L318.074 52.4161L331.165 47.507L318.074 42.598L313.165 29.507Z" fill="#4965EE"/>
<path d="M66.165 125.507L60.9832 139.325L47.165 144.507L60.9832 149.689L66.165 163.507L71.3469 149.689L85.165 144.507L71.3469 139.325L66.165 125.507Z" fill="#23272A"/>
<path d="M451.165 153.507L448.438 160.78L441.165 163.507L448.438 166.234L451.165 173.507L453.892 166.234L461.165 163.507L453.892 160.78L451.165 153.507Z" fill="#23272A"/>
<rect x="28.165" y="349.507" width="211" height="44" rx="10" fill="#23272A"/>
<rect x="328.165" y="95.507" width="223" height="44" rx="10" fill="#4965EE"/>
<path d="M54.1377 375.31H50.2852L49.5527 377.507H47.2163L51.186 366.843H53.2222L57.2139 377.507H54.8774L54.1377 375.31ZM50.8784 373.53H53.5444L52.2041 369.538L50.8784 373.53ZM60.6597 374.585H59.8101V377.507H57.6934V369.582H59.8101V372.563H60.5645L62.293 369.582H64.9663L62.3736 373.354L65.208 377.507H62.3882L60.6597 374.585ZM72.4185 371.281H69.877V377.507H67.753V371.281H65.2554V369.582H72.4185V371.281ZM78.0983 369.582H80.215V377.507H78.0983V372.614L75.4469 377.507H73.3229V369.582H75.4469V374.467L78.0983 369.582ZM81.8078 377.507V369.582H85.1183C86.1974 369.582 87.0251 369.773 87.6012 370.154C88.1774 370.534 88.4655 371.081 88.4655 371.794C88.4655 372.16 88.3434 372.49 88.0993 372.783C87.86 373.071 87.5085 373.293 87.0446 373.449C87.611 373.557 88.0553 373.769 88.3776 374.087C88.7047 374.399 88.8683 374.785 88.8683 375.244C88.8683 375.981 88.59 376.543 88.0334 376.928C87.4816 377.314 86.6784 377.507 85.6237 377.507H81.8078ZM83.9245 374.218V375.815H85.631C86.3781 375.815 86.7516 375.554 86.7516 375.031C86.7516 374.499 86.3952 374.228 85.6823 374.218H83.9245ZM83.9245 372.798H85.2355C85.9777 372.788 86.3488 372.549 86.3488 372.08C86.3488 371.792 86.2463 371.587 86.0412 371.465C85.841 371.342 85.5334 371.281 85.1183 371.281H83.9245V372.798ZM96.8698 377.507H94.7458V374.46H92.1164V377.507H89.9997V369.582H92.1164V372.761H94.7458V369.582H96.8698V377.507ZM100.609 371.904H102.125C102.808 371.904 103.409 372.019 103.927 372.248C104.444 372.478 104.84 372.807 105.113 373.237C105.391 373.662 105.531 374.157 105.531 374.724C105.531 375.559 105.22 376.233 104.6 376.745C103.985 377.253 103.145 377.507 102.081 377.507H98.4846V369.582H100.609V371.904ZM108.9 377.507H106.783V369.582H108.9V377.507ZM100.609 373.603V375.815H102.11C102.53 375.815 102.852 375.717 103.077 375.522C103.302 375.327 103.414 375.061 103.414 374.724C103.414 374.382 103.304 374.111 103.084 373.911C102.864 373.706 102.54 373.603 102.11 373.603H100.609ZM114.25 377.654C113.088 377.654 112.14 377.297 111.408 376.584C110.68 375.871 110.317 374.922 110.317 373.735V373.53C110.317 372.734 110.47 372.024 110.778 371.399C111.086 370.769 111.52 370.285 112.082 369.948C112.648 369.607 113.293 369.436 114.015 369.436C115.099 369.436 115.951 369.778 116.572 370.461C117.197 371.145 117.509 372.114 117.509 373.369V374.233H112.463C112.531 374.751 112.736 375.166 113.078 375.478C113.425 375.791 113.862 375.947 114.389 375.947C115.204 375.947 115.842 375.652 116.301 375.061L117.341 376.225C117.023 376.675 116.594 377.026 116.052 377.28C115.51 377.529 114.909 377.654 114.25 377.654ZM114.008 371.15C113.588 371.15 113.246 371.291 112.983 371.574C112.724 371.858 112.558 372.263 112.485 372.79H115.429V372.622C115.419 372.153 115.292 371.792 115.048 371.538C114.804 371.279 114.457 371.15 114.008 371.15ZM129.015 377.507H126.891V371.296H124.24V377.507H122.123V369.582H129.015V377.507ZM130.139 373.471C130.139 372.685 130.29 371.985 130.593 371.369C130.896 370.754 131.33 370.278 131.897 369.941C132.468 369.604 133.13 369.436 133.882 369.436C134.951 369.436 135.823 369.763 136.496 370.417C137.175 371.072 137.554 371.96 137.632 373.083L137.646 373.625C137.646 374.841 137.307 375.818 136.628 376.555C135.95 377.287 135.039 377.654 133.896 377.654C132.754 377.654 131.841 377.287 131.157 376.555C130.478 375.822 130.139 374.826 130.139 373.567V373.471ZM132.256 373.625C132.256 374.377 132.397 374.953 132.681 375.354C132.964 375.749 133.369 375.947 133.896 375.947C134.409 375.947 134.809 375.752 135.098 375.361C135.386 374.966 135.53 374.336 135.53 373.471C135.53 372.734 135.386 372.163 135.098 371.758C134.809 371.352 134.404 371.15 133.882 371.15C133.364 371.15 132.964 371.352 132.681 371.758C132.397 372.158 132.256 372.78 132.256 373.625ZM145.56 369.582V377.507H143.443V371.296H141.576L141.444 373.742C141.361 375.046 141.104 375.996 140.675 376.592C140.245 377.187 139.605 377.492 138.756 377.507H138.038L138.016 375.786L138.28 375.764C138.661 375.735 138.939 375.51 139.115 375.09C139.29 374.67 139.4 373.955 139.444 372.944L139.591 369.582H145.56ZM149.291 371.904H150.808C151.491 371.904 152.092 372.019 152.609 372.248C153.127 372.478 153.522 372.807 153.796 373.237C154.074 373.662 154.213 374.157 154.213 374.724C154.213 375.559 153.903 376.233 153.283 376.745C152.668 377.253 151.828 377.507 150.764 377.507H147.167V369.582H149.291V371.904ZM149.291 373.603V375.815H150.793C151.213 375.815 151.535 375.717 151.76 375.522C151.984 375.327 152.097 375.061 152.097 374.724C152.097 374.382 151.987 374.111 151.767 373.911C151.547 373.706 151.223 373.603 150.793 373.603H149.291ZM159.402 371.919C159.402 371.64 159.31 371.426 159.124 371.274C158.943 371.118 158.685 371.04 158.348 371.04C158.001 371.04 157.718 371.113 157.498 371.259C157.283 371.401 157.176 371.604 157.176 371.867H155.059C155.059 371.15 155.357 370.566 155.953 370.117C156.548 369.668 157.31 369.443 158.238 369.443C159.258 369.443 160.059 369.643 160.64 370.044C161.226 370.444 161.519 371.013 161.519 371.75C161.519 372.102 161.412 372.426 161.197 372.724C160.987 373.017 160.689 373.252 160.303 373.427C161.207 373.745 161.658 374.358 161.658 375.266C161.658 375.993 161.346 376.574 160.721 377.009C160.101 377.439 159.273 377.654 158.238 377.654C157.276 377.654 156.485 377.429 155.865 376.98C155.245 376.53 154.935 375.925 154.935 375.163H157.051C157.051 375.432 157.171 375.649 157.41 375.815C157.649 375.981 157.962 376.064 158.348 376.064C158.724 376.064 159.017 375.976 159.227 375.801C159.437 375.625 159.542 375.395 159.542 375.112C159.542 374.765 159.441 374.519 159.241 374.372C159.041 374.221 158.741 374.145 158.34 374.145H157.19V372.768H158.414C159.073 372.749 159.402 372.466 159.402 371.919ZM162.453 373.471C162.453 372.685 162.604 371.985 162.907 371.369C163.21 370.754 163.644 370.278 164.211 369.941C164.782 369.604 165.443 369.436 166.195 369.436C167.265 369.436 168.136 369.763 168.81 370.417C169.489 371.072 169.867 371.96 169.945 373.083L169.96 373.625C169.96 374.841 169.621 375.818 168.942 376.555C168.263 377.287 167.353 377.654 166.21 377.654C165.067 377.654 164.154 377.287 163.471 376.555C162.792 375.822 162.453 374.826 162.453 373.567V373.471ZM164.569 373.625C164.569 374.377 164.711 374.953 164.994 375.354C165.277 375.749 165.683 375.947 166.21 375.947C166.723 375.947 167.123 375.752 167.411 375.361C167.699 374.966 167.843 374.336 167.843 373.471C167.843 372.734 167.699 372.163 167.411 371.758C167.123 371.352 166.718 371.15 166.195 371.15C165.678 371.15 165.277 371.352 164.994 371.758C164.711 372.158 164.569 372.78 164.569 373.625ZM171.238 377.507V369.582H174.548C175.628 369.582 176.455 369.773 177.031 370.154C177.608 370.534 177.896 371.081 177.896 371.794C177.896 372.16 177.774 372.49 177.529 372.783C177.29 373.071 176.939 373.293 176.475 373.449C177.041 373.557 177.485 373.769 177.808 374.087C178.135 374.399 178.298 374.785 178.298 375.244C178.298 375.981 178.02 376.543 177.463 376.928C176.912 377.314 176.108 377.507 175.054 377.507H171.238ZM173.355 374.218V375.815H175.061C175.808 375.815 176.182 375.554 176.182 375.031C176.182 374.499 175.825 374.228 175.112 374.218H173.355ZM173.355 372.798H174.666C175.408 372.788 175.779 372.549 175.779 372.08C175.779 371.792 175.676 371.587 175.471 371.465C175.271 371.342 174.963 371.281 174.548 371.281H173.355V372.798ZM184.022 377.507C183.924 377.317 183.854 377.08 183.81 376.797C183.297 377.368 182.631 377.654 181.81 377.654C181.034 377.654 180.389 377.429 179.877 376.98C179.369 376.53 179.115 375.964 179.115 375.28C179.115 374.441 179.425 373.796 180.045 373.347C180.67 372.898 181.571 372.671 182.748 372.666H183.722V372.212C183.722 371.845 183.627 371.552 183.436 371.333C183.251 371.113 182.955 371.003 182.55 371.003C182.193 371.003 181.913 371.089 181.708 371.259C181.507 371.43 181.407 371.665 181.407 371.963H179.291C179.291 371.504 179.432 371.079 179.715 370.688C179.999 370.298 180.399 369.992 180.917 369.773C181.434 369.548 182.015 369.436 182.66 369.436C183.636 369.436 184.41 369.682 184.982 370.176C185.558 370.664 185.846 371.352 185.846 372.241V375.676C185.851 376.428 185.956 376.997 186.161 377.383V377.507H184.022ZM182.272 376.035C182.584 376.035 182.872 375.967 183.136 375.83C183.4 375.688 183.595 375.5 183.722 375.266V373.904H182.931C181.871 373.904 181.307 374.27 181.239 375.002L181.232 375.127C181.232 375.39 181.324 375.608 181.51 375.779C181.695 375.949 181.949 376.035 182.272 376.035ZM193.767 371.281H191.225V377.507H189.101V371.281H186.604V369.582H193.767V371.281ZM197.85 377.654C196.688 377.654 195.74 377.297 195.008 376.584C194.28 375.871 193.917 374.922 193.917 373.735V373.53C193.917 372.734 194.071 372.024 194.378 371.399C194.686 370.769 195.12 370.285 195.682 369.948C196.248 369.607 196.893 369.436 197.615 369.436C198.699 369.436 199.551 369.778 200.172 370.461C200.797 371.145 201.109 372.114 201.109 373.369V374.233H196.063C196.131 374.751 196.336 375.166 196.678 375.478C197.025 375.791 197.462 375.947 197.989 375.947C198.804 375.947 199.442 375.652 199.901 375.061L200.941 376.225C200.623 376.675 200.194 377.026 199.652 377.28C199.11 377.529 198.509 377.654 197.85 377.654ZM197.608 371.15C197.188 371.15 196.846 371.291 196.583 371.574C196.324 371.858 196.158 372.263 196.085 372.79H199.029V372.622C199.019 372.153 198.892 371.792 198.648 371.538C198.404 371.279 198.057 371.15 197.608 371.15ZM209.045 369.582V377.507H206.928V371.296H205.06L204.928 373.742C204.845 375.046 204.589 375.996 204.159 376.592C203.73 377.187 203.09 377.492 202.24 377.507H201.523L201.501 375.786L201.764 375.764C202.145 375.735 202.424 375.51 202.599 375.09C202.775 374.67 202.885 373.955 202.929 372.944L203.075 369.582H209.045ZM215.288 369.582H217.405V377.507H215.288V372.614L212.637 377.507H210.513V369.582H212.637V374.467L215.288 369.582Z" fill="white"/>
<path d="M356.796 123.507H354.599V118.937H350.314V123.507H348.117V112.843H350.314V117.164H354.599V112.843H356.796V123.507ZM362.066 123.654C360.904 123.654 359.957 123.297 359.224 122.584C358.497 121.871 358.133 120.922 358.133 119.735V119.53C358.133 118.734 358.287 118.024 358.594 117.399C358.902 116.769 359.336 116.285 359.898 115.948C360.464 115.607 361.109 115.436 361.832 115.436C362.916 115.436 363.768 115.778 364.388 116.461C365.013 117.145 365.325 118.114 365.325 119.369V120.233H360.279C360.347 120.751 360.552 121.166 360.894 121.478C361.241 121.791 361.678 121.947 362.205 121.947C363.021 121.947 363.658 121.652 364.117 121.061L365.157 122.225C364.839 122.675 364.41 123.026 363.868 123.28C363.326 123.529 362.725 123.654 362.066 123.654ZM361.824 117.15C361.404 117.15 361.063 117.291 360.799 117.574C360.54 117.858 360.374 118.263 360.301 118.79H363.245V118.622C363.235 118.153 363.108 117.792 362.864 117.538C362.62 117.279 362.273 117.15 361.824 117.15ZM370.961 123.507C370.863 123.317 370.793 123.08 370.749 122.797C370.236 123.368 369.569 123.654 368.749 123.654C367.973 123.654 367.328 123.429 366.816 122.98C366.308 122.53 366.054 121.964 366.054 121.28C366.054 120.441 366.364 119.796 366.984 119.347C367.609 118.898 368.51 118.671 369.687 118.666H370.661V118.212C370.661 117.845 370.566 117.552 370.375 117.333C370.19 117.113 369.894 117.003 369.489 117.003C369.132 117.003 368.852 117.089 368.647 117.259C368.446 117.43 368.346 117.665 368.346 117.963H366.23C366.23 117.504 366.371 117.079 366.654 116.688C366.938 116.298 367.338 115.992 367.856 115.773C368.373 115.548 368.954 115.436 369.599 115.436C370.575 115.436 371.349 115.682 371.92 116.176C372.497 116.664 372.785 117.352 372.785 118.241V121.676C372.79 122.428 372.895 122.997 373.1 123.383V123.507H370.961ZM369.211 122.035C369.523 122.035 369.811 121.967 370.075 121.83C370.338 121.688 370.534 121.5 370.661 121.266V119.904H369.87C368.81 119.904 368.246 120.27 368.178 121.002L368.17 121.127C368.17 121.39 368.263 121.608 368.449 121.779C368.634 121.949 368.888 122.035 369.211 122.035ZM377.351 120.585H376.502V123.507H374.385V115.582H376.502V118.563H377.256L378.984 115.582H381.658L379.065 119.354L381.9 123.507H379.08L377.351 120.585ZM389.11 117.281H386.569V123.507H384.444V117.281H381.947V115.582H389.11V117.281ZM394.79 115.582H396.906V123.507H394.79V118.614L392.138 123.507H390.014V115.582H392.138V120.467L394.79 115.582ZM398.499 123.507V115.582H401.81C402.889 115.582 403.717 115.773 404.293 116.154C404.869 116.534 405.157 117.081 405.157 117.794C405.157 118.16 405.035 118.49 404.791 118.783C404.552 119.071 404.2 119.293 403.736 119.449C404.302 119.557 404.747 119.769 405.069 120.087C405.396 120.399 405.56 120.785 405.56 121.244C405.56 121.981 405.281 122.543 404.725 122.928C404.173 123.314 403.37 123.507 402.315 123.507H398.499ZM400.616 120.218V121.815H402.322C403.07 121.815 403.443 121.554 403.443 121.031C403.443 120.499 403.087 120.228 402.374 120.218H400.616ZM400.616 118.798H401.927C402.669 118.788 403.04 118.549 403.04 118.08C403.04 117.792 402.938 117.587 402.733 117.465C402.532 117.342 402.225 117.281 401.81 117.281H400.616V118.798ZM413.561 123.507H411.437V120.46H408.808V123.507H406.691V115.582H408.808V118.761H411.437V115.582H413.561V123.507ZM417.3 117.904H418.816C419.5 117.904 420.1 118.019 420.618 118.248C421.136 118.478 421.531 118.807 421.805 119.237C422.083 119.662 422.222 120.157 422.222 120.724C422.222 121.559 421.912 122.233 421.292 122.745C420.677 123.253 419.837 123.507 418.772 123.507H415.176V115.582H417.3V117.904ZM425.591 123.507H423.474V115.582H425.591V123.507ZM417.3 119.603V121.815H418.802C419.222 121.815 419.544 121.717 419.768 121.522C419.993 121.327 420.105 121.061 420.105 120.724C420.105 120.382 419.995 120.111 419.776 119.911C419.556 119.706 419.231 119.603 418.802 119.603H417.3ZM430.941 123.654C429.779 123.654 428.832 123.297 428.099 122.584C427.372 121.871 427.008 120.922 427.008 119.735V119.53C427.008 118.734 427.162 118.024 427.47 117.399C427.777 116.769 428.212 116.285 428.773 115.948C429.34 115.607 429.984 115.436 430.707 115.436C431.791 115.436 432.643 115.778 433.263 116.461C433.888 117.145 434.201 118.114 434.201 119.369V120.233H429.154C429.223 120.751 429.428 121.166 429.769 121.478C430.116 121.791 430.553 121.947 431.08 121.947C431.896 121.947 432.533 121.652 432.992 121.061L434.032 122.225C433.715 122.675 433.285 123.026 432.743 123.28C432.201 123.529 431.6 123.654 430.941 123.654ZM430.7 117.15C430.28 117.15 429.938 117.291 429.674 117.574C429.415 117.858 429.249 118.263 429.176 118.79H432.12V118.622C432.111 118.153 431.984 117.792 431.74 117.538C431.495 117.279 431.149 117.15 430.7 117.15ZM445.706 123.507H443.582V117.296H440.931V123.507H438.814V115.582H445.706V123.507ZM446.831 119.471C446.831 118.685 446.982 117.985 447.285 117.369C447.587 116.754 448.022 116.278 448.588 115.941C449.16 115.604 449.821 115.436 450.573 115.436C451.643 115.436 452.514 115.763 453.188 116.417C453.867 117.072 454.245 117.96 454.323 119.083L454.338 119.625C454.338 120.841 453.999 121.818 453.32 122.555C452.641 123.287 451.73 123.654 450.588 123.654C449.445 123.654 448.532 123.287 447.849 122.555C447.17 121.822 446.831 120.826 446.831 119.567V119.471ZM448.947 119.625C448.947 120.377 449.089 120.953 449.372 121.354C449.655 121.749 450.061 121.947 450.588 121.947C451.101 121.947 451.501 121.752 451.789 121.361C452.077 120.966 452.221 120.336 452.221 119.471C452.221 118.734 452.077 118.163 451.789 117.758C451.501 117.352 451.096 117.15 450.573 117.15C450.056 117.15 449.655 117.352 449.372 117.758C449.089 118.158 448.947 118.78 448.947 119.625ZM462.251 115.582V123.507H460.135V117.296H458.267L458.135 119.742C458.052 121.046 457.796 121.996 457.366 122.592C456.937 123.187 456.297 123.492 455.447 123.507H454.73L454.708 121.786L454.971 121.764C455.352 121.735 455.63 121.51 455.806 121.09C455.982 120.67 456.092 119.955 456.136 118.944L456.282 115.582H462.251ZM465.983 117.904H467.499C468.183 117.904 468.783 118.019 469.301 118.248C469.818 118.478 470.214 118.807 470.487 119.237C470.766 119.662 470.905 120.157 470.905 120.724C470.905 121.559 470.595 122.233 469.975 122.745C469.359 123.253 468.52 123.507 467.455 123.507H463.859V115.582H465.983V117.904ZM465.983 119.603V121.815H467.484C467.904 121.815 468.227 121.717 468.451 121.522C468.676 121.327 468.788 121.061 468.788 120.724C468.788 120.382 468.678 120.111 468.459 119.911C468.239 119.706 467.914 119.603 467.484 119.603H465.983ZM476.094 117.919C476.094 117.64 476.001 117.426 475.816 117.274C475.635 117.118 475.376 117.04 475.039 117.04C474.692 117.04 474.409 117.113 474.19 117.259C473.975 117.401 473.867 117.604 473.867 117.867H471.751C471.751 117.15 472.048 116.566 472.644 116.117C473.24 115.668 474.002 115.443 474.929 115.443C475.95 115.443 476.751 115.643 477.332 116.044C477.918 116.444 478.211 117.013 478.211 117.75C478.211 118.102 478.103 118.426 477.888 118.724C477.678 119.017 477.38 119.252 476.995 119.427C477.898 119.745 478.35 120.358 478.35 121.266C478.35 121.993 478.037 122.574 477.412 123.009C476.792 123.439 475.964 123.654 474.929 123.654C473.967 123.654 473.176 123.429 472.556 122.98C471.936 122.53 471.626 121.925 471.626 121.163H473.743C473.743 121.432 473.862 121.649 474.102 121.815C474.341 121.981 474.653 122.064 475.039 122.064C475.415 122.064 475.708 121.976 475.918 121.801C476.128 121.625 476.233 121.395 476.233 121.112C476.233 120.765 476.133 120.519 475.933 120.372C475.733 120.221 475.432 120.145 475.032 120.145H473.882V118.768H475.105C475.764 118.749 476.094 118.466 476.094 117.919ZM479.144 119.471C479.144 118.685 479.296 117.985 479.598 117.369C479.901 116.754 480.336 116.278 480.902 115.941C481.473 115.604 482.135 115.436 482.887 115.436C483.956 115.436 484.828 115.763 485.502 116.417C486.18 117.072 486.559 117.96 486.637 119.083L486.652 119.625C486.652 120.841 486.312 121.818 485.633 122.555C484.955 123.287 484.044 123.654 482.902 123.654C481.759 123.654 480.846 123.287 480.162 122.555C479.484 121.822 479.144 120.826 479.144 119.567V119.471ZM481.261 119.625C481.261 120.377 481.402 120.953 481.686 121.354C481.969 121.749 482.374 121.947 482.902 121.947C483.414 121.947 483.815 121.752 484.103 121.361C484.391 120.966 484.535 120.336 484.535 119.471C484.535 118.734 484.391 118.163 484.103 117.758C483.815 117.352 483.409 117.15 482.887 117.15C482.369 117.15 481.969 117.352 481.686 117.758C481.402 118.158 481.261 118.78 481.261 119.625ZM487.929 123.507V115.582H491.24C492.319 115.582 493.147 115.773 493.723 116.154C494.299 116.534 494.587 117.081 494.587 117.794C494.587 118.16 494.465 118.49 494.221 118.783C493.982 119.071 493.63 119.293 493.166 119.449C493.733 119.557 494.177 119.769 494.499 120.087C494.826 120.399 494.99 120.785 494.99 121.244C494.99 121.981 494.712 122.543 494.155 122.928C493.603 123.314 492.8 123.507 491.745 123.507H487.929ZM490.046 120.218V121.815H491.753C492.5 121.815 492.873 121.554 492.873 121.031C492.873 120.499 492.517 120.228 491.804 120.218H490.046ZM490.046 118.798H491.357C492.099 118.788 492.47 118.549 492.47 118.08C492.47 117.792 492.368 117.587 492.163 117.465C491.963 117.342 491.655 117.281 491.24 117.281H490.046V118.798ZM500.714 123.507C500.616 123.317 500.545 123.08 500.501 122.797C499.988 123.368 499.322 123.654 498.502 123.654C497.725 123.654 497.081 123.429 496.568 122.98C496.06 122.53 495.806 121.964 495.806 121.28C495.806 120.441 496.116 119.796 496.737 119.347C497.362 118.898 498.262 118.671 499.439 118.666H500.413V118.212C500.413 117.845 500.318 117.552 500.128 117.333C499.942 117.113 499.647 117.003 499.241 117.003C498.885 117.003 498.604 117.089 498.399 117.259C498.199 117.43 498.099 117.665 498.099 117.963H495.982C495.982 117.504 496.124 117.079 496.407 116.688C496.69 116.298 497.091 115.992 497.608 115.773C498.126 115.548 498.707 115.436 499.351 115.436C500.328 115.436 501.102 115.682 501.673 116.176C502.249 116.664 502.537 117.352 502.537 118.241V121.676C502.542 122.428 502.647 122.997 502.852 123.383V123.507H500.714ZM498.963 122.035C499.276 122.035 499.564 121.967 499.827 121.83C500.091 121.688 500.286 121.5 500.413 121.266V119.904H499.622C498.563 119.904 497.999 120.27 497.93 121.002L497.923 121.127C497.923 121.39 498.016 121.608 498.201 121.779C498.387 121.949 498.641 122.035 498.963 122.035ZM510.458 117.281H507.917V123.507H505.793V117.281H503.295V115.582H510.458V117.281ZM514.541 123.654C513.379 123.654 512.432 123.297 511.7 122.584C510.972 121.871 510.608 120.922 510.608 119.735V119.53C510.608 118.734 510.762 118.024 511.07 117.399C511.377 116.769 511.812 116.285 512.373 115.948C512.94 115.607 513.584 115.436 514.307 115.436C515.391 115.436 516.243 115.778 516.863 116.461C517.488 117.145 517.801 118.114 517.801 119.369V120.233H512.754C512.823 120.751 513.028 121.166 513.369 121.478C513.716 121.791 514.153 121.947 514.68 121.947C515.496 121.947 516.133 121.652 516.592 121.061L517.632 122.225C517.315 122.675 516.885 123.026 516.343 123.28C515.801 123.529 515.2 123.654 514.541 123.654ZM514.3 117.15C513.88 117.15 513.538 117.291 513.274 117.574C513.015 117.858 512.849 118.263 512.776 118.79H515.721V118.622C515.711 118.153 515.584 117.792 515.34 117.538C515.096 117.279 514.749 117.15 514.3 117.15ZM525.736 115.582V123.507H523.619V117.296H521.752L521.62 119.742C521.537 121.046 521.281 121.996 520.851 122.592C520.421 123.187 519.782 123.492 518.932 123.507H518.214L518.192 121.786L518.456 121.764C518.837 121.735 519.115 121.51 519.291 121.09C519.467 120.67 519.577 119.955 519.62 118.944L519.767 115.582H525.736ZM531.98 115.582H534.097V123.507H531.98V118.614L529.328 123.507H527.204V115.582H529.328V120.467L531.98 115.582Z" fill="white"/>
</svg>
