<svg width="432" height="344" fill="none" xmlns="http://www.w3.org/2000/svg"><rect x="30.89" y="56.12" width="347" height="225" rx="10" fill="#4965EE"/><path d="M368.425 225.613a44.084 44.084 0 0 0-8.608 3.18 44.335 44.335 0 0 0-7.725 5.103 3.138 3.138 0 0 0-.941 3.528l2.254 6.016a5.813 5.813 0 0 1-.571 5.188 5.805 5.805 0 0 1-4.505 2.634l-6.383.349a3.131 3.131 0 0 0-2.834 2.254 41.028 41.028 0 0 0-1.039 18.326 3.147 3.147 0 0 0 2.578 2.571l6.363 1.064a5.78 5.78 0 0 1 4.209 3.09 5.775 5.775 0 0 1 .007 5.222l-2.897 5.771a3.143 3.143 0 0 0 .549 3.596 41.018 41.018 0 0 0 15.4 10.008 3.124 3.124 0 0 0 3.495-.952l4.074-4.961a5.767 5.767 0 0 1 4.762-2.087 5.796 5.796 0 0 1 4.513 2.597l3.518 5.374a3.14 3.14 0 0 0 3.354 1.335 39.69 39.69 0 0 0 16.421-8.327 3.142 3.142 0 0 0 .905-3.495l-2.261-6.023a5.766 5.766 0 0 1 .555-5.186 5.77 5.77 0 0 1 4.515-2.61l6.407-.355a3.131 3.131 0 0 0 2.833-2.257 41.024 41.024 0 0 0 1.032-18.322 3.145 3.145 0 0 0-2.578-2.571l-6.358-1.07a5.8 5.8 0 0 1-2.474-1.042 5.788 5.788 0 0 1-1.745-7.269l2.893-5.765a3.14 3.14 0 0 0-.553-3.594 41.009 41.009 0 0 0-15.395-9.992 3.124 3.124 0 0 0-3.493.956l-4.053 4.942a5.663 5.663 0 0 1-1.842 1.483 5.79 5.79 0 0 1-7.456-2.008l-3.528-5.377a3.136 3.136 0 0 0-3.395-1.326l-.003.002Zm15.967 51.737a13.61 13.61 0 0 1-10.383.798 13.609 13.609 0 0 1-8.702-17.161 13.604 13.604 0 0 1 25.066-1.925 13.605 13.605 0 0 1-5.981 18.288Z" fill="#23272A"/><path d="M234.94 214.353a68.39 68.39 0 0 0-8.879 11.109 68.855 68.855 0 0 0-6.166 12.955 4.868 4.868 0 0 0 1.575 5.435l7.805 6.179a8.991 8.991 0 0 1-.475 14.442l-8.189 5.573a4.85 4.85 0 0 0-1.958 5.259 63.562 63.562 0 0 0 13.289 25.149 4.868 4.868 0 0 0 5.479 1.349l9.295-3.681a8.969 8.969 0 0 1 10.978 3.694 8.968 8.968 0 0 1 1.268 3.962l.775 9.977a4.866 4.866 0 0 0 3.608 4.331 63.579 63.579 0 0 0 28.445.956 4.849 4.849 0 0 0 3.875-4.061l1.437-9.844a8.922 8.922 0 0 1 4.648-6.58 8.977 8.977 0 0 1 8.067-.166l8.97 4.316a4.863 4.863 0 0 0 5.52-.914 61.514 61.514 0 0 0 15.125-24.193 4.87 4.87 0 0 0-1.596-5.362l-7.822-6.183a8.92 8.92 0 0 1-3.413-7.325 8.929 8.929 0 0 1 3.902-7.078l8.218-5.598a4.85 4.85 0 0 0 1.953-5.262 63.59 63.59 0 0 0-13.295-25.14 4.867 4.867 0 0 0-5.479-1.349l-9.293 3.67a8.96 8.96 0 0 1-8.06-.729 8.967 8.967 0 0 1-4.19-6.923l-.775-9.965a4.874 4.874 0 0 0-3.611-4.327 63.551 63.551 0 0 0-28.426-.938 4.854 4.854 0 0 0-3.871 4.064l-1.422 9.803a8.799 8.799 0 0 1-1.257 3.441 8.966 8.966 0 0 1-11.501 3.303l-8.985-4.312a4.86 4.86 0 0 0-5.566.959l-.003.004Zm62.596 55.876a21.088 21.088 0 0 1-29.055 6.701 21.088 21.088 0 0 1 6.439-38.423 21.079 21.079 0 0 1 15.915 2.667 21.08 21.08 0 0 1 9.368 13.14 21.08 21.08 0 0 1-2.667 15.915ZM89.275 254.393c.412.344.787.731 1.119 1.153.33.44.607.903.834 1.39a.55.55 0 0 1-.118.629l-.811.779a1.016 1.016 0 0 0 .21 1.619l.981.538a.551.551 0 0 1 .278.57 7.181 7.181 0 0 1-1.222 2.973.554.554 0 0 1-.602.211l-1.085-.313a1.008 1.008 0 0 0-.898.17 1.018 1.018 0 0 0-.396.824l.02 1.131a.548.548 0 0 1-.358.526 7.183 7.183 0 0 1-3.189.416.545.545 0 0 1-.48-.415l-.268-1.091a1.009 1.009 0 0 0-1.503-.621l-.963.583a.551.551 0 0 1-.63-.043 6.957 6.957 0 0 1-1.964-2.557.548.548 0 0 1 .121-.62l.813-.781a1.002 1.002 0 0 0 .305-.861 1.008 1.008 0 0 0-.516-.753l-.985-.541a.545.545 0 0 1-.277-.57 7.19 7.19 0 0 1 1.223-2.972.554.554 0 0 1 .601-.211l1.085.312a1.007 1.007 0 0 0 .899-.17 1.011 1.011 0 0 0 .396-.824l-.021-1.129a.55.55 0 0 1 .36-.526 7.188 7.188 0 0 1 3.186-.414.55.55 0 0 1 .48.415l.266 1.087a1.013 1.013 0 0 0 1.508.62l.964-.582a.548.548 0 0 1 .636.047v.001Zm-6.434 6.963c.384.502.953.829 1.579.911a2.378 2.378 0 0 0 2.672-2.052 2.383 2.383 0 1 0-4.251 1.141ZM347.89 207.12l-2.455 6.545-6.545 2.455 6.545 2.454 2.455 6.546 2.454-6.546 6.546-2.454-6.546-2.455-2.454-6.545Z" fill="#23272A"/><path d="m338.89 301.12-2.455 6.545-6.545 2.455 6.545 2.454 2.455 6.546 2.454-6.546 6.546-2.454-6.546-2.455-2.454-6.545Z" fill="#4965EE"/><path d="m315.89 256.12-2.455 6.545-6.545 2.455 6.545 2.454 2.455 6.546 2.454-6.546 6.546-2.454-6.546-2.455-2.454-6.545ZM145.89 211.12l-.819 2.182-2.181.818 2.181.818.819 2.182.818-2.182 2.182-.818-2.182-.818-.818-2.182Z" fill="#fff"/><path d="m122.89 263.12-.819 2.182-2.181.818 2.181.818.819 2.182.818-2.182 2.182-.818-2.182-.818-.818-2.182ZM67.89 219.12l-.819 2.182-2.181.818 2.181.818.819 2.182.818-2.182 2.181-.818-2.181-.818-.819-2.182Z" fill="#23272A"/><path d="M69.995 304.93c0-.259-.13-.461-.389-.608-.254-.151-.664-.286-1.23-.403-1.885-.395-2.827-1.196-2.827-2.402 0-.703.29-1.289.871-1.758.586-.474 1.35-.71 2.293-.71 1.006 0 1.809.236 2.41.71.605.474.908 1.089.908 1.846h-2.117a1.01 1.01 0 0 0-.293-.747c-.195-.201-.5-.301-.916-.301-.356 0-.632.081-.827.242a.762.762 0 0 0-.293.615c0 .235.11.425.33.572.224.141.6.266 1.127.373.528.103.972.22 1.333.352 1.118.41 1.678 1.12 1.678 2.131 0 .723-.31 1.309-.93 1.758-.62.444-1.422.666-2.403.666-.664 0-1.255-.117-1.772-.351-.513-.239-.916-.564-1.209-.974a2.28 2.28 0 0 1-.44-1.341h2.007c.02.376.16.664.418.865.259.2.605.3 1.04.3.405 0 .71-.076.916-.227a.725.725 0 0 0 .314-.608Zm6.91 2.336c-1.162 0-2.11-.356-2.842-1.069-.728-.713-1.091-1.663-1.091-2.849v-.205c0-.796.153-1.507.461-2.132.308-.629.742-1.113 1.304-1.45.566-.342 1.21-.512 1.933-.512 1.084 0 1.936.341 2.556 1.025.626.684.938 1.653.938 2.908v.864h-5.046c.068.518.273.933.615 1.245.346.313.783.469 1.31.469.816 0 1.453-.296 1.912-.886l1.04 1.164a3.208 3.208 0 0 1-1.288 1.055 4.265 4.265 0 0 1-1.802.373Zm-.242-6.504c-.42 0-.762.142-1.025.425-.26.283-.425.689-.498 1.216h2.944v-.168c-.01-.469-.137-.83-.381-1.084-.244-.259-.59-.389-1.04-.389Zm7.079-3.515v1.948h1.355v1.553h-1.355v3.955c0 .293.056.503.168.63.112.127.327.19.645.19.234 0 .441-.017.622-.051v1.604c-.415.127-.842.19-1.282.19-1.484 0-2.24-.749-2.27-2.248v-4.27h-1.157v-1.553h1.157v-1.948h2.117Zm4.903 0v1.948H90v1.553h-1.355v3.955c0 .293.056.503.169.63.112.127.327.19.644.19.234 0 .442-.017.623-.051v1.604c-.416.127-.843.19-1.282.19-1.485 0-2.241-.749-2.27-2.248v-4.27H85.37v-1.553h1.157v-1.948h2.117Zm4.603 9.873h-2.124v-7.925h2.124v7.925ZM91 297.144c0-.317.106-.578.316-.783.214-.205.505-.308.871-.308.361 0 .65.103.864.308.215.205.323.466.323.783 0 .323-.11.586-.33.791-.215.205-.5.308-.857.308-.356 0-.645-.103-.864-.308a1.044 1.044 0 0 1-.323-.791Zm5.783 2.051.066.916c.566-.708 1.325-1.062 2.278-1.062.84 0 1.464.246 1.875.739.41.493.62 1.231.629 2.212v5.12h-2.116v-5.068c0-.45-.098-.774-.293-.975-.196-.205-.52-.307-.974-.307-.596 0-1.043.254-1.34.761v5.589H94.79v-7.925h1.992Zm5.987 3.904c0-1.216.288-2.195.864-2.937.581-.742 1.363-1.113 2.344-1.113.869 0 1.546.297 2.029.893l.088-.747h1.919v7.661c0 .694-.159 1.297-.476 1.809a3.011 3.011 0 0 1-1.326 1.172c-.571.269-1.24.403-2.007.403a4.296 4.296 0 0 1-1.699-.352c-.552-.229-.969-.527-1.252-.893l.937-1.289c.527.591 1.167.886 1.919.886.562 0 .999-.151 1.311-.454.313-.298.469-.723.469-1.274v-.425c-.488.551-1.131.827-1.926.827-.953 0-1.724-.371-2.315-1.113-.586-.747-.879-1.736-.879-2.966v-.088Zm2.117.154c0 .717.144 1.281.432 1.692.288.405.684.607 1.187.607.644 0 1.105-.241 1.384-.725v-3.332c-.283-.484-.74-.725-1.37-.725-.508 0-.908.207-1.201.622-.288.415-.432 1.035-.432 1.861Zm10.887 1.677c0-.259-.129-.461-.388-.608-.254-.151-.664-.286-1.231-.403-1.884-.395-2.827-1.196-2.827-2.402 0-.703.291-1.289.872-1.758.586-.474 1.35-.71 2.292-.71 1.006 0 1.809.236 2.41.71.606.474.908 1.089.908 1.846h-2.116c0-.303-.098-.552-.293-.747-.196-.201-.501-.301-.916-.301-.356 0-.632.081-.828.242a.763.763 0 0 0-.293.615c0 .235.11.425.33.572.225.141.601.266 1.128.373.527.103.972.22 1.333.352 1.118.41 1.677 1.12 1.677 2.131 0 .723-.31 1.309-.93 1.758-.62.444-1.421.666-2.402.666-.664 0-1.255-.117-1.773-.351-.512-.239-.915-.564-1.208-.974a2.28 2.28 0 0 1-.44-1.341h2.007c.02.376.159.664.418.865.258.2.605.3 1.04.3.405 0 .71-.076.915-.227a.725.725 0 0 0 .315-.608Z" fill="#4965EE"/><path d="M119.131 302.784c0-1.118.149-2.183.447-3.193a8.381 8.381 0 0 1 1.318-2.681c.581-.781 1.211-1.323 1.89-1.626l.41 1.143c-.713.527-1.27 1.342-1.67 2.446-.4 1.103-.601 2.392-.601 3.867v.227c0 1.48.198 2.773.594 3.882.395 1.108.954 1.936 1.677 2.483l-.41 1.12c-.664-.297-1.284-.825-1.861-1.582a8.298 8.298 0 0 1-1.311-2.607 11.219 11.219 0 0 1-.483-3.091v-.388Zm6.354-7.163.996.578c-.42.665-.638 1.338-.652 2.022v1.223h-1.677v-1.099c0-.459.127-.947.38-1.464.259-.523.577-.943.953-1.26Zm2.512 0 .996.578c-.42.665-.637 1.338-.652 2.022v1.223h-1.677v-1.099c0-.459.127-.947.381-1.464.258-.523.576-.943.952-1.26Zm4.932 9.939c.391 0 .708-.108.953-.322.244-.215.371-.501.38-.857h1.985a2.733 2.733 0 0 1-.439 1.479 2.932 2.932 0 0 1-1.187 1.04 3.708 3.708 0 0 1-1.655.366c-1.133 0-2.026-.359-2.681-1.076-.654-.723-.981-1.719-.981-2.989v-.139c0-1.22.325-2.195.974-2.922.65-.728 1.541-1.091 2.673-1.091.992 0 1.785.283 2.381.849.6.562.906 1.311.915 2.249h-1.985c-.009-.41-.136-.742-.38-.996-.245-.259-.567-.389-.967-.389-.493 0-.867.181-1.121.542-.249.357-.373.938-.373 1.744v.219c0 .816.124 1.402.373 1.758.249.357.628.535 1.135.535Zm6.427-5.501c.562-.674 1.267-1.01 2.117-1.01 1.719 0 2.59.998 2.615 2.995v5.076h-2.117v-5.017c0-.454-.098-.789-.293-1.004-.195-.219-.52-.329-.974-.329-.62 0-1.069.239-1.348.718v5.632h-2.116v-11.25h2.116v4.189Zm10.756 7.061a2.344 2.344 0 0 1-.213-.711c-.512.572-1.179.857-1.999.857-.777 0-1.421-.224-1.934-.673a2.173 2.173 0 0 1-.762-1.7c0-.84.311-1.484.931-1.933.625-.45 1.525-.677 2.702-.681h.974v-.455c0-.366-.095-.659-.285-.878-.186-.22-.481-.33-.886-.33-.357 0-.638.085-.843.256-.2.171-.3.406-.3.703h-2.117c0-.459.142-.883.425-1.274.283-.391.684-.696 1.201-.916.518-.224 1.099-.336 1.743-.336.977 0 1.751.246 2.322.739.576.489.864 1.177.864 2.066v3.435c.005.752.11 1.321.315 1.706v.125h-2.138Zm-1.751-1.472c.313 0 .601-.069.864-.205.264-.142.459-.33.586-.564v-1.363h-.791c-1.059 0-1.623.367-1.692 1.099l-.007.125c0 .263.093.48.278.651.186.171.44.257.762.257Zm7.57-8.401v1.948h1.355v1.553h-1.355v3.955c0 .293.056.503.168.63.112.127.327.19.645.19.234 0 .441-.017.622-.051v1.604c-.415.127-.842.19-1.282.19-1.484 0-2.241-.749-2.27-2.248v-4.27h-1.157v-1.553h1.157v-1.948h2.117Zm9.51 5.984c0 1.269-.271 2.26-.813 2.973-.542.708-1.299 1.062-2.271 1.062-.859 0-1.545-.329-2.058-.988l-.095.842H158.3v-11.25h2.116v4.036c.489-.572 1.131-.857 1.927-.857.967 0 1.723.356 2.27 1.069.552.708.828 1.706.828 2.996v.117Zm-2.117-.154c0-.801-.127-1.384-.381-1.751-.254-.371-.632-.556-1.135-.556-.674 0-1.138.276-1.392.827v3.128c.259.556.728.835 1.407.835.683 0 1.133-.337 1.347-1.011.103-.322.154-.813.154-1.472Zm2.933.007c0-.786.152-1.487.454-2.102a3.337 3.337 0 0 1 1.304-1.428c.571-.337 1.233-.505 1.985-.505 1.069 0 1.941.327 2.615.981.678.654 1.057 1.543 1.135 2.666l.015.542c0 1.216-.34 2.192-1.018 2.93-.679.732-1.59 1.098-2.732 1.098-1.143 0-2.056-.366-2.74-1.098-.678-.733-1.018-1.729-1.018-2.989v-.095Zm2.117.154c0 .752.142 1.328.425 1.729.283.395.688.593 1.216.593.512 0 .913-.195 1.201-.586.288-.396.432-1.026.432-1.89 0-.737-.144-1.308-.432-1.714-.288-.405-.694-.608-1.216-.608-.518 0-.918.203-1.201.608-.283.401-.425 1.023-.425 1.868Zm9.064-5.991v1.948h1.354v1.553h-1.354v3.955c0 .293.056.503.168.63.112.127.327.19.645.19.234 0 .441-.017.622-.051v1.604c-.415.127-.842.19-1.282.19-1.484 0-2.241-.749-2.27-2.248v-4.27h-1.157v-1.553h1.157v-1.948h2.117Zm3.079 2.483-.996-.579c.42-.659.637-1.34.652-2.043v-1.238h1.684v1.135c0 .44-.122.916-.366 1.428a3.932 3.932 0 0 1-.974 1.297Zm2.542 0-.996-.579c.419-.659.637-1.34.651-2.043v-1.238h1.685v1.135c0 .44-.122.916-.366 1.428a3.932 3.932 0 0 1-.974 1.297Zm6.368 3.222c0 1.104-.159 2.166-.476 3.186a8.65 8.65 0 0 1-1.37 2.703c-.596.781-1.233 1.318-1.911 1.611l-.411-1.12c.694-.523 1.241-1.328 1.641-2.417.4-1.089.608-2.342.623-3.758v-.388c0-1.46-.201-2.746-.601-3.86-.396-1.113-.95-1.948-1.663-2.504l.411-1.121c.664.288 1.289.81 1.875 1.567.59.757 1.047 1.639 1.369 2.644.327 1.006.498 2.049.513 3.128v.329Zm1.578 3.128c0-.337.112-.611.337-.82a1.22 1.22 0 0 1 .857-.315c.347 0 .632.105.857.315.229.209.344.483.344.82 0 .332-.112.603-.337.813-.224.205-.513.307-.864.307-.347 0-.632-.102-.857-.307a1.061 1.061 0 0 1-.337-.813Zm0-5.999c0-.337.112-.61.337-.82a1.22 1.22 0 0 1 .857-.315c.347 0 .632.105.857.315.229.21.344.483.344.82 0 .332-.112.603-.337.813-.224.205-.513.308-.864.308-.347 0-.632-.103-.857-.308a1.061 1.061 0 0 1-.337-.813ZM240.936 17.12h-2.124V9.195h2.124v7.925Zm-2.248-9.976c0-.317.105-.578.315-.784.215-.205.505-.307.871-.307.362 0 .65.102.865.307.214.206.322.467.322.784 0 .322-.11.586-.33.791-.215.205-.5.308-.857.308-.356 0-.644-.103-.864-.308a1.044 1.044 0 0 1-.322-.79Zm4.413 9.976v-6.372h-1.18V9.195h1.18v-.674c0-.889.253-1.577.761-2.065.513-.493 1.228-.74 2.146-.74.293 0 .652.049 1.077.146l-.022 1.641a2.704 2.704 0 0 0-.645-.066c-.796 0-1.193.374-1.193 1.12v.638h1.574v1.553h-1.574v6.372h-2.124Zm14.933-5.464h-6.548V9.927h6.548v1.729Zm0 3.171h-6.548V13.1h6.548v1.728Zm7.243-5.632.066.886c.562-.688 1.321-1.033 2.278-1.033 1.021 0 1.721.403 2.102 1.209.557-.806 1.35-1.209 2.381-1.209.859 0 1.499.252 1.919.755.419.498.629 1.25.629 2.256v5.06h-2.124v-5.053c0-.45-.087-.776-.263-.981-.176-.21-.486-.315-.93-.315-.635 0-1.075.302-1.319.908l.008 5.442h-2.117v-5.047c0-.459-.091-.79-.271-.996-.181-.205-.488-.307-.923-.307-.601 0-1.035.249-1.304.747v5.603h-2.116V9.195h1.984Zm10.514 3.89c0-.787.151-1.488.454-2.103a3.336 3.336 0 0 1 1.304-1.428c.571-.337 1.233-.506 1.985-.506 1.069 0 1.941.328 2.615.982.678.654 1.057 1.543 1.135 2.666l.014.542c0 1.216-.339 2.192-1.018 2.93-.678.732-1.589 1.098-2.732 1.098-1.142 0-2.055-.366-2.739-1.098-.679-.733-1.018-1.729-1.018-2.989v-.095Zm2.117.153c0 .752.141 1.328.425 1.728.283.396.688.594 1.215.594.513 0 .914-.196 1.202-.586.288-.396.432-1.026.432-1.89 0-.737-.144-1.309-.432-1.714-.288-.405-.694-.608-1.216-.608-.518 0-.918.203-1.201.608-.284.4-.425 1.023-.425 1.868Zm6.2-.14c0-1.235.275-2.219.827-2.95.557-.733 1.316-1.1 2.278-1.1.772 0 1.409.289 1.912.865V5.87h2.124v11.25h-1.912l-.102-.843c-.528.66-1.207.99-2.037.99-.932 0-1.682-.367-2.248-1.1-.562-.737-.842-1.76-.842-3.068Zm2.116.155c0 .742.13 1.31.388 1.706.259.396.635.593 1.128.593.655 0 1.116-.275 1.385-.827v-3.128c-.264-.551-.721-.827-1.37-.827-1.02 0-1.531.827-1.531 2.483Zm10.148 4.013c-1.162 0-2.11-.356-2.842-1.07-.728-.712-1.091-1.662-1.091-2.848v-.205c0-.796.153-1.507.461-2.132.308-.63.742-1.113 1.304-1.45.566-.342 1.211-.513 1.933-.513 1.084 0 1.936.342 2.557 1.026.625.683.937 1.653.937 2.908v.864h-5.046c.068.517.273.932.615 1.245.347.312.784.469 1.311.469.815 0 1.453-.296 1.912-.886l1.04 1.164c-.318.45-.747.8-1.289 1.055a4.267 4.267 0 0 1-1.802.373Zm-.242-6.504c-.42 0-.762.142-1.025.425-.259.283-.425.689-.498 1.216h2.944v-.168c-.01-.47-.137-.83-.381-1.085-.244-.258-.591-.388-1.04-.388Zm8.998.418a5.744 5.744 0 0 0-.762-.059c-.801 0-1.326.271-1.575.813v5.186h-2.116V9.195h1.999l.059.945c.424-.728 1.013-1.092 1.765-1.092.234 0 .454.032.659.096l-.029 2.036Zm5.233 5.94a2.343 2.343 0 0 1-.213-.71c-.512.57-1.179.856-1.999.856-.777 0-1.421-.224-1.934-.674a2.171 2.171 0 0 1-.762-1.699c0-.84.31-1.484.931-1.933.625-.45 1.525-.677 2.702-.682h.974v-.454c0-.366-.095-.659-.285-.879-.186-.22-.481-.33-.887-.33-.356 0-.637.086-.842.257-.2.171-.3.405-.3.703h-2.117c0-.459.142-.883.425-1.274.283-.39.684-.696 1.201-.916.518-.224 1.099-.337 1.743-.337.977 0 1.751.247 2.322.74.576.489.864 1.177.864 2.066v3.435c.005.752.11 1.32.315 1.706v.125h-2.138Zm-1.751-1.472c.313 0 .601-.069.864-.205.264-.142.459-.33.586-.564v-1.363h-.791c-1.059 0-1.623.366-1.692 1.099l-.007.124c0 .264.093.481.278.652.186.171.44.257.762.257Zm7.57-8.401v1.948h1.354v1.553h-1.354v3.955c0 .293.056.503.168.63.112.127.327.19.644.19.235 0 .442-.017.623-.051v1.604c-.415.127-.842.19-1.282.19-1.484 0-2.241-.75-2.27-2.248v-4.27h-1.157V9.195h1.157V7.247h2.117Zm1.819 5.837c0-.786.152-1.487.454-2.102a3.336 3.336 0 0 1 1.304-1.428c.571-.337 1.233-.506 1.985-.506 1.069 0 1.941.328 2.615.982.678.654 1.057 1.543 1.135 2.666l.015.542c0 1.216-.34 2.192-1.018 2.93-.679.732-1.59 1.098-2.732 1.098-1.143 0-2.056-.366-2.74-1.098-.678-.733-1.018-1.729-1.018-2.989v-.095Zm2.117.154c0 .752.142 1.328.425 1.728.283.396.688.594 1.216.594.512 0 .913-.196 1.201-.586.288-.396.432-1.026.432-1.89 0-.737-.144-1.309-.432-1.714-.288-.405-.693-.608-1.216-.608-.518 0-.918.203-1.201.608-.283.4-.425 1.023-.425 1.868Zm10.983-2.058a5.756 5.756 0 0 0-.762-.059c-.801 0-1.326.271-1.575.813v5.186h-2.117V9.195h2l.059.945c.424-.728 1.013-1.092 1.765-1.092.234 0 .454.032.659.096l-.029 2.036Zm9.026-2.945h-3.266v8.885h-2.197V8.235h-3.223v-1.78h8.686v1.78Zm4.926 2.945a5.744 5.744 0 0 0-.762-.059c-.801 0-1.326.271-1.575.813v5.186h-2.116V9.195h1.999l.059.945c.425-.728 1.013-1.092 1.765-1.092.234 0 .454.032.659.096l-.029 2.036Zm5.606 5.134c-.522.635-1.245.952-2.168.952-.849 0-1.499-.244-1.948-.732-.444-.488-.671-1.204-.681-2.146V9.195h2.117v5.12c0 .825.376 1.237 1.128 1.237.717 0 1.21-.249 1.479-.747v-5.61h2.124v7.925h-1.992l-.059-.806Zm7.13.952c-1.162 0-2.109-.356-2.842-1.07-.727-.712-1.091-1.662-1.091-2.848v-.205c0-.796.154-1.507.461-2.132.308-.63.743-1.113 1.304-1.45.567-.342 1.211-.513 1.934-.513 1.084 0 1.936.342 2.556 1.026.625.683.937 1.653.937 2.908v.864H356c.068.517.273.932.615 1.245.347.312.784.469 1.311.469.816 0 1.453-.296 1.912-.886l1.04 1.164c-.317.45-.747.8-1.289 1.055a4.267 4.267 0 0 1-1.802.373Zm-.242-6.504c-.419 0-.761.142-1.025.425-.259.283-.425.689-.498 1.216h2.944v-.168c-.009-.47-.136-.83-.38-1.085-.245-.258-.591-.388-1.041-.388Zm4.647 5.318c0-.337.113-.61.337-.82.23-.21.516-.316.857-.316.347 0 .633.105.857.315.23.21.344.484.344.82 0 .333-.112.604-.336.814-.225.205-.513.307-.865.307-.346 0-.632-.102-.857-.307a1.065 1.065 0 0 1-.337-.813Zm0-5.999c0-.337.113-.61.337-.82.23-.21.516-.315.857-.315.347 0 .633.105.857.315.23.21.344.483.344.82 0 .332-.112.603-.336.813-.225.205-.513.308-.865.308-.346 0-.632-.103-.857-.308a1.065 1.065 0 0 1-.337-.813Zm-74.423 25.703c0-1.118.149-2.183.447-3.194a8.365 8.365 0 0 1 1.318-2.68c.581-.782 1.211-1.323 1.89-1.626l.41 1.142c-.713.528-1.27 1.343-1.67 2.447-.401 1.103-.601 2.392-.601 3.867v.227c0 1.48.198 2.773.594 3.882.395 1.108.954 1.936 1.677 2.483l-.41 1.12c-.664-.298-1.285-.825-1.861-1.582a8.296 8.296 0 0 1-1.311-2.607 11.18 11.18 0 0 1-.483-3.091v-.388Zm9.466-1.604a5.744 5.744 0 0 0-.762-.059c-.8 0-1.325.271-1.574.813v5.186h-2.117v-7.925h2l.058.945c.425-.728 1.013-1.092 1.765-1.092.235 0 .454.032.66.096l-.03 2.036Zm3.094 5.94h-2.124v-7.925h2.124v7.925Zm-2.248-9.976c0-.317.105-.578.315-.784.215-.205.505-.307.871-.307.362 0 .65.102.865.307.215.206.322.467.322.784 0 .322-.11.586-.33.791-.214.205-.5.308-.857.308-.356 0-.644-.103-.864-.308a1.044 1.044 0 0 1-.322-.79Zm3.526 5.955c0-1.216.288-2.195.865-2.937.581-.742 1.362-1.114 2.343-1.114.87 0 1.546.298 2.029.894l.088-.747h1.919v7.661c0 .693-.159 1.297-.476 1.81a3.01 3.01 0 0 1-1.326 1.171c-.571.269-1.24.403-2.007.403a4.306 4.306 0 0 1-1.699-.352c-.552-.23-.969-.527-1.252-.893l.937-1.29c.528.592 1.167.887 1.919.887.562 0 .999-.151 1.311-.454.313-.298.469-.723.469-1.275v-.424c-.488.551-1.13.827-1.926.827-.952 0-1.724-.37-2.315-1.113-.586-.747-.879-1.736-.879-2.966v-.088Zm2.117.154c0 .717.144 1.281.432 1.691.288.406.684.608 1.187.608.644 0 1.106-.241 1.384-.725v-3.332c-.283-.484-.74-.725-1.37-.725-.507 0-.908.207-1.201.622-.288.415-.432 1.035-.432 1.86Zm8.661-3.194c.561-.674 1.267-1.01 2.116-1.01 1.719 0 2.591.998 2.615 2.995v5.076h-2.117v-5.017c0-.454-.097-.789-.292-1.004-.196-.22-.52-.33-.975-.33-.62 0-1.069.24-1.347.718v5.633h-2.117V28.87h2.117v4.19Zm8.697-2.812v1.948h1.355v1.553h-1.355v3.955c0 .293.056.503.169.63.112.127.327.19.644.19.234 0 .442-.017.623-.051v1.604a4.36 4.36 0 0 1-1.282.19c-1.485 0-2.241-.75-2.271-2.248v-4.27h-1.157v-1.553h1.157v-1.948h2.117Zm6.661 7.683c0-.259-.129-.462-.388-.608-.254-.152-.664-.286-1.23-.403-1.885-.395-2.828-1.196-2.828-2.402 0-.703.291-1.29.872-1.758.586-.474 1.35-.71 2.292-.71 1.006 0 1.81.236 2.41.71.606.474.908 1.089.908 1.846h-2.116c0-.303-.098-.552-.293-.747-.196-.2-.501-.3-.916-.3-.356 0-.632.08-.827.241a.761.761 0 0 0-.293.615c0 .235.109.425.329.572.225.141.601.266 1.128.373.527.102.972.22 1.333.352 1.118.41 1.677 1.12 1.677 2.13 0 .724-.31 1.31-.93 1.759-.62.444-1.421.666-2.402.666-.664 0-1.255-.117-1.773-.351-.512-.24-.915-.564-1.208-.974a2.28 2.28 0 0 1-.44-1.34h2.007c.02.375.159.663.418.864.258.2.605.3 1.04.3.405 0 .71-.076.915-.227a.725.725 0 0 0 .315-.608Zm9.994-3.274h-6.548v-1.729h6.548v1.729Zm0 3.171h-6.548V36.1h6.548v1.728Zm8.551-5.537c0 .518-.13.977-.388 1.377-.259.4-.616.72-1.07.96.518.249.928.593 1.231 1.032.302.435.454.948.454 1.538 0 .948-.322 1.697-.967 2.249-.645.547-1.521.82-2.629.82-1.109 0-1.988-.276-2.637-.827-.65-.552-.974-1.3-.974-2.242 0-.59.151-1.106.454-1.545.303-.44.71-.781 1.223-1.025a2.788 2.788 0 0 1-1.069-.96c-.254-.4-.381-.86-.381-1.377 0-.908.303-1.63.908-2.168.605-.542 1.428-.813 2.468-.813 1.035 0 1.856.269 2.461.806.611.532.916 1.257.916 2.175Zm-1.897 4.754c0-.464-.135-.835-.403-1.114-.269-.278-.63-.417-1.084-.417-.449 0-.808.139-1.077.417-.268.274-.403.645-.403 1.114 0 .454.132.82.396 1.098.264.278.63.418 1.099.418.459 0 .817-.135 1.076-.403.264-.269.396-.64.396-1.113Zm-.22-4.651c0-.415-.11-.747-.33-.996-.219-.254-.529-.381-.93-.381-.395 0-.703.122-.923.366-.219.244-.329.581-.329 1.01 0 .425.11.767.329 1.026.22.259.53.388.931.388.4 0 .708-.13.922-.388.22-.259.33-.6.33-1.025Zm10.792 3.318c0 1.474-.305 2.602-.915 3.383-.611.782-1.504 1.172-2.681 1.172-1.162 0-2.051-.383-2.666-1.15-.615-.766-.93-1.865-.945-3.296v-1.962c0-1.49.308-2.62.923-3.392.62-.771 1.511-1.157 2.673-1.157 1.162 0 2.051.383 2.666 1.15.615.762.93 1.858.945 3.289v1.963Zm-2.117-2.154c0-.884-.122-1.526-.366-1.926-.239-.405-.615-.608-1.128-.608-.498 0-.866.193-1.106.579-.234.38-.359.979-.373 1.794v2.593c0 .869.117 1.516.351 1.94.24.42.62.63 1.143.63.517 0 .891-.202 1.12-.607.23-.405.35-1.026.359-1.86v-2.535Zm7.123 2.395c0 1.104-.159 2.166-.476 3.186a8.634 8.634 0 0 1-1.37 2.703c-.595.781-1.233 1.318-1.911 1.611l-.411-1.12c.694-.523 1.241-1.328 1.641-2.417.4-1.09.608-2.342.623-3.758v-.388c0-1.46-.201-2.746-.601-3.86-.395-1.113-.95-1.948-1.663-2.505l.411-1.12c.664.288 1.289.81 1.875 1.567.59.757 1.047 1.638 1.369 2.644.327 1.006.498 2.049.513 3.128v.33Z" fill="#23272A"/><path d="M271.557 37.93c0-.259-.129-.462-.388-.608-.254-.152-.664-.286-1.23-.403-1.885-.395-2.827-1.196-2.827-2.402 0-.703.29-1.29.871-1.758.586-.474 1.35-.71 2.293-.71 1.005 0 1.809.236 2.409.71.606.474.908 1.089.908 1.846h-2.116c0-.303-.098-.552-.293-.747-.196-.2-.501-.3-.916-.3-.356 0-.632.08-.827.241a.761.761 0 0 0-.293.615c0 .235.11.425.329.572.225.141.601.266 1.128.373.528.102.972.22 1.333.352 1.118.41 1.677 1.12 1.677 2.13 0 .724-.31 1.31-.93 1.759-.62.444-1.421.666-2.402.666-.664 0-1.255-.117-1.773-.351-.512-.24-.915-.564-1.208-.974a2.28 2.28 0 0 1-.44-1.34h2.007c.02.375.159.663.418.864.259.2.605.3 1.04.3.405 0 .71-.076.915-.227a.725.725 0 0 0 .315-.608Zm6.911 2.336c-1.163 0-2.11-.356-2.842-1.07-.728-.712-1.092-1.662-1.092-2.848v-.205c0-.796.154-1.507.462-2.132a3.36 3.36 0 0 1 1.304-1.45c.566-.342 1.21-.513 1.933-.513 1.084 0 1.936.342 2.556 1.026.625.683.938 1.653.938 2.908v.864h-5.047c.069.517.274.932.616 1.245.346.312.783.469 1.311.469.815 0 1.452-.296 1.911-.887l1.04 1.165c-.317.45-.747.8-1.289 1.055a4.262 4.262 0 0 1-1.801.373Zm-.242-6.504c-.42 0-.762.142-1.026.425-.258.283-.424.689-.498 1.216h2.945v-.169c-.01-.468-.137-.83-.381-1.084-.244-.258-.591-.388-1.04-.388Zm7.078-3.515v1.948h1.355v1.553h-1.355v3.955c0 .293.057.503.169.63.112.127.327.19.644.19.235 0 .442-.017.623-.051v1.604c-.415.127-.842.19-1.282.19-1.484 0-2.241-.75-2.27-2.248v-4.27h-1.157v-1.553h1.157v-1.948h2.116Z" fill="#4965EE"/><circle cx="64.889" cy="28.12" r="5" fill="#4965EE"/><circle cx="7.89" cy="129.12" r="7" fill="#23272A"/><circle cx="57.889" cy="90.12" r="7" fill="#fff"/><g filter="url(#a)"><rect x="74.889" y="222.12" width="109" height="34" rx="5" fill="#fff"/></g><rect x="145.89" y="142.12" width="159" height="34" rx="5" fill="#fff"/><path d="M102.477 237.323v1.36h-5.284v-1.36h5.284Zm-4.86-4.156v9.953h-1.716v-9.953h1.716Zm6.18 0v9.953h-1.709v-9.953h1.709Zm5.896 8.469v-3.527c0-.264-.048-.492-.144-.684a1.013 1.013 0 0 0-.437-.444c-.192-.105-.433-.157-.725-.157-.269 0-.501.045-.697.137a1.123 1.123 0 0 0-.458.369.885.885 0 0 0-.164.526h-1.641c0-.292.071-.574.212-.848.141-.273.346-.517.615-.731.269-.214.59-.383.964-.506a4.013 4.013 0 0 1 1.258-.184c.556 0 1.048.093 1.476.28.433.187.773.469 1.019.847.251.374.376.844.376 1.409v3.288c0 .337.023.64.068.909.05.264.121.494.212.69v.11h-1.688a2.924 2.924 0 0 1-.185-.677 5.529 5.529 0 0 1-.061-.807Zm.239-3.014.013 1.018h-1.182c-.305 0-.574.03-.807.089a1.673 1.673 0 0 0-.581.246 1.068 1.068 0 0 0-.465.923c0 .196.046.376.137.54a.95.95 0 0 0 .397.376c.177.091.391.137.642.137.337 0 .631-.069.882-.205.255-.142.456-.312.602-.513.145-.205.223-.399.232-.581l.533.731a2.515 2.515 0 0 1-.28.602 2.893 2.893 0 0 1-.52.615 2.56 2.56 0 0 1-1.77.656c-.483 0-.914-.095-1.292-.287a2.3 2.3 0 0 1-.889-.786 2.037 2.037 0 0 1-.321-1.128c0-.392.073-.738.219-1.039.15-.305.369-.56.656-.765.292-.205.647-.36 1.066-.465.42-.11.898-.164 1.436-.164h1.292Zm6.005 3.322c.269 0 .51-.052.725-.157.218-.11.394-.26.526-.451.137-.192.212-.413.226-.664h1.551c-.009.479-.15.914-.424 1.306a2.941 2.941 0 0 1-1.086.937 3.275 3.275 0 0 1-1.497.341c-.566 0-1.058-.095-1.477-.287a2.919 2.919 0 0 1-1.046-.806 3.546 3.546 0 0 1-.629-1.183 4.87 4.87 0 0 1-.205-1.435v-.24c0-.51.068-.989.205-1.435.141-.451.351-.848.629-1.19a2.871 2.871 0 0 1 1.046-.8c.419-.195.909-.293 1.47-.293.592 0 1.112.118 1.558.355.447.232.798.558 1.053.978.26.414.394.897.403 1.449h-1.551a1.647 1.647 0 0 0-.206-.739 1.355 1.355 0 0 0-.505-.533 1.447 1.447 0 0 0-.773-.198c-.333 0-.608.068-.827.205a1.38 1.38 0 0 0-.513.547 2.645 2.645 0 0 0-.266.772c-.05.283-.075.577-.075.882v.24c0 .305.025.601.075.888.05.287.136.545.259.773.128.223.301.403.52.54.219.132.497.198.834.198Zm7.571-6.221v7.397h-1.655v-7.397h1.655Zm2.426 0v1.299h-6.466v-1.299h6.466Zm2.601 1.422v8.819h-1.647v-10.241h1.517l.13 1.422Zm4.82 2.208v.144c0 .537-.064 1.036-.192 1.497a3.637 3.637 0 0 1-.554 1.196c-.241.337-.54.599-.895.786-.356.187-.766.28-1.231.28-.46 0-.863-.084-1.209-.252a2.485 2.485 0 0 1-.869-.732 3.964 3.964 0 0 1-.574-1.107 7.193 7.193 0 0 1-.301-1.409v-.553c.06-.543.16-1.035.301-1.477a4 4 0 0 1 .574-1.141c.237-.319.527-.566.869-.739.341-.173.74-.259 1.196-.259.465 0 .877.091 1.237.273.36.178.663.433.909.766.246.328.431.724.554 1.189.123.46.185.973.185 1.538Zm-1.648.144v-.144c0-.342-.032-.658-.096-.95a2.476 2.476 0 0 0-.3-.779 1.474 1.474 0 0 0-.527-.52 1.435 1.435 0 0 0-.759-.191c-.291 0-.542.05-.751.15-.21.096-.386.23-.527.403-.141.174-.25.376-.328.609a3.683 3.683 0 0 0-.164.745v1.326c.055.328.148.629.28.902.132.274.319.493.561.657.246.159.56.239.943.239.296 0 .549-.064.759-.191.21-.128.38-.303.513-.527.136-.228.237-.49.3-.786a4.46 4.46 0 0 0 .096-.943Zm2.58.007v-.158c0-.533.078-1.027.233-1.483a3.52 3.52 0 0 1 .67-1.196 3.02 3.02 0 0 1 1.08-.793 3.503 3.503 0 0 1 1.449-.287c.542 0 1.026.095 1.449.287.429.187.791.451 1.087.793.296.337.522.736.677 1.196.155.456.232.95.232 1.483v.158c0 .533-.077 1.027-.232 1.483a3.553 3.553 0 0 1-.677 1.196 3.13 3.13 0 0 1-1.08.793c-.424.187-.904.28-1.442.28a3.602 3.602 0 0 1-1.456-.28 3.13 3.13 0 0 1-1.08-.793 3.536 3.536 0 0 1-.677-1.196 4.579 4.579 0 0 1-.233-1.483Zm1.648-.158v.158c0 .332.034.647.102.943.069.296.176.556.322.779.146.224.332.399.56.527.228.127.499.191.814.191.305 0 .569-.064.793-.191.228-.128.414-.303.56-.527.146-.223.253-.483.322-.779.073-.296.109-.611.109-.943v-.158a3.81 3.81 0 0 0-.109-.929 2.389 2.389 0 0 0-.329-.787 1.57 1.57 0 0 0-.56-.533 1.544 1.544 0 0 0-.8-.198c-.31 0-.579.066-.807.198a1.6 1.6 0 0 0-.553.533 2.49 2.49 0 0 0-.322.787 4.076 4.076 0 0 0-.102.929Zm8.158 1.368 2.906-4.991h1.647v7.397h-1.647v-4.997l-2.906 4.997h-1.647v-7.397h1.647v4.991Zm9.574-4.991v7.397h-1.654v-7.397h1.654Zm2.427 0v1.299h-6.467v-1.299h6.467Zm2.17 2.352h2.181c.638 0 1.18.107 1.627.321.446.214.786.513 1.018.896.237.378.356.811.356 1.298 0 .36-.066.695-.199 1.005a2.228 2.228 0 0 1-.588.8 2.694 2.694 0 0 1-.943.533 3.872 3.872 0 0 1-1.271.192h-3.275v-7.397h1.655v6.091h1.62c.328 0 .59-.057.786-.171.196-.114.337-.262.424-.444a1.34 1.34 0 0 0 0-1.176 1.052 1.052 0 0 0-.424-.458c-.196-.118-.458-.178-.786-.178h-2.181v-1.312Z" fill="#4965EE"/><path d="m169.45 252.963.002.004 4.705 12.58a1 1 0 0 0 1.89-.05l.001-.004 1.104-3.591 3.972 3.876a1.002 1.002 0 0 0 1.408-.002l.002-.001 1.175-1.175.001-.001a1 1 0 0 0 0-1.41l-.006-.006-3.943-3.842 3.512-1.087.008-.002.007-.003a1.003 1.003 0 0 0 .673-.945.996.996 0 0 0-.666-.943l-12.555-4.678a1 1 0 0 0-1.29 1.28Z" fill="#000" stroke="#fff"/><path d="M173.776 163.12h-1.722v-8.559h-4.382v8.559h-1.723v-9.953h7.827v9.953Zm8.254-3.623c0 1.144-.259 2.057-.779 2.741-.519.679-1.217 1.018-2.092 1.018-.811 0-1.46-.266-1.948-.799v3.507h-1.661v-10.241h1.531l.069.752c.487-.592 1.15-.888 1.989-.888.902 0 1.609.337 2.119 1.011.515.67.772 1.602.772 2.796v.103Zm-1.654-.144c0-.738-.148-1.324-.444-1.757-.292-.433-.711-.649-1.258-.649-.679 0-1.167.28-1.463.841v3.281c.301.574.793.861 1.477.861.528 0 .941-.212 1.237-.635.301-.429.451-1.076.451-1.942Zm7.332 3.767c-.073-.142-.137-.372-.192-.691a2.584 2.584 0 0 1-1.941.827c-.743 0-1.349-.211-1.819-.635a2.036 2.036 0 0 1-.704-1.573c0-.788.292-1.392.875-1.811.588-.424 1.427-.636 2.516-.636h1.018v-.485c0-.383-.107-.688-.321-.916-.214-.233-.54-.349-.977-.349-.379 0-.689.096-.93.287a.868.868 0 0 0-.362.718h-1.662c0-.406.135-.784.404-1.135a2.683 2.683 0 0 1 1.094-.834c.464-.2.982-.3 1.551-.3.866 0 1.557.218 2.072.656.515.433.779 1.043.793 1.832v3.336c0 .665.093 1.196.28 1.593v.116h-1.695Zm-1.826-1.197c.328 0 .636-.079.923-.239.292-.159.511-.373.656-.642v-1.395h-.895c-.615 0-1.078.107-1.388.321-.31.215-.465.518-.465.91 0 .319.105.574.315.765.214.187.499.28.854.28Zm4.953 1.197v-7.397h3.001c1.011 0 1.782.178 2.31.533.529.351.793.857.793 1.518 0 .342-.107.649-.321.923-.21.269-.522.476-.937.622.484.1.866.303 1.149.608.282.306.424.666.424 1.08 0 .689-.256 1.213-.766 1.573-.506.36-1.235.54-2.187.54h-3.466Zm1.661-3.152v1.839h1.818c.852 0 1.279-.305 1.279-.916 0-.615-.433-.923-1.299-.923h-1.798Zm0-1.189h1.367c.943 0 1.415-.278 1.415-.834 0-.583-.447-.884-1.34-.902h-1.442v1.736Zm10.462 4.341c-.073-.142-.137-.372-.191-.691a2.585 2.585 0 0 1-1.942.827c-.743 0-1.349-.211-1.818-.635a2.036 2.036 0 0 1-.704-1.573c0-.788.291-1.392.875-1.811.588-.424 1.426-.636 2.515-.636h1.019v-.485c0-.383-.107-.688-.321-.916-.214-.233-.54-.349-.978-.349-.378 0-.688.096-.93.287a.87.87 0 0 0-.362.718h-1.661c0-.406.134-.784.403-1.135a2.69 2.69 0 0 1 1.094-.834c.465-.2.982-.3 1.552-.3.866 0 1.556.218 2.071.656.515.433.779 1.043.793 1.832v3.336c0 .665.094 1.196.28 1.593v.116h-1.695Zm-1.825-1.197c.328 0 .636-.079.923-.239.291-.159.51-.373.656-.642v-1.395h-.896c-.615 0-1.077.107-1.387.321-.31.215-.465.518-.465.91 0 .319.105.574.314.765.215.187.499.28.855.28Zm12.55-.847 2.188-5.353h2.078v7.397h-1.661v-4.895l-2.037 4.895h-1.128l-2.044-4.922v4.922h-1.661v-7.397h2.091l2.174 5.353Zm5.671-1.723c0-.724.143-1.376.43-1.955a3.125 3.125 0 0 1 1.21-1.34c.52-.314 1.117-.471 1.791-.471.998 0 1.807.321 2.427.963.624.643.962 1.495 1.012 2.557l.006.39c0 .729-.141 1.381-.423 1.955a3.084 3.084 0 0 1-1.203 1.333c-.52.314-1.122.471-1.805.471-1.044 0-1.88-.346-2.509-1.039-.624-.697-.936-1.624-.936-2.782v-.082Zm1.661.144c0 .761.157 1.358.471 1.791.315.428.752.642 1.313.642.56 0 .996-.218 1.305-.656.315-.437.472-1.078.472-1.921 0-.747-.162-1.34-.485-1.777-.319-.438-.754-.656-1.306-.656-.542 0-.973.216-1.292.649-.319.428-.478 1.071-.478 1.928Zm6.005 2.297c.46-.515.768-1.003.923-1.463.159-.465.255-1.058.287-1.778l.095-2.83h5.134v6.071h1.026v3.527h-1.655v-2.201h-4.744v2.201h-1.681l.006-3.527h.609Zm1.948 0h2.837v-4.642h-1.866l-.048 1.415c-.064 1.358-.371 2.434-.923 3.227Zm9.806 1.462c-1.053 0-1.907-.33-2.563-.991-.652-.665-.978-1.549-.978-2.652v-.205c0-.738.141-1.397.424-1.976a3.267 3.267 0 0 1 1.203-1.36 3.168 3.168 0 0 1 1.723-.485c1.007 0 1.784.321 2.331.963.551.643.827 1.552.827 2.728v.67h-4.833c.05.611.253 1.094.608 1.449.36.356.811.533 1.354.533.761 0 1.381-.307 1.859-.923l.896.855a3.015 3.015 0 0 1-1.19 1.032c-.492.242-1.046.362-1.661.362Zm-.198-6.336c-.456 0-.825.159-1.108.478-.278.319-.455.763-.533 1.333h3.165v-.123c-.036-.556-.184-.975-.444-1.258-.26-.287-.62-.43-1.08-.43Zm10.783 2.577c0 1.144-.259 2.057-.779 2.741-.52.679-1.217 1.018-2.092 1.018-.811 0-1.46-.266-1.948-.799v3.507h-1.661v-10.241h1.531l.068.752c.488-.592 1.151-.888 1.99-.888.902 0 1.608.337 2.119 1.011.515.67.772 1.602.772 2.796v.103Zm-1.654-.144c0-.738-.148-1.324-.444-1.757-.292-.433-.711-.649-1.258-.649-.679 0-1.167.28-1.463.841v3.281c.301.574.793.861 1.477.861.528 0 .941-.212 1.237-.635.301-.429.451-1.076.451-1.942Zm7.331 3.767c-.073-.142-.136-.372-.191-.691a2.584 2.584 0 0 1-1.941.827c-.743 0-1.349-.211-1.819-.635a2.036 2.036 0 0 1-.704-1.573c0-.788.292-1.392.875-1.811.588-.424 1.427-.636 2.516-.636h1.018v-.485c0-.383-.107-.688-.321-.916-.214-.233-.54-.349-.978-.349-.378 0-.688.096-.929.287a.869.869 0 0 0-.363.718h-1.661c0-.406.135-.784.404-1.135a2.686 2.686 0 0 1 1.093-.834c.465-.2.982-.3 1.552-.3.866 0 1.556.218 2.071.656.515.433.78 1.043.793 1.832v3.336c0 .665.094 1.196.281 1.593v.116h-1.696Zm-1.825-1.197c.328 0 .636-.079.923-.239.292-.159.51-.373.656-.642v-1.395h-.895c-.615 0-1.078.107-1.388.321-.31.215-.465.518-.465.91 0 .319.105.574.315.765.214.187.499.28.854.28Zm10.538-4.88h-2.4v6.077h-1.661v-6.077h-2.372v-1.32h6.433v1.32Zm.44 2.31c0-.724.144-1.376.431-1.955.287-.583.69-1.03 1.21-1.34.519-.314 1.116-.471 1.791-.471.998 0 1.807.321 2.427.963.624.643.961 1.495 1.011 2.557l.007.39c0 .729-.141 1.381-.424 1.955a3.084 3.084 0 0 1-1.203 1.333c-.519.314-1.121.471-1.804.471-1.044 0-1.88-.346-2.509-1.039-.625-.697-.937-1.624-.937-2.782v-.082Zm1.661.144c0 .761.158 1.358.472 1.791.315.428.752.642 1.313.642.56 0 .995-.218 1.305-.656.315-.437.472-1.078.472-1.921 0-.747-.162-1.34-.485-1.777-.319-.438-.755-.656-1.306-.656-.542 0-.973.216-1.292.649-.319.428-.479 1.071-.479 1.928Zm12.944 0c0 1.144-.26 2.057-.779 2.741-.52.679-1.217 1.018-2.092 1.018-.811 0-1.461-.266-1.948-.799v3.507h-1.661v-10.241h1.531l.068.752c.488-.592 1.151-.888 1.989-.888.903 0 1.609.337 2.12 1.011.515.67.772 1.602.772 2.796v.103Zm-1.654-.144c0-.738-.148-1.324-.445-1.757-.291-.433-.71-.649-1.257-.649-.679 0-1.167.28-1.463.841v3.281c.301.574.793.861 1.476.861.529 0 .941-.212 1.238-.635.3-.429.451-1.076.451-1.942Zm7.331 3.767c-.073-.142-.137-.372-.191-.691a2.585 2.585 0 0 1-1.942.827c-.743 0-1.349-.211-1.818-.635a2.036 2.036 0 0 1-.704-1.573c0-.788.292-1.392.875-1.811.588-.424 1.426-.636 2.515-.636h1.019v-.485c0-.383-.107-.688-.321-.916-.214-.233-.54-.349-.978-.349-.378 0-.688.096-.929.287a.869.869 0 0 0-.363.718h-1.661c0-.406.135-.784.403-1.135a2.69 2.69 0 0 1 1.094-.834c.465-.2.982-.3 1.552-.3.866 0 1.556.218 2.071.656.515.433.779 1.043.793 1.832v3.336c0 .665.094 1.196.28 1.593v.116h-1.695Zm-1.825-1.197c.328 0 .636-.079.923-.239.291-.159.51-.373.656-.642v-1.395h-.895c-.616 0-1.078.107-1.388.321-.31.215-.465.518-.465.91 0 .319.105.574.314.765.215.187.499.28.855.28Z" fill="#4965EE"/><path d="M173.274 215.393a7.68 7.68 0 0 1 1.12 1.153c.33.44.607.903.834 1.39a.546.546 0 0 1-.119.629l-.81.779a1.014 1.014 0 0 0 .21 1.619l.981.538a.552.552 0 0 1 .278.57 7.196 7.196 0 0 1-1.222 2.973.553.553 0 0 1-.602.211l-1.085-.313a1.006 1.006 0 0 0-.898.17 1.01 1.01 0 0 0-.396.824l.021 1.131a.552.552 0 0 1-.359.526 7.183 7.183 0 0 1-3.189.416.545.545 0 0 1-.48-.415l-.268-1.091a1.01 1.01 0 0 0-1.503-.621l-.962.583a.555.555 0 0 1-.631-.043 6.956 6.956 0 0 1-1.964-2.557.546.546 0 0 1 .122-.62l.812-.781a1.002 1.002 0 0 0 .305-.861 1.009 1.009 0 0 0-.516-.753l-.985-.541a.54.54 0 0 1-.229-.241.542.542 0 0 1-.048-.329 7.186 7.186 0 0 1 1.223-2.972.553.553 0 0 1 .601-.211l1.085.312a1.01 1.01 0 0 0 1.195-.535c.069-.143.103-.3.1-.459l-.021-1.129a.552.552 0 0 1 .359-.526 7.19 7.19 0 0 1 3.187-.414.552.552 0 0 1 .479.415l.267 1.087a1.011 1.011 0 0 0 1.508.62l.964-.582a.546.546 0 0 1 .636.047v.001Zm-6.433 6.963c.384.502.953.829 1.579.911a2.378 2.378 0 0 0 2.672-2.052 2.383 2.383 0 1 0-4.251 1.141Z" fill="#23272A"/><path d="M91.275 205.393c.412.344.787.731 1.119 1.153.33.44.607.903.834 1.39a.55.55 0 0 1-.118.629l-.811.779a1.016 1.016 0 0 0 .21 1.619l.981.538a.551.551 0 0 1 .278.57 7.181 7.181 0 0 1-1.222 2.973.554.554 0 0 1-.602.211l-1.085-.313a1.008 1.008 0 0 0-.898.17 1.018 1.018 0 0 0-.396.824l.02 1.131a.548.548 0 0 1-.358.526 7.183 7.183 0 0 1-3.189.416.545.545 0 0 1-.48-.415l-.268-1.091a1.009 1.009 0 0 0-1.503-.621l-.963.583a.551.551 0 0 1-.63-.043 6.957 6.957 0 0 1-1.964-2.557.548.548 0 0 1 .121-.62l.813-.781a1.002 1.002 0 0 0 .305-.861 1.008 1.008 0 0 0-.516-.753l-.985-.541a.545.545 0 0 1-.277-.57 7.19 7.19 0 0 1 1.223-2.972.554.554 0 0 1 .601-.211l1.085.312a1.007 1.007 0 0 0 .899-.17 1.011 1.011 0 0 0 .396-.824l-.021-1.129a.55.55 0 0 1 .36-.526 7.188 7.188 0 0 1 3.186-.414.55.55 0 0 1 .48.415l.266 1.087a1.013 1.013 0 0 0 1.508.62l.964-.582a.548.548 0 0 1 .636.047v.001Zm-6.434 6.963c.384.502.953.829 1.579.911a2.378 2.378 0 0 0 2.672-2.052 2.383 2.383 0 1 0-4.251 1.141Z" fill="#fff"/><path d="M107.995 81.93a.684.684 0 0 0-.132-.41c-.088-.122-.252-.235-.491-.337-.234-.108-.574-.205-1.018-.293a7.941 7.941 0 0 1-1.121-.33 3.88 3.88 0 0 1-.893-.49 2.128 2.128 0 0 1-.586-.674 1.87 1.87 0 0 1-.213-.901c0-.332.071-.645.213-.938.146-.293.354-.552.622-.776.274-.23.606-.408.996-.535.396-.132.84-.197 1.333-.197.689 0 1.28.11 1.773.33.498.219.879.521 1.142.907.269.381.403.816.403 1.304h-2.109c0-.205-.044-.388-.132-.55a.872.872 0 0 0-.395-.388c-.176-.097-.406-.146-.689-.146a1.38 1.38 0 0 0-.608.124.925.925 0 0 0-.395.323.774.774 0 0 0-.132.44c0 .121.024.231.073.329a.802.802 0 0 0 .256.256c.118.078.269.151.455.22.19.063.424.122.703.176a8.08 8.08 0 0 1 1.53.461c.45.186.806.44 1.07.762.263.317.395.735.395 1.252 0 .352-.078.674-.234.967a2.33 2.33 0 0 1-.674.77 3.409 3.409 0 0 1-1.055.505 4.926 4.926 0 0 1-1.369.175c-.738 0-1.363-.132-1.875-.395-.508-.264-.894-.598-1.157-1.004-.259-.41-.389-.83-.389-1.26h2c.01.289.083.52.22.696.141.176.319.303.534.381.22.078.457.117.711.117.273 0 .5-.036.681-.11a.967.967 0 0 0 .41-.307.741.741 0 0 0 .147-.454Zm6.902 2.336c-.615 0-1.167-.097-1.655-.293a3.638 3.638 0 0 1-1.245-.827 3.664 3.664 0 0 1-.776-1.224 4.112 4.112 0 0 1-.271-1.494v-.293c0-.6.085-1.15.256-1.648.171-.498.415-.93.732-1.296a3.224 3.224 0 0 1 1.172-.842c.459-.2.977-.3 1.553-.3.562 0 1.06.092 1.494.278.435.185.798.449 1.091.79.298.343.523.753.674 1.231.152.474.227 1.001.227 1.582v.88h-6.298v-1.407h4.226v-.161a1.82 1.82 0 0 0-.162-.784 1.239 1.239 0 0 0-.468-.556c-.21-.137-.479-.206-.806-.206-.278 0-.518.061-.718.183-.2.123-.364.293-.49.513-.123.22-.215.479-.279.777a4.983 4.983 0 0 0-.088.966v.293c0 .318.044.61.132.88.093.268.222.5.388.695.171.195.376.347.616.454.244.108.52.161.827.161.381 0 .735-.073 1.062-.22.332-.15.618-.378.857-.68l1.026 1.113a3.13 3.13 0 0 1-.682.688c-.283.22-.625.4-1.025.542-.4.137-.857.205-1.37.205Zm8.17-8.071v1.494h-4.614v-1.494h4.614Zm-3.471-1.956h2.109v7.493c0 .23.029.405.088.527a.525.525 0 0 0 .278.257c.122.044.276.066.462.066.132 0 .249-.005.351-.015a4.45 4.45 0 0 0 .271-.044l.008 1.553a3.975 3.975 0 0 1-.586.139c-.21.034-.442.051-.696.051-.464 0-.869-.075-1.216-.227a1.676 1.676 0 0 1-.791-.747c-.186-.342-.278-.79-.278-1.347v-7.706Zm89.276 2.176v-1.092c0-.317.061-.644.183-.981a4.37 4.37 0 0 1 .483-.952c.2-.303.42-.56.659-.77l.982.572a5.808 5.808 0 0 0-.454.945 3.36 3.36 0 0 0-.191 1.186v1.092h-1.662Zm5.504 1.508v6.197h-2.11v-7.925h1.985l.125 1.729Zm2.387-1.78-.036 1.956a5.157 5.157 0 0 0-.374-.036 3.818 3.818 0 0 0-.388-.022c-.298 0-.557.039-.777.117a1.395 1.395 0 0 0-.542.33 1.443 1.443 0 0 0-.322.534 2.65 2.65 0 0 0-.117.718l-.425-.132c0-.513.052-.984.154-1.413.103-.435.252-.813.447-1.136.2-.322.444-.571.732-.747.288-.176.618-.263.989-.263.117 0 .237.01.359.029.122.014.222.036.3.066Zm4.332 8.123c-.615 0-1.167-.097-1.655-.293a3.638 3.638 0 0 1-1.245-.827 3.664 3.664 0 0 1-.776-1.224 4.112 4.112 0 0 1-.271-1.494v-.293c0-.6.085-1.15.256-1.648.171-.498.415-.93.732-1.296a3.224 3.224 0 0 1 1.172-.842c.459-.2.977-.3 1.553-.3.561 0 1.059.092 1.494.278.435.185.798.449 1.091.79.298.343.523.753.674 1.231.152.474.227 1.001.227 1.582v.88h-6.299v-1.407h4.226v-.161a1.82 1.82 0 0 0-.161-.784 1.239 1.239 0 0 0-.468-.556c-.21-.137-.479-.206-.806-.206-.278 0-.518.061-.718.183a1.42 1.42 0 0 0-.491.513c-.122.22-.214.479-.278.777a4.983 4.983 0 0 0-.088.966v.293c0 .318.044.61.132.88.093.268.222.5.388.695.171.195.376.347.615.454.245.108.52.161.828.161.381 0 .735-.073 1.062-.22.332-.15.618-.378.857-.68l1.025 1.113c-.166.239-.393.468-.681.688-.283.22-.625.4-1.025.542-.4.137-.857.205-1.37.205Zm8.969-1.875V72.87h2.124v11.25h-1.912l-.212-1.729Zm-5.01-2.138v-.154c0-.606.068-1.155.205-1.648a3.86 3.86 0 0 1 .6-1.282c.264-.356.589-.632.975-.828a2.875 2.875 0 0 1 1.318-.292c.464 0 .869.097 1.216.292a2.6 2.6 0 0 1 .893.835c.249.357.45.78.601 1.267.151.484.261 1.014.329 1.59v.337a8.469 8.469 0 0 1-.329 1.538 4.599 4.599 0 0 1-.601 1.245 2.65 2.65 0 0 1-.893.82c-.352.196-.762.293-1.231.293-.493 0-.932-.1-1.318-.3a2.8 2.8 0 0 1-.967-.842 4.039 4.039 0 0 1-.593-1.275 5.894 5.894 0 0 1-.205-1.596Zm2.109-.154v.154c0 .327.025.632.073.915.054.283.14.535.257.754.122.215.278.384.469.506.195.117.432.176.71.176.361 0 .659-.08.894-.242.234-.166.412-.393.534-.681.127-.288.2-.62.22-.996v-.96a3.485 3.485 0 0 0-.132-.827 1.792 1.792 0 0 0-.308-.638 1.344 1.344 0 0 0-.498-.41 1.537 1.537 0 0 0-.695-.146c-.274 0-.508.063-.704.19-.195.122-.354.29-.476.505a2.673 2.673 0 0 0-.263.762c-.054.288-.081.6-.081.938Zm8.617-2.175v6.196h-2.109v-7.925h1.984l.125 1.729Zm2.388-1.78-.037 1.955a5.157 5.157 0 0 0-.374-.036 3.802 3.802 0 0 0-.388-.022c-.298 0-.556.039-.776.117a1.38 1.38 0 0 0-.542.33 1.43 1.43 0 0 0-.322.534 2.61 2.61 0 0 0-.118.718l-.424-.132c0-.513.051-.984.153-1.413.103-.435.252-.813.447-1.136.2-.322.445-.571.733-.747.288-.176.617-.263.988-.263.118 0 .237.01.359.029.122.014.222.036.301.066Zm.274 4.094v-.154c0-.58.083-1.116.249-1.604.166-.493.408-.92.725-1.282a3.253 3.253 0 0 1 1.172-.842c.464-.205.996-.307 1.597-.307.6 0 1.135.102 1.604.307.468.2.862.481 1.179.842.322.362.566.789.732 1.282.166.488.249 1.023.249 1.604v.154c0 .576-.083 1.11-.249 1.604-.166.488-.41.915-.732 1.282a3.245 3.245 0 0 1-1.172.842c-.464.2-.996.3-1.597.3-.6 0-1.135-.1-1.604-.3-.463-.2-.857-.481-1.179-.842a3.81 3.81 0 0 1-.725-1.282 4.998 4.998 0 0 1-.249-1.604Zm2.109-.154v.154c0 .332.03.642.088.93.059.288.152.542.279.762.131.215.302.383.512.505.21.122.467.183.769.183.293 0 .545-.06.755-.183.21-.122.378-.29.505-.505.127-.22.22-.474.278-.762.064-.288.096-.598.096-.93v-.154c0-.322-.032-.625-.096-.908a2.378 2.378 0 0 0-.285-.762 1.42 1.42 0 0 0-.506-.527 1.443 1.443 0 0 0-.761-.19c-.298 0-.552.063-.762.19a1.492 1.492 0 0 0-.505.527c-.127.22-.22.474-.279.762a4.52 4.52 0 0 0-.088.908Zm10.814 1.846a.683.683 0 0 0-.131-.41c-.088-.122-.252-.235-.491-.337-.234-.108-.574-.205-1.018-.293a7.941 7.941 0 0 1-1.121-.33 3.88 3.88 0 0 1-.893-.49 2.128 2.128 0 0 1-.586-.674 1.87 1.87 0 0 1-.213-.901c0-.332.071-.645.213-.938.146-.293.354-.552.622-.776.274-.23.606-.408.996-.535.396-.132.84-.197 1.333-.197.689 0 1.28.11 1.773.33.498.219.879.521 1.142.907.269.381.403.816.403 1.304h-2.109c0-.205-.044-.388-.132-.55a.872.872 0 0 0-.395-.388c-.176-.097-.406-.146-.689-.146a1.38 1.38 0 0 0-.608.124.925.925 0 0 0-.395.323.774.774 0 0 0-.132.44c0 .121.024.231.073.329a.802.802 0 0 0 .256.256c.118.078.269.151.454.22.191.063.425.122.704.176a8.08 8.08 0 0 1 1.53.461c.45.186.806.44 1.07.762.263.317.395.735.395 1.252 0 .352-.078.674-.234.967a2.33 2.33 0 0 1-.674.77 3.42 3.42 0 0 1-1.055.505 4.926 4.926 0 0 1-1.369.175c-.738 0-1.363-.132-1.875-.395-.508-.264-.894-.598-1.158-1.004-.258-.41-.388-.83-.388-1.26h2c.01.289.083.52.22.696.141.176.319.303.534.381.22.078.457.117.711.117.273 0 .5-.036.681-.11a.973.973 0 0 0 .41-.307.74.74 0 0 0 .146-.454Zm6.903 2.336c-.615 0-1.167-.097-1.655-.293a3.638 3.638 0 0 1-1.245-.827 3.664 3.664 0 0 1-.776-1.224 4.112 4.112 0 0 1-.271-1.494v-.293c0-.6.085-1.15.256-1.648.171-.498.415-.93.732-1.296a3.224 3.224 0 0 1 1.172-.842c.459-.2.977-.3 1.553-.3.561 0 1.06.092 1.494.278.435.185.798.449 1.091.79.298.343.523.753.674 1.231.152.474.227 1.001.227 1.582v.88h-6.299v-1.407h4.227v-.161a1.82 1.82 0 0 0-.162-.784 1.239 1.239 0 0 0-.468-.556c-.21-.137-.479-.206-.806-.206-.278 0-.518.061-.718.183a1.42 1.42 0 0 0-.491.513c-.122.22-.214.479-.278.777a4.983 4.983 0 0 0-.088.966v.293c0 .318.044.61.132.88.093.268.222.5.388.695.171.195.376.347.616.454.244.108.52.161.827.161.381 0 .735-.073 1.062-.22.332-.15.618-.378.857-.68l1.025 1.113c-.166.239-.393.468-.681.688-.283.22-.625.4-1.025.542-.4.137-.857.205-1.37.205Zm10.126-.146v1.604h-6.651V84.12h6.651Zm3.951-1.502c.259 0 .488-.048.689-.146.2-.103.356-.244.468-.425.117-.185.178-.403.183-.652h1.985a2.642 2.642 0 0 1-.447 1.487c-.293.43-.686.769-1.179 1.018a3.679 3.679 0 0 1-1.655.366c-.615 0-1.152-.102-1.611-.307a3.152 3.152 0 0 1-1.136-.85 3.745 3.745 0 0 1-.681-1.274 5.278 5.278 0 0 1-.227-1.568v-.212c0-.562.076-1.084.227-1.568.152-.488.379-.913.681-1.274a3.115 3.115 0 0 1 1.136-.857c.454-.205.986-.307 1.596-.307.65 0 1.219.124 1.707.373.493.249.879.606 1.157 1.07.283.458.427 1.003.432 1.633h-1.985a1.66 1.66 0 0 0-.168-.718 1.218 1.218 0 0 0-.454-.513c-.195-.132-.437-.198-.725-.198-.308 0-.559.066-.755.198a1.268 1.268 0 0 0-.454.527c-.107.22-.183.472-.227.755a6.336 6.336 0 0 0-.058.879v.212c0 .308.019.603.058.886.039.284.112.535.22.755.112.22.266.393.461.52.196.127.45.19.762.19Zm6.441-9.748v11.25h-2.109V72.87h2.109Zm-.3 7.009h-.578c.004-.552.078-1.06.219-1.523a3.76 3.76 0 0 1 .608-1.216c.264-.347.579-.615.945-.806.371-.19.781-.285 1.231-.285.39 0 .744.056 1.062.168.322.107.598.283.827.527.235.24.415.555.542.945.127.39.191.864.191 1.421v5.01h-2.124v-5.025c0-.351-.052-.627-.154-.827a.85.85 0 0 0-.432-.432 1.605 1.605 0 0 0-.689-.132c-.303 0-.561.056-.776.168-.21.112-.379.269-.506.469a2.087 2.087 0 0 0-.278.688 3.95 3.95 0 0 0-.088.85Zm10.763 2.454v-3.53c0-.254-.042-.472-.125-.653a.925.925 0 0 0-.388-.432c-.171-.102-.393-.153-.666-.153-.235 0-.437.041-.608.124a.882.882 0 0 0-.396.344.958.958 0 0 0-.139.52h-2.109c0-.337.078-.656.234-.96.156-.302.383-.568.681-.797a3.37 3.37 0 0 1 1.062-.55 4.586 4.586 0 0 1 1.392-.197c.615 0 1.162.102 1.641.307.478.205.854.513 1.127.923.279.41.418.923.418 1.538v3.391c0 .435.027.791.081 1.07.053.273.131.512.234.717v.125h-2.131a3.04 3.04 0 0 1-.235-.806 6.617 6.617 0 0 1-.073-.981Zm.278-3.04.015 1.194h-1.179c-.279 0-.52.032-.725.095a1.354 1.354 0 0 0-.506.271 1.052 1.052 0 0 0-.293.396 1.38 1.38 0 0 0-.088.498c0 .18.042.344.125.49a.889.889 0 0 0 .359.337c.156.079.339.118.549.118.317 0 .593-.064.828-.19.234-.128.415-.284.542-.47.132-.185.2-.361.205-.527l.556.894c-.078.2-.185.407-.322.622a2.91 2.91 0 0 1-.505.608c-.205.186-.452.34-.74.462-.288.117-.63.175-1.025.175-.503 0-.96-.1-1.37-.3a2.504 2.504 0 0 1-.967-.842 2.214 2.214 0 0 1-.351-1.23c0-.416.078-.785.234-1.107.156-.322.386-.593.689-.813.307-.224.69-.393 1.149-.505a6.496 6.496 0 0 1 1.597-.176h1.223Zm7.189-3.098v1.494h-4.614v-1.494h4.614Zm-3.472-1.956h2.109v7.493c0 .23.03.405.088.527a.53.53 0 0 0 .279.257c.122.044.276.066.461.066.132 0 .249-.005.352-.015.107-.015.197-.03.271-.044l.007 1.553a3.975 3.975 0 0 1-.586.139c-.21.034-.442.051-.696.051-.464 0-.869-.075-1.216-.227a1.68 1.68 0 0 1-.791-.747c-.185-.342-.278-.79-.278-1.347v-7.706Zm6.551-1.37v1.114c0 .317-.061.645-.183.981a4.289 4.289 0 0 1-.476.96c-.2.298-.42.552-.659.762l-.989-.572c.181-.288.335-.6.462-.937.127-.342.19-.737.19-1.187v-1.12h1.655ZM134.499 99.196v7.925h-2.116v-7.925h2.116Zm-2.248-2.066c0-.307.107-.561.322-.761.215-.2.503-.3.864-.3.357 0 .642.1.857.3.22.2.33.454.33.761 0 .308-.11.562-.33.762-.215.2-.5.3-.857.3-.361 0-.649-.1-.864-.3a.995.995 0 0 1-.322-.762Zm6.514 9.991h-2.124v-8.628c0-.6.118-1.106.352-1.516a2.3 2.3 0 0 1 1.003-.938c.435-.215.95-.322 1.546-.322.195 0 .383.015.564.044.18.024.356.056.527.095l-.022 1.59a1.823 1.823 0 0 0-.293-.052 3.816 3.816 0 0 0-.359-.014 1.48 1.48 0 0 0-.652.131.878.878 0 0 0-.402.374c-.093.166-.14.369-.14.608v8.628Zm1.582-7.925v1.494h-4.885v-1.494h4.885Zm-5.965 24.523v9.449h-2.109v-10.972h1.955l.154 1.523Zm5.017 2.351v.154c0 .576-.068 1.111-.205 1.604a4.001 4.001 0 0 1-.586 1.289 2.776 2.776 0 0 1-.967.85c-.381.2-.82.3-1.318.3-.483 0-.903-.097-1.26-.293a2.619 2.619 0 0 1-.901-.82 4.73 4.73 0 0 1-.578-1.238 9.708 9.708 0 0 1-.337-1.509v-.402a9.9 9.9 0 0 1 .337-1.582 4.56 4.56 0 0 1 .578-1.253 2.63 2.63 0 0 1 .894-.828c.356-.195.774-.293 1.252-.293.503 0 .945.096 1.326.286.386.191.708.464.967.82.263.357.461.782.593 1.275a6.12 6.12 0 0 1 .205 1.64Zm-2.117.154v-.154c0-.336-.029-.647-.087-.93a2.421 2.421 0 0 0-.264-.754 1.281 1.281 0 0 0-.469-.498 1.262 1.262 0 0 0-.696-.183c-.288 0-.534.046-.739.139a1.231 1.231 0 0 0-.491.403 1.871 1.871 0 0 0-.286.63c-.063.244-.102.52-.117.827v1.018c.024.362.093.686.205.974.112.284.286.508.52.674.234.166.542.249.923.249.278 0 .513-.061.703-.183.191-.127.344-.3.462-.52.122-.22.207-.473.256-.762a5.05 5.05 0 0 0 .08-.93Zm5.373-2.3v6.197h-2.11v-7.925h1.985l.125 1.728Zm2.387-1.779-.036 1.955a5.082 5.082 0 0 0-.374-.036 3.706 3.706 0 0 0-.388-.022c-.298 0-.557.039-.776.117a1.382 1.382 0 0 0-.542.329c-.142.147-.25.325-.323.535a2.65 2.65 0 0 0-.117.718l-.425-.132c0-.513.052-.984.154-1.414.103-.434.252-.813.447-1.135.2-.322.444-.571.732-.747a1.86 1.86 0 0 1 .989-.264c.117 0 .237.01.359.03.122.014.222.036.3.066Zm3.058.051v7.925h-2.117v-7.925h2.117Zm-2.249-2.065c0-.308.108-.562.323-.762.214-.2.503-.3.864-.3.356 0 .642.1.857.3.22.2.329.454.329.762a.983.983 0 0 1-.329.761c-.215.2-.501.301-.857.301-.361 0-.65-.101-.864-.301a.995.995 0 0 1-.323-.761Zm5.892 3.757v6.233h-2.109v-7.925h1.978l.131 1.692Zm-.307 1.992h-.571c0-.586.075-1.113.227-1.582a3.58 3.58 0 0 1 .637-1.208c.273-.337.598-.594.974-.77.381-.18.806-.271 1.274-.271.371 0 .711.054 1.018.162.308.107.572.278.791.512.225.235.396.545.513.93.122.386.183.857.183 1.414v5.054h-2.124v-5.061c0-.352-.049-.625-.146-.821a.825.825 0 0 0-.432-.41 1.688 1.688 0 0 0-.689-.124c-.283 0-.53.056-.74.168a1.462 1.462 0 0 0-.512.469 2.225 2.225 0 0 0-.301.688 3.397 3.397 0 0 0-.102.85Zm10.367-3.684v1.494h-4.614v-1.494h4.614Zm-3.472-1.956h2.11v7.493c0 .23.029.405.088.527a.528.528 0 0 0 .278.257c.122.044.276.066.461.066.132 0 .249-.005.352-.015.107-.015.198-.029.271-.044l.007 1.553a3.996 3.996 0 0 1-1.281.19c-.464 0-.87-.075-1.216-.227a1.669 1.669 0 0 1-.791-.747c-.186-.342-.279-.791-.279-1.348v-7.705Zm13.099 2.176v-1.092c0-.317.061-.644.183-.981.122-.337.283-.654.484-.952.2-.303.42-.559.659-.769l.981.571a5.89 5.89 0 0 0-.454.945c-.127.337-.19.732-.19 1.186v1.092h-1.663Zm12.286 2.124v.505c0 .811-.11 1.538-.329 2.183a4.814 4.814 0 0 1-.93 1.648 4.034 4.034 0 0 1-1.436 1.032 4.563 4.563 0 0 1-1.838.359 4.599 4.599 0 0 1-1.839-.359 4.111 4.111 0 0 1-1.435-1.032 4.81 4.81 0 0 1-.945-1.648c-.22-.645-.33-1.372-.33-2.183v-.505c0-.816.11-1.543.33-2.183.22-.644.53-1.194.93-1.648a4.074 4.074 0 0 1 1.436-1.04 4.607 4.607 0 0 1 1.838-.359c.674 0 1.287.12 1.838.359a3.986 3.986 0 0 1 1.436 1.04 4.73 4.73 0 0 1 .937 1.648c.225.64.337 1.367.337 2.183Zm-2.219.505v-.52c0-.566-.051-1.064-.154-1.494a3.23 3.23 0 0 0-.454-1.084 1.954 1.954 0 0 0-.732-.659 2.088 2.088 0 0 0-.989-.227c-.371 0-.701.075-.989.227a1.973 1.973 0 0 0-.725.659 3.353 3.353 0 0 0-.447 1.084c-.102.43-.153.928-.153 1.494v.52c0 .562.051 1.06.153 1.494.103.43.254.794.454 1.092.201.292.445.515.733.666a2.1 2.1 0 0 0 .989.227c.371 0 .7-.076.988-.227.288-.151.53-.374.725-.666.196-.298.345-.662.447-1.092.103-.434.154-.932.154-1.494Zm8.837-2.849v1.655h-3.838v-1.655h3.838Zm-3.23 0v7.925h-2.11v-7.925h2.11Zm4.768 0v7.925h-2.117v-7.925h2.117Zm5.108 8.071c-.615 0-1.167-.097-1.655-.293a3.633 3.633 0 0 1-1.245-.827 3.69 3.69 0 0 1-.777-1.224 4.126 4.126 0 0 1-.271-1.494v-.293c0-.6.086-1.15.257-1.648a3.88 3.88 0 0 1 .732-1.296 3.213 3.213 0 0 1 1.172-.842c.459-.2.977-.301 1.553-.301.561 0 1.059.093 1.494.279.434.185.798.449 1.091.791.298.342.523.752.674 1.23.151.474.227 1.001.227 1.582v.879h-6.299v-1.406h4.226v-.161c0-.293-.053-.554-.161-.784a1.245 1.245 0 0 0-.469-.557c-.21-.136-.478-.205-.805-.205-.279 0-.518.061-.718.184-.2.122-.364.292-.491.512-.122.22-.215.479-.278.777a4.903 4.903 0 0 0-.088.966v.293c0 .318.044.611.132.879.093.269.222.501.388.696.171.195.376.347.615.454.244.108.52.161.828.161.381 0 .735-.073 1.062-.219.332-.152.618-.379.857-.682l1.025 1.114a3.13 3.13 0 0 1-.681.688c-.283.22-.625.401-1.025.542a4.225 4.225 0 0 1-1.37.205Zm6.398-6.548v9.449h-2.11v-10.972h1.956l.154 1.523Zm5.017 2.351v.154c0 .576-.069 1.111-.205 1.604a4.022 4.022 0 0 1-.586 1.289 2.776 2.776 0 0 1-.967.85c-.381.2-.82.3-1.319.3-.483 0-.903-.097-1.259-.293a2.61 2.61 0 0 1-.901-.82 4.764 4.764 0 0 1-.579-1.238 9.825 9.825 0 0 1-.337-1.509v-.402a10.01 10.01 0 0 1 .337-1.582 4.59 4.59 0 0 1 .579-1.253c.244-.356.542-.632.893-.828.357-.195.774-.293 1.253-.293.503 0 .945.096 1.326.286.385.191.708.464.966.82.264.357.462.782.594 1.275a6.16 6.16 0 0 1 .205 1.64Zm-2.117.154v-.154a4.57 4.57 0 0 0-.088-.93 2.421 2.421 0 0 0-.264-.754 1.266 1.266 0 0 0-1.164-.681c-.288 0-.535.046-.74.139-.2.093-.364.227-.491.403a1.85 1.85 0 0 0-.285.63c-.064.244-.103.52-.117.827v1.018c.024.362.092.686.205.974.112.284.285.508.52.674.234.166.542.249.922.249.279 0 .513-.061.704-.183.19-.127.344-.3.461-.52.122-.22.208-.473.256-.762.054-.288.081-.598.081-.93Zm7.54 2.11v-3.531c0-.254-.041-.471-.124-.651a.93.93 0 0 0-.389-.433c-.171-.102-.393-.153-.666-.153-.235 0-.437.041-.608.124a.883.883 0 0 0-.396.344.96.96 0 0 0-.139.52h-2.109c0-.337.078-.656.234-.959.157-.303.384-.569.681-.798a3.358 3.358 0 0 1 1.062-.55 4.58 4.58 0 0 1 1.392-.198c.615 0 1.162.103 1.641.308.478.205.854.513 1.128.923.278.41.417.923.417 1.538v3.391c0 .435.027.791.081 1.069.053.274.131.513.234.718v.125h-2.131a3.047 3.047 0 0 1-.235-.806 6.61 6.61 0 0 1-.073-.981Zm.278-3.04.015 1.194h-1.179c-.279 0-.52.032-.725.095a1.364 1.364 0 0 0-.506.271 1.056 1.056 0 0 0-.293.396 1.378 1.378 0 0 0-.088.498c0 .18.042.344.125.49a.886.886 0 0 0 .359.337c.156.078.339.118.549.118.318 0 .593-.064.828-.191.234-.127.415-.283.542-.469.132-.185.2-.361.205-.527l.557.894c-.079.2-.186.407-.323.622-.132.215-.3.418-.505.608a2.596 2.596 0 0 1-.74.461c-.288.118-.63.176-1.025.176-.503 0-.96-.1-1.37-.3a2.507 2.507 0 0 1-.967-.842 2.217 2.217 0 0 1-.351-1.231c0-.415.078-.784.234-1.106.156-.322.386-.593.689-.813.307-.224.691-.393 1.15-.505a6.496 6.496 0 0 1 1.596-.176h1.223Zm3.3 4.827v-7.925h2.109v6.277h2.651v-6.277h2.117v7.925h-6.877Zm8.064-1.641-.139 3.992h-1.963v-2.351h-.887v-1.641h2.989Zm3.006-1.304 2.659-4.98h2.109v7.925h-2.109v-4.988l-2.659 4.988h-2.109v-7.925h2.109v4.98Zm7.936-1.01h2.138l-2.204 3.955h-2.132l2.198-3.955Zm1.421-3.97h3.479v7.925h-2.11v-6.292h-1.369c-.289 0-.528.054-.718.161a1.03 1.03 0 0 0-.425.403.977.977 0 0 0 0 .982c.088.156.225.285.41.388.186.102.418.154.696.154h2.19v1.435h-2.19c-.523 0-.991-.063-1.406-.19a3.335 3.335 0 0 1-1.055-.528 2.464 2.464 0 0 1-.667-.798 2.263 2.263 0 0 1-.227-1.011c0-.381.079-.73.235-1.047.156-.317.381-.596.674-.835a3.089 3.089 0 0 1 1.062-.549c.42-.132.893-.198 1.421-.198Zm11.022 7.031 2.102-7.031h2.263l-3.186 9.119c-.068.2-.161.415-.278.644a2.6 2.6 0 0 1-.461.652 2.17 2.17 0 0 1-.726.513c-.288.132-.642.197-1.062.197-.2 0-.363-.012-.49-.036a9.074 9.074 0 0 1-.454-.103v-1.545h.168c.059.005.115.007.169.007.278 0 .505-.032.681-.095a.953.953 0 0 0 .424-.293c.108-.127.193-.293.257-.498l.593-1.531Zm-.879-7.031 1.721 5.742.301 2.234-1.436.154-2.849-8.13h2.263Zm9.093 6.423c.259 0 .488-.049.688-.146.201-.103.357-.244.469-.425.117-.186.178-.403.183-.652h1.985a2.642 2.642 0 0 1-.447 1.487 3.07 3.07 0 0 1-1.179 1.018 3.681 3.681 0 0 1-1.655.366c-.615 0-1.152-.102-1.611-.307a3.155 3.155 0 0 1-1.136-.85 3.745 3.745 0 0 1-.681-1.274 5.284 5.284 0 0 1-.227-1.568v-.212c0-.562.076-1.084.227-1.568.152-.488.379-.913.681-1.274a3.116 3.116 0 0 1 1.136-.857c.454-.205.986-.308 1.596-.308.65 0 1.219.125 1.707.374a2.78 2.78 0 0 1 1.157 1.069c.283.459.427 1.004.432 1.634h-1.985a1.66 1.66 0 0 0-.168-.718 1.219 1.219 0 0 0-.454-.513c-.196-.132-.437-.198-.725-.198-.308 0-.559.066-.755.198a1.269 1.269 0 0 0-.454.528 2.634 2.634 0 0 0-.227.754 6.33 6.33 0 0 0-.058.879v.212c0 .308.019.603.058.886.039.284.112.535.22.755.112.22.266.393.461.52.196.127.45.19.762.19Zm9.715-6.423v1.655h-3.838v-1.655h3.838Zm-3.23 0v7.925h-2.109v-7.925h2.109Zm4.768 0v7.925h-2.116v-7.925h2.116Zm5.109 8.071c-.615 0-1.167-.097-1.655-.293a3.623 3.623 0 0 1-1.245-.827 3.69 3.69 0 0 1-.777-1.224 4.105 4.105 0 0 1-.271-1.494v-.293c0-.6.086-1.15.256-1.648.171-.498.416-.93.733-1.296a3.213 3.213 0 0 1 1.172-.842c.459-.2.976-.301 1.553-.301.561 0 1.059.093 1.494.279.434.185.798.449 1.091.791.298.342.522.752.674 1.23.151.474.227 1.001.227 1.582v.879h-6.299v-1.406h4.226v-.161c0-.293-.054-.554-.161-.784a1.252 1.252 0 0 0-.469-.557c-.21-.136-.478-.205-.805-.205-.279 0-.518.061-.718.184-.2.122-.364.292-.491.512-.122.22-.215.479-.278.777a4.903 4.903 0 0 0-.088.966v.293c0 .318.044.611.132.879.092.269.222.501.388.696.171.195.376.347.615.454.244.108.52.161.828.161.381 0 .735-.073 1.062-.219.332-.152.617-.379.857-.682l1.025 1.114a3.13 3.13 0 0 1-.681.688c-.283.22-.625.401-1.025.542a4.225 4.225 0 0 1-1.37.205Zm4.281-8.071h2.109v6.277h2.19v-6.277h2.124v6.277h2.183v-6.277h2.109v7.925h-10.715v-7.925Zm17.676 3.201v1.64h-4.028v-1.64h4.028Zm-3.325-3.201v7.925h-2.109v-7.925h2.109Zm4.754 0v7.925h-2.117v-7.925h2.117Zm5.753 6.138v-3.531c0-.254-.042-.471-.125-.651a.927.927 0 0 0-.388-.433c-.171-.102-.393-.153-.667-.153-.234 0-.437.041-.607.124a.883.883 0 0 0-.396.344.95.95 0 0 0-.139.52h-2.109c0-.337.078-.656.234-.959.156-.303.383-.569.681-.798a3.358 3.358 0 0 1 1.062-.55 4.58 4.58 0 0 1 1.392-.198c.615 0 1.162.103 1.64.308.479.205.855.513 1.128.923.279.41.418.923.418 1.538v3.391c0 .435.027.791.08 1.069.054.274.132.513.235.718v.125h-2.132a3.087 3.087 0 0 1-.234-.806 6.61 6.61 0 0 1-.073-.981Zm.278-3.04.015 1.194h-1.18c-.278 0-.52.032-.725.095a1.36 1.36 0 0 0-.505.271c-.132.112-.23.244-.293.396a1.357 1.357 0 0 0-.088.498c0 .18.042.344.125.49a.88.88 0 0 0 .359.337c.156.078.339.118.549.118.317 0 .593-.064.827-.191.235-.127.416-.283.542-.469.132-.185.201-.361.206-.527l.556.894c-.078.2-.185.407-.322.622-.132.215-.3.418-.505.608a2.61 2.61 0 0 1-.74.461c-.288.118-.63.176-1.026.176-.503 0-.959-.1-1.369-.3a2.5 2.5 0 0 1-.967-.842 2.218 2.218 0 0 1-.352-1.231c0-.415.079-.784.235-1.106.156-.322.386-.593.688-.813.308-.224.691-.393 1.15-.505a6.499 6.499 0 0 1 1.597-.176h1.223Zm5.013.872h2.139l-2.205 3.955h-2.131l2.197-3.955Zm1.421-3.97h3.479v7.925h-2.109v-6.292h-1.37c-.288 0-.527.054-.718.161-.19.103-.332.237-.424.403a.977.977 0 0 0 0 .982c.087.156.224.285.41.388.185.102.417.154.696.154h2.189v1.435h-2.189c-.523 0-.992-.063-1.407-.19a3.33 3.33 0 0 1-1.054-.528 2.439 2.439 0 0 1-.667-.798 2.263 2.263 0 0 1-.227-1.011c0-.381.078-.73.234-1.047.157-.317.381-.596.674-.835a3.089 3.089 0 0 1 1.062-.549c.42-.132.894-.198 1.421-.198Zm7.027-3.325v1.113c0 .317-.061.645-.183.981a4.252 4.252 0 0 1-.476.96c-.2.298-.42.552-.659.762l-.989-.572c.181-.288.335-.6.462-.937.127-.342.19-.737.19-1.187v-1.12h1.655Z" fill="#23272A"/><path d="M124.206 83.102c0-.313.107-.574.322-.784.22-.21.511-.315.872-.315s.649.105.864.315c.22.21.33.471.33.784 0 .312-.11.573-.33.783-.215.21-.503.315-.864.315s-.652-.105-.872-.315a1.05 1.05 0 0 1-.322-.783Zm6.192-5.266v6.284h-2.116v-7.925h1.985l.131 1.64Zm-.292 2.043h-.586c0-.552.065-1.06.197-1.523.137-.47.335-.874.594-1.216.263-.347.588-.615.974-.806.385-.19.832-.285 1.34-.285.352 0 .674.053.967.16.293.103.544.267.754.491.215.22.381.508.498.865.117.351.176.773.176 1.267v5.288h-2.109v-5.054c0-.361-.049-.64-.147-.835a.83.83 0 0 0-.417-.41 1.563 1.563 0 0 0-.637-.117 1.47 1.47 0 0 0-.718.168 1.43 1.43 0 0 0-.498.469c-.132.195-.23.425-.293.688a3.596 3.596 0 0 0-.095.85Zm4.716-.242-.754.096c0-.518.063-.999.19-1.443.132-.445.325-.835.579-1.172.259-.337.579-.598.959-.784.381-.19.821-.285 1.319-.285.381 0 .727.056 1.04.168.312.107.578.28.798.52.225.234.396.542.513.923.122.38.183.847.183 1.399v5.06h-2.117v-5.06c0-.367-.049-.645-.146-.835a.771.771 0 0 0-.41-.403 1.545 1.545 0 0 0-.63-.117c-.254 0-.476.051-.667.154-.19.097-.349.234-.476.41-.127.175-.222.38-.285.615-.064.23-.096.48-.096.754Zm5.958.6v-.153c0-.58.083-1.116.249-1.604.166-.493.408-.92.725-1.282a3.253 3.253 0 0 1 1.172-.842c.464-.205.996-.307 1.597-.307s1.135.102 1.604.307c.469.2.862.481 1.179.842.322.362.567.789.733 1.282.166.488.249 1.023.249 1.604v.154c0 .576-.083 1.11-.249 1.604a3.744 3.744 0 0 1-.733 1.282 3.245 3.245 0 0 1-1.172.842c-.464.2-.996.3-1.596.3-.601 0-1.136-.1-1.604-.3-.464-.2-.857-.481-1.18-.842a3.81 3.81 0 0 1-.725-1.282 4.998 4.998 0 0 1-.249-1.604Zm2.11-.153v.154c0 .332.029.642.088.93.058.288.151.542.278.762.132.215.303.383.513.505.21.122.466.183.769.183.293 0 .544-.06.754-.183.21-.122.378-.29.505-.505.127-.22.22-.474.279-.762a4.35 4.35 0 0 0 .095-.93v-.154c0-.322-.032-.625-.095-.908a2.403 2.403 0 0 0-.286-.762 1.418 1.418 0 0 0-.505-.527 1.447 1.447 0 0 0-.762-.19c-.298 0-.552.063-.762.19a1.5 1.5 0 0 0-.505.527c-.127.22-.22.474-.278.762a4.45 4.45 0 0 0-.088.908Zm11.209 2.307V72.87h2.124v11.25h-1.911l-.213-1.729Zm-5.01-2.138v-.154c0-.606.069-1.155.206-1.648.136-.498.336-.925.6-1.282.264-.356.589-.632.974-.828a2.88 2.88 0 0 1 1.319-.292c.463 0 .869.097 1.215.292.352.196.65.474.894.835.249.357.449.78.601 1.267.151.484.261 1.014.329 1.59v.337a8.469 8.469 0 0 1-.329 1.538 4.628 4.628 0 0 1-.601 1.245 2.643 2.643 0 0 1-.894.82c-.351.196-.761.293-1.23.293-.493 0-.933-.1-1.318-.3-.381-.2-.704-.481-.967-.842a4.017 4.017 0 0 1-.593-1.275 5.893 5.893 0 0 1-.206-1.596Zm2.11-.154v.154c0 .327.024.632.073.915.054.283.139.535.256.754.123.215.279.384.469.506.195.117.432.176.711.176.361 0 .659-.08.893-.242.235-.166.413-.393.535-.681.127-.288.2-.62.22-.996v-.96a3.485 3.485 0 0 0-.132-.827 1.809 1.809 0 0 0-.308-.638 1.36 1.36 0 0 0-.498-.41 1.539 1.539 0 0 0-.696-.146c-.273 0-.508.063-.703.19-.195.122-.354.29-.476.505a2.704 2.704 0 0 0-.264.762c-.053.288-.08.6-.08.938Zm10.155 4.167c-.616 0-1.167-.097-1.656-.293a3.638 3.638 0 0 1-1.245-.827 3.68 3.68 0 0 1-.776-1.224 4.112 4.112 0 0 1-.271-1.494v-.293c0-.6.085-1.15.256-1.648a3.87 3.87 0 0 1 .733-1.296 3.215 3.215 0 0 1 1.172-.842c.459-.2.976-.3 1.552-.3.562 0 1.06.092 1.494.278.435.185.799.449 1.092.79.298.343.522.753.674 1.231.151.474.227 1.001.227 1.582v.88h-6.299v-1.407h4.226v-.161c0-.293-.054-.554-.161-.784a1.247 1.247 0 0 0-.469-.556c-.21-.137-.479-.206-.806-.206a1.35 1.35 0 0 0-.717.183 1.411 1.411 0 0 0-.491.513c-.122.22-.215.479-.278.777a4.906 4.906 0 0 0-.088.966v.293c0 .318.044.61.131.88.093.268.223.5.389.695.171.195.376.347.615.454.244.108.52.161.828.161.38 0 .734-.073 1.062-.22.332-.15.617-.378.856-.68l1.026 1.113c-.166.239-.393.468-.681.688-.284.22-.625.4-1.026.542-.4.137-.857.205-1.369.205Zm6.397-6.343v6.197h-2.109v-7.925h1.985l.124 1.729Zm2.388-1.78-.037 1.956a5.123 5.123 0 0 0-.373-.036 3.818 3.818 0 0 0-.388-.022c-.298 0-.557.039-.777.117a1.388 1.388 0 0 0-.542.33 1.443 1.443 0 0 0-.322.534c-.068.21-.108.45-.117.718l-.425-.132c0-.513.051-.984.154-1.413.102-.435.251-.813.446-1.136.201-.322.445-.571.733-.747.288-.176.618-.263.989-.263.117 0 .236.01.359.029.122.014.222.036.3.066Zm4.859 6.19v-3.53c0-.254-.041-.472-.124-.653a.93.93 0 0 0-.388-.432c-.171-.102-.393-.153-.667-.153a1.38 1.38 0 0 0-.608.124.874.874 0 0 0-.395.344.95.95 0 0 0-.14.52h-2.109c0-.337.078-.656.234-.96.157-.302.384-.568.682-.797a3.37 3.37 0 0 1 1.062-.55 4.584 4.584 0 0 1 1.391-.197c.615 0 1.162.102 1.641.307.478.205.854.513 1.128.923.278.41.417.923.417 1.538v3.391c0 .435.027.791.081 1.07.054.273.132.512.234.717v.125h-2.131a3.005 3.005 0 0 1-.234-.806 6.618 6.618 0 0 1-.074-.981Zm.279-3.04.014 1.194h-1.179c-.278 0-.52.032-.725.095a1.342 1.342 0 0 0-.505.271c-.132.113-.23.244-.293.396a1.36 1.36 0 0 0-.088.498c0 .18.041.344.124.49a.889.889 0 0 0 .359.337c.156.079.339.118.549.118.318 0 .594-.064.828-.19.234-.128.415-.284.542-.47.132-.185.2-.361.205-.527l.557.894c-.078.2-.186.407-.322.622a2.917 2.917 0 0 1-.506.608c-.205.186-.452.34-.74.462a2.712 2.712 0 0 1-1.025.175c-.503 0-.959-.1-1.37-.3a2.494 2.494 0 0 1-.966-.842 2.207 2.207 0 0 1-.352-1.23c0-.416.078-.785.234-1.107.157-.322.386-.593.689-.813.307-.224.691-.393 1.15-.505a6.487 6.487 0 0 1 1.596-.176h1.224Zm7.188-3.098v1.494h-4.614v-1.494h4.614Zm-3.472-1.956h2.11v7.493c0 .23.029.405.088.527a.525.525 0 0 0 .278.257c.122.044.276.066.461.066.132 0 .249-.005.352-.015.107-.015.198-.03.271-.044l.007 1.553c-.18.058-.376.105-.586.139-.21.034-.442.051-.695.051-.464 0-.87-.075-1.216-.227a1.672 1.672 0 0 1-.791-.747c-.186-.342-.279-.79-.279-1.347v-7.706Zm6.735 1.956v7.925h-2.117v-7.925h2.117Zm-2.249-2.066c0-.307.108-.561.323-.761.214-.2.503-.3.864-.3.356 0 .642.1.857.3.219.2.329.454.329.761 0 .308-.11.562-.329.762-.215.2-.501.3-.857.3-.361 0-.65-.1-.864-.3a.996.996 0 0 1-.323-.762Zm3.49 6.109v-.154c0-.58.083-1.116.249-1.604.166-.493.408-.92.725-1.282a3.253 3.253 0 0 1 1.172-.842c.464-.205.996-.307 1.597-.307.6 0 1.135.102 1.604.307.469.2.862.481 1.179.842.322.362.566.789.732 1.282.166.488.249 1.023.249 1.604v.154c0 .576-.083 1.11-.249 1.604-.166.488-.41.915-.732 1.282a3.245 3.245 0 0 1-1.172.842c-.464.2-.996.3-1.597.3-.6 0-1.135-.1-1.604-.3-.463-.2-.857-.481-1.179-.842a3.81 3.81 0 0 1-.725-1.282 4.998 4.998 0 0 1-.249-1.604Zm2.109-.154v.154c0 .332.03.642.088.93.059.288.152.542.279.762.132.215.302.383.512.505.21.122.467.183.769.183.293 0 .545-.06.755-.183.21-.122.378-.29.505-.505.127-.22.22-.474.279-.762a4.35 4.35 0 0 0 .095-.93v-.154c0-.322-.032-.625-.095-.908a2.403 2.403 0 0 0-.286-.762 1.42 1.42 0 0 0-.506-.527 1.44 1.44 0 0 0-.761-.19c-.298 0-.552.063-.762.19a1.5 1.5 0 0 0-.505.527c-.127.22-.22.474-.279.762a4.52 4.52 0 0 0-.088.908Zm8.595-2.197v6.233h-2.109v-7.925h1.977l.132 1.692Zm-.307 1.992h-.572c0-.586.076-1.113.227-1.582.152-.474.364-.876.638-1.209.273-.336.598-.593.974-.768.381-.181.805-.271 1.274-.271.371 0 .711.053 1.018.16.308.108.571.279.791.513.225.235.396.545.513.93.122.386.183.857.183 1.414v5.054h-2.124v-5.061c0-.352-.049-.625-.146-.82a.824.824 0 0 0-.433-.41 1.682 1.682 0 0 0-.688-.125c-.283 0-.53.056-.74.168a1.474 1.474 0 0 0-.513.469 2.248 2.248 0 0 0-.3.688 3.393 3.393 0 0 0-.102.85Zm6.58.066v-.161c0-1.03.108-1.966.322-2.805.22-.84.508-1.578.865-2.212.361-.64.754-1.17 1.179-1.59.425-.42.847-.722 1.267-.908l.403 1.113a4.02 4.02 0 0 0-.82.85 6.142 6.142 0 0 0-.733 1.318 9.242 9.242 0 0 0-.52 1.832 12.94 12.94 0 0 0-.198 2.387v.19c0 .894.066 1.692.198 2.396.132.698.305 1.308.52 1.83.22.528.464.972.733 1.334.268.361.542.647.82.857l-.403 1.084c-.42-.186-.842-.489-1.267-.909-.425-.415-.818-.942-1.179-1.582-.357-.634-.645-1.372-.865-2.212-.214-.844-.322-1.782-.322-2.812Zm100.826-.161v.16c0 .997-.112 1.915-.337 2.755a9.261 9.261 0 0 1-.893 2.22c-.367.648-.77 1.188-1.209 1.618-.435.43-.869.737-1.304.923l-.41-1.084c.278-.206.549-.489.813-.85.269-.361.513-.806.733-1.333a8.833 8.833 0 0 0 .52-1.838c.131-.704.197-1.502.197-2.395v-.19c0-.894-.066-1.693-.197-2.396a8.738 8.738 0 0 0-.535-1.838 6.13 6.13 0 0 0-.732-1.326 4.098 4.098 0 0 0-.799-.85l.41-1.09c.435.185.869.495 1.304.93.439.429.842.966 1.209 1.61.371.645.668 1.387.893 2.227.225.835.337 1.75.337 2.747Zm1.564 3.318c0-.313.107-.574.322-.784.22-.21.51-.315.871-.315.362 0 .65.105.865.315.219.21.329.471.329.784 0 .312-.11.573-.329.783-.215.21-.503.315-.865.315-.361 0-.651-.105-.871-.315a1.05 1.05 0 0 1-.322-.783Zm0-6.043c0-.312.107-.573.322-.784.22-.21.51-.314.871-.314.362 0 .65.105.865.314.219.21.329.472.329.784 0 .313-.11.574-.329.784-.215.21-.503.315-.865.315-.361 0-.651-.105-.871-.315a1.05 1.05 0 0 1-.322-.784ZM151.604 99.942v1.67h-6.57v-1.67h6.57Zm0 3.164v1.67h-6.57v-1.67h6.57Zm9.778-6.65v10.664h-2.19V96.456h2.19Zm3.281 0v1.72h-8.701v-1.72h8.701Zm2.552 4.467v6.197h-2.109v-7.925h1.985l.124 1.728Zm2.388-1.78-.037 1.956a5.05 5.05 0 0 0-.373-.036 3.706 3.706 0 0 0-.388-.022c-.298 0-.557.039-.777.117a1.39 1.39 0 0 0-.542.329 1.448 1.448 0 0 0-.322.535 2.65 2.65 0 0 0-.117.718l-.425-.132c0-.513.051-.984.154-1.414.102-.434.251-.813.447-1.135.2-.322.444-.571.732-.747.288-.176.618-.263.989-.263.117 0 .237.01.359.029.122.014.222.036.3.066Zm5.519 6.08v-6.028h2.109v7.925h-1.985l-.124-1.897Zm.234-1.626.622-.015c0 .527-.061 1.018-.183 1.472-.122.45-.305.84-.549 1.172a2.563 2.563 0 0 1-.923.769c-.371.181-.808.271-1.311.271a3.39 3.39 0 0 1-1.069-.161 2.177 2.177 0 0 1-.835-.52 2.51 2.51 0 0 1-.542-.915c-.127-.376-.191-.828-.191-1.355v-5.12h2.11v5.134c0 .235.027.432.08.593.059.162.14.293.242.396a.88.88 0 0 0 .359.22c.142.044.298.066.469.066.434 0 .776-.088 1.025-.264.254-.176.432-.415.535-.718a3.1 3.1 0 0 0 .161-1.025Zm6.969 3.669c-.616 0-1.167-.097-1.656-.293a3.642 3.642 0 0 1-1.245-.827 3.688 3.688 0 0 1-.776-1.224 4.105 4.105 0 0 1-.271-1.494v-.293c0-.6.085-1.15.256-1.648.171-.498.415-.93.733-1.296a3.215 3.215 0 0 1 1.172-.842c.459-.2.976-.3 1.552-.3.562 0 1.06.092 1.494.278.435.185.799.449 1.092.791.298.342.522.752.674 1.23.151.474.227 1.001.227 1.582v.879h-6.299v-1.406h4.226v-.161c0-.293-.054-.554-.161-.784a1.252 1.252 0 0 0-.469-.557c-.21-.136-.478-.205-.806-.205-.278 0-.517.061-.717.184a1.406 1.406 0 0 0-.491.512c-.122.22-.215.479-.278.777a4.903 4.903 0 0 0-.088.966v.293c0 .318.044.611.132.879.092.269.222.501.388.696.171.195.376.347.615.454.244.108.52.161.828.161.38 0 .734-.073 1.062-.219.332-.152.617-.379.857-.682l1.025 1.114a3.13 3.13 0 0 1-.681.688c-.283.22-.625.401-1.026.542-.4.137-.857.205-1.369.205Zm-15.82 18.679v-.161c0-1.03.107-1.966.322-2.805.22-.84.508-1.578.864-2.212.362-.64.755-1.17 1.18-1.59.424-.42.847-.722 1.267-.908l.402 1.113a4.079 4.079 0 0 0-.82.85 6.163 6.163 0 0 0-.732 1.318 9.252 9.252 0 0 0-.52 1.831 12.954 12.954 0 0 0-.198 2.388v.191c0 .893.066 1.691.198 2.395.132.698.305 1.308.52 1.831a6.3 6.3 0 0 0 .732 1.333c.269.361.542.647.82.857l-.402 1.084c-.42-.186-.843-.489-1.267-.909-.425-.415-.818-.942-1.18-1.582-.356-.634-.644-1.372-.864-2.212-.215-.844-.322-1.782-.322-2.812Zm154.771-.161v.161c0 .996-.112 1.914-.337 2.754a9.209 9.209 0 0 1-.893 2.219c-.367.65-.769 1.189-1.209 1.619-.434.429-.869.737-1.304.923l-.41-1.084c.279-.205.55-.489.813-.85.269-.361.513-.806.733-1.333a8.822 8.822 0 0 0 .52-1.838c.132-.704.197-1.502.197-2.395v-.191c0-.893-.065-1.692-.197-2.395a8.73 8.73 0 0 0-.535-1.838 6.134 6.134 0 0 0-.732-1.326 4.132 4.132 0 0 0-.799-.85l.41-1.091c.435.186.87.496 1.304.93.44.43.842.967 1.209 1.612.371.644.669 1.386.893 2.226.225.835.337 1.751.337 2.747ZM164.416 198.593l4.175 1.473v2.05l-6.306-2.673v-1.729l6.306-2.673v2.051l-4.175 1.501Zm6.42 5.442h-1.575l3.926-11.579h1.575l-3.926 11.579Zm7.013-.915h-2.124v-11.25h2.124v11.25Zm1.255-4.036c0-.786.152-1.487.455-2.102a3.329 3.329 0 0 1 1.303-1.428c.572-.337 1.233-.506 1.985-.506 1.069 0 1.941.328 2.615.982.679.654 1.057 1.543 1.135 2.666l.015.542c0 1.216-.34 2.192-1.018 2.93-.679.732-1.59 1.098-2.732 1.098-1.143 0-2.056-.366-2.739-1.098-.679-.733-1.019-1.729-1.019-2.989v-.095Zm2.117.154c0 .752.142 1.328.425 1.728.283.396.688.594 1.216.594.513 0 .913-.196 1.201-.586.288-.396.432-1.026.432-1.89 0-.737-.144-1.308-.432-1.714-.288-.405-.693-.608-1.216-.608-.517 0-.918.203-1.201.608-.283.401-.425 1.023-.425 1.868Zm11.122 3.882a2.344 2.344 0 0 1-.213-.711c-.512.572-1.179.857-1.999.857-.776 0-1.421-.224-1.934-.674a2.169 2.169 0 0 1-.761-1.699c0-.84.31-1.484.93-1.933.625-.45 1.526-.677 2.702-.682h.975v-.454c0-.366-.096-.659-.286-.879-.186-.219-.481-.329-.886-.329-.357 0-.638.085-.843.256-.2.171-.3.405-.3.703h-2.117c0-.459.142-.883.425-1.274.283-.391.684-.696 1.201-.916a4.35 4.35 0 0 1 1.744-.337c.976 0 1.75.247 2.321.74.576.488.865 1.177.865 2.066v3.435c.004.752.109 1.32.314 1.706v.125h-2.138Zm-1.751-1.472c.313 0 .601-.069.865-.205.263-.142.459-.33.586-.564v-1.363h-.792c-1.059 0-1.623.366-1.691 1.099l-.008.124c0 .264.093.481.279.652.185.171.439.257.761.257Zm4.706-2.549c0-1.236.276-2.219.828-2.952.556-.732 1.315-1.099 2.277-1.099.772 0 1.409.289 1.912.865v-4.043h2.124v11.25h-1.912l-.102-.843c-.527.66-1.206.989-2.036.989-.933 0-1.682-.366-2.249-1.098-.561-.738-.842-1.761-.842-3.069Zm2.117.154c0 .742.129 1.311.388 1.706.259.396.635.593 1.128.593.654 0 1.115-.276 1.384-.827v-3.128c-.264-.551-.72-.827-1.37-.827-1.02 0-1.53.827-1.53 2.483Zm13.366 2.307c.391 0 .708-.108.952-.323.244-.214.371-.5.381-.857h1.985a2.735 2.735 0 0 1-.44 1.48 2.93 2.93 0 0 1-1.186 1.04 3.711 3.711 0 0 1-1.655.366c-1.133 0-2.027-.359-2.681-1.076-.654-.723-.982-1.719-.982-2.989v-.139c0-1.221.325-2.195.975-2.922.649-.728 1.54-1.092 2.673-1.092.991 0 1.785.284 2.38.85.601.562.906 1.311.916 2.249h-1.985c-.01-.411-.137-.743-.381-.996-.244-.259-.566-.389-.967-.389-.493 0-.866.181-1.12.542-.249.357-.374.938-.374 1.743v.22c0 .816.125 1.402.374 1.758.249.356.627.535 1.135.535Zm6.427-5.501c.561-.674 1.267-1.011 2.116-1.011 1.719 0 2.591.999 2.615 2.996v5.076h-2.117v-5.017c0-.454-.097-.789-.293-1.004-.195-.219-.52-.329-.974-.329-.62 0-1.069.239-1.347.717v5.633h-2.117v-11.25h2.117v4.189Zm10.755 7.061a2.345 2.345 0 0 1-.212-.711c-.513.572-1.179.857-2 .857-.776 0-1.421-.224-1.933-.674a2.17 2.17 0 0 1-.762-1.699c0-.84.31-1.484.93-1.933.625-.45 1.526-.677 2.703-.682h.974v-.454c0-.366-.095-.659-.286-.879-.185-.219-.481-.329-.886-.329-.356 0-.637.085-.842.256-.201.171-.301.405-.301.703h-2.116c0-.459.141-.883.424-1.274.284-.391.684-.696 1.202-.916a4.342 4.342 0 0 1 1.743-.337c.976 0 1.75.247 2.322.74.576.488.864 1.177.864 2.066v3.435c.005.752.11 1.32.315 1.706v.125h-2.139Zm-1.75-1.472c.312 0 .6-.069.864-.205.264-.142.459-.33.586-.564v-1.363h-.791c-1.06 0-1.624.366-1.692 1.099l-.007.124c0 .264.092.481.278.652.185.171.439.257.762.257Zm7.569-8.401v1.948h1.355v1.553h-1.355v3.955c0 .293.056.503.168.63.113.127.328.19.645.19.234 0 .442-.017.623-.051v1.604a4.36 4.36 0 0 1-1.282.19c-1.485 0-2.241-.749-2.271-2.248v-4.27h-1.157v-1.553h1.157v-1.948h2.117Zm6.69 5.324-4.255-1.486v-2.037l6.379 2.674v1.721l-6.379 2.681v-2.044l4.255-1.509Z" fill="#fff"/><path d="m320.416 188.593 4.175 1.473v2.05l-6.306-2.673v-1.729l6.306-2.673v2.051l-4.175 1.501Zm6.42 5.442h-1.575l3.926-11.579h1.575l-3.926 11.579Zm9.1-5.464-4.255-1.486v-2.037l6.379 2.674v1.721l-6.379 2.681v-2.044l4.255-1.509Z" fill="#23272A"/><defs><filter id="a" x="59.889" y="211.12" width="139" height="64" filterUnits="userSpaceOnUse" color-interpolation-filters="sRGB"><feFlood flood-opacity="0" result="BackgroundImageFix"/><feColorMatrix in="SourceAlpha" values="0 0 0 0 0 0 0 0 0 0 0 0 0 0 0 0 0 0 127 0" result="hardAlpha"/><feOffset dy="4"/><feGaussianBlur stdDeviation="7.5"/><feColorMatrix values="0 0 0 0 1 0 0 0 0 1 0 0 0 0 1 0 0 0 0.2 0"/><feBlend in2="BackgroundImageFix" result="effect1_dropShadow_1235_104"/><feBlend in="SourceGraphic" in2="effect1_dropShadow_1235_104" result="shape"/></filter></defs></svg>