<svg width="563" height="470" fill="none" xmlns="http://www.w3.org/2000/svg"><path d="m379.362 63.727 4.175 1.472v2.051l-6.306-2.673v-1.729l6.306-2.673v2.05l-4.175 1.502Zm6.419 5.442h-1.574l3.925-11.58h1.575l-3.926 11.58Zm9.071-3.105c0-.26-.129-.462-.388-.608-.254-.152-.664-.286-1.23-.403-1.885-.396-2.828-1.196-2.828-2.402 0-.704.291-1.29.872-1.758.586-.474 1.35-.71 2.292-.71 1.006 0 1.81.236 2.41.71.606.473.908 1.089.908 1.846h-2.116c0-.303-.098-.552-.293-.748-.196-.2-.501-.3-.916-.3-.356 0-.632.08-.828.242a.763.763 0 0 0-.292.615c0 .234.109.425.329.571.225.142.601.267 1.128.374.527.102.972.22 1.333.351 1.118.41 1.677 1.121 1.677 2.132 0 .722-.31 1.308-.93 1.758-.62.444-1.421.666-2.402.666-.664 0-1.255-.117-1.773-.351-.512-.24-.915-.564-1.208-.975a2.28 2.28 0 0 1-.44-1.34h2.007c.02.376.159.664.418.864.258.2.605.3 1.04.3.405 0 .71-.075.915-.226a.725.725 0 0 0 .315-.608Zm5.797-7.683v1.948h1.355v1.553h-1.355v3.955c0 .293.056.503.169.63.112.127.327.19.644.19.234 0 .442-.017.623-.051v1.604c-.415.127-.843.19-1.282.19-1.484 0-2.241-.75-2.271-2.248v-4.27h-1.157v-1.553h1.157V58.38h2.117Zm6.962 9.873a2.341 2.341 0 0 1-.213-.71c-.513.57-1.179.856-1.999.856-.777 0-1.421-.225-1.934-.674a2.171 2.171 0 0 1-.762-1.699c0-.84.31-1.484.931-1.933.625-.45 1.525-.677 2.702-.682h.974v-.454c0-.366-.095-.659-.285-.879-.186-.22-.481-.33-.887-.33-.356 0-.637.086-.842.257-.2.171-.3.405-.3.703h-2.117c0-.459.142-.884.425-1.274.283-.39.684-.696 1.201-.916.518-.224 1.099-.337 1.743-.337.977 0 1.751.247 2.322.74.576.488.864 1.177.864 2.066v3.435c.005.751.11 1.32.315 1.706v.125h-2.138Zm-1.751-1.473c.313 0 .601-.068.864-.205.264-.141.459-.33.586-.564V64.65h-.791c-1.059 0-1.623.366-1.692 1.099l-.007.124c0 .264.093.481.278.652.186.171.44.256.762.256Zm7.569-8.4v1.948h1.355v1.553h-1.355v3.955c0 .293.057.503.169.63.112.127.327.19.644.19.235 0 .442-.017.623-.051v1.604c-.415.127-.842.19-1.282.19-1.484 0-2.241-.75-2.27-2.248v-4.27h-1.157v-1.553h1.157V58.38h2.116Zm6.662 7.683c0-.26-.13-.462-.389-.608-.253-.152-.664-.286-1.23-.403-1.885-.396-2.827-1.196-2.827-2.402 0-.704.29-1.29.871-1.758.586-.474 1.351-.71 2.293-.71 1.006 0 1.809.236 2.41.71.605.473.908 1.089.908 1.846h-2.117c0-.303-.098-.552-.293-.748-.195-.2-.5-.3-.915-.3-.357 0-.633.08-.828.242a.764.764 0 0 0-.293.615c0 .234.11.425.33.571.224.142.6.267 1.127.374.528.102.972.22 1.333.351 1.119.41 1.678 1.121 1.678 2.132 0 .722-.31 1.308-.93 1.758-.621.444-1.421.666-2.403.666-.664 0-1.255-.117-1.772-.351-.513-.24-.916-.564-1.209-.975a2.279 2.279 0 0 1-.439-1.34h2.007c.019.376.158.664.417.864.259.2.606.3 1.04.3.405 0 .711-.075.916-.226a.725.725 0 0 0 .315-.608Zm7.584-2.359-4.256-1.486v-2.037l6.38 2.674v1.72l-6.38 2.681v-2.043l4.256-1.509ZM511.87 415.254h-7.31v-1.451l3.45-3.676c.473-.518.823-.97 1.047-1.355.23-.386.344-.752.344-1.099 0-.474-.119-.845-.358-1.113-.24-.274-.582-.41-1.026-.41-.478 0-.857.166-1.135.498-.274.327-.41.759-.41 1.296h-2.124c0-.649.154-1.243.461-1.78a3.273 3.273 0 0 1 1.319-1.259c.566-.308 1.208-.462 1.926-.462 1.098 0 1.95.264 2.556.791.61.527.915 1.272.915 2.234 0 .527-.136 1.064-.41 1.611-.273.547-.742 1.184-1.406 1.912l-2.424 2.556h4.585v1.707Zm7.401-4.014h1.208v1.707h-1.208v2.307h-2.117v-2.307h-4.373l-.095-1.334 4.446-7.023h2.139v6.65Zm-4.475 0h2.358v-3.765l-.139.242-2.219 3.523Zm12.384-3.047c.562-.674 1.267-1.011 2.117-1.011 1.719 0 2.59.999 2.615 2.996v5.076h-2.117v-5.017c0-.455-.098-.789-.293-1.004-.195-.22-.52-.329-.974-.329-.62 0-1.069.239-1.348.717v5.633h-2.116v-11.25h2.116v4.189Zm5.834 3.025c0-.786.151-1.487.454-2.102a3.331 3.331 0 0 1 1.304-1.428c.571-.337 1.233-.506 1.985-.506 1.069 0 1.94.327 2.614.982.679.654 1.057 1.543 1.136 2.666l.014.542c0 1.216-.339 2.192-1.018 2.929-.679.733-1.589 1.099-2.732 1.099-1.142 0-2.055-.366-2.739-1.099-.679-.732-1.018-1.728-1.018-2.988v-.095Zm2.117.154c0 .752.141 1.328.424 1.728.284.396.689.594 1.216.594.513 0 .913-.196 1.201-.586.288-.396.433-1.026.433-1.89 0-.737-.145-1.309-.433-1.714-.288-.405-.693-.608-1.215-.608-.518 0-.918.203-1.202.608-.283.401-.424 1.023-.424 1.868Zm11.275 3.076c-.522.635-1.245.952-2.168.952-.85 0-1.499-.244-1.948-.732-.445-.489-.672-1.204-.681-2.146v-5.193h2.116v5.119c0 .826.376 1.238 1.128 1.238.718 0 1.211-.249 1.48-.747v-5.61h2.124v7.925h-1.992l-.059-.806Zm7.936-5.134a5.767 5.767 0 0 0-.762-.059c-.801 0-1.326.271-1.575.813v5.186h-2.117v-7.925h2l.059.945c.424-.728 1.013-1.092 1.765-1.092.234 0 .454.032.659.096l-.029 2.036Zm5.152 3.75c0-.259-.129-.462-.388-.608-.254-.152-.664-.286-1.231-.403-1.884-.396-2.827-1.196-2.827-2.402 0-.704.291-1.289.872-1.758.586-.474 1.35-.711 2.292-.711 1.006 0 1.809.237 2.41.711.605.473.908 1.089.908 1.845h-2.117c0-.302-.097-.551-.293-.747-.195-.2-.5-.3-.915-.3-.357 0-.632.081-.828.242a.763.763 0 0 0-.293.615c0 .234.11.425.33.571.225.142.6.266 1.128.374.527.102.972.22 1.333.351 1.118.411 1.677 1.121 1.677 2.132 0 .722-.31 1.308-.93 1.758-.62.444-1.421.666-2.402.666-.664 0-1.255-.117-1.773-.351-.513-.24-.915-.564-1.208-.975a2.278 2.278 0 0 1-.44-1.34h2.007c.02.376.159.664.417.864.259.201.606.301 1.041.301.405 0 .71-.076.915-.227a.726.726 0 0 0 .315-.608Z" fill="#23272A"/><path d="M282.057 112.712A158.002 158.002 0 0 0 63.365 250.55a158.002 158.002 0 0 0 203.716 159.138 158.002 158.002 0 0 0 112.084-151.406l-158 .225 60.892-145.795Z" fill="#4965EE"/><path d="M438.431 223.813A158.002 158.002 0 0 0 335.396 72.66L280.46 220.802l157.971 3.011ZM384.262 355.701c-2.716 5.501-3.599 11.634-2.524 17.513a26.85 26.85 0 0 0 8.509 15.19c4.452 3.992 10.148 6.45 16.262 7.018 6.115.568 12.332-.783 17.753-3.858 5.421-3.075 9.765-7.714 12.405-13.248 2.639-5.533 3.437-11.674 2.278-17.535a26.844 26.844 0 0 0-8.725-15.067c-4.511-3.93-10.243-6.311-16.368-6.797l-1.251 10.177c3.921.311 7.589 1.834 10.476 4.35a17.177 17.177 0 0 1 5.584 9.643c.742 3.751.231 7.681-1.458 11.223-1.689 3.541-4.47 6.511-7.939 8.479-3.47 1.968-7.449 2.832-11.362 2.469-3.914-.364-7.559-1.937-10.408-4.492a17.187 17.187 0 0 1-5.446-9.722c-.688-3.762-.123-7.687 1.615-11.208l-9.401-4.135Z" fill="#23272A"/><path d="m423.165 288.507-2.455 6.546-6.545 2.454 6.545 2.455 2.455 6.545 2.455-6.545 6.545-2.455-6.545-2.454-2.455-6.546Z" fill="#4965EE"/><path d="m160.165 429.507-2.455 6.546-6.545 2.454 6.545 2.455 2.455 6.545 2.455-6.545 6.545-2.455-6.545-2.454-2.455-6.546Z" fill="#23272A"/><path d="m19.165 269.507-5.182 13.818-13.818 5.182 13.818 5.182 5.182 13.818 5.182-13.818 13.818-5.182-13.818-5.182-5.182-13.818ZM313.165 29.507l-4.909 13.091-13.091 4.909 13.091 4.91 4.909 13.09 4.909-13.09 13.091-4.91-13.091-4.909-4.909-13.091Z" fill="#4965EE"/><path d="m66.165 125.507-5.182 13.818-13.818 5.182 13.818 5.182 5.182 13.818 5.182-13.818 13.818-5.182-13.818-5.182-5.182-13.818ZM451.165 153.507l-2.727 7.273-7.273 2.727 7.273 2.727 2.727 7.273 2.727-7.273 7.273-2.727-7.273-2.727-2.727-7.273Z" fill="#23272A"/><rect x="28.165" y="349.507" width="211" height="44" rx="10" fill="#23272A"/><rect x="328.165" y="95.507" width="223" height="44" rx="10" fill="#4965EE"/><path d="M54.138 375.31h-3.853l-.732 2.197h-2.337l3.97-10.664h2.036l3.992 10.664h-2.337l-.74-2.197Zm-3.26-1.78h2.666l-1.34-3.992-1.326 3.992Zm9.782 1.055h-.85v2.922h-2.117v-7.925h2.117v2.981h.755l1.728-2.981h2.673l-2.592 3.772 2.834 4.153h-2.82l-1.728-2.922Zm11.758-3.304h-2.541v6.226h-2.124v-6.226h-2.498v-1.699h7.163v1.699Zm5.68-1.699h2.117v7.925h-2.117v-4.893l-2.651 4.893h-2.124v-7.925h2.124v4.885l2.651-4.885Zm3.71 7.925v-7.925h3.31c1.08 0 1.907.191 2.483.572.576.38.865.927.865 1.64 0 .366-.123.696-.367.989-.239.288-.59.51-1.054.666.566.108 1.01.32 1.333.638.327.312.49.698.49 1.157 0 .737-.278 1.299-.835 1.684-.551.386-1.355.579-2.41.579h-3.815Zm2.116-3.289v1.597h1.707c.747 0 1.12-.261 1.12-.784 0-.532-.356-.803-1.069-.813h-1.758Zm0-1.42h1.311c.743-.01 1.114-.249 1.114-.718 0-.288-.103-.493-.308-.615-.2-.123-.508-.184-.923-.184h-1.194v1.517Zm12.946 4.709h-2.124v-3.047h-2.63v3.047H90v-7.925h2.116v3.179h2.63v-3.179h2.124v7.925Zm3.739-5.603h1.516c.683 0 1.284.115 1.802.344.517.23.913.559 1.186.989.278.425.418.92.418 1.487 0 .835-.311 1.509-.931 2.021-.615.508-1.455.762-2.519.762h-3.596v-7.925h2.124v2.322Zm8.291 5.603h-2.117v-7.925h2.117v7.925Zm-8.291-3.904v2.212h1.501c.42 0 .742-.098.967-.293.225-.195.337-.461.337-.798 0-.342-.11-.613-.33-.813-.22-.205-.544-.308-.974-.308h-1.501Zm13.641 4.051c-1.162 0-2.11-.357-2.842-1.07-.728-.713-1.091-1.662-1.091-2.849v-.205c0-.796.153-1.506.461-2.131.308-.63.742-1.114 1.304-1.451.566-.341 1.211-.512 1.933-.512 1.084 0 1.936.342 2.557 1.025.625.684.937 1.653.937 2.908v.864h-5.046c.068.518.273.933.615 1.245.347.313.784.469 1.311.469.815 0 1.453-.295 1.912-.886l1.04 1.164c-.318.45-.747.801-1.289 1.055a4.267 4.267 0 0 1-1.802.374Zm-.242-6.504c-.42 0-.762.141-1.025.424-.259.284-.425.689-.498 1.216h2.944v-.168c-.01-.469-.137-.83-.381-1.084-.244-.259-.591-.388-1.04-.388Zm15.007 6.357h-2.124v-6.211h-2.651v6.211h-2.117v-7.925h6.892v7.925Zm1.124-4.036c0-.786.151-1.486.454-2.102a3.331 3.331 0 0 1 1.304-1.428c.571-.337 1.233-.505 1.985-.505 1.069 0 1.941.327 2.614.981.679.655 1.058 1.543 1.136 2.666l.014.542c0 1.216-.339 2.193-1.018 2.93-.678.732-1.589 1.099-2.732 1.099-1.142 0-2.055-.367-2.739-1.099-.679-.733-1.018-1.729-1.018-2.988v-.096Zm2.117.154c0 .752.141 1.328.425 1.729.283.395.688.593 1.215.593.513 0 .913-.195 1.202-.586.288-.395.432-1.025.432-1.89 0-.737-.144-1.308-.432-1.713-.289-.406-.694-.608-1.216-.608-.518 0-.918.202-1.201.608-.284.4-.425 1.022-.425 1.867Zm13.304-4.043v7.925h-2.117v-6.211h-1.867l-.132 2.446c-.083 1.304-.34 2.254-.769 2.85-.43.595-1.07.9-1.919.915h-.718l-.022-1.721.264-.022c.381-.029.659-.254.835-.674.175-.42.285-1.135.329-2.146l.147-3.362h5.969Zm3.731 2.322h1.517c.683 0 1.284.115 1.801.344.518.23.913.559 1.187.989.278.425.417.92.417 1.487 0 .835-.31 1.509-.93 2.021-.615.508-1.455.762-2.519.762h-3.597v-7.925h2.124v2.322Zm0 1.699v2.212h1.502c.42 0 .742-.098.967-.293.224-.195.337-.461.337-.798 0-.342-.11-.613-.33-.813-.22-.205-.544-.308-.974-.308h-1.502Zm10.111-1.684c0-.279-.092-.493-.278-.645-.181-.156-.439-.234-.776-.234-.347 0-.63.073-.85.219a.686.686 0 0 0-.322.608h-2.117c0-.717.298-1.301.894-1.75.595-.449 1.357-.674 2.285-.674 1.02 0 1.821.2 2.402.601.586.4.879.969.879 1.706 0 .352-.107.676-.322.974-.21.293-.508.528-.894.703.904.318 1.355.931 1.355 1.839 0 .727-.312 1.308-.937 1.743-.62.43-1.448.645-2.483.645-.962 0-1.753-.225-2.373-.674-.62-.45-.93-1.055-.93-1.817h2.116c0 .269.12.486.359.652.239.166.552.249.938.249.376 0 .669-.088.879-.263a.857.857 0 0 0 .315-.689c0-.347-.101-.593-.301-.74-.2-.151-.5-.227-.901-.227h-1.15v-1.377h1.224c.659-.019.988-.302.988-.849Zm3.051 1.552c0-.786.151-1.486.454-2.102a3.331 3.331 0 0 1 1.304-1.428c.571-.337 1.232-.505 1.984-.505 1.07 0 1.941.327 2.615.981.679.655 1.057 1.543 1.135 2.666l.015.542c0 1.216-.339 2.193-1.018 2.93-.679.732-1.589 1.099-2.732 1.099-1.143 0-2.056-.367-2.739-1.099-.679-.733-1.018-1.729-1.018-2.988v-.096Zm2.116.154c0 .752.142 1.328.425 1.729.283.395.689.593 1.216.593.513 0 .913-.195 1.201-.586.288-.395.432-1.025.432-1.89 0-.737-.144-1.308-.432-1.713-.288-.406-.693-.608-1.216-.608-.517 0-.918.202-1.201.608-.283.4-.425 1.022-.425 1.867Zm6.669 3.882v-7.925h3.31c1.08 0 1.907.191 2.483.572.577.38.865.927.865 1.64 0 .366-.122.696-.367.989-.239.288-.59.51-1.054.666.566.108 1.01.32 1.333.638.327.312.49.698.49 1.157 0 .737-.278 1.299-.835 1.684-.551.386-1.355.579-2.409.579h-3.816Zm2.117-3.289v1.597h1.706c.747 0 1.121-.261 1.121-.784 0-.532-.357-.803-1.07-.813h-1.757Zm0-1.42h1.311c.742-.01 1.113-.249 1.113-.718 0-.288-.103-.493-.308-.615-.2-.123-.508-.184-.923-.184h-1.193v1.517Zm10.667 4.709a2.338 2.338 0 0 1-.212-.71c-.513.571-1.179.857-2 .857-.776 0-1.421-.225-1.933-.674a2.173 2.173 0 0 1-.762-1.7c0-.839.31-1.484.93-1.933.625-.449 1.526-.676 2.703-.681h.974v-.454c0-.367-.095-.66-.286-.879-.185-.22-.481-.33-.886-.33-.357 0-.637.086-.842.256-.201.171-.301.406-.301.704h-2.116c0-.459.141-.884.424-1.275.284-.39.684-.696 1.202-.915.517-.225 1.098-.337 1.743-.337.976 0 1.75.246 2.322.74.576.488.864 1.176.864 2.065v3.435c.005.752.11 1.321.315 1.707v.124h-2.139Zm-1.75-1.472c.312 0 .6-.068.864-.205.264-.142.459-.33.586-.564v-1.362h-.791c-1.06 0-1.624.366-1.692 1.098l-.007.125c0 .263.092.481.278.652.185.17.439.256.762.256Zm11.495-4.754h-2.542v6.226h-2.124v-6.226h-2.497v-1.699h7.163v1.699Zm4.083 6.373c-1.162 0-2.11-.357-2.842-1.07-.728-.713-1.091-1.662-1.091-2.849v-.205c0-.796.154-1.506.461-2.131.308-.63.742-1.114 1.304-1.451.566-.341 1.211-.512 1.933-.512 1.084 0 1.936.342 2.557 1.025.625.684.937 1.653.937 2.908v.864h-5.046c.068.518.273.933.615 1.245.347.313.784.469 1.311.469.815 0 1.453-.295 1.912-.886l1.04 1.164c-.318.45-.747.801-1.289 1.055a4.267 4.267 0 0 1-1.802.374Zm-.242-6.504c-.42 0-.762.141-1.025.424-.259.284-.425.689-.498 1.216h2.944v-.168c-.01-.469-.137-.83-.381-1.084-.244-.259-.591-.388-1.04-.388Zm11.437-1.568v7.925h-2.117v-6.211h-1.868l-.132 2.446c-.083 1.304-.339 2.254-.769 2.85-.429.595-1.069.9-1.919.915h-.717l-.022-1.721.263-.022c.381-.029.66-.254.835-.674.176-.42.286-1.135.33-2.146l.146-3.362h5.97Zm6.243 0h2.117v7.925h-2.117v-4.893l-2.651 4.893h-2.124v-7.925h2.124v4.885l2.651-4.885ZM356.796 123.507h-2.197v-4.57h-4.285v4.57h-2.197v-10.664h2.197v4.321h4.285v-4.321h2.197v10.664Zm5.27.147c-1.162 0-2.109-.357-2.842-1.07-.727-.713-1.091-1.662-1.091-2.849v-.205c0-.796.154-1.506.461-2.131.308-.63.742-1.114 1.304-1.451.566-.341 1.211-.512 1.934-.512 1.084 0 1.936.342 2.556 1.025.625.684.937 1.653.937 2.908v.864h-5.046c.068.518.273.933.615 1.245.347.313.784.469 1.311.469.816 0 1.453-.295 1.912-.886l1.04 1.164c-.318.45-.747.801-1.289 1.055a4.267 4.267 0 0 1-1.802.374Zm-.242-6.504c-.42 0-.761.141-1.025.424-.259.284-.425.689-.498 1.216h2.944v-.168c-.01-.469-.137-.83-.381-1.084-.244-.259-.591-.388-1.04-.388Zm9.137 6.357a2.338 2.338 0 0 1-.212-.71c-.513.571-1.18.857-2 .857-.776 0-1.421-.225-1.933-.674a2.173 2.173 0 0 1-.762-1.7c0-.839.31-1.484.93-1.933.625-.449 1.526-.676 2.703-.681h.974v-.454c0-.367-.095-.66-.286-.879-.185-.22-.481-.33-.886-.33-.357 0-.637.086-.842.256-.201.171-.301.406-.301.704h-2.116c0-.459.141-.884.424-1.275.284-.39.684-.696 1.202-.915.517-.225 1.098-.337 1.743-.337.976 0 1.75.246 2.321.74.577.488.865 1.176.865 2.065v3.435c.005.752.11 1.321.315 1.707v.124h-2.139Zm-1.75-1.472c.312 0 .6-.068.864-.205.263-.142.459-.33.586-.564v-1.362h-.791c-1.06 0-1.624.366-1.692 1.098l-.008.125c0 .263.093.481.279.652.185.17.439.256.762.256Zm8.14-1.45h-.849v2.922h-2.117v-7.925h2.117v2.981h.754l1.728-2.981h2.674l-2.593 3.772 2.835 4.153h-2.82l-1.729-2.922Zm11.759-3.304h-2.541v6.226h-2.125v-6.226h-2.497v-1.699h7.163v1.699Zm5.68-1.699h2.116v7.925h-2.116v-4.893l-2.652 4.893h-2.124v-7.925h2.124v4.885l2.652-4.885Zm3.709 7.925v-7.925h3.311c1.079 0 1.907.191 2.483.572.576.38.864.927.864 1.64 0 .366-.122.696-.366.989-.239.288-.591.51-1.055.666.566.108 1.011.32 1.333.638.327.312.491.698.491 1.157 0 .737-.279 1.299-.835 1.684-.552.386-1.355.579-2.41.579h-3.816Zm2.117-3.289v1.597h1.706c.748 0 1.121-.261 1.121-.784 0-.532-.356-.803-1.069-.813h-1.758Zm0-1.42h1.311c.742-.01 1.113-.249 1.113-.718 0-.288-.102-.493-.307-.615-.201-.123-.508-.184-.923-.184h-1.194v1.517Zm12.945 4.709h-2.124v-3.047h-2.629v3.047h-2.117v-7.925h2.117v3.179h2.629v-3.179h2.124v7.925Zm3.739-5.603h1.516c.684 0 1.284.115 1.802.344.518.23.913.559 1.187.989.278.425.417.92.417 1.487 0 .835-.31 1.509-.93 2.021-.615.508-1.455.762-2.52.762h-3.596v-7.925h2.124v2.322Zm8.291 5.603h-2.117v-7.925h2.117v7.925Zm-8.291-3.904v2.212h1.502c.42 0 .742-.098.966-.293.225-.195.337-.461.337-.798 0-.342-.11-.613-.329-.813-.22-.205-.545-.308-.974-.308H417.3Zm13.641 4.051c-1.162 0-2.109-.357-2.842-1.07-.727-.713-1.091-1.662-1.091-2.849v-.205c0-.796.154-1.506.462-2.131.307-.63.742-1.114 1.303-1.451.567-.341 1.211-.512 1.934-.512 1.084 0 1.936.342 2.556 1.025.625.684.938 1.653.938 2.908v.864h-5.047c.069.518.274.933.615 1.245.347.313.784.469 1.311.469.816 0 1.453-.295 1.912-.886l1.04 1.164c-.317.45-.747.801-1.289 1.055a4.267 4.267 0 0 1-1.802.374Zm-.241-6.504c-.42 0-.762.141-1.026.424-.259.284-.425.689-.498 1.216h2.944v-.168c-.009-.469-.136-.83-.38-1.084-.245-.259-.591-.388-1.04-.388Zm15.006 6.357h-2.124v-6.211h-2.651v6.211h-2.117v-7.925h6.892v7.925Zm1.125-4.036c0-.786.151-1.486.454-2.102a3.329 3.329 0 0 1 1.303-1.428c.572-.337 1.233-.505 1.985-.505 1.07 0 1.941.327 2.615.981.679.655 1.057 1.543 1.135 2.666l.015.542c0 1.216-.339 2.193-1.018 2.93-.679.732-1.59 1.099-2.732 1.099-1.143 0-2.056-.367-2.739-1.099-.679-.733-1.018-1.729-1.018-2.988v-.096Zm2.116.154c0 .752.142 1.328.425 1.729.283.395.689.593 1.216.593.513 0 .913-.195 1.201-.586.288-.395.432-1.025.432-1.89 0-.737-.144-1.308-.432-1.713-.288-.406-.693-.608-1.216-.608-.517 0-.918.202-1.201.608-.283.4-.425 1.022-.425 1.867Zm13.304-4.043v7.925h-2.116v-6.211h-1.868l-.132 2.446c-.083 1.304-.339 2.254-.769 2.85-.429.595-1.069.9-1.919.915h-.717l-.022-1.721.263-.022c.381-.029.659-.254.835-.674.176-.42.286-1.135.33-2.146l.146-3.362h5.969Zm3.732 2.322h1.516c.684 0 1.284.115 1.802.344.517.23.913.559 1.186.989.279.425.418.92.418 1.487 0 .835-.31 1.509-.93 2.021-.616.508-1.455.762-2.52.762h-3.596v-7.925h2.124v2.322Zm0 1.699v2.212h1.501c.42 0 .743-.098.967-.293.225-.195.337-.461.337-.798 0-.342-.11-.613-.329-.813-.22-.205-.545-.308-.975-.308h-1.501Zm10.111-1.684c0-.279-.093-.493-.278-.645-.181-.156-.44-.234-.777-.234-.347 0-.63.073-.849.219a.687.687 0 0 0-.323.608h-2.116c0-.717.297-1.301.893-1.75.596-.449 1.358-.674 2.285-.674 1.021 0 1.822.2 2.403.601.586.4.879.969.879 1.706 0 .352-.108.676-.323.974-.21.293-.508.528-.893.703.903.318 1.355.931 1.355 1.839 0 .727-.313 1.308-.938 1.743-.62.43-1.448.645-2.483.645-.962 0-1.753-.225-2.373-.674-.62-.45-.93-1.055-.93-1.817h2.117c0 .269.119.486.359.652.239.166.551.249.937.249.376 0 .669-.088.879-.263a.857.857 0 0 0 .315-.689c0-.347-.1-.593-.3-.74-.2-.151-.501-.227-.901-.227h-1.15v-1.377h1.223c.659-.019.989-.302.989-.849Zm3.05 1.552c0-.786.152-1.486.454-2.102a3.337 3.337 0 0 1 1.304-1.428c.571-.337 1.233-.505 1.985-.505 1.069 0 1.941.327 2.615.981.678.655 1.057 1.543 1.135 2.666l.015.542c0 1.216-.34 2.193-1.019 2.93-.678.732-1.589 1.099-2.731 1.099-1.143 0-2.056-.367-2.74-1.099-.678-.733-1.018-1.729-1.018-2.988v-.096Zm2.117.154c0 .752.141 1.328.425 1.729.283.395.688.593 1.216.593.512 0 .913-.195 1.201-.586.288-.395.432-1.025.432-1.89 0-.737-.144-1.308-.432-1.713-.288-.406-.694-.608-1.216-.608-.518 0-.918.202-1.201.608-.284.4-.425 1.022-.425 1.867Zm6.668 3.882v-7.925h3.311c1.079 0 1.907.191 2.483.572.576.38.864.927.864 1.64 0 .366-.122.696-.366.989-.239.288-.591.51-1.055.666.567.108 1.011.32 1.333.638.327.312.491.698.491 1.157 0 .737-.278 1.299-.835 1.684-.552.386-1.355.579-2.41.579h-3.816Zm2.117-3.289v1.597h1.707c.747 0 1.12-.261 1.12-.784 0-.532-.356-.803-1.069-.813h-1.758Zm0-1.42h1.311c.742-.01 1.113-.249 1.113-.718 0-.288-.102-.493-.307-.615-.2-.123-.508-.184-.923-.184h-1.194v1.517Zm10.668 4.709a2.337 2.337 0 0 1-.213-.71c-.513.571-1.179.857-1.999.857-.777 0-1.421-.225-1.934-.674a2.173 2.173 0 0 1-.762-1.7c0-.839.31-1.484.931-1.933.625-.449 1.525-.676 2.702-.681h.974v-.454c0-.367-.095-.66-.285-.879-.186-.22-.481-.33-.887-.33-.356 0-.637.086-.842.256-.2.171-.3.406-.3.704h-2.117c0-.459.142-.884.425-1.275.283-.39.684-.696 1.201-.915.518-.225 1.099-.337 1.743-.337.977 0 1.751.246 2.322.74.576.488.864 1.176.864 2.065v3.435c.005.752.11 1.321.315 1.707v.124h-2.138Zm-1.751-1.472c.313 0 .601-.068.864-.205.264-.142.459-.33.586-.564v-1.362h-.791c-1.059 0-1.623.366-1.692 1.098l-.007.125a.85.85 0 0 0 .278.652c.186.17.44.256.762.256Zm11.495-4.754h-2.541v6.226h-2.124v-6.226h-2.498v-1.699h7.163v1.699Zm4.083 6.373c-1.162 0-2.109-.357-2.841-1.07-.728-.713-1.092-1.662-1.092-2.849v-.205c0-.796.154-1.506.462-2.131.307-.63.742-1.114 1.303-1.451.567-.341 1.211-.512 1.934-.512 1.084 0 1.936.342 2.556 1.025.625.684.938 1.653.938 2.908v.864h-5.047c.069.518.274.933.615 1.245.347.313.784.469 1.311.469.816 0 1.453-.295 1.912-.886l1.04 1.164c-.317.45-.747.801-1.289 1.055a4.267 4.267 0 0 1-1.802.374Zm-.241-6.504c-.42 0-.762.141-1.026.424-.259.284-.425.689-.498 1.216h2.945v-.168c-.01-.469-.137-.83-.381-1.084-.244-.259-.591-.388-1.04-.388Zm11.436-1.568v7.925h-2.117v-6.211h-1.867l-.132 2.446c-.083 1.304-.339 2.254-.769 2.85-.43.595-1.069.9-1.919.915h-.718l-.022-1.721.264-.022c.381-.029.659-.254.835-.674.176-.42.286-1.135.329-2.146l.147-3.362h5.969Zm6.244 0h2.117v7.925h-2.117v-4.893l-2.652 4.893h-2.124v-7.925h2.124v4.885l2.652-4.885Z" fill="#fff"/></svg>