<svg width="48" height="44" viewBox="0 0 48 44" fill="none" xmlns="http://www.w3.org/2000/svg">
<path d="M40.6168 18.0556C38.5632 18.0565 36.5518 17.4729 34.8176 16.3731C33.0834 15.2732 31.6981 13.7025 30.8235 11.8445H3.06125V8.66672H29.8846C29.8188 8.18802 29.785 7.70547 29.7835 7.22228C29.785 6.73908 29.8188 6.25653 29.8846 5.77783H3.06125C2.29507 5.77783 1.56027 6.0822 1.0185 6.62397C0.476727 7.16574 0.172363 7.90054 0.172363 8.66672V40.4445C0.172363 41.2107 0.476727 41.9455 1.0185 42.4873C1.56027 43.029 2.29507 43.3334 3.06125 43.3334H43.5057C44.2719 43.3334 45.0067 43.029 45.5485 42.4873C46.0902 41.9455 46.3946 41.2107 46.3946 40.4445V16.3801C44.6668 17.4758 42.6627 18.0569 40.6168 18.0556ZM21.5501 27.1989L7.1057 33.8289V30.0156L16.509 25.6823L7.1057 21.3489V17.5789L21.5501 24.2089V27.1989ZM31.0835 35.2445H21.839V31.7778H31.0835V35.2445Z" fill="#4965EE"/>
<path d="M40.6168 14.4444C44.6055 14.4444 47.839 11.2109 47.839 7.22222C47.839 3.2335 44.6055 0 40.6168 0C36.628 0 33.3945 3.2335 33.3945 7.22222C33.3945 11.2109 36.628 14.4444 40.6168 14.4444Z" fill="#4965EE"/>
</svg>
