<svg width="53" height="52" viewBox="0 0 53 52" fill="none" xmlns="http://www.w3.org/2000/svg">
<path d="M8.08345 10.4C5.22345 10.4 2.88345 12.74 2.88345 15.6C2.88345 18.46 5.22345 20.8 8.08345 20.8C10.9434 20.8 13.2834 18.486 13.2834 15.6C13.2834 12.714 10.9694 10.4 8.08345 10.4ZM26.2834 5.2C25.255 5.2 24.2496 5.50497 23.3945 6.07636C22.5393 6.64774 21.8728 7.45987 21.4793 8.41005C21.0857 9.36022 20.9827 10.4058 21.1834 11.4145C21.384 12.4232 21.8793 13.3497 22.6065 14.077C23.3337 14.8042 24.2603 15.2994 25.269 15.5001C26.2777 15.7007 27.3232 15.5977 28.2734 15.2042C29.2236 14.8106 30.0357 14.1441 30.6071 13.289C31.1785 12.4338 31.4834 11.4285 31.4834 10.4C31.4834 7.514 29.1694 5.2 26.2834 5.2ZM44.4834 0C41.6234 0 39.2834 2.34 39.2834 5.2C39.2834 8.06 41.6234 10.4 44.4834 10.4C47.3434 10.4 49.6834 8.086 49.6834 5.2C49.6834 2.314 47.3694 0 44.4834 0ZM4.18345 23.4C2.02545 23.4 0.283447 25.142 0.283447 27.3V39H2.88345V52H13.2834V39H15.8834V27.3C15.8834 25.142 14.1414 23.4 11.9834 23.4H4.18345ZM22.3834 18.2C20.2254 18.2 18.4834 19.942 18.4834 22.1V33.8H21.0834V46.8H31.4834V33.8H34.0834V22.1C34.0834 19.942 32.3414 18.2 30.1834 18.2H22.3834ZM40.5834 13C38.4254 13 36.6834 14.742 36.6834 16.9V28.6H39.2834V41.6H49.6834V28.6H52.2834V16.9C52.2834 14.742 50.5414 13 48.3834 13H40.5834Z" fill="#4965EE"/>
</svg>
