<svg width="351" height="338" viewBox="0 0 351 338" fill="none" xmlns="http://www.w3.org/2000/svg">
<path fill-rule="evenodd" clip-rule="evenodd" d="M147.606 0.0159268C148.85 -0.0681874 150.094 0.181967 151.208 0.740398C151.949 1.33809 151.988 2.13621 152.157 3.67933C153.402 15.2709 155.763 100.115 155.378 101.086C154.863 101.949 154.388 101.92 153.389 102.073C131.75 105.46 104.207 113.182 83.0316 120.363C27.2256 139.382 11.4363 154.504 9.39816 155.352C9.19977 155.415 8.99034 155.434 8.78382 155.409C8.57731 155.384 8.37846 155.316 8.20056 155.208C8.02265 155.101 7.86978 154.956 7.75213 154.785C7.63449 154.614 7.55478 154.419 7.51833 154.215C5.5696 147.71 0.385886 54.8451 0.0111306 46.7781C-0.0221195 46.4651 0.0193791 46.1488 0.132223 45.8549C0.245067 45.5611 0.426042 45.2981 0.660304 45.0877C9.42959 35.5838 125.396 0.0461131 147.606 0.0159268ZM9.75599 151.858C42.4504 127.856 112.111 105.393 152.354 99.045C149.524 -8.2527 149.268 8.38477 149.048 3.13477C147.04 2.98127 145.022 3.05458 143.031 3.35332C122.098 5.87206 72.4623 20.1526 50.9404 26.889C45.8353 28.4888 4.01618 41.5921 1.33003 46.3096C1.13419 46.6573 7.67065 138.064 9.75599 151.858ZM0.350829 47.0051L0.362918 46.9966L0.350829 47.0051Z" fill="#23272A"/>
<path fill-rule="evenodd" clip-rule="evenodd" d="M17.3527 54.9317C17.4258 56.6718 22.414 122.42 22.7422 122.223C30.1594 117.8 61.2748 106.542 65.5529 104.178C66.2631 103.785 62.3407 43.8936 61.5646 41.2064C60.5634 37.743 17.3455 54.743 17.3527 54.9317Z" fill="#23272A"/>
<path fill-rule="evenodd" clip-rule="evenodd" d="M60.3194 39.2463C60.7518 39.1998 61.1888 39.2688 61.5862 39.4462C61.9836 39.6237 62.3273 39.9034 62.5828 40.257C63.9015 42.6232 66.7415 92.021 66.9992 98.358C67.2498 104.671 67.3589 104.971 65.8292 105.753C63.0443 107.144 54.8001 110.331 47.5184 113.197C23.1344 122.796 24.3692 123.151 23.1584 123.629C22.9612 123.707 22.7497 123.741 22.5381 123.73C22.3264 123.719 22.1197 123.662 21.9318 123.564C21.7439 123.465 21.5792 123.327 21.4489 123.159C21.3187 122.991 21.2258 122.797 21.1767 122.59C20.3651 119.135 16.5133 54.8332 16.5996 54.8259C16.5939 54.7011 16.625 54.5774 16.689 54.4702C16.753 54.3631 16.847 54.2773 16.9593 54.2236C18.5657 53.3598 52.9011 39.2029 60.3194 39.2463ZM17.8896 55.1838C17.9363 55.7488 23.6115 117.987 23.8045 119.917C33.3388 115.06 58.1292 105.908 63.9878 103.148C64.0657 96.4207 60.8865 46.859 60.2715 41.8967C54.9991 41.5076 23.2531 52.9935 17.8896 55.1838ZM60.6563 41.9473L60.6323 41.9389L60.6563 41.9473ZM60.6299 41.9389L60.6575 41.9461L60.6299 41.9389ZM60.6467 41.9449L60.6287 41.9377L60.6467 41.9449ZM60.6467 41.9449L60.6227 41.9377L60.6467 41.9449Z" fill="#23272A"/>
<path fill-rule="evenodd" clip-rule="evenodd" d="M76.2054 36.883C76.1398 36.2347 76.7991 35.7729 77.3732 35.4398C84.3752 31.3508 127.925 20.2443 133.868 20.3742C134.316 20.3459 134.759 20.4799 135.114 20.751C135.469 21.0222 135.712 21.412 135.798 21.8474C136.614 24.6953 138.524 43.5829 137.967 46.1915C137.916 46.4695 137.798 46.7312 137.622 46.9539C137.447 47.1766 137.219 47.3537 136.958 47.4699C136.488 47.6017 136.007 47.6899 135.52 47.7333C127.509 49.1957 84.1855 60.5078 78.5897 59.5445C78.2806 59.5212 77.9872 59.4007 77.7525 59.2005C77.5178 59.0002 77.3542 58.7309 77.2857 58.4321C76.8623 56.2781 76.6142 47.0225 76.3125 39.2895C76.231 37.0995 76.1981 36.9106 76.2054 36.883ZM132.946 23.5143C126.864 24.1746 80.8 33.987 77.4961 36.9094C77.7771 39.2618 78.8196 53.9871 79.3573 57.3629C85.2377 57.1873 125.595 46.3863 134.895 44.6521C134.967 40.6954 133.201 23.4891 132.946 23.5143V23.5143Z" fill="#23272A"/>
<path fill-rule="evenodd" clip-rule="evenodd" d="M139.357 59.0049L139.576 59.4186V59.4269L139.426 59.8705C138.551 60.3296 139.906 59.837 134.61 60.6871C122.701 62.6155 101.935 68.1271 90.8346 71.6863C80.8887 74.9 84.2457 74.5557 81.694 74.692L80.7938 73.8982V73.8898L80.7277 72.6942C81.6784 71.6266 81.4344 71.8394 81.8094 71.6696C92.0161 67.246 125.896 59.3887 138.909 58.8483L139.357 59.0049Z" fill="#23272A"/>
<path fill-rule="evenodd" clip-rule="evenodd" d="M140.863 74.8486L141.085 75.2612V75.2695L140.933 75.7131C140.046 76.1723 141.42 75.6796 136.055 76.5298C123.993 78.4596 102.961 83.9716 91.7176 87.5299C81.3068 90.8526 85.1707 90.3911 82.4597 90.5358L81.5479 89.7418V89.7347L81.4821 88.539C82.4451 87.4725 82.198 87.6853 82.5778 87.5143C92.9155 83.0904 127.23 75.2325 140.41 74.692L140.863 74.8486Z" fill="#23272A"/>
<path fill-rule="evenodd" clip-rule="evenodd" d="M349.634 37.2969C349.962 37.8415 349.909 37.2668 349.959 45.1747C349.995 51.0367 350.519 140.263 348.949 145.942C348.911 146.162 348.822 146.369 348.688 146.548C348.555 146.727 348.381 146.872 348.181 146.972C347.981 147.071 347.76 147.122 347.537 147.121C347.313 147.119 347.093 147.065 346.894 146.963C342.714 144.243 338.384 141.759 333.926 139.523C298.537 121.466 236.697 106.092 199.446 102.715C199.107 102.684 198.787 102.545 198.533 102.319C198.281 102.09 198.108 101.788 198.037 101.456C197.905 100.314 194.654 11.086 195.568 3.25395C195.563 2.77207 195.728 2.30367 196.034 1.93059C196.34 1.5575 196.767 1.30344 197.242 1.2128C210.093 -3.40691 343.835 28.2081 349.634 37.2969ZM348.62 38.0849C348.622 38.1148 348.625 38.1446 348.631 38.1741H348.643C348.634 38.1009 348.608 38.031 348.565 37.9705L348.573 37.9813C344.899 32.2844 284.169 18.3409 277.55 16.8432C267.327 14.5369 208.758 1.71887 198.544 3.96607C198.646 9.13763 197.441 -5.35649 201.116 99.6991C234.33 102.868 288.124 115.764 323.923 131.638C341.826 139.622 346.572 144.049 346.623 143.471C348.054 127.084 348.499 38.0849 348.62 38.0849V38.0849ZM349.573 38.5922H349.567H349.577C349.484 38.4404 348.905 37.4487 349.573 38.5922V38.5922Z" fill="black"/>
<path fill-rule="evenodd" clip-rule="evenodd" d="M333.472 47.0232C333.506 48.7687 332.524 114.855 332.179 114.678C324.428 110.71 292.363 101.362 287.899 99.2597C287.159 98.9103 287.427 38.749 288.044 36.0194C288.846 32.4864 333.469 46.8305 333.472 47.0232Z" fill="#23272A"/>
<path fill-rule="evenodd" clip-rule="evenodd" d="M289.812 33.9515C297.762 34.0723 330.787 44.971 333.732 46.2692C333.857 46.314 333.965 46.3959 334.042 46.5038C334.119 46.6117 334.161 46.7405 334.162 46.873C334.041 46.873 333.646 46.8791 334.171 46.873C334.265 50.4319 334.314 111.481 333.713 114.955C333.677 115.164 333.595 115.364 333.475 115.539C333.354 115.715 333.197 115.862 333.014 115.972C332.801 116.095 332.562 116.169 332.317 116.187C331.502 116.202 332.098 116.042 326.807 114.024C315.768 109.851 296.026 104.001 288.917 101.344C288.135 101.144 287.402 100.789 286.761 100.3C286.218 99.6072 286.042 99.7123 285.952 85.5675C285.907 77.8182 285.995 40.7118 286.737 35.7678C286.977 34.2727 288.312 33.9346 289.812 33.9515ZM289.362 36.6179C289.032 41.8517 288.889 90.2699 289.369 98.0108C289.419 98.7184 319.826 107.655 330.901 112.431C331.016 109.5 332.864 48.3161 332.886 47.3005C327.013 45.3273 294.805 35.9513 289.36 36.6179H289.362ZM288.98 36.694L289.004 36.6831L288.98 36.694ZM288.98 36.694L289.006 36.6831L288.98 36.694ZM289.008 36.6831L288.991 36.6916L289.009 36.6831H289.008ZM288.986 36.6904L289.01 36.6819L288.986 36.6904Z" fill="#23272A"/>
<path fill-rule="evenodd" clip-rule="evenodd" d="M215.451 19.6165C223.925 19.7839 267.576 28.3114 272.198 31.7746C272.369 31.876 272.512 32.0204 272.611 32.1936C272.71 32.3669 272.763 32.5632 272.764 32.7632V32.7632C272.72 34.2104 273.216 48.4379 273.098 53.0668C273.058 54.3793 273.116 55.192 272.092 55.6142C267.723 57.2699 226.275 48.9207 215.642 47.3996C212.866 47.015 212.194 47.624 212.044 43.3408C211.875 38.1454 212.277 27.0948 212.734 22.7594C212.971 20.5408 213.158 19.5946 215.451 19.6165ZM215.236 44.1426C224.283 45.2901 265.155 53.7473 270.896 53.5508C271.191 50.437 271.359 35.757 271.472 33.0507C271.604 30.6089 221.421 22.9571 215.861 22.74C215.293 29.8589 215.084 37.0023 215.236 44.1426V44.1426Z" fill="#23272A"/>
<path fill-rule="evenodd" clip-rule="evenodd" d="M213.942 59.603C222.416 59.7705 266.068 68.2994 270.689 71.7632C270.861 71.8646 271.003 72.009 271.102 72.1823C271.201 72.3556 271.254 72.5519 271.255 72.752V72.752C271.211 74.1994 271.707 88.4281 271.589 93.059C271.549 94.3717 271.607 95.1845 270.583 95.6007C266.214 97.2567 224.766 88.9073 214.133 87.3847C211.363 87.0013 210.685 87.6104 210.535 83.3265C210.366 78.1302 210.768 67.0765 211.225 62.7416C211.462 60.5275 211.649 59.5812 213.942 59.603ZM213.724 84.1393C222.771 85.287 263.643 93.7457 269.384 93.5491C269.679 90.4348 269.846 75.7523 269.959 73.0456C270.092 70.6034 219.908 62.9503 214.349 62.7332C213.78 69.8532 213.572 76.9979 213.724 84.1393V84.1393Z" fill="#23272A"/>
<path fill-rule="evenodd" clip-rule="evenodd" d="M137.451 150.302C149.607 150.354 150.138 165.757 150.138 165.757C150.138 165.757 141.019 202.498 137.957 202.195C130.788 201.488 121.842 199.642 113.926 181.776C107.892 168.16 106.931 125.892 106.111 123.909C105.133 121.535 102.496 119.514 101.174 117.184C98.9725 113.305 98.8722 107.438 102.101 104.663C103.359 103.903 104.76 103.407 106.217 103.205C104.972 100.501 103.931 97.7082 103.103 94.8498C102.553 93.3147 101.835 91.8723 102.546 90.3842C102.706 90.0471 102.944 89.7524 103.239 89.524C103.535 89.2956 103.881 89.1398 104.248 89.0694C104.615 88.999 104.994 89.0159 105.354 89.1187C105.714 89.2215 106.044 89.4074 106.318 89.6612C107.751 90.9867 111.59 98.3201 111.991 99.9914C112.105 100.467 117.233 105.235 118.11 108.683C118.312 109.479 122.237 115.499 122.958 116.619C127.474 123.638 129.901 132.017 133.069 139.696C134.134 142.265 136.105 148.751 137.448 150.3C139.466 152.688 141.326 155.204 143.016 157.832" fill="white"/>
<path fill-rule="evenodd" clip-rule="evenodd" d="M106.614 88.1991C108.216 89.319 111.058 95.0243 111.88 96.7709C113.448 100.138 112.445 98.8011 113.584 100.093C119.294 106.551 118.348 107.08 119.446 109.048C122.762 114.958 124.954 116.918 128.436 125.49C129.465 128.023 134.326 141.165 134.369 141.29C135.157 143.605 136.749 148.472 137.773 149.875C144.028 150.014 147.635 153.973 149.705 159.873C150.333 161.817 150.732 163.829 150.893 165.866C150.931 166.796 145.637 187.303 142.478 196.372C141.839 198.289 141.046 200.151 140.108 201.941C138.936 203.908 138.322 203.77 136.918 203.638C134.74 203.442 132.591 202.998 130.514 202.315C126.787 200.993 123.456 198.748 120.834 195.791C116.423 190.686 113.112 184.728 111.106 178.289C107.334 165.124 106.069 142.216 105.13 128.884C104.783 124.086 104.789 124.303 104.185 123.354C103.225 121.858 101.498 120.237 100.295 118.467C97.4891 114.283 97.0743 107.495 100.658 103.888C101.641 102.979 102.86 102.365 104.176 102.116C103.43 100.306 102.775 98.4584 102.216 96.5818C101.55 94.4655 101.404 94.2582 101.124 93.3613C99.6808 88.6173 103.744 86.2573 106.614 88.1991ZM137.615 201.559L137.627 201.551L137.615 201.559ZM137.635 201.546L137.62 201.559L137.631 201.551L137.635 201.546ZM137.624 201.555H137.631H137.624ZM104.416 90.0124C103.966 90.0208 103.596 90.2439 103.384 90.8947C103.274 91.9331 103.483 92.9804 103.983 93.897C104.845 96.8036 105.905 99.6481 107.155 102.411C107.293 102.663 107.342 102.954 107.294 103.238C107.246 103.522 107.104 103.781 106.891 103.974C106.384 104.362 106.406 104.217 105.173 104.51C104.321 104.673 103.506 104.989 102.768 105.443C100.463 107.29 99.7948 112.414 102.128 116.492C102.684 117.378 103.319 118.211 104.025 118.981C107.511 122.996 107.33 123.21 107.664 127.702C108.46 138.453 109.258 153.948 111.367 167.264C112.812 176.294 114.096 181.212 118.608 188.717C121.398 193.159 124.254 196.596 128.863 199.064C131.642 200.413 134.651 201.224 137.732 201.455C138.864 199.633 139.776 197.684 140.45 195.648V195.648C143.686 186.598 146.464 176.588 148.94 167.343C149.402 165.573 149.358 166.106 149.258 164.918C148.551 159.147 146.379 153.394 140.852 151.49C140.147 151.261 139.421 151.101 138.685 151.014C140.369 153.156 141.94 155.385 143.391 157.691L143.242 158.418L142.514 158.261C134.519 146.471 138.006 154.933 132.59 140.82C132.175 139.769 131.573 138.409 130.92 136.723C129.309 132.677 128.047 129.179 126.338 125.295C122.79 117.627 122.513 118.163 118.379 111.522C117.779 110.651 117.273 109.719 116.871 108.741C116.071 105.975 112.286 102.26 111.105 100.839C110.454 100.037 111.046 100.377 109.043 96.4569C108.137 94.669 107.131 92.9337 106.029 91.2596C105.583 90.5917 105.227 89.9978 104.416 90.0124ZM119.023 108.232V108.224V108.232ZM119.023 108.232V108.215V108.232ZM112.869 99.2568L112.858 99.2399L112.869 99.2568Z" fill="#23272A"/>
<path fill-rule="evenodd" clip-rule="evenodd" d="M100.512 106.633C99.9871 106.39 99.4057 106.32 98.8429 106.431C98.28 106.542 97.7616 106.829 97.3547 107.256C96.239 108.367 96.5085 110.278 96.9794 111.693C97.9774 114.121 99.4384 116.303 101.271 118.104C102.177 118.823 104.472 118.412 104.774 116.981C105.12 115.352 104.476 114.03 103.804 112.542C102.979 110.715 101.971 107.959 100.512 106.633Z" fill="white"/>
<path fill-rule="evenodd" clip-rule="evenodd" d="M98.9783 105.627C99.6274 105.614 100.264 105.8 100.794 106.157V106.157C101.746 106.901 102.558 107.794 103.195 108.798C103.861 109.806 105.333 112.324 105.648 112.948C106.171 113.896 106.421 114.959 106.374 116.029C106.378 116.618 106.199 117.195 105.859 117.688C105.519 118.18 105.033 118.565 104.463 118.795C103.901 119.052 103.288 119.191 102.666 119.204C102.043 119.218 101.424 119.104 100.851 118.872C99.4094 117.865 98.195 116.594 97.2794 115.133C95.9621 113.209 94.8097 111.141 95.1108 108.863C95.2006 107.956 95.6509 107.116 96.3698 106.515C97.0886 105.913 98.0217 105.596 98.9783 105.627V105.627ZM98.1667 107.247C97.9229 107.381 97.7137 107.565 97.5542 107.786C97.3947 108.007 97.289 108.259 97.2447 108.523C97.1941 109.381 97.3643 110.237 97.7404 111.017C98.7967 113.081 100.228 114.951 101.967 116.542C102.251 116.65 102.561 116.683 102.863 116.636C103.165 116.59 103.448 116.466 103.682 116.279C103.895 115.468 103.795 114.612 103.4 113.866C103.353 113.748 101.713 109.687 101.665 109.569C101.293 108.603 100.751 107.703 100.064 106.909V106.909L100.05 106.901L100.077 106.92L100.063 106.911L100.085 106.925L100.068 106.917L100.086 106.929L100.066 106.921C99.7432 106.847 99.4075 106.838 99.0805 106.894C98.7535 106.951 98.4424 107.071 98.1667 107.247V107.247Z" fill="#23272A"/>
<path fill-rule="evenodd" clip-rule="evenodd" d="M105.397 103.614C104.824 103.372 104.19 103.302 103.576 103.413C102.962 103.524 102.397 103.812 101.953 104.238C100.736 105.35 101.03 107.261 101.542 108.676C102.632 111.103 104.225 113.285 106.223 115.086C107.212 115.805 109.718 115.395 110.047 113.962C110.423 112.335 109.721 111.013 108.988 109.525C108.089 107.697 106.989 104.941 105.397 103.614Z" fill="white"/>
<path fill-rule="evenodd" clip-rule="evenodd" d="M104.256 102.609C104.905 102.596 105.541 102.782 106.071 103.139V103.139C107.023 103.883 107.836 104.776 108.473 105.779C109.138 106.788 110.609 109.306 110.925 109.93C111.45 110.878 111.702 111.941 111.655 113.011C111.66 113.6 111.48 114.177 111.14 114.67C110.8 115.162 110.315 115.547 109.744 115.777C109.182 116.034 108.569 116.173 107.946 116.186C107.323 116.2 106.704 116.086 106.131 115.854C104.69 114.847 103.476 113.576 102.561 112.115C101.243 110.191 100.091 108.123 100.392 105.845C100.482 104.939 100.932 104.099 101.65 103.498C102.368 102.897 103.3 102.579 104.256 102.609V102.609ZM103.444 104.229C103.201 104.363 102.991 104.548 102.832 104.768C102.672 104.989 102.567 105.241 102.522 105.505C102.472 106.363 102.642 107.219 103.018 107.999C104.074 110.063 105.505 111.933 107.244 113.524C107.528 113.632 107.838 113.665 108.14 113.618C108.442 113.572 108.726 113.448 108.96 113.261C109.172 112.45 109.071 111.594 108.675 110.848C108.629 110.73 106.988 106.669 106.94 106.55C106.572 105.584 106.034 104.683 105.35 103.887L105.337 103.879L105.364 103.898L105.348 103.89L105.37 103.904L105.353 103.896L105.372 103.907L105.353 103.898C105.028 103.825 104.69 103.816 104.362 103.873C104.033 103.93 103.721 104.052 103.444 104.229V104.229Z" fill="#23272A"/>
<path fill-rule="evenodd" clip-rule="evenodd" d="M117.524 109.051C117.728 108.446 117.752 107.793 117.592 107.175C117.432 106.557 117.096 106.002 116.628 105.584C115.403 104.425 113.477 104.883 112.073 105.521C109.681 106.828 107.576 108.631 105.889 110.817C105.231 111.884 105.838 114.409 107.323 114.631C109.011 114.888 110.307 114.061 111.768 113.193C113.563 112.126 116.291 110.78 117.524 109.051Z" fill="white"/>
<path fill-rule="evenodd" clip-rule="evenodd" d="M114.686 104.118C115.28 104.099 115.87 104.225 116.403 104.485C116.936 104.745 117.396 105.131 117.741 105.609C118.145 106.14 118.387 106.773 118.44 107.435C118.493 108.097 118.354 108.76 118.04 109.347V109.347C117.255 110.438 116.275 111.377 115.146 112.117C113.699 113.149 112.187 114.09 110.622 114.937C109.848 115.281 109.007 115.45 108.159 115.432C107.563 115.439 106.978 115.273 106.478 114.954C105.977 114.635 105.582 114.177 105.343 113.638C105.062 113.107 104.902 112.521 104.875 111.923C104.848 111.324 104.954 110.727 105.186 110.173C105.926 108.717 108.496 106.703 109.966 105.734C111.334 104.728 112.982 104.164 114.686 104.118V104.118ZM115.167 106.13C113.753 106.299 112.419 106.871 111.327 107.774C109.892 108.769 108.608 109.96 107.511 111.311C107.366 111.556 107.535 112.696 107.974 112.896C108.849 112.983 109.73 112.796 110.493 112.363C113.997 110.699 115.995 109.966 117.216 108.704L117.223 108.691C117.264 108.391 117.24 108.086 117.154 107.797C117.064 107.338 116.818 106.923 116.458 106.62C116.098 106.316 115.644 106.143 115.172 106.127L115.167 106.13Z" fill="#23272A"/>
<path fill-rule="evenodd" clip-rule="evenodd" d="M148.757 168.594C148.757 168.594 150.25 156.968 137.916 150.068C135.003 148.438 165.897 131.798 200.781 130.567C247.945 128.903 260.553 173.798 260.286 185.252C260.166 194.595 257.887 203.781 253.63 212.082C249.373 220.384 243.254 227.572 235.76 233.077L229.953 229.246L145.217 241.429C145.217 241.429 138.154 220.022 132.242 216.32C130.645 215.319 138.641 203.122 138.641 203.122C143.808 174.217 148.757 168.594 148.757 168.594Z" fill="white"/>
<path fill-rule="evenodd" clip-rule="evenodd" d="M147.776 169.461C148.511 168.283 148.371 168.727 148.405 168.206C148.456 165.639 147.967 163.09 146.97 160.724C145.973 158.358 144.49 156.228 142.618 154.472C139.428 151.456 137.588 151.187 137.245 150.442C135.47 146.527 165.697 133.039 193.967 130.293C203.692 129.37 212.159 129.448 221.632 132.301C242.89 138.774 256.787 158.105 260.97 178.043C261.688 181.125 261.941 184.297 261.724 187.454C261.226 197.787 258.124 207.825 252.708 216.636C247.7 224.719 241.014 231.176 236.753 233.908C236.539 234.068 236.281 234.158 236.015 234.167C235.748 234.175 235.485 234.101 235.262 233.954L229.857 230.409C229.986 230.409 145.725 242.425 144.95 242.179C144.313 241.864 144.452 241.787 143.543 239.228C141.825 234.25 136.364 219.968 132.004 217.045C131.726 216.898 131.507 216.659 131.385 216.369C130.968 215.272 131.848 213.353 132.421 212.215C134.099 208.966 135.966 205.819 138.014 202.789C138.154 202.781 142.024 179.166 147.776 169.461ZM189.423 132.949C176.742 134.536 164.316 137.746 152.451 142.498C149.404 143.748 140.892 147.414 138.672 149.886C144.813 153.521 148.126 158.48 149.168 164.083C149.473 165.637 149.554 167.226 149.409 168.802C148.309 170.502 147.409 172.324 146.728 174.232C142.147 185.881 139.797 202.887 139.428 203.507C137.847 205.882 133.772 212.508 133.054 215.481C133.029 215.739 133.031 215.326 134.567 216.887C139.041 221.684 143.934 233.809 146.067 239.968C147.097 239.82 228.29 227.809 230.527 227.809C230.646 227.844 230.759 227.896 230.862 227.965C236.337 231.547 235.883 231.343 236.003 231.255C238.565 229.359 240.947 227.23 243.116 224.894C251.207 216.339 256.541 205.548 258.427 193.921C259.633 185.746 259.667 181.472 256.912 172.693C255.882 169.444 254.606 166.277 253.097 163.221C239.458 136.554 218.188 129.469 189.423 132.949Z" fill="#23272A"/>
<path fill-rule="evenodd" clip-rule="evenodd" d="M230.112 228.679C230.112 228.679 186.841 201.375 186.507 201.442C135.871 211.658 119.026 222.751 116.526 223.131C112.425 223.756 107.977 223.756 103.661 224.416C101.576 224.735 90.4471 225.214 90.5362 227.747C90.7927 234.812 103.392 228.661 104.693 234.582C105.074 235.79 105.807 236.855 106.797 237.637C107.786 238.42 108.987 238.885 110.242 238.971C115.957 239.237 118.981 236.538 120.501 235.753C121.09 235.453 131.627 238.601 143.068 240.947C213.317 255.352 229.693 228.54 230.112 228.679Z" fill="white"/>
<path fill-rule="evenodd" clip-rule="evenodd" d="M230.622 229.003C230.529 229.137 229.387 230.429 228.74 231.066C226.082 233.645 223.069 235.838 219.792 237.58C181.28 257.337 122.372 235.784 120.506 236.96C117.699 238.948 114.339 240.023 110.889 240.035C109.658 240.09 108.433 239.843 107.322 239.316C106.414 238.922 105.596 238.348 104.919 237.63C104.242 236.912 103.719 236.064 103.383 235.14C103.316 234.676 103.138 234.234 102.863 233.853C100.67 231.5 92.8167 234.357 89.9031 230.463C89.3392 229.648 89.0342 228.684 89.0273 227.696C88.9874 225.673 91.3901 224.885 93.3434 224.4C96.5286 223.771 99.7519 223.349 102.993 223.136C107.992 222.439 109.774 222.537 114.116 222.099C116.26 221.879 115.928 221.85 116.219 221.838C122.632 219.345 136.754 211.006 180.59 201.841C187.315 200.498 186.602 200.603 187.124 200.813C198.246 207.518 222.397 222.923 230.632 228.125C230.432 228.443 230.119 228.94 230.632 228.133L230.706 228.185C230.763 228.24 230.807 228.308 230.834 228.382C230.862 228.456 230.871 228.536 230.863 228.614C230.855 228.693 230.829 228.769 230.787 228.836C230.745 228.903 230.689 228.961 230.622 229.003ZM120.697 234.26C125.229 234.576 187.69 254.994 221.199 235.305C224.307 233.54 227.116 231.302 229.521 228.671C228.875 228.281 190.606 205.06 186.468 202.731C170.839 206.02 153.291 210.275 138.178 215.621C131.452 217.963 124.858 220.66 118.423 223.702C116.884 224.387 116.761 224.392 113.171 224.749C107.905 225.171 107.431 225.157 104.675 225.49C101.249 225.969 95.4585 226.208 92.4362 227.36C92.1555 227.462 91.8895 227.6 91.6449 227.771C91.6458 228.074 91.7168 228.372 91.8525 228.643C91.9882 228.914 92.185 229.151 92.4277 229.335C94.352 230.749 99.9654 229.522 103.328 231.033C105.649 232.207 105.642 233.833 106.01 234.719C106.393 235.431 106.938 236.044 107.601 236.511C108.264 236.978 109.027 237.286 109.831 237.41C112.762 237.667 115.696 236.951 118.172 235.374C119.655 234.498 119.91 234.207 120.693 234.26H120.697ZM230.363 229.081H230.37H230.382H230.363Z" fill="#23272A"/>
<path fill-rule="evenodd" clip-rule="evenodd" d="M212.004 164.541L211.933 165.275C206.68 170.669 199.943 180.107 196.098 185.843C195.154 187.25 187.52 198.794 187.41 200.714V200.702L187.404 200.737V200.749V200.766V200.782V200.794V200.837L186.982 201.442C186.218 200.9 186.421 201.07 186.355 200.893C186.149 195.865 199.156 173.157 211.281 164.473L212.004 164.541Z" fill="#23272A"/>
<path fill-rule="evenodd" clip-rule="evenodd" d="M278.212 190.198C219.753 196.012 97.5949 194.067 39.5906 178.054L33.1964 312.101C58.4939 333.797 228.493 343.57 272.632 330.789C273.125 330.642 279.559 190.066 278.212 190.198Z" fill="white" fill-opacity="0.38"/>
<path fill-rule="evenodd" clip-rule="evenodd" d="M277.771 189.561C278.324 189.802 278.314 190.217 278.374 191.702C278.745 208.782 274.551 311.429 273.428 329.288C273.292 330.932 273.421 331.462 272.494 331.991C246.477 339.47 188.691 338.449 161.699 336.902C133.479 335.741 62.1581 329.752 37.222 316.596C35.3612 315.673 33.6294 314.51 32.0707 313.137C31.8059 312.831 31.6694 312.435 31.6894 312.031C38.5623 168.388 38.0122 177.731 38.4947 177.049C38.7066 176.798 38.9941 176.624 39.3139 176.551C41.4624 176.249 66.4095 186.291 149.016 190.642C237.113 194.918 276.07 189.209 277.771 189.561ZM35.1566 311.601C52.349 324.882 122.767 331.211 144.503 332.757C174.618 334.901 241.584 337.649 270.84 329.797C270.84 329.676 277.728 206.675 277.068 190.857C276.367 190.91 269.307 191.675 258.844 192.369C201.768 196.136 95.7128 194.628 41.0511 179.946C34.9407 313.144 34.6198 311.206 35.1566 311.601Z" fill="#23272A"/>
<path fill-rule="evenodd" clip-rule="evenodd" d="M138.807 220.119C125.398 219.971 101.669 218.838 81.4532 214.268L76.2009 284.01C86.8637 289.367 116.217 293.15 134.465 290.18C134.465 290.18 139.117 220.12 138.807 220.119Z" fill="white" fill-opacity="0.38"/>
<path fill-rule="evenodd" clip-rule="evenodd" d="M94.6005 215.36C105.474 217.116 116.429 218.303 127.423 218.915C138.517 219.54 138.162 219.217 138.601 219.498C138.795 219.658 138.643 219.538 138.759 219.662C139.349 220.676 135.568 288.065 135.446 290.171C135.387 291.175 135.425 291.827 134.41 292.276C126.269 294.344 102.097 294.031 84.2786 289.228C81.1677 288.453 78.1475 287.341 75.27 285.911C74.993 285.706 74.7913 285.413 74.6965 285.078C74.5493 284.666 78.009 239.339 79.9209 215.417C80.0634 213.691 80.0179 213.785 80.2693 213.33C81.3096 212.024 81.0654 213.066 94.6005 215.36ZM81.9812 225.801C78.1503 280.429 77.7469 283.623 77.8774 283.682C88.5967 288.587 115.72 292.036 132.561 289.57C134.357 264.412 137.423 225.296 137.612 220.658C136.204 220.718 128.439 220.545 126.947 220.501C112.876 220.09 96.4417 218.697 82.7714 215.798C82.6109 215.765 82.7354 214.667 81.9812 225.801Z" fill="#23272A"/>
<path fill-rule="evenodd" clip-rule="evenodd" d="M234.613 224.447C216.127 226.948 193.765 225.778 173.634 221.812L170.509 291.635C181.215 296.669 214.437 298.07 232.399 294.561C232.399 294.561 234.918 224.407 234.613 224.447Z" fill="white" fill-opacity="0.38"/>
<path fill-rule="evenodd" clip-rule="evenodd" d="M192.199 223.32C202.762 224.556 213.407 224.966 224.035 224.548C234.467 224.084 234.799 223.263 235.298 223.999C235.676 224.714 234.805 261.91 234.787 262.732C234.009 297.019 234.081 294.838 233.624 295.474C233.407 295.723 233.112 295.892 232.787 295.956C232.908 295.956 229.265 296.641 226.209 296.985C211.797 298.728 189.945 298.34 175.862 295.172C173.461 294.694 171.127 293.927 168.913 292.886C168.734 292.764 168.582 292.606 168.467 292.423C168.352 292.239 168.277 292.034 168.247 291.821C168.175 291.479 171.448 222.558 171.61 221.373C171.681 221.059 171.859 220.78 172.113 220.581C173.525 219.684 173.175 221.06 192.199 223.32ZM171.478 290.598C184.112 295.567 215.964 295.902 231.099 293.298C231.947 272.838 233.963 232.629 234.139 225.051C214.805 227.751 193.67 226.699 174.311 223.327C172.671 265.307 171.348 290.541 171.478 290.598Z" fill="#23272A"/>
<path fill-rule="evenodd" clip-rule="evenodd" d="M74.6402 297.349C86.4972 303.22 112.553 305.891 127.164 304.874C132.978 304.472 131.431 304.21 132.533 304.489L132.786 304.89V304.898C132.616 305.583 132.938 305.583 129.381 306.094C109.844 308.886 83.8969 305.269 73.4885 300.325C73.2833 300.335 72.9803 299.917 72.4286 299.273L72.5119 298.059V298.05L73.4269 297.259L74.6402 297.349Z" fill="#23272A"/>
<path fill-rule="evenodd" clip-rule="evenodd" d="M171.061 306.312C183.593 311.3 216.274 312.047 231.628 308.985L232.098 309.068L232.375 309.432V309.44C232.247 310.123 232.477 310.07 229.728 310.653C209.999 314.823 180.632 313.205 170.266 309.275C169.739 309.076 169.999 309.266 169 308.287V307.131V307.123L169.855 306.314L171.061 306.312Z" fill="#23272A"/>
<path fill-rule="evenodd" clip-rule="evenodd" d="M59.3002 239.248L59.6027 239.582V239.591L59.5656 240.046L59.2318 240.404C59.0707 240.411 55.9591 242.129 55.8432 242.193C52.4121 244.007 49.2243 246.289 46.3624 248.978C47.541 250.551 56.9442 260.524 57.0612 260.626L57.0438 260.615H57.0496L57.0635 260.626L57.0438 260.615L57.052 260.623L57.0334 260.612H57.0404L57.0114 260.597H57.0184L56.9743 260.579L56.9025 260.558L57.2571 260.801L57.3822 261.272V261.279C57.3702 261.345 57.3491 261.41 57.3197 261.47C57.2976 261.515 57.2691 261.556 57.2351 261.591V261.591L57.1806 261.646C57.1278 261.69 57.0698 261.726 57.0079 261.754V261.754L56.9094 261.786C56.8502 261.797 56.7899 261.801 56.7298 261.798C56.5472 261.77 56.3747 261.692 56.2291 261.573C53.4858 259.766 50.8658 257.761 48.3881 255.573C46.6634 254.04 45.0853 252.334 43.6761 250.48C42.093 248.073 43.6297 247.28 44.9833 246.019C48.6917 242.871 51.7303 240.841 58.8227 239.165L59.3002 239.248ZM56.5675 260.604C56.3624 260.733 56.432 260.665 56.257 260.894C56.1643 261.183 56.1411 261.16 56.4644 260.676C56.921 260.555 56.928 260.578 56.7669 260.555L56.5675 260.604Z" fill="#23272A"/>
<path fill-rule="evenodd" clip-rule="evenodd" d="M254.838 249.733C261.29 252.414 264.814 255.002 268.978 260.388C269.152 260.623 269.268 260.897 269.317 261.187C269.366 261.478 269.347 261.776 269.261 262.057C268.116 265.694 254.183 272.362 253.324 272.362C253.156 272.345 253.001 272.264 252.891 272.135V272.135C252.839 272.077 252.801 272.007 252.779 271.932V271.932C252.758 271.869 252.747 271.802 252.746 271.735V271.726L252.948 271.286L253.346 271.103L253.269 271.112L253.222 271.123H253.23L253.199 271.132H253.207L253.186 271.14H253.195L253.173 271.147L253.188 271.138H253.195L253.176 271.147C253.771 270.81 259.116 266.62 261.956 264.588C263.049 263.774 264.718 262.595 265.881 261.517C265.076 260.48 264.123 259.369 263.724 258.949C260.819 255.956 257.641 253.253 254.231 250.877L253.949 250.467L253.986 250.011V250.004L254.343 249.728L254.838 249.733ZM253.773 271.275C254.048 271.863 253.988 271.774 253.948 271.518C253.815 271.275 253.878 271.351 253.68 271.181C253.451 271.089 253.517 271.104 253.379 271.096L253.773 271.275Z" fill="#23272A"/>
<path fill-rule="evenodd" clip-rule="evenodd" d="M221.205 80.2258C211.439 70.5401 189.171 61.6232 176.3 76.8131C176.3 76.8131 169.736 88.1526 174.516 113.355C175.051 116.192 176.103 118.906 177.619 121.359C180.404 125.199 187.148 126.211 191.649 126.023C193.384 125.95 195.086 125.586 196.761 125.516C197.025 125.505 198.075 125.144 198.301 125.354C199.455 126.419 200.251 133.506 200.583 133.816C201.868 135.01 203.434 135.853 205.134 136.267C206.833 136.682 208.609 136.653 210.294 136.184C212.643 135.687 217.011 134.221 217.906 132.21C218.307 131.313 216.865 122.539 217.227 122.124C223.48 114.97 221.681 108.427 222.711 107.302C222.84 107.159 225.475 106.788 226.159 106.476C228.814 105.277 230.648 100.755 229.97 97.9495C229.8 97.1165 229.408 96.3455 228.837 95.7186C228.266 95.0917 227.536 94.6323 226.726 94.3893C225.596 94.0629 222.066 96.3356 222.066 96.3356L221.205 80.2258Z" fill="white"/>
<path fill-rule="evenodd" clip-rule="evenodd" d="M226.445 93.702C227.757 93.9349 228.926 94.6801 229.695 95.7755C231.589 98.3737 230.953 101.894 229.433 104.612C227.407 107.91 225.821 107.803 223.315 108.379C223.177 110.547 222.884 112.702 222.439 114.827C221.643 117.795 220.194 120.545 218.199 122.874C218.15 123.52 218.952 129.286 219.035 131.261C219.131 131.842 219.071 132.437 218.861 132.986C218.652 133.535 218.3 134.018 217.843 134.384C216.87 135.213 215.773 135.882 214.592 136.366C209.127 138.626 204.293 138.96 199.842 135.351C199.099 134.702 199.058 134.653 198.649 132.432C197.418 125.87 197.384 127.403 197.365 126.924C196.565 127.073 195.756 127.169 194.944 127.213C193.133 127.506 191.3 127.63 189.467 127.583C186.337 127.538 183.248 126.863 180.381 125.598C179.116 125.039 177.974 124.231 177.023 123.221C176.072 122.212 175.331 121.021 174.843 119.72C173.112 115.786 172.676 112.412 172.057 108.075C171.121 101.541 171.012 94.9141 171.734 88.3528C172.152 84.4315 173.157 80.5966 174.716 76.9782C174.923 76.4724 175.236 76.0176 175.634 75.6452C176.872 74.2782 178.258 73.0555 179.767 71.9999C192.019 63.3265 211.422 69.5761 221.392 79.9837C221.583 80.2066 221.548 80.3399 221.574 80.7447C222.621 96.4154 222.394 95.298 222.785 95.075C223.883 94.3391 225.136 93.8692 226.445 93.702V93.702ZM186.773 70.8668C183.261 72.0316 180.11 74.0955 177.629 76.8558C176.907 77.669 176.992 77.5514 176.826 77.915C174.855 81.9796 173.861 89.1708 173.763 94.1152C173.515 100.39 174.619 114.931 178.081 120.358C178.636 121.26 179.394 122.018 180.292 122.573C183.081 124.391 187.405 125.034 190.746 124.98C192.214 124.918 193.678 124.777 195.131 124.56C195.647 124.534 196.161 124.481 196.671 124.402C197.968 124.102 198.633 124.077 199.39 125.169C200.455 127.034 200.886 130.632 201.464 133.329C202.768 134.506 204.406 135.242 206.148 135.433C210.037 135.887 215.5 133.543 216.45 132.19C216.57 132.021 216.545 132.06 216.555 131.849C216.421 128.615 215.902 125.741 215.787 122.961C215.813 121.644 215.959 121.89 216.87 120.698C218.019 119.273 218.955 117.687 219.65 115.991C220.535 113.527 221.042 110.942 221.152 108.324C221.45 106.587 222.025 106.487 222.928 106.303C225.515 105.806 225.585 105.905 226.562 105.1C227.368 104.302 228.004 103.346 228.43 102.291C228.856 101.236 229.062 100.105 229.037 98.9663C228.971 97.9271 228.529 96.9482 227.794 96.2154C227.667 96.0931 227.53 95.9809 227.385 95.8797C227.06 95.6532 226.704 95.4775 226.327 95.3586V95.3586C225.049 95.6608 223.832 96.1796 222.727 96.8928C222.154 97.2334 222.201 97.2321 221.924 97.2649C221.751 97.2707 221.581 97.2153 221.445 97.1084C221.308 97.0015 221.213 96.8498 221.175 96.6795C221.155 96.482 221.232 98.2865 220.529 80.8041C220.519 80.5617 220.55 80.6296 220.43 80.5144C211.949 72.67 197.827 67.2191 186.773 70.8668ZM222.956 108.471L222.982 108.461L222.956 108.471ZM222.967 108.471H222.979H222.967ZM226.356 95.3671H226.34H226.356ZM226.356 95.3671H226.333H226.356ZM226.328 95.3671H226.348H226.328Z" fill="#23272A"/>
<path fill-rule="evenodd" clip-rule="evenodd" d="M174.529 82.4387C174.855 81.7165 172.859 82.5958 172.16 82.217C170.747 81.4461 169.261 80.378 168.414 76.6246C167.7 73.4691 170.652 70.3428 170.544 70.2466C166.608 66.621 166.388 61.3318 170.409 56.9535C172.64 54.5275 175.512 55.4799 178.033 55.3703C178.416 55.3545 179.098 52.8298 179.445 52.3719C180.93 50.3733 183.129 49.0273 185.581 48.6148C186.572 48.4788 187.581 48.5632 188.536 48.8621C189.491 49.161 190.368 49.667 191.106 50.3442C191.928 50.9726 193.693 52.0553 193.693 52.0553C194.656 50.9572 195.74 49.9725 196.925 49.1202C199.246 47.9678 201.822 47.4267 204.409 47.5479C208.661 47.5796 211.971 52.5509 212.864 52.5132C213.107 52.5034 219.827 48.4747 225.834 51.6899C229.17 53.479 232.26 55.6857 233.385 59.6061C234.073 62.4559 234.166 65.4179 233.656 68.3053C233.656 68.3053 243.041 68.7571 242.937 79.6753C242.887 84.9122 237.955 87.6792 237.955 87.723C238.027 89.4548 240.637 90.8468 239.182 93.6906C237.303 97.3697 234.201 95.9936 233.594 97.0044C233.34 97.4209 235.381 101.291 230.389 102.607C230.104 102.681 231.968 95.3822 226.71 93.7234C222.384 92.3619 217.189 89.6302 215.906 85.286C215.398 83.5555 215.96 79.6838 213.962 78.7887C213.197 78.4441 212.073 80.4073 211.382 80.5765C205.178 82.0904 202.998 81.1575 197.575 78.0738C196.467 77.443 195.607 75.6588 194.39 75.4079C192.179 74.9512 189.539 79.6096 187.173 80.0492C185.169 80.4219 180.837 78.1274 180.119 78.5244C178.983 79.1553 178.897 81.2037 177.742 81.8443C176.711 82.4155 173.764 81.4291 173.813 81.4485" fill="#23272A"/>
<path fill-rule="evenodd" clip-rule="evenodd" d="M220.953 49.6137C223.299 49.6335 225.588 50.3419 227.542 51.6526C229.148 52.5576 230.6 53.7162 231.843 55.0845C234.76 58.3298 235.164 63.2497 234.587 67.5749C236.153 67.8168 237.646 68.4109 238.954 69.3132C240.263 70.2156 241.354 71.4032 242.147 72.7885C243.222 74.8598 243.752 77.1755 243.687 79.5133C243.627 81.2298 243.152 82.9056 242.305 84.3944C241.457 85.8833 240.261 87.14 238.823 88.0551V88.0551C239.297 89.5505 241.894 91.3651 239.134 95.1845C238.402 96.1327 237.367 96.7952 236.206 97.0589C235.12 97.3099 234.623 97.2648 234.411 97.3623C234.727 98.4958 234.653 99.7042 234.2 100.789C233.85 101.429 233.365 101.983 232.78 102.413C232.195 102.843 231.524 103.138 230.814 103.278C230.661 103.353 230.489 103.378 230.321 103.351C230.153 103.323 229.998 103.243 229.877 103.123C229.482 102.653 229.684 102.378 229.745 100.995C229.89 98.8528 229.538 96.1436 227.74 94.9834C226.714 94.2461 219.45 92.652 216.33 87.542C215.9 86.8447 215.575 86.087 215.364 85.2935C214.991 83.9335 215.262 80.6856 214.255 79.6363C214.158 79.5312 214.044 79.443 213.918 79.3755C213.639 79.3877 212.753 80.604 212.013 81.0391C211.215 81.2839 210.4 81.4664 209.574 81.585C205.341 82.2468 203.499 81.6813 199.729 79.7143C197.021 78.1995 197.274 78.4116 196.11 77.1197C195.628 76.5713 195.004 75.8279 194.341 75.8438C192.468 75.873 189.887 80.2164 187.373 80.4748C185.335 80.643 181.678 78.8015 180.738 78.8235C180.655 78.8235 180.548 78.9258 180.482 78.9782C179.601 79.9215 179.503 81.2852 178.519 81.9921C177.637 82.6014 176.31 82.2468 175.261 82.0299C175.297 82.0898 175.318 82.1569 175.324 82.2262C175.331 82.2956 175.322 82.3655 175.298 82.4308C175.266 82.5527 175.298 82.5173 174.842 82.6965C174.685 82.2919 174.943 82.4296 173.515 82.5941C173.287 82.6441 173.052 82.6465 172.824 82.6012C172.596 82.556 172.379 82.464 172.188 82.3309C171.375 81.8696 170.663 81.2471 170.095 80.5009C169.527 79.7548 169.113 78.9002 168.88 77.9887C168.295 76.5941 168.232 75.0321 168.703 73.594C169.115 72.4067 169.703 71.2898 170.448 70.2816C169.451 69.3197 168.658 68.1617 168.12 66.879C167.345 64.9205 167.284 62.7471 167.95 60.7477C168.319 59.6425 168.858 58.6029 169.547 57.6669C170.363 56.3143 171.646 55.3156 173.149 54.8639C174.82 54.6055 176.515 54.5543 178.198 54.7115C178.576 53.9962 178.88 52.7616 179.295 52.0219C180.113 50.8767 181.154 49.9135 182.355 49.1919C183.556 48.4703 184.891 48.0058 186.278 47.8271C189.478 47.4834 191.152 49.3554 193.877 51.081C194.659 50.2064 195.519 49.406 196.446 48.6899C199.614 46.8783 203.338 46.3281 206.886 47.1471C209.884 48.2244 212.216 51.0823 213.025 51.6234C215.479 50.3448 218.193 49.6569 220.953 49.6137V49.6137ZM214.042 78.0557C214.476 78.1744 214.873 78.4013 215.197 78.7157C215.521 79.03 215.762 79.4216 215.896 79.8545C216.571 81.3803 216.324 84.0992 216.862 85.4605C218.232 88.9289 221.876 91.0239 225.306 92.379C227.153 93.0871 228.02 93.1444 229.178 94.1998C231.125 95.9888 231.429 98.8187 231.247 101.484C231.647 101.314 232.014 101.075 232.333 100.777C232.646 100.458 232.873 100.062 232.99 99.6274C233.108 99.1933 233.112 98.7358 233.003 98.2995C232.863 97.2746 232.611 96.8651 233.185 96.2813C234.243 95.3624 235.943 96.0595 237.45 94.7055C238.16 94.0517 238.64 93.182 238.818 92.2279C238.914 90.4364 237.129 89.2897 237.176 87.6164C237.185 87.504 237.218 87.3949 237.274 87.2971C237.26 86.9619 239.195 86.3124 240.865 83.719C241.565 82.6401 241.986 81.4018 242.092 80.1165C242.251 75.2125 240.536 71.22 235.964 69.5736C233.781 68.7875 233.445 69.342 232.991 68.6303C232.696 67.9405 233.366 67.1788 233.204 63.24C233.154 61.7756 232.879 60.3279 232.388 58.9489C232.239 58.5642 232.066 58.1893 231.871 57.8265C231.458 57.4841 231.2 55.4245 225.554 52.3217C224.266 51.6317 222.841 51.2412 221.384 51.1785C218.56 51.1795 215.778 51.868 213.274 53.1857C211.977 53.5257 210.673 50.9238 207.669 49.164C206.484 48.4294 205.094 48.1043 203.71 48.2378C201.728 48.2454 199.769 48.6713 197.958 49.4882C196.781 50.177 195.732 51.0668 194.856 52.1181C194.428 52.5812 194.464 52.5691 194.225 52.6714C193.855 52.7592 193.8 52.7104 193.033 52.2193C190.637 50.6569 189.052 48.8862 186.379 49.1726C185.192 49.3211 184.047 49.7096 183.012 50.3149C181.978 50.9202 181.074 51.73 180.356 52.6958V52.6958C180.002 53.2406 179.529 55.3611 178.82 55.8169C178.046 56.2495 174.678 55.238 172.511 56.3251C170.85 57.4825 169.601 59.1488 168.949 61.078V61.078C168.447 62.4717 168.356 63.9828 168.688 65.4275C169.064 66.9828 169.861 68.4015 170.99 69.5248C171.4 69.9416 171.447 69.9306 171.472 70.1634C171.487 70.4937 171.275 70.5826 170.583 71.6551C169.579 72.9992 169.11 74.6744 169.267 76.3507C169.492 77.5913 169.932 78.7823 170.565 79.8691C171.126 80.7146 171.892 81.4016 172.788 81.8653C173.339 81.9401 173.898 81.9133 174.439 81.7861L174.177 81.7045L174.229 81.7142L174.254 81.6362L174.109 81.6764C174.07 81.6541 174.036 81.6233 174.009 81.5863C173.983 81.5493 173.964 81.5069 173.956 81.462C173.947 81.4172 173.948 81.3709 173.959 81.3265C173.969 81.2821 173.99 81.2406 174.018 81.2048C174.214 81.0013 174.252 81.0829 175.029 81.2865C175.976 81.6073 176.987 81.6831 177.971 81.507C179.078 80.9172 179.262 78.0947 180.757 78.0447C181.911 78.0447 184.503 79.3414 186.565 79.5791C187.021 79.641 187.486 79.5906 187.919 79.432C188.352 79.2735 188.741 79.0117 189.052 78.6687C191.986 76.2228 193.769 73.0834 196.505 75.9876C197.314 77.0741 198.405 77.9138 199.657 78.414C204.12 80.7941 206.059 81.2365 211.409 79.9203C212.445 79.0136 213.071 77.996 214.042 78.0557V78.0557ZM174.704 82.3138L174.714 82.3455V82.354L174.697 82.3065L174.704 82.3138ZM211.408 79.9227H211.416H211.408Z" fill="#23272A"/>
<path fill-rule="evenodd" clip-rule="evenodd" d="M187.689 117.205V117.218V117.19V117.203L187.681 117.175L187.689 117.186L187.676 117.159L187.684 117.17L187.671 117.143L187.679 117.154L187.667 117.129L187.675 117.14L187.663 117.114L187.67 117.125L187.654 117.101L187.667 117.112L187.65 117.089L187.662 117.099L187.646 117.078L187.654 117.088L187.637 117.069L187.649 117.077L187.634 117.06L187.646 117.069L187.629 117.052L187.641 117.06L187.626 117.046L187.637 117.053L187.621 117.038L187.636 117.046L187.617 117.034L187.633 117.041L187.616 117.03H187.633L187.616 117.02H187.633L187.616 117.012H187.633L187.616 117.005H187.632L187.62 116.996H187.64L187.628 116.99H187.65H187.635H187.662H187.65H187.677H187.665H187.697H187.689C188.172 116.923 188.639 116.765 189.067 116.524L189.089 116.511L189.067 116.52L189.096 116.495L189.071 116.508L189.085 116.491L189.047 116.511L189.066 116.495L189.025 116.522L189.039 116.506L189.01 116.527C189.181 116.331 189.323 116.11 189.433 115.872V115.85C189.675 115.34 189.823 114.787 189.87 114.221V114.205C189.963 113.615 189.885 113.01 189.646 112.465C189.407 111.92 189.018 111.461 188.526 111.144C187.942 110.782 187.376 110.844 187.572 110.808H187.552L187.582 110.799C187.04 110.89 186.521 111.092 186.056 111.393V111.383L186.033 111.406V111.397L186.011 111.418L186.018 111.406L185.996 111.428L186.004 111.415L185.996 111.424L185.986 111.435L185.993 111.421L185.977 111.439L185.984 111.424L185.97 111.441V111.424L185.963 111.441V111.423L185.956 111.44L185.963 111.422L185.953 111.439L185.96 111.419L185.953 111.436V111.416L185.946 111.433V111.411V111.428V111.406L185.939 111.423V111.4V111.417V111.4V111.417V111.393V111.41V111.386V111.403V111.377V111.395V111.37V111.387V111.362V111.378V111.353V111.37V111.346V111.363L185.931 111.337V111.356L185.921 111.331V111.348L185.913 111.325V111.341L185.9 111.319V111.336L185.892 111.314V111.327L185.88 111.305L185.889 111.323L185.726 112.047L185.025 111.878C184.949 111.774 184.894 111.655 184.866 111.528C184.838 111.401 184.836 111.269 184.862 111.141C185.05 110.502 185.427 109.941 185.94 109.536C186.424 109.075 187.032 108.776 187.684 108.678C188.335 108.58 189 108.687 189.592 108.986C193.178 110.593 193.18 116.253 190.369 118.035C189.868 118.299 189.316 118.441 188.754 118.45C188.192 118.46 187.636 118.337 187.127 118.091V118.091C186.977 118.013 186.852 117.892 186.769 117.741C186.686 117.591 186.648 117.419 186.66 117.246L187.168 116.734L187.662 117.265V117.281V117.254V117.268V117.227V117.241V117.212V117.225L187.689 117.205Z" fill="#23272A"/>
<path fill-rule="evenodd" clip-rule="evenodd" d="M164.675 84.1974C164.892 84.3095 169.812 79.4383 169.812 79.4383C173.137 79.0153 209.684 76.5772 217.476 81.516C220.223 83.2574 219.708 97.6867 218.928 101.981C218.447 104.622 212.79 107.283 212.79 107.283C212.79 107.283 193.46 111.184 163.972 105.77C163.125 105.612 164.675 84.1974 164.675 84.1974Z" fill="white"/>
<path fill-rule="evenodd" clip-rule="evenodd" d="M216.644 80.2305C217.216 80.4315 217.734 80.7614 218.157 81.1948C218.581 81.6282 218.899 82.1532 219.086 82.7291C220.881 87.2493 220.342 99.3436 219.673 102.515C219.546 103.128 219.287 103.705 218.913 104.208C217.441 105.956 215.614 107.372 213.552 108.362C212.988 108.716 212.343 108.923 211.678 108.963C201.006 110.712 184.131 110.813 165.976 107.336C163.568 106.878 163.066 107.09 162.983 105.108C162.868 102.381 163.314 96.345 163.521 93.6648C164.32 83.3781 164.226 84.2975 164.628 84.0187C166.06 82.7921 167.409 81.4711 168.664 80.0646C169.71 78.9937 169.287 79.1476 170.976 78.9661C180.139 77.9926 208.311 76.1826 216.644 80.2305ZM188.41 79.817C186.625 79.817 170.498 80.0718 170.141 80.4324C169.408 81.1294 166.177 84.2182 165.313 84.83C165.034 90.9029 164.607 99.5407 164.843 105.192C178.393 107.527 198.569 108.677 211.935 106.287C213.688 105.468 215.277 104.338 216.623 102.95C216.843 102.71 217.01 102.427 217.114 102.119C217.798 99.197 218.325 85.1845 216.343 82.919L216.314 82.8914C215.768 82.5422 215.178 82.2688 214.559 82.0789C208.265 79.9576 195.244 79.817 188.41 79.817ZM164.906 105.597L164.898 105.573V105.581V105.588V105.569L164.906 105.597ZM164.893 105.568L164.903 105.587V105.569L164.893 105.568ZM164.652 84.0079C164.764 83.9739 164.884 83.9785 164.993 84.0211C164.884 83.978 164.764 83.9734 164.652 84.0079V84.0079ZM164.618 84.0211H164.625H164.618Z" fill="#23272A"/>
<path fill-rule="evenodd" clip-rule="evenodd" d="M164.749 84.5C164.749 84.5 161.25 104.357 164.05 105.858C173.102 110.697 212.141 110.125 212.709 106.84C213.69 101.14 214.111 86.3804 211.97 86.6752C205.714 87.5128 170.601 87.1512 164.749 84.5Z" fill="white"/>
<path fill-rule="evenodd" clip-rule="evenodd" d="M164.371 84.1775C164.385 84.0994 164.416 84.0254 164.463 83.9612C164.51 83.8971 164.57 83.8444 164.64 83.8071C164.71 83.7698 164.788 83.7488 164.867 83.7459C164.946 83.7429 165.025 83.7579 165.097 83.7898C170.532 85.986 196.259 85.7612 202.168 85.6615C205.572 85.7083 208.975 85.5516 212.361 85.1924C213.885 85.3066 214.31 86.9826 214.599 88.3803C215.245 94.4566 215.151 100.589 214.319 106.643C214.326 107.042 214.229 107.435 214.038 107.785C213.846 108.135 213.568 108.428 213.229 108.637C208.716 111.659 178.095 111.869 166.369 108.011C165.226 107.693 164.151 107.165 163.199 106.453C160.677 103.548 163.694 88.2904 164.366 84.1763C164.493 84.1994 164.681 84.231 164.371 84.1775ZM195.779 108.313C198.775 108.247 209.038 107.884 211.699 106.504C212.098 103.562 212.335 100.6 212.408 97.6318C212.555 94.5785 212.42 91.5181 212.004 88.4897C211.959 88.2568 211.899 88.027 211.824 87.8018C204.996 88.4861 189.787 87.8784 182.128 87.3497C178.535 87.0957 168.696 86.3105 165.31 85.0052C164.705 89.304 163.68 98.1314 164.045 102.41C164.033 103.347 164.234 104.275 164.631 105.123V105.133L164.623 105.121L164.631 105.133H164.64L164.648 105.143C170.558 108.192 188.677 108.461 195.779 108.313ZM164.677 105.176L164.665 105.162H164.673L164.661 105.15H164.67L164.654 105.138H164.661L164.644 105.125H164.653L164.637 105.115L164.649 105.128L164.641 105.115L164.658 105.133L164.646 105.12L164.661 105.134L164.646 105.122L164.677 105.176ZM164.661 105.162L164.653 105.154L164.661 105.162ZM164.653 105.154H164.665L164.653 105.147V105.154Z" fill="#23272A"/>
<path fill-rule="evenodd" clip-rule="evenodd" d="M213.527 91.1284C215.049 91.8701 240.928 76.5996 242.298 75.5867C244.045 74.2978 244.18 82.2618 242.534 84.2828C240.046 87.3336 214.301 101.188 213.568 99.4369C213.478 99.2185 213.527 91.1284 213.527 91.1284Z" fill="white"/>
<path fill-rule="evenodd" clip-rule="evenodd" d="M213.765 90.4962H213.777L213.749 90.4878H213.761L213.738 90.4805H213.749H213.726H213.738L213.717 90.4745H213.729H213.71H213.721H213.705C214.075 90.3813 214.435 90.2515 214.78 90.0869C218.381 88.5171 239.015 75.6279 240.139 74.9082C241.198 74.2271 240.938 74.3756 241.159 74.2271C241.395 74.0753 241.662 73.9801 241.94 73.9488C242.219 73.9176 242.5 73.9512 242.763 74.047C243.027 74.1428 243.264 74.2982 243.458 74.5012C243.651 74.7042 243.796 74.9492 243.88 75.2173C244.807 77.0805 244.593 82.5277 243.26 84.5805C240.974 88.0377 218.811 99.9065 214.241 100.328C213.897 100.377 213.546 100.311 213.243 100.138C212.6 99.7025 212.746 99.2931 212.853 95.848C212.861 95.6633 213.019 91.4369 213.051 90.9756C213.05 90.8884 213.072 90.8025 213.113 90.7259C213.155 90.6493 213.215 90.5846 213.289 90.5379C213.362 90.4912 213.446 90.4639 213.533 90.4587C213.62 90.4536 213.706 90.4706 213.785 90.5083V90.5083H213.797L213.765 90.4962ZM214.419 99.217V99.1929V99.2074V99.1808V99.1929V99.1591V99.217ZM222.032 88.0244C219.481 89.3929 216.825 90.5554 214.09 91.5009C214.134 92.8437 214.258 96.5206 214.363 98.571C215.104 98.345 215.828 98.0666 216.529 97.7378C219.788 96.2755 239.896 85.4403 241.17 82.9854C241.616 81.7879 241.848 80.5205 241.853 79.242C241.883 78.4634 241.838 77.6837 241.717 76.9139C236.035 80.5003 227.516 85.2604 222.032 88.0244V88.0244Z" fill="#23272A"/>
<path fill-rule="evenodd" clip-rule="evenodd" d="M206.723 91.9125V91.9209L206.584 92.3092L206.159 92.519C200.521 93.1953 194.837 93.5396 189.146 93.5494C185.404 93.584 174.152 93.4224 170.682 92.3585L169.797 91.6387L169.754 90.5894V90.5821L170.583 89.8182C172.403 89.7616 171.236 89.7248 172.975 90.0627C177.523 90.8727 186.888 91.3029 191.513 91.4687C205.438 91.9503 205.057 91.1781 206.483 91.5579L206.723 91.9125Z" fill="#23272A"/>
<path fill-rule="evenodd" clip-rule="evenodd" d="M162.21 149.373C151.525 163.501 143.991 179.692 140.101 196.886C138.795 202.608 139.468 201.465 138.529 202.196L138.067 201.61C139.445 181.86 147.678 163.176 161.387 148.695L162.142 148.63L162.21 149.373Z" fill="#23272A"/>
</svg>
